<?xml version="1.0" encoding="utf-8" standalone="no"?>
<!DOCTYPE svg PUBLIC "-//W3C//DTD SVG 1.1//EN"
  "http://www.w3.org/Graphics/SVG/1.1/DTD/svg11.dtd">
<svg xmlns:xlink="http://www.w3.org/1999/xlink" width="864pt" height="288pt" viewBox="0 0 864 288" xmlns="http://www.w3.org/2000/svg" version="1.1">
 <metadata>
  <rdf:RDF xmlns:dc="http://purl.org/dc/elements/1.1/" xmlns:cc="http://creativecommons.org/ns#" xmlns:rdf="http://www.w3.org/1999/02/22-rdf-syntax-ns#">
   <cc:Work>
    <dc:type rdf:resource="http://purl.org/dc/dcmitype/StillImage"/>
    <dc:date>2024-01-05T15:21:44.933488</dc:date>
    <dc:format>image/svg+xml</dc:format>
    <dc:creator>
     <cc:Agent>
      <dc:title>Matplotlib v3.7.1, https://matplotlib.org/</dc:title>
     </cc:Agent>
    </dc:creator>
   </cc:Work>
  </rdf:RDF>
 </metadata>
 <defs>
  <style type="text/css">*{stroke-linejoin: round; stroke-linecap: butt}</style>
 </defs>
 <g id="figure_1">
  <g id="patch_1">
   <path d="M 0 288 
L 864 288 
L 864 0 
L 0 0 
z
" style="fill: #ffffff"/>
  </g>
  <g id="axes_1">
   <g id="patch_2">
    <path d="M 53.03 245.93875 
L 416.955682 245.93875 
L 416.955682 25.44 
L 53.03 25.44 
z
" style="fill: #ffffff"/>
   </g>
   <g id="PathCollection_1">
    <path d="M 72.174964 217.141898 
L 74.674964 214.641898 
L 77.174964 217.141898 
L 79.674964 214.641898 
L 77.174964 212.141898 
L 79.674964 209.641898 
L 77.174964 207.141898 
L 74.674964 209.641898 
L 72.174964 207.141898 
L 69.674964 209.641898 
L 72.174964 212.141898 
L 69.674964 214.641898 
z
" clip-path="url(#p642354eed4)" style="fill: #808080; stroke: #000000; stroke-width: 0.5"/>
    <path d="M 131.800062 205.363284 
L 134.300062 202.863284 
L 136.800062 205.363284 
L 139.300062 202.863284 
L 136.800062 200.363284 
L 139.300062 197.863284 
L 136.800062 195.363284 
L 134.300062 197.863284 
L 131.800062 195.363284 
L 129.300062 197.863284 
L 131.800062 200.363284 
L 129.300062 202.863284 
z
" clip-path="url(#p642354eed4)" style="fill: #808080; stroke: #000000; stroke-width: 0.5"/>
    <path d="M 133.446102 216.092572 
L 135.946102 213.592572 
L 138.446102 216.092572 
L 140.946102 213.592572 
L 138.446102 211.092572 
L 140.946102 208.592572 
L 138.446102 206.092572 
L 135.946102 208.592572 
L 133.446102 206.092572 
L 130.946102 208.592572 
L 133.446102 211.092572 
L 130.946102 213.592572 
z
" clip-path="url(#p642354eed4)" style="fill: #808080; stroke: #000000; stroke-width: 0.5"/>
    <path d="M 163.781291 123.885477 
C 164.444299 123.885477 165.080241 123.622061 165.549058 123.153244 
C 166.017875 122.684427 166.281291 122.048485 166.281291 121.385477 
C 166.281291 120.722469 166.017875 120.086527 165.549058 119.61771 
C 165.080241 119.148893 164.444299 118.885477 163.781291 118.885477 
C 163.118283 118.885477 162.482341 119.148893 162.013524 119.61771 
C 161.544707 120.086527 161.281291 120.722469 161.281291 121.385477 
C 161.281291 122.048485 161.544707 122.684427 162.013524 123.153244 
C 162.482341 123.622061 163.118283 123.885477 163.781291 123.885477 
z
" clip-path="url(#p642354eed4)" style="fill: #808080; stroke: #000000; stroke-width: 0.5"/>
    <path d="M 166.846805 165.104122 
C 167.509812 165.104122 168.145754 164.840706 168.614572 164.371889 
C 169.083389 163.903072 169.346805 163.26713 169.346805 162.604122 
C 169.346805 161.941115 169.083389 161.305173 168.614572 160.836355 
C 168.145754 160.367538 167.509812 160.104122 166.846805 160.104122 
C 166.183797 160.104122 165.547855 160.367538 165.079038 160.836355 
C 164.61022 161.305173 164.346805 161.941115 164.346805 162.604122 
C 164.346805 163.26713 164.61022 163.903072 165.079038 164.371889 
C 165.547855 164.840706 166.183797 165.104122 166.846805 165.104122 
z
" clip-path="url(#p642354eed4)" style="fill: #808080; stroke: #000000; stroke-width: 0.5"/>
    <path d="M 170.697503 156.234362 
C 171.360511 156.234362 171.996452 155.970947 172.46527 155.502129 
C 172.934087 155.033312 173.197503 154.39737 173.197503 153.734362 
C 173.197503 153.071355 172.934087 152.435413 172.46527 151.966595 
C 171.996452 151.497778 171.360511 151.234362 170.697503 151.234362 
C 170.034495 151.234362 169.398553 151.497778 168.929736 151.966595 
C 168.460919 152.435413 168.197503 153.071355 168.197503 153.734362 
C 168.197503 154.39737 168.460919 155.033312 168.929736 155.502129 
C 169.398553 155.970947 170.034495 156.234362 170.697503 156.234362 
z
" clip-path="url(#p642354eed4)" style="fill: #808080; stroke: #000000; stroke-width: 0.5"/>
    <path d="M 173.928887 152.126646 
C 174.591895 152.126646 175.227837 151.863231 175.696654 151.394413 
C 176.165471 150.925596 176.428887 150.289654 176.428887 149.626646 
C 176.428887 148.963639 176.165471 148.327697 175.696654 147.85888 
C 175.227837 147.390062 174.591895 147.126646 173.928887 147.126646 
C 173.26588 147.126646 172.629938 147.390062 172.16112 147.85888 
C 171.692303 148.327697 171.428887 148.963639 171.428887 149.626646 
C 171.428887 150.289654 171.692303 150.925596 172.16112 151.394413 
C 172.629938 151.863231 173.26588 152.126646 173.928887 152.126646 
z
" clip-path="url(#p642354eed4)" style="fill: #808080; stroke: #000000; stroke-width: 0.5"/>
    <path d="M 189.149419 168.600167 
C 189.812426 168.600167 190.448368 168.336751 190.917186 167.867934 
C 191.386003 167.399117 191.649419 166.763175 191.649419 166.100167 
C 191.649419 165.437159 191.386003 164.801217 190.917186 164.3324 
C 190.448368 163.863583 189.812426 163.600167 189.149419 163.600167 
C 188.486411 163.600167 187.850469 163.863583 187.381652 164.3324 
C 186.912834 164.801217 186.649419 165.437159 186.649419 166.100167 
C 186.649419 166.763175 186.912834 167.399117 187.381652 167.867934 
C 187.850469 168.336751 188.486411 168.600167 189.149419 168.600167 
z
" clip-path="url(#p642354eed4)" style="fill: #808080; stroke: #000000; stroke-width: 0.5"/>
    <path d="M 195.530572 146.287546 
C 196.19358 146.287546 196.829522 146.02413 197.298339 145.555313 
C 197.767156 145.086496 198.030572 144.450554 198.030572 143.787546 
C 198.030572 143.124538 197.767156 142.488596 197.298339 142.019779 
C 196.829522 141.550962 196.19358 141.287546 195.530572 141.287546 
C 194.867564 141.287546 194.231623 141.550962 193.762805 142.019779 
C 193.293988 142.488596 193.030572 143.124538 193.030572 143.787546 
C 193.030572 144.450554 193.293988 145.086496 193.762805 145.555313 
C 194.231623 146.02413 194.867564 146.287546 195.530572 146.287546 
z
" clip-path="url(#p642354eed4)" style="fill: #808080; stroke: #000000; stroke-width: 0.5"/>
    <path d="M 208.593242 153.036299 
C 209.256249 153.036299 209.892191 152.772883 210.361009 152.304066 
C 210.829826 151.835249 211.093242 151.199307 211.093242 150.536299 
C 211.093242 149.873291 210.829826 149.237349 210.361009 148.768532 
C 209.892191 148.299715 209.256249 148.036299 208.593242 148.036299 
C 207.930234 148.036299 207.294292 148.299715 206.825475 148.768532 
C 206.356657 149.237349 206.093242 149.873291 206.093242 150.536299 
C 206.093242 151.199307 206.356657 151.835249 206.825475 152.304066 
C 207.294292 152.772883 207.930234 153.036299 208.593242 153.036299 
z
" clip-path="url(#p642354eed4)" style="fill: #808080; stroke: #000000; stroke-width: 0.5"/>
    <path d="M 220.895081 158.43487 
C 221.558088 158.43487 222.19403 158.171454 222.662848 157.702637 
C 223.131665 157.233819 223.395081 156.597877 223.395081 155.93487 
C 223.395081 155.271862 223.131665 154.63592 222.662848 154.167103 
C 222.19403 153.698285 221.558088 153.43487 220.895081 153.43487 
C 220.232073 153.43487 219.596131 153.698285 219.127314 154.167103 
C 218.658496 154.63592 218.395081 155.271862 218.395081 155.93487 
C 218.395081 156.597877 218.658496 157.233819 219.127314 157.702637 
C 219.596131 158.171454 220.232073 158.43487 220.895081 158.43487 
z
" clip-path="url(#p642354eed4)" style="fill: #808080; stroke: #000000; stroke-width: 0.5"/>
    <path d="M 225.955506 153.705211 
C 226.618513 153.705211 227.254455 153.441795 227.723273 152.972978 
C 228.19209 152.504161 228.455506 151.868219 228.455506 151.205211 
C 228.455506 150.542203 228.19209 149.906262 227.723273 149.437444 
C 227.254455 148.968627 226.618513 148.705211 225.955506 148.705211 
C 225.292498 148.705211 224.656556 148.968627 224.187739 149.437444 
C 223.718921 149.906262 223.455506 150.542203 223.455506 151.205211 
C 223.455506 151.868219 223.718921 152.504161 224.187739 152.972978 
C 224.656556 153.441795 225.292498 153.705211 225.955506 153.705211 
z
" clip-path="url(#p642354eed4)" style="fill: #808080; stroke: #000000; stroke-width: 0.5"/>
    <path d="M 231.766618 140.537677 
C 232.429626 140.537677 233.065568 140.274261 233.534385 139.805444 
C 234.003203 139.336626 234.266618 138.700684 234.266618 138.037677 
C 234.266618 137.374669 234.003203 136.738727 233.534385 136.26991 
C 233.065568 135.801092 232.429626 135.537677 231.766618 135.537677 
C 231.103611 135.537677 230.467669 135.801092 229.998851 136.26991 
C 229.530034 136.738727 229.266618 137.374669 229.266618 138.037677 
C 229.266618 138.700684 229.530034 139.336626 229.998851 139.805444 
C 230.467669 140.274261 231.103611 140.537677 231.766618 140.537677 
z
" clip-path="url(#p642354eed4)" style="fill: #808080; stroke: #000000; stroke-width: 0.5"/>
    <path d="M 232.082489 136.586402 
C 232.745497 136.586402 233.381439 136.322987 233.850256 135.854169 
C 234.319073 135.385352 234.582489 134.74941 234.582489 134.086402 
C 234.582489 133.423395 234.319073 132.787453 233.850256 132.318635 
C 233.381439 131.849818 232.745497 131.586402 232.082489 131.586402 
C 231.419481 131.586402 230.78354 131.849818 230.314722 132.318635 
C 229.845905 132.787453 229.582489 133.423395 229.582489 134.086402 
C 229.582489 134.74941 229.845905 135.385352 230.314722 135.854169 
C 230.78354 136.322987 231.419481 136.586402 232.082489 136.586402 
z
" clip-path="url(#p642354eed4)" style="fill: #808080; stroke: #000000; stroke-width: 0.5"/>
    <path d="M 239.421966 150.220062 
C 240.084973 150.220062 240.720915 149.956646 241.189733 149.487828 
C 241.65855 149.019011 241.921966 148.383069 241.921966 147.720062 
C 241.921966 147.057054 241.65855 146.421112 241.189733 145.952295 
C 240.720915 145.483477 240.084973 145.220062 239.421966 145.220062 
C 238.758958 145.220062 238.123016 145.483477 237.654199 145.952295 
C 237.185381 146.421112 236.921966 147.057054 236.921966 147.720062 
C 236.921966 148.383069 237.185381 149.019011 237.654199 149.487828 
C 238.123016 149.956646 238.758958 150.220062 239.421966 150.220062 
z
" clip-path="url(#p642354eed4)" style="fill: #808080; stroke: #000000; stroke-width: 0.5"/>
    <path d="M 239.949233 132.056286 
C 240.612241 132.056286 241.248183 131.79287 241.717 131.324053 
C 242.185817 130.855236 242.449233 130.219294 242.449233 129.556286 
C 242.449233 128.893278 242.185817 128.257336 241.717 127.788519 
C 241.248183 127.319702 240.612241 127.056286 239.949233 127.056286 
C 239.286225 127.056286 238.650283 127.319702 238.181466 127.788519 
C 237.712649 128.257336 237.449233 128.893278 237.449233 129.556286 
C 237.449233 130.219294 237.712649 130.855236 238.181466 131.324053 
C 238.650283 131.79287 239.286225 132.056286 239.949233 132.056286 
z
" clip-path="url(#p642354eed4)" style="fill: #808080; stroke: #000000; stroke-width: 0.5"/>
    <path d="M 242.237701 146.222668 
C 242.900709 146.222668 243.536651 145.959252 244.005468 145.490435 
C 244.474285 145.021617 244.737701 144.385675 244.737701 143.722668 
C 244.737701 143.05966 244.474285 142.423718 244.005468 141.954901 
C 243.536651 141.486083 242.900709 141.222668 242.237701 141.222668 
C 241.574693 141.222668 240.938751 141.486083 240.469934 141.954901 
C 240.001117 142.423718 239.737701 143.05966 239.737701 143.722668 
C 239.737701 144.385675 240.001117 145.021617 240.469934 145.490435 
C 240.938751 145.959252 241.574693 146.222668 242.237701 146.222668 
z
" clip-path="url(#p642354eed4)" style="fill: #808080; stroke: #000000; stroke-width: 0.5"/>
    <path d="M 250.895405 122.921026 
C 251.558413 122.921026 252.194355 122.65761 252.663172 122.188793 
C 253.13199 121.719976 253.395405 121.084034 253.395405 120.421026 
C 253.395405 119.758018 253.13199 119.122076 252.663172 118.653259 
C 252.194355 118.184442 251.558413 117.921026 250.895405 117.921026 
C 250.232398 117.921026 249.596456 118.184442 249.127639 118.653259 
C 248.658821 119.122076 248.395405 119.758018 248.395405 120.421026 
C 248.395405 121.084034 248.658821 121.719976 249.127639 122.188793 
C 249.596456 122.65761 250.232398 122.921026 250.895405 122.921026 
z
" clip-path="url(#p642354eed4)" style="fill: #808080; stroke: #000000; stroke-width: 0.5"/>
    <path d="M 251.329687 129.173459 
C 251.992695 129.173459 252.628637 128.910043 253.097454 128.441226 
C 253.566271 127.972409 253.829687 127.336467 253.829687 126.673459 
C 253.829687 126.010451 253.566271 125.37451 253.097454 124.905692 
C 252.628637 124.436875 251.992695 124.173459 251.329687 124.173459 
C 250.666679 124.173459 250.030737 124.436875 249.56192 124.905692 
C 249.093103 125.37451 248.829687 126.010451 248.829687 126.673459 
C 248.829687 127.336467 249.093103 127.972409 249.56192 128.441226 
C 250.030737 128.910043 250.666679 129.173459 251.329687 129.173459 
z
" clip-path="url(#p642354eed4)" style="fill: #808080; stroke: #000000; stroke-width: 0.5"/>
    <path d="M 254.165122 133.746566 
C 254.82813 133.746566 255.464072 133.483151 255.932889 133.014333 
C 256.401706 132.545516 256.665122 131.909574 256.665122 131.246566 
C 256.665122 130.583559 256.401706 129.947617 255.932889 129.478799 
C 255.464072 129.009982 254.82813 128.746566 254.165122 128.746566 
C 253.502114 128.746566 252.866172 129.009982 252.397355 129.478799 
C 251.928538 129.947617 251.665122 130.583559 251.665122 131.246566 
C 251.665122 131.909574 251.928538 132.545516 252.397355 133.014333 
C 252.866172 133.483151 253.502114 133.746566 254.165122 133.746566 
z
" clip-path="url(#p642354eed4)" style="fill: #808080; stroke: #000000; stroke-width: 0.5"/>
    <path d="M 255.309633 140.369205 
C 255.972641 140.369205 256.608583 140.10579 257.0774 139.636972 
C 257.546217 139.168155 257.809633 138.532213 257.809633 137.869205 
C 257.809633 137.206198 257.546217 136.570256 257.0774 136.101439 
C 256.608583 135.632621 255.972641 135.369205 255.309633 135.369205 
C 254.646625 135.369205 254.010683 135.632621 253.541866 136.101439 
C 253.073049 136.570256 252.809633 137.206198 252.809633 137.869205 
C 252.809633 138.532213 253.073049 139.168155 253.541866 139.636972 
C 254.010683 140.10579 254.646625 140.369205 255.309633 140.369205 
z
" clip-path="url(#p642354eed4)" style="fill: #808080; stroke: #000000; stroke-width: 0.5"/>
    <path d="M 294.053934 149.179504 
L 301.125002 142.108436 
L 294.053934 135.037368 
L 286.982866 142.108436 
z
" clip-path="url(#p642354eed4)" style="fill: #808080; stroke: #000000; stroke-width: 0.5"/>
    <path d="M 303.630303 97.559063 
L 310.701371 90.487995 
L 303.630303 83.416927 
L 296.559235 90.487995 
z
" clip-path="url(#p642354eed4)" style="fill: #808080; stroke: #000000; stroke-width: 0.5"/>
    <path d="M 397.230351 88.719702 
L 404.301419 81.648635 
L 397.230351 74.577567 
L 390.159284 81.648635 
z
" clip-path="url(#p642354eed4)" style="fill: #808080; stroke: #000000; stroke-width: 0.5"/>
   </g>
   <g id="PathCollection_2"/>
   <g id="PathCollection_3"/>
   <g id="PathCollection_4"/>
   <g id="PolyCollection_1"/>
   <g id="matplotlib.axis_1">
    <g id="xtick_1">
     <g id="line2d_1">
      <defs>
       <path id="mbfa9923ed7" d="M 0 0 
L 0 3.5 
" style="stroke: #000000; stroke-width: 0.8"/>
      </defs>
      <g>
       <use xlink:href="#mbfa9923ed7" x="69.572076" y="245.93875" style="stroke: #000000; stroke-width: 0.8"/>
      </g>
     </g>
     <g id="text_1">
      <!-- −30 -->
      <g transform="translate(59.019733 260.537188) scale(0.1 -0.1)">
       <defs>
        <path id="DejaVuSans-2212" d="M 678 2272 
L 4684 2272 
L 4684 1741 
L 678 1741 
L 678 2272 
z
" transform="scale(0.015625)"/>
        <path id="DejaVuSans-33" d="M 2597 2516 
Q 3050 2419 3304 2112 
Q 3559 1806 3559 1356 
Q 3559 666 3084 287 
Q 2609 -91 1734 -91 
Q 1441 -91 1130 -33 
Q 819 25 488 141 
L 488 750 
Q 750 597 1062 519 
Q 1375 441 1716 441 
Q 2309 441 2620 675 
Q 2931 909 2931 1356 
Q 2931 1769 2642 2001 
Q 2353 2234 1838 2234 
L 1294 2234 
L 1294 2753 
L 1863 2753 
Q 2328 2753 2575 2939 
Q 2822 3125 2822 3475 
Q 2822 3834 2567 4026 
Q 2313 4219 1838 4219 
Q 1578 4219 1281 4162 
Q 984 4106 628 3988 
L 628 4550 
Q 988 4650 1302 4700 
Q 1616 4750 1894 4750 
Q 2613 4750 3031 4423 
Q 3450 4097 3450 3541 
Q 3450 3153 3228 2886 
Q 3006 2619 2597 2516 
z
" transform="scale(0.015625)"/>
        <path id="DejaVuSans-30" d="M 2034 4250 
Q 1547 4250 1301 3770 
Q 1056 3291 1056 2328 
Q 1056 1369 1301 889 
Q 1547 409 2034 409 
Q 2525 409 2770 889 
Q 3016 1369 3016 2328 
Q 3016 3291 2770 3770 
Q 2525 4250 2034 4250 
z
M 2034 4750 
Q 2819 4750 3233 4129 
Q 3647 3509 3647 2328 
Q 3647 1150 3233 529 
Q 2819 -91 2034 -91 
Q 1250 -91 836 529 
Q 422 1150 422 2328 
Q 422 3509 836 4129 
Q 1250 4750 2034 4750 
z
" transform="scale(0.015625)"/>
       </defs>
       <use xlink:href="#DejaVuSans-2212"/>
       <use xlink:href="#DejaVuSans-33" x="83.789062"/>
       <use xlink:href="#DejaVuSans-30" x="147.412109"/>
      </g>
     </g>
    </g>
    <g id="xtick_2">
     <g id="line2d_2">
      <g>
       <use xlink:href="#mbfa9923ed7" x="116.835152" y="245.93875" style="stroke: #000000; stroke-width: 0.8"/>
      </g>
     </g>
     <g id="text_2">
      <!-- −20 -->
      <g transform="translate(106.282808 260.537188) scale(0.1 -0.1)">
       <defs>
        <path id="DejaVuSans-32" d="M 1228 531 
L 3431 531 
L 3431 0 
L 469 0 
L 469 531 
Q 828 903 1448 1529 
Q 2069 2156 2228 2338 
Q 2531 2678 2651 2914 
Q 2772 3150 2772 3378 
Q 2772 3750 2511 3984 
Q 2250 4219 1831 4219 
Q 1534 4219 1204 4116 
Q 875 4013 500 3803 
L 500 4441 
Q 881 4594 1212 4672 
Q 1544 4750 1819 4750 
Q 2544 4750 2975 4387 
Q 3406 4025 3406 3419 
Q 3406 3131 3298 2873 
Q 3191 2616 2906 2266 
Q 2828 2175 2409 1742 
Q 1991 1309 1228 531 
z
" transform="scale(0.015625)"/>
       </defs>
       <use xlink:href="#DejaVuSans-2212"/>
       <use xlink:href="#DejaVuSans-32" x="83.789062"/>
       <use xlink:href="#DejaVuSans-30" x="147.412109"/>
      </g>
     </g>
    </g>
    <g id="xtick_3">
     <g id="line2d_3">
      <g>
       <use xlink:href="#mbfa9923ed7" x="164.098228" y="245.93875" style="stroke: #000000; stroke-width: 0.8"/>
      </g>
     </g>
     <g id="text_3">
      <!-- −10 -->
      <g transform="translate(153.545884 260.537188) scale(0.1 -0.1)">
       <defs>
        <path id="DejaVuSans-31" d="M 794 531 
L 1825 531 
L 1825 4091 
L 703 3866 
L 703 4441 
L 1819 4666 
L 2450 4666 
L 2450 531 
L 3481 531 
L 3481 0 
L 794 0 
L 794 531 
z
" transform="scale(0.015625)"/>
       </defs>
       <use xlink:href="#DejaVuSans-2212"/>
       <use xlink:href="#DejaVuSans-31" x="83.789062"/>
       <use xlink:href="#DejaVuSans-30" x="147.412109"/>
      </g>
     </g>
    </g>
    <g id="xtick_4">
     <g id="line2d_4">
      <g>
       <use xlink:href="#mbfa9923ed7" x="211.361303" y="245.93875" style="stroke: #000000; stroke-width: 0.8"/>
      </g>
     </g>
     <g id="text_4">
      <!-- 0 -->
      <g transform="translate(208.180053 260.537188) scale(0.1 -0.1)">
       <use xlink:href="#DejaVuSans-30"/>
      </g>
     </g>
    </g>
    <g id="xtick_5">
     <g id="line2d_5">
      <g>
       <use xlink:href="#mbfa9923ed7" x="258.624379" y="245.93875" style="stroke: #000000; stroke-width: 0.8"/>
      </g>
     </g>
     <g id="text_5">
      <!-- 10 -->
      <g transform="translate(252.261879 260.537188) scale(0.1 -0.1)">
       <use xlink:href="#DejaVuSans-31"/>
       <use xlink:href="#DejaVuSans-30" x="63.623047"/>
      </g>
     </g>
    </g>
    <g id="xtick_6">
     <g id="line2d_6">
      <g>
       <use xlink:href="#mbfa9923ed7" x="305.887454" y="245.93875" style="stroke: #000000; stroke-width: 0.8"/>
      </g>
     </g>
     <g id="text_6">
      <!-- 20 -->
      <g transform="translate(299.524954 260.537188) scale(0.1 -0.1)">
       <use xlink:href="#DejaVuSans-32"/>
       <use xlink:href="#DejaVuSans-30" x="63.623047"/>
      </g>
     </g>
    </g>
    <g id="xtick_7">
     <g id="line2d_7">
      <g>
       <use xlink:href="#mbfa9923ed7" x="353.15053" y="245.93875" style="stroke: #000000; stroke-width: 0.8"/>
      </g>
     </g>
     <g id="text_7">
      <!-- 30 -->
      <g transform="translate(346.78803 260.537188) scale(0.1 -0.1)">
       <use xlink:href="#DejaVuSans-33"/>
       <use xlink:href="#DejaVuSans-30" x="63.623047"/>
      </g>
     </g>
    </g>
    <g id="xtick_8">
     <g id="line2d_8">
      <g>
       <use xlink:href="#mbfa9923ed7" x="400.413605" y="245.93875" style="stroke: #000000; stroke-width: 0.8"/>
      </g>
     </g>
     <g id="text_8">
      <!-- 40 -->
      <g transform="translate(394.051105 260.537188) scale(0.1 -0.1)">
       <defs>
        <path id="DejaVuSans-34" d="M 2419 4116 
L 825 1625 
L 2419 1625 
L 2419 4116 
z
M 2253 4666 
L 3047 4666 
L 3047 1625 
L 3713 1625 
L 3713 1100 
L 3047 1100 
L 3047 0 
L 2419 0 
L 2419 1100 
L 313 1100 
L 313 1709 
L 2253 4666 
z
" transform="scale(0.015625)"/>
       </defs>
       <use xlink:href="#DejaVuSans-34"/>
       <use xlink:href="#DejaVuSans-30" x="63.623047"/>
      </g>
     </g>
    </g>
    <g id="text_9">
     <!-- Observed yield variability [%] -->
     <g transform="translate(160.735028 274.215312) scale(0.1 -0.1)">
      <defs>
       <path id="DejaVuSans-4f" d="M 2522 4238 
Q 1834 4238 1429 3725 
Q 1025 3213 1025 2328 
Q 1025 1447 1429 934 
Q 1834 422 2522 422 
Q 3209 422 3611 934 
Q 4013 1447 4013 2328 
Q 4013 3213 3611 3725 
Q 3209 4238 2522 4238 
z
M 2522 4750 
Q 3503 4750 4090 4092 
Q 4678 3434 4678 2328 
Q 4678 1225 4090 567 
Q 3503 -91 2522 -91 
Q 1538 -91 948 565 
Q 359 1222 359 2328 
Q 359 3434 948 4092 
Q 1538 4750 2522 4750 
z
" transform="scale(0.015625)"/>
       <path id="DejaVuSans-62" d="M 3116 1747 
Q 3116 2381 2855 2742 
Q 2594 3103 2138 3103 
Q 1681 3103 1420 2742 
Q 1159 2381 1159 1747 
Q 1159 1113 1420 752 
Q 1681 391 2138 391 
Q 2594 391 2855 752 
Q 3116 1113 3116 1747 
z
M 1159 2969 
Q 1341 3281 1617 3432 
Q 1894 3584 2278 3584 
Q 2916 3584 3314 3078 
Q 3713 2572 3713 1747 
Q 3713 922 3314 415 
Q 2916 -91 2278 -91 
Q 1894 -91 1617 61 
Q 1341 213 1159 525 
L 1159 0 
L 581 0 
L 581 4863 
L 1159 4863 
L 1159 2969 
z
" transform="scale(0.015625)"/>
       <path id="DejaVuSans-73" d="M 2834 3397 
L 2834 2853 
Q 2591 2978 2328 3040 
Q 2066 3103 1784 3103 
Q 1356 3103 1142 2972 
Q 928 2841 928 2578 
Q 928 2378 1081 2264 
Q 1234 2150 1697 2047 
L 1894 2003 
Q 2506 1872 2764 1633 
Q 3022 1394 3022 966 
Q 3022 478 2636 193 
Q 2250 -91 1575 -91 
Q 1294 -91 989 -36 
Q 684 19 347 128 
L 347 722 
Q 666 556 975 473 
Q 1284 391 1588 391 
Q 1994 391 2212 530 
Q 2431 669 2431 922 
Q 2431 1156 2273 1281 
Q 2116 1406 1581 1522 
L 1381 1569 
Q 847 1681 609 1914 
Q 372 2147 372 2553 
Q 372 3047 722 3315 
Q 1072 3584 1716 3584 
Q 2034 3584 2315 3537 
Q 2597 3491 2834 3397 
z
" transform="scale(0.015625)"/>
       <path id="DejaVuSans-65" d="M 3597 1894 
L 3597 1613 
L 953 1613 
Q 991 1019 1311 708 
Q 1631 397 2203 397 
Q 2534 397 2845 478 
Q 3156 559 3463 722 
L 3463 178 
Q 3153 47 2828 -22 
Q 2503 -91 2169 -91 
Q 1331 -91 842 396 
Q 353 884 353 1716 
Q 353 2575 817 3079 
Q 1281 3584 2069 3584 
Q 2775 3584 3186 3129 
Q 3597 2675 3597 1894 
z
M 3022 2063 
Q 3016 2534 2758 2815 
Q 2500 3097 2075 3097 
Q 1594 3097 1305 2825 
Q 1016 2553 972 2059 
L 3022 2063 
z
" transform="scale(0.015625)"/>
       <path id="DejaVuSans-72" d="M 2631 2963 
Q 2534 3019 2420 3045 
Q 2306 3072 2169 3072 
Q 1681 3072 1420 2755 
Q 1159 2438 1159 1844 
L 1159 0 
L 581 0 
L 581 3500 
L 1159 3500 
L 1159 2956 
Q 1341 3275 1631 3429 
Q 1922 3584 2338 3584 
Q 2397 3584 2469 3576 
Q 2541 3569 2628 3553 
L 2631 2963 
z
" transform="scale(0.015625)"/>
       <path id="DejaVuSans-76" d="M 191 3500 
L 800 3500 
L 1894 563 
L 2988 3500 
L 3597 3500 
L 2284 0 
L 1503 0 
L 191 3500 
z
" transform="scale(0.015625)"/>
       <path id="DejaVuSans-64" d="M 2906 2969 
L 2906 4863 
L 3481 4863 
L 3481 0 
L 2906 0 
L 2906 525 
Q 2725 213 2448 61 
Q 2172 -91 1784 -91 
Q 1150 -91 751 415 
Q 353 922 353 1747 
Q 353 2572 751 3078 
Q 1150 3584 1784 3584 
Q 2172 3584 2448 3432 
Q 2725 3281 2906 2969 
z
M 947 1747 
Q 947 1113 1208 752 
Q 1469 391 1925 391 
Q 2381 391 2643 752 
Q 2906 1113 2906 1747 
Q 2906 2381 2643 2742 
Q 2381 3103 1925 3103 
Q 1469 3103 1208 2742 
Q 947 2381 947 1747 
z
" transform="scale(0.015625)"/>
       <path id="DejaVuSans-20" transform="scale(0.015625)"/>
       <path id="DejaVuSans-79" d="M 2059 -325 
Q 1816 -950 1584 -1140 
Q 1353 -1331 966 -1331 
L 506 -1331 
L 506 -850 
L 844 -850 
Q 1081 -850 1212 -737 
Q 1344 -625 1503 -206 
L 1606 56 
L 191 3500 
L 800 3500 
L 1894 763 
L 2988 3500 
L 3597 3500 
L 2059 -325 
z
" transform="scale(0.015625)"/>
       <path id="DejaVuSans-69" d="M 603 3500 
L 1178 3500 
L 1178 0 
L 603 0 
L 603 3500 
z
M 603 4863 
L 1178 4863 
L 1178 4134 
L 603 4134 
L 603 4863 
z
" transform="scale(0.015625)"/>
       <path id="DejaVuSans-6c" d="M 603 4863 
L 1178 4863 
L 1178 0 
L 603 0 
L 603 4863 
z
" transform="scale(0.015625)"/>
       <path id="DejaVuSans-61" d="M 2194 1759 
Q 1497 1759 1228 1600 
Q 959 1441 959 1056 
Q 959 750 1161 570 
Q 1363 391 1709 391 
Q 2188 391 2477 730 
Q 2766 1069 2766 1631 
L 2766 1759 
L 2194 1759 
z
M 3341 1997 
L 3341 0 
L 2766 0 
L 2766 531 
Q 2569 213 2275 61 
Q 1981 -91 1556 -91 
Q 1019 -91 701 211 
Q 384 513 384 1019 
Q 384 1609 779 1909 
Q 1175 2209 1959 2209 
L 2766 2209 
L 2766 2266 
Q 2766 2663 2505 2880 
Q 2244 3097 1772 3097 
Q 1472 3097 1187 3025 
Q 903 2953 641 2809 
L 641 3341 
Q 956 3463 1253 3523 
Q 1550 3584 1831 3584 
Q 2591 3584 2966 3190 
Q 3341 2797 3341 1997 
z
" transform="scale(0.015625)"/>
       <path id="DejaVuSans-74" d="M 1172 4494 
L 1172 3500 
L 2356 3500 
L 2356 3053 
L 1172 3053 
L 1172 1153 
Q 1172 725 1289 603 
Q 1406 481 1766 481 
L 2356 481 
L 2356 0 
L 1766 0 
Q 1100 0 847 248 
Q 594 497 594 1153 
L 594 3053 
L 172 3053 
L 172 3500 
L 594 3500 
L 594 4494 
L 1172 4494 
z
" transform="scale(0.015625)"/>
       <path id="DejaVuSans-5b" d="M 550 4863 
L 1875 4863 
L 1875 4416 
L 1125 4416 
L 1125 -397 
L 1875 -397 
L 1875 -844 
L 550 -844 
L 550 4863 
z
" transform="scale(0.015625)"/>
       <path id="DejaVuSans-25" d="M 4653 2053 
Q 4381 2053 4226 1822 
Q 4072 1591 4072 1178 
Q 4072 772 4226 539 
Q 4381 306 4653 306 
Q 4919 306 5073 539 
Q 5228 772 5228 1178 
Q 5228 1588 5073 1820 
Q 4919 2053 4653 2053 
z
M 4653 2450 
Q 5147 2450 5437 2106 
Q 5728 1763 5728 1178 
Q 5728 594 5436 251 
Q 5144 -91 4653 -91 
Q 4153 -91 3862 251 
Q 3572 594 3572 1178 
Q 3572 1766 3864 2108 
Q 4156 2450 4653 2450 
z
M 1428 4353 
Q 1159 4353 1004 4120 
Q 850 3888 850 3481 
Q 850 3069 1003 2837 
Q 1156 2606 1428 2606 
Q 1700 2606 1854 2837 
Q 2009 3069 2009 3481 
Q 2009 3884 1853 4118 
Q 1697 4353 1428 4353 
z
M 4250 4750 
L 4750 4750 
L 1831 -91 
L 1331 -91 
L 4250 4750 
z
M 1428 4750 
Q 1922 4750 2215 4408 
Q 2509 4066 2509 3481 
Q 2509 2891 2217 2550 
Q 1925 2209 1428 2209 
Q 931 2209 642 2551 
Q 353 2894 353 3481 
Q 353 4063 643 4406 
Q 934 4750 1428 4750 
z
" transform="scale(0.015625)"/>
       <path id="DejaVuSans-5d" d="M 1947 4863 
L 1947 -844 
L 622 -844 
L 622 -397 
L 1369 -397 
L 1369 4416 
L 622 4416 
L 622 4863 
L 1947 4863 
z
" transform="scale(0.015625)"/>
      </defs>
      <use xlink:href="#DejaVuSans-4f"/>
      <use xlink:href="#DejaVuSans-62" x="78.710938"/>
      <use xlink:href="#DejaVuSans-73" x="142.1875"/>
      <use xlink:href="#DejaVuSans-65" x="194.287109"/>
      <use xlink:href="#DejaVuSans-72" x="255.810547"/>
      <use xlink:href="#DejaVuSans-76" x="296.923828"/>
      <use xlink:href="#DejaVuSans-65" x="356.103516"/>
      <use xlink:href="#DejaVuSans-64" x="417.626953"/>
      <use xlink:href="#DejaVuSans-20" x="481.103516"/>
      <use xlink:href="#DejaVuSans-79" x="512.890625"/>
      <use xlink:href="#DejaVuSans-69" x="572.070312"/>
      <use xlink:href="#DejaVuSans-65" x="599.853516"/>
      <use xlink:href="#DejaVuSans-6c" x="661.376953"/>
      <use xlink:href="#DejaVuSans-64" x="689.160156"/>
      <use xlink:href="#DejaVuSans-20" x="752.636719"/>
      <use xlink:href="#DejaVuSans-76" x="784.423828"/>
      <use xlink:href="#DejaVuSans-61" x="843.603516"/>
      <use xlink:href="#DejaVuSans-72" x="904.882812"/>
      <use xlink:href="#DejaVuSans-69" x="945.996094"/>
      <use xlink:href="#DejaVuSans-61" x="973.779297"/>
      <use xlink:href="#DejaVuSans-62" x="1035.058594"/>
      <use xlink:href="#DejaVuSans-69" x="1098.535156"/>
      <use xlink:href="#DejaVuSans-6c" x="1126.318359"/>
      <use xlink:href="#DejaVuSans-69" x="1154.101562"/>
      <use xlink:href="#DejaVuSans-74" x="1181.884766"/>
      <use xlink:href="#DejaVuSans-79" x="1221.09375"/>
      <use xlink:href="#DejaVuSans-20" x="1280.273438"/>
      <use xlink:href="#DejaVuSans-5b" x="1312.060547"/>
      <use xlink:href="#DejaVuSans-25" x="1351.074219"/>
      <use xlink:href="#DejaVuSans-5d" x="1446.09375"/>
     </g>
    </g>
   </g>
   <g id="matplotlib.axis_2">
    <g id="ytick_1">
     <g id="line2d_9">
      <defs>
       <path id="m37063ea828" d="M 0 0 
L -3.5 0 
" style="stroke: #000000; stroke-width: 0.8"/>
      </defs>
      <g>
       <use xlink:href="#m37063ea828" x="53.03" y="235.91608" style="stroke: #000000; stroke-width: 0.8"/>
      </g>
     </g>
     <g id="text_10">
      <!-- −30 -->
      <g transform="translate(24.925313 239.715298) scale(0.1 -0.1)">
       <use xlink:href="#DejaVuSans-2212"/>
       <use xlink:href="#DejaVuSans-33" x="83.789062"/>
       <use xlink:href="#DejaVuSans-30" x="147.412109"/>
      </g>
     </g>
    </g>
    <g id="ytick_2">
     <g id="line2d_10">
      <g>
       <use xlink:href="#m37063ea828" x="53.03" y="207.279878" style="stroke: #000000; stroke-width: 0.8"/>
      </g>
     </g>
     <g id="text_11">
      <!-- −20 -->
      <g transform="translate(24.925313 211.079097) scale(0.1 -0.1)">
       <use xlink:href="#DejaVuSans-2212"/>
       <use xlink:href="#DejaVuSans-32" x="83.789062"/>
       <use xlink:href="#DejaVuSans-30" x="147.412109"/>
      </g>
     </g>
    </g>
    <g id="ytick_3">
     <g id="line2d_11">
      <g>
       <use xlink:href="#m37063ea828" x="53.03" y="178.643677" style="stroke: #000000; stroke-width: 0.8"/>
      </g>
     </g>
     <g id="text_12">
      <!-- −10 -->
      <g transform="translate(24.925313 182.442896) scale(0.1 -0.1)">
       <use xlink:href="#DejaVuSans-2212"/>
       <use xlink:href="#DejaVuSans-31" x="83.789062"/>
       <use xlink:href="#DejaVuSans-30" x="147.412109"/>
      </g>
     </g>
    </g>
    <g id="ytick_4">
     <g id="line2d_12">
      <g>
       <use xlink:href="#m37063ea828" x="53.03" y="150.007476" style="stroke: #000000; stroke-width: 0.8"/>
      </g>
     </g>
     <g id="text_13">
      <!-- 0 -->
      <g transform="translate(39.6675 153.806694) scale(0.1 -0.1)">
       <use xlink:href="#DejaVuSans-30"/>
      </g>
     </g>
    </g>
    <g id="ytick_5">
     <g id="line2d_13">
      <g>
       <use xlink:href="#m37063ea828" x="53.03" y="121.371274" style="stroke: #000000; stroke-width: 0.8"/>
      </g>
     </g>
     <g id="text_14">
      <!-- 10 -->
      <g transform="translate(33.305 125.170493) scale(0.1 -0.1)">
       <use xlink:href="#DejaVuSans-31"/>
       <use xlink:href="#DejaVuSans-30" x="63.623047"/>
      </g>
     </g>
    </g>
    <g id="ytick_6">
     <g id="line2d_14">
      <g>
       <use xlink:href="#m37063ea828" x="53.03" y="92.735073" style="stroke: #000000; stroke-width: 0.8"/>
      </g>
     </g>
     <g id="text_15">
      <!-- 20 -->
      <g transform="translate(33.305 96.534292) scale(0.1 -0.1)">
       <use xlink:href="#DejaVuSans-32"/>
       <use xlink:href="#DejaVuSans-30" x="63.623047"/>
      </g>
     </g>
    </g>
    <g id="ytick_7">
     <g id="line2d_15">
      <g>
       <use xlink:href="#m37063ea828" x="53.03" y="64.098872" style="stroke: #000000; stroke-width: 0.8"/>
      </g>
     </g>
     <g id="text_16">
      <!-- 30 -->
      <g transform="translate(33.305 67.898091) scale(0.1 -0.1)">
       <use xlink:href="#DejaVuSans-33"/>
       <use xlink:href="#DejaVuSans-30" x="63.623047"/>
      </g>
     </g>
    </g>
    <g id="ytick_8">
     <g id="line2d_16">
      <g>
       <use xlink:href="#m37063ea828" x="53.03" y="35.46267" style="stroke: #000000; stroke-width: 0.8"/>
      </g>
     </g>
     <g id="text_17">
      <!-- 40 -->
      <g transform="translate(33.305 39.261889) scale(0.1 -0.1)">
       <use xlink:href="#DejaVuSans-34"/>
       <use xlink:href="#DejaVuSans-30" x="63.623047"/>
      </g>
     </g>
    </g>
    <g id="text_18">
     <!-- Estimated yield variability [%] -->
     <g transform="translate(18.845625 211.14875) rotate(-90) scale(0.1 -0.1)">
      <defs>
       <path id="DejaVuSans-45" d="M 628 4666 
L 3578 4666 
L 3578 4134 
L 1259 4134 
L 1259 2753 
L 3481 2753 
L 3481 2222 
L 1259 2222 
L 1259 531 
L 3634 531 
L 3634 0 
L 628 0 
L 628 4666 
z
" transform="scale(0.015625)"/>
       <path id="DejaVuSans-6d" d="M 3328 2828 
Q 3544 3216 3844 3400 
Q 4144 3584 4550 3584 
Q 5097 3584 5394 3201 
Q 5691 2819 5691 2113 
L 5691 0 
L 5113 0 
L 5113 2094 
Q 5113 2597 4934 2840 
Q 4756 3084 4391 3084 
Q 3944 3084 3684 2787 
Q 3425 2491 3425 1978 
L 3425 0 
L 2847 0 
L 2847 2094 
Q 2847 2600 2669 2842 
Q 2491 3084 2119 3084 
Q 1678 3084 1418 2786 
Q 1159 2488 1159 1978 
L 1159 0 
L 581 0 
L 581 3500 
L 1159 3500 
L 1159 2956 
Q 1356 3278 1631 3431 
Q 1906 3584 2284 3584 
Q 2666 3584 2933 3390 
Q 3200 3197 3328 2828 
z
" transform="scale(0.015625)"/>
      </defs>
      <use xlink:href="#DejaVuSans-45"/>
      <use xlink:href="#DejaVuSans-73" x="63.183594"/>
      <use xlink:href="#DejaVuSans-74" x="115.283203"/>
      <use xlink:href="#DejaVuSans-69" x="154.492188"/>
      <use xlink:href="#DejaVuSans-6d" x="182.275391"/>
      <use xlink:href="#DejaVuSans-61" x="279.6875"/>
      <use xlink:href="#DejaVuSans-74" x="340.966797"/>
      <use xlink:href="#DejaVuSans-65" x="380.175781"/>
      <use xlink:href="#DejaVuSans-64" x="441.699219"/>
      <use xlink:href="#DejaVuSans-20" x="505.175781"/>
      <use xlink:href="#DejaVuSans-79" x="536.962891"/>
      <use xlink:href="#DejaVuSans-69" x="596.142578"/>
      <use xlink:href="#DejaVuSans-65" x="623.925781"/>
      <use xlink:href="#DejaVuSans-6c" x="685.449219"/>
      <use xlink:href="#DejaVuSans-64" x="713.232422"/>
      <use xlink:href="#DejaVuSans-20" x="776.708984"/>
      <use xlink:href="#DejaVuSans-76" x="808.496094"/>
      <use xlink:href="#DejaVuSans-61" x="867.675781"/>
      <use xlink:href="#DejaVuSans-72" x="928.955078"/>
      <use xlink:href="#DejaVuSans-69" x="970.068359"/>
      <use xlink:href="#DejaVuSans-61" x="997.851562"/>
      <use xlink:href="#DejaVuSans-62" x="1059.130859"/>
      <use xlink:href="#DejaVuSans-69" x="1122.607422"/>
      <use xlink:href="#DejaVuSans-6c" x="1150.390625"/>
      <use xlink:href="#DejaVuSans-69" x="1178.173828"/>
      <use xlink:href="#DejaVuSans-74" x="1205.957031"/>
      <use xlink:href="#DejaVuSans-79" x="1245.166016"/>
      <use xlink:href="#DejaVuSans-20" x="1304.345703"/>
      <use xlink:href="#DejaVuSans-5b" x="1336.132812"/>
      <use xlink:href="#DejaVuSans-25" x="1375.146484"/>
      <use xlink:href="#DejaVuSans-5d" x="1470.166016"/>
     </g>
    </g>
   </g>
   <g id="line2d_17">
    <path d="M 74.674964 204.264879 
L 77.933099 202.946374 
L 81.191234 201.627868 
L 84.449369 200.309363 
L 87.707505 198.990857 
L 90.96564 197.672352 
L 94.223775 196.353846 
L 97.48191 195.035341 
L 100.740045 193.716836 
L 103.998181 192.39833 
L 107.256316 191.079825 
L 110.514451 189.761319 
L 113.772586 188.442814 
L 117.030722 187.124308 
L 120.288857 185.805803 
L 123.546992 184.487297 
L 126.805127 183.168792 
L 130.063263 181.850286 
L 133.321398 180.531781 
L 136.579533 179.213275 
L 139.837668 177.89477 
L 143.095803 176.576264 
L 146.353939 175.257759 
L 149.612074 173.939253 
L 152.870209 172.620748 
L 156.128344 171.302242 
L 159.38648 169.983737 
L 162.644615 168.665231 
L 165.90275 167.346726 
L 169.160885 166.02822 
L 172.419021 164.709715 
L 175.677156 163.391209 
L 178.935291 162.072704 
L 182.193426 160.754198 
L 185.451561 159.435693 
L 188.709697 158.117187 
L 191.967832 156.798682 
L 195.225967 155.480176 
L 198.484102 154.161671 
L 201.742238 152.843165 
L 205.000373 151.52466 
L 208.258508 150.206154 
L 211.516643 148.887649 
L 214.774778 147.569144 
L 218.032914 146.250638 
L 221.291049 144.932133 
L 224.549184 143.613627 
L 227.807319 142.295122 
L 231.065455 140.976616 
L 234.32359 139.658111 
L 237.581725 138.339605 
L 240.83986 137.0211 
L 244.097996 135.702594 
L 247.356131 134.384089 
L 250.614266 133.065583 
L 253.872401 131.747078 
L 257.130536 130.428572 
L 260.388672 129.110067 
L 263.646807 127.791561 
L 266.904942 126.473056 
L 270.163077 125.15455 
L 273.421213 123.836045 
L 276.679348 122.517539 
L 279.937483 121.199034 
L 283.195618 119.880528 
L 286.453754 118.562023 
L 289.711889 117.243517 
L 292.970024 115.925012 
L 296.228159 114.606506 
L 299.486294 113.288001 
L 302.74443 111.969495 
L 306.002565 110.65099 
L 309.2607 109.332484 
L 312.518835 108.013979 
L 315.776971 106.695473 
L 319.035106 105.376968 
L 322.293241 104.058462 
L 325.551376 102.739957 
L 328.809512 101.421452 
L 332.067647 100.102946 
L 335.325782 98.784441 
L 338.583917 97.465935 
L 341.842052 96.14743 
L 345.100188 94.828924 
L 348.358323 93.510419 
L 351.616458 92.191913 
L 354.874593 90.873408 
L 358.132729 89.554902 
L 361.390864 88.236397 
L 364.648999 86.917891 
L 367.907134 85.599386 
L 371.165269 84.28088 
L 374.423405 82.962375 
L 377.68154 81.643869 
L 380.939675 80.325364 
L 384.19781 79.006858 
L 387.455946 77.688353 
L 390.714081 76.369847 
L 393.972216 75.051342 
L 397.230351 73.732836 
" clip-path="url(#p642354eed4)" style="fill: none; stroke: #808080; stroke-linecap: square"/>
   </g>
   <g id="line2d_18">
    <path d="M 69.572076 235.91608 
L 400.413605 35.46267 
" clip-path="url(#p642354eed4)" style="fill: none; stroke: #808080; stroke-width: 1.5; stroke-linecap: square"/>
   </g>
   <g id="patch_3">
    <path d="M 53.03 245.93875 
L 53.03 25.44 
" style="fill: none; stroke: #000000; stroke-width: 0.8; stroke-linejoin: miter; stroke-linecap: square"/>
   </g>
   <g id="patch_4">
    <path d="M 53.03 245.93875 
L 416.955682 245.93875 
" style="fill: none; stroke: #000000; stroke-width: 0.8; stroke-linejoin: miter; stroke-linecap: square"/>
   </g>
   <g id="text_19">
    <!-- a) Observed vs. predicted -->
    <g transform="translate(53.03 19.44) scale(0.12 -0.12)">
     <defs>
      <path id="DejaVuSans-29" d="M 513 4856 
L 1013 4856 
Q 1481 4119 1714 3412 
Q 1947 2706 1947 2009 
Q 1947 1309 1714 600 
Q 1481 -109 1013 -844 
L 513 -844 
Q 928 -128 1133 580 
Q 1338 1288 1338 2009 
Q 1338 2731 1133 3434 
Q 928 4138 513 4856 
z
" transform="scale(0.015625)"/>
      <path id="DejaVuSans-2e" d="M 684 794 
L 1344 794 
L 1344 0 
L 684 0 
L 684 794 
z
" transform="scale(0.015625)"/>
      <path id="DejaVuSans-70" d="M 1159 525 
L 1159 -1331 
L 581 -1331 
L 581 3500 
L 1159 3500 
L 1159 2969 
Q 1341 3281 1617 3432 
Q 1894 3584 2278 3584 
Q 2916 3584 3314 3078 
Q 3713 2572 3713 1747 
Q 3713 922 3314 415 
Q 2916 -91 2278 -91 
Q 1894 -91 1617 61 
Q 1341 213 1159 525 
z
M 3116 1747 
Q 3116 2381 2855 2742 
Q 2594 3103 2138 3103 
Q 1681 3103 1420 2742 
Q 1159 2381 1159 1747 
Q 1159 1113 1420 752 
Q 1681 391 2138 391 
Q 2594 391 2855 752 
Q 3116 1113 3116 1747 
z
" transform="scale(0.015625)"/>
      <path id="DejaVuSans-63" d="M 3122 3366 
L 3122 2828 
Q 2878 2963 2633 3030 
Q 2388 3097 2138 3097 
Q 1578 3097 1268 2742 
Q 959 2388 959 1747 
Q 959 1106 1268 751 
Q 1578 397 2138 397 
Q 2388 397 2633 464 
Q 2878 531 3122 666 
L 3122 134 
Q 2881 22 2623 -34 
Q 2366 -91 2075 -91 
Q 1284 -91 818 406 
Q 353 903 353 1747 
Q 353 2603 823 3093 
Q 1294 3584 2113 3584 
Q 2378 3584 2631 3529 
Q 2884 3475 3122 3366 
z
" transform="scale(0.015625)"/>
     </defs>
     <use xlink:href="#DejaVuSans-61"/>
     <use xlink:href="#DejaVuSans-29" x="61.279297"/>
     <use xlink:href="#DejaVuSans-20" x="100.292969"/>
     <use xlink:href="#DejaVuSans-4f" x="132.080078"/>
     <use xlink:href="#DejaVuSans-62" x="210.791016"/>
     <use xlink:href="#DejaVuSans-73" x="274.267578"/>
     <use xlink:href="#DejaVuSans-65" x="326.367188"/>
     <use xlink:href="#DejaVuSans-72" x="387.890625"/>
     <use xlink:href="#DejaVuSans-76" x="429.003906"/>
     <use xlink:href="#DejaVuSans-65" x="488.183594"/>
     <use xlink:href="#DejaVuSans-64" x="549.707031"/>
     <use xlink:href="#DejaVuSans-20" x="613.183594"/>
     <use xlink:href="#DejaVuSans-76" x="644.970703"/>
     <use xlink:href="#DejaVuSans-73" x="704.150391"/>
     <use xlink:href="#DejaVuSans-2e" x="756.25"/>
     <use xlink:href="#DejaVuSans-20" x="788.037109"/>
     <use xlink:href="#DejaVuSans-70" x="819.824219"/>
     <use xlink:href="#DejaVuSans-72" x="883.300781"/>
     <use xlink:href="#DejaVuSans-65" x="922.164062"/>
     <use xlink:href="#DejaVuSans-64" x="983.6875"/>
     <use xlink:href="#DejaVuSans-69" x="1047.164062"/>
     <use xlink:href="#DejaVuSans-63" x="1074.947266"/>
     <use xlink:href="#DejaVuSans-74" x="1129.927734"/>
     <use xlink:href="#DejaVuSans-65" x="1169.136719"/>
     <use xlink:href="#DejaVuSans-64" x="1230.660156"/>
    </g>
   </g>
   <g id="legend_1">
    <g id="patch_5">
     <path d="M 329.208807 240.93875 
L 409.955682 240.93875 
Q 411.955682 240.93875 411.955682 238.93875 
L 411.955682 195.904375 
Q 411.955682 193.904375 409.955682 193.904375 
L 329.208807 193.904375 
Q 327.208807 193.904375 327.208807 195.904375 
L 327.208807 238.93875 
Q 327.208807 240.93875 329.208807 240.93875 
z
" style="fill: #ffffff; opacity: 0.8; stroke: #cccccc; stroke-linejoin: miter"/>
    </g>
    <g id="PathCollection_5">
     <defs>
      <path id="ma7d67c526d" d="M -1.5 3 
L 0 1.5 
L 1.5 3 
L 3 1.5 
L 1.5 0 
L 3 -1.5 
L 1.5 -3 
L 0 -1.5 
L -1.5 -3 
L -3 -1.5 
L -1.5 0 
L -3 1.5 
z
" style="stroke: #333333"/>
     </defs>
     <g>
      <use xlink:href="#ma7d67c526d" x="341.208807" y="202.877813" style="fill: #333333; stroke: #333333"/>
     </g>
    </g>
    <g id="text_20">
     <!-- yield loss -->
     <g transform="translate(359.208807 205.502813) scale(0.1 -0.1)">
      <defs>
       <path id="DejaVuSans-6f" d="M 1959 3097 
Q 1497 3097 1228 2736 
Q 959 2375 959 1747 
Q 959 1119 1226 758 
Q 1494 397 1959 397 
Q 2419 397 2687 759 
Q 2956 1122 2956 1747 
Q 2956 2369 2687 2733 
Q 2419 3097 1959 3097 
z
M 1959 3584 
Q 2709 3584 3137 3096 
Q 3566 2609 3566 1747 
Q 3566 888 3137 398 
Q 2709 -91 1959 -91 
Q 1206 -91 779 398 
Q 353 888 353 1747 
Q 353 2609 779 3096 
Q 1206 3584 1959 3584 
z
" transform="scale(0.015625)"/>
      </defs>
      <use xlink:href="#DejaVuSans-79"/>
      <use xlink:href="#DejaVuSans-69" x="59.179688"/>
      <use xlink:href="#DejaVuSans-65" x="86.962891"/>
      <use xlink:href="#DejaVuSans-6c" x="148.486328"/>
      <use xlink:href="#DejaVuSans-64" x="176.269531"/>
      <use xlink:href="#DejaVuSans-20" x="239.746094"/>
      <use xlink:href="#DejaVuSans-6c" x="271.533203"/>
      <use xlink:href="#DejaVuSans-6f" x="299.316406"/>
      <use xlink:href="#DejaVuSans-73" x="360.498047"/>
      <use xlink:href="#DejaVuSans-73" x="412.597656"/>
     </g>
    </g>
    <g id="PathCollection_6">
     <defs>
      <path id="m81014912df" d="M 0 1.5 
C 0.397805 1.5 0.77937 1.341951 1.06066 1.06066 
C 1.341951 0.77937 1.5 0.397805 1.5 0 
C 1.5 -0.397805 1.341951 -0.77937 1.06066 -1.06066 
C 0.77937 -1.341951 0.397805 -1.5 0 -1.5 
C -0.397805 -1.5 -0.77937 -1.341951 -1.06066 -1.06066 
C -1.341951 -0.77937 -1.5 -0.397805 -1.5 0 
C -1.5 0.397805 -1.341951 0.77937 -1.06066 1.06066 
C -0.77937 1.341951 -0.397805 1.5 0 1.5 
z
" style="stroke: #333333"/>
     </defs>
     <g>
      <use xlink:href="#m81014912df" x="341.208807" y="217.555937" style="fill: #333333; stroke: #333333"/>
     </g>
    </g>
    <g id="text_21">
     <!-- normal -->
     <g transform="translate(359.208807 220.180937) scale(0.1 -0.1)">
      <defs>
       <path id="DejaVuSans-6e" d="M 3513 2113 
L 3513 0 
L 2938 0 
L 2938 2094 
Q 2938 2591 2744 2837 
Q 2550 3084 2163 3084 
Q 1697 3084 1428 2787 
Q 1159 2491 1159 1978 
L 1159 0 
L 581 0 
L 581 3500 
L 1159 3500 
L 1159 2956 
Q 1366 3272 1645 3428 
Q 1925 3584 2291 3584 
Q 2894 3584 3203 3211 
Q 3513 2838 3513 2113 
z
" transform="scale(0.015625)"/>
      </defs>
      <use xlink:href="#DejaVuSans-6e"/>
      <use xlink:href="#DejaVuSans-6f" x="63.378906"/>
      <use xlink:href="#DejaVuSans-72" x="124.560547"/>
      <use xlink:href="#DejaVuSans-6d" x="163.923828"/>
      <use xlink:href="#DejaVuSans-61" x="261.335938"/>
      <use xlink:href="#DejaVuSans-6c" x="322.615234"/>
     </g>
    </g>
    <g id="PathCollection_7">
     <defs>
      <path id="mded4b72c3d" d="M 0 4.242641 
L 4.242641 0 
L 0 -4.242641 
L -4.242641 0 
z
" style="stroke: #333333"/>
     </defs>
     <g>
      <use xlink:href="#mded4b72c3d" x="341.208807" y="232.234062" style="fill: #333333; stroke: #333333"/>
     </g>
    </g>
    <g id="text_22">
     <!-- yield gain -->
     <g transform="translate(359.208807 234.859062) scale(0.1 -0.1)">
      <defs>
       <path id="DejaVuSans-67" d="M 2906 1791 
Q 2906 2416 2648 2759 
Q 2391 3103 1925 3103 
Q 1463 3103 1205 2759 
Q 947 2416 947 1791 
Q 947 1169 1205 825 
Q 1463 481 1925 481 
Q 2391 481 2648 825 
Q 2906 1169 2906 1791 
z
M 3481 434 
Q 3481 -459 3084 -895 
Q 2688 -1331 1869 -1331 
Q 1566 -1331 1297 -1286 
Q 1028 -1241 775 -1147 
L 775 -588 
Q 1028 -725 1275 -790 
Q 1522 -856 1778 -856 
Q 2344 -856 2625 -561 
Q 2906 -266 2906 331 
L 2906 616 
Q 2728 306 2450 153 
Q 2172 0 1784 0 
Q 1141 0 747 490 
Q 353 981 353 1791 
Q 353 2603 747 3093 
Q 1141 3584 1784 3584 
Q 2172 3584 2450 3431 
Q 2728 3278 2906 2969 
L 2906 3500 
L 3481 3500 
L 3481 434 
z
" transform="scale(0.015625)"/>
      </defs>
      <use xlink:href="#DejaVuSans-79"/>
      <use xlink:href="#DejaVuSans-69" x="59.179688"/>
      <use xlink:href="#DejaVuSans-65" x="86.962891"/>
      <use xlink:href="#DejaVuSans-6c" x="148.486328"/>
      <use xlink:href="#DejaVuSans-64" x="176.269531"/>
      <use xlink:href="#DejaVuSans-20" x="239.746094"/>
      <use xlink:href="#DejaVuSans-67" x="271.533203"/>
      <use xlink:href="#DejaVuSans-61" x="335.009766"/>
      <use xlink:href="#DejaVuSans-69" x="396.289062"/>
      <use xlink:href="#DejaVuSans-6e" x="424.072266"/>
     </g>
    </g>
   </g>
  </g>
  <g id="axes_2">
   <g id="patch_6">
    <path d="M 463.595682 245.93875 
L 827.521364 245.93875 
L 827.521364 25.44 
L 463.595682 25.44 
z
" style="fill: #ffffff"/>
   </g>
   <g id="matplotlib.axis_3">
    <g id="xtick_9">
     <g id="line2d_19">
      <g>
       <use xlink:href="#mbfa9923ed7" x="499.98825" y="245.93875" style="stroke: #000000; stroke-width: 0.8"/>
      </g>
     </g>
     <g id="text_23">
      <!-- tmeanrain_-31_-61_10 -->
      <g transform="translate(443.97575 260.537188) scale(0.1 -0.1)">
       <defs>
        <path id="DejaVuSans-5f" d="M 3263 -1063 
L 3263 -1509 
L -63 -1509 
L -63 -1063 
L 3263 -1063 
z
" transform="scale(0.015625)"/>
        <path id="DejaVuSans-2d" d="M 313 2009 
L 1997 2009 
L 1997 1497 
L 313 1497 
L 313 2009 
z
" transform="scale(0.015625)"/>
        <path id="DejaVuSans-36" d="M 2113 2584 
Q 1688 2584 1439 2293 
Q 1191 2003 1191 1497 
Q 1191 994 1439 701 
Q 1688 409 2113 409 
Q 2538 409 2786 701 
Q 3034 994 3034 1497 
Q 3034 2003 2786 2293 
Q 2538 2584 2113 2584 
z
M 3366 4563 
L 3366 3988 
Q 3128 4100 2886 4159 
Q 2644 4219 2406 4219 
Q 1781 4219 1451 3797 
Q 1122 3375 1075 2522 
Q 1259 2794 1537 2939 
Q 1816 3084 2150 3084 
Q 2853 3084 3261 2657 
Q 3669 2231 3669 1497 
Q 3669 778 3244 343 
Q 2819 -91 2113 -91 
Q 1303 -91 875 529 
Q 447 1150 447 2328 
Q 447 3434 972 4092 
Q 1497 4750 2381 4750 
Q 2619 4750 2861 4703 
Q 3103 4656 3366 4563 
z
" transform="scale(0.015625)"/>
       </defs>
       <use xlink:href="#DejaVuSans-74"/>
       <use xlink:href="#DejaVuSans-6d" x="39.208984"/>
       <use xlink:href="#DejaVuSans-65" x="136.621094"/>
       <use xlink:href="#DejaVuSans-61" x="198.144531"/>
       <use xlink:href="#DejaVuSans-6e" x="259.423828"/>
       <use xlink:href="#DejaVuSans-72" x="322.802734"/>
       <use xlink:href="#DejaVuSans-61" x="363.916016"/>
       <use xlink:href="#DejaVuSans-69" x="425.195312"/>
       <use xlink:href="#DejaVuSans-6e" x="452.978516"/>
       <use xlink:href="#DejaVuSans-5f" x="516.357422"/>
       <use xlink:href="#DejaVuSans-2d" x="566.357422"/>
       <use xlink:href="#DejaVuSans-33" x="602.441406"/>
       <use xlink:href="#DejaVuSans-31" x="666.064453"/>
       <use xlink:href="#DejaVuSans-5f" x="729.6875"/>
       <use xlink:href="#DejaVuSans-2d" x="779.6875"/>
       <use xlink:href="#DejaVuSans-36" x="815.771484"/>
       <use xlink:href="#DejaVuSans-31" x="879.394531"/>
       <use xlink:href="#DejaVuSans-5f" x="943.017578"/>
       <use xlink:href="#DejaVuSans-31" x="993.017578"/>
       <use xlink:href="#DejaVuSans-30" x="1056.640625"/>
      </g>
     </g>
    </g>
    <g id="xtick_10">
     <g id="line2d_20">
      <g>
       <use xlink:href="#mbfa9923ed7" x="572.773386" y="245.93875" style="stroke: #000000; stroke-width: 0.8"/>
      </g>
     </g>
     <g id="text_24">
      <!-- rainsquared_-31_-61_11 -->
      <g transform="translate(512.695261 260.537188) scale(0.1 -0.1)">
       <defs>
        <path id="DejaVuSans-71" d="M 947 1747 
Q 947 1113 1208 752 
Q 1469 391 1925 391 
Q 2381 391 2643 752 
Q 2906 1113 2906 1747 
Q 2906 2381 2643 2742 
Q 2381 3103 1925 3103 
Q 1469 3103 1208 2742 
Q 947 2381 947 1747 
z
M 2906 525 
Q 2725 213 2448 61 
Q 2172 -91 1784 -91 
Q 1150 -91 751 415 
Q 353 922 353 1747 
Q 353 2572 751 3078 
Q 1150 3584 1784 3584 
Q 2172 3584 2448 3432 
Q 2725 3281 2906 2969 
L 2906 3500 
L 3481 3500 
L 3481 -1331 
L 2906 -1331 
L 2906 525 
z
" transform="scale(0.015625)"/>
        <path id="DejaVuSans-75" d="M 544 1381 
L 544 3500 
L 1119 3500 
L 1119 1403 
Q 1119 906 1312 657 
Q 1506 409 1894 409 
Q 2359 409 2629 706 
Q 2900 1003 2900 1516 
L 2900 3500 
L 3475 3500 
L 3475 0 
L 2900 0 
L 2900 538 
Q 2691 219 2414 64 
Q 2138 -91 1772 -91 
Q 1169 -91 856 284 
Q 544 659 544 1381 
z
M 1991 3584 
L 1991 3584 
z
" transform="scale(0.015625)"/>
       </defs>
       <use xlink:href="#DejaVuSans-72"/>
       <use xlink:href="#DejaVuSans-61" x="41.113281"/>
       <use xlink:href="#DejaVuSans-69" x="102.392578"/>
       <use xlink:href="#DejaVuSans-6e" x="130.175781"/>
       <use xlink:href="#DejaVuSans-73" x="193.554688"/>
       <use xlink:href="#DejaVuSans-71" x="245.654297"/>
       <use xlink:href="#DejaVuSans-75" x="309.130859"/>
       <use xlink:href="#DejaVuSans-61" x="372.509766"/>
       <use xlink:href="#DejaVuSans-72" x="433.789062"/>
       <use xlink:href="#DejaVuSans-65" x="472.652344"/>
       <use xlink:href="#DejaVuSans-64" x="534.175781"/>
       <use xlink:href="#DejaVuSans-5f" x="597.652344"/>
       <use xlink:href="#DejaVuSans-2d" x="647.652344"/>
       <use xlink:href="#DejaVuSans-33" x="683.736328"/>
       <use xlink:href="#DejaVuSans-31" x="747.359375"/>
       <use xlink:href="#DejaVuSans-5f" x="810.982422"/>
       <use xlink:href="#DejaVuSans-2d" x="860.982422"/>
       <use xlink:href="#DejaVuSans-36" x="897.066406"/>
       <use xlink:href="#DejaVuSans-31" x="960.689453"/>
       <use xlink:href="#DejaVuSans-5f" x="1024.3125"/>
       <use xlink:href="#DejaVuSans-31" x="1074.3125"/>
       <use xlink:href="#DejaVuSans-31" x="1137.935547"/>
      </g>
     </g>
    </g>
    <g id="xtick_11">
     <g id="line2d_21">
      <g>
       <use xlink:href="#mbfa9923ed7" x="645.558523" y="245.93875" style="stroke: #000000; stroke-width: 0.8"/>
      </g>
     </g>
     <g id="text_25">
      <!-- rainsquared_-36_-62_9 -->
      <g transform="translate(588.661648 260.537188) scale(0.1 -0.1)">
       <defs>
        <path id="DejaVuSans-39" d="M 703 97 
L 703 672 
Q 941 559 1184 500 
Q 1428 441 1663 441 
Q 2288 441 2617 861 
Q 2947 1281 2994 2138 
Q 2813 1869 2534 1725 
Q 2256 1581 1919 1581 
Q 1219 1581 811 2004 
Q 403 2428 403 3163 
Q 403 3881 828 4315 
Q 1253 4750 1959 4750 
Q 2769 4750 3195 4129 
Q 3622 3509 3622 2328 
Q 3622 1225 3098 567 
Q 2575 -91 1691 -91 
Q 1453 -91 1209 -44 
Q 966 3 703 97 
z
M 1959 2075 
Q 2384 2075 2632 2365 
Q 2881 2656 2881 3163 
Q 2881 3666 2632 3958 
Q 2384 4250 1959 4250 
Q 1534 4250 1286 3958 
Q 1038 3666 1038 3163 
Q 1038 2656 1286 2365 
Q 1534 2075 1959 2075 
z
" transform="scale(0.015625)"/>
       </defs>
       <use xlink:href="#DejaVuSans-72"/>
       <use xlink:href="#DejaVuSans-61" x="41.113281"/>
       <use xlink:href="#DejaVuSans-69" x="102.392578"/>
       <use xlink:href="#DejaVuSans-6e" x="130.175781"/>
       <use xlink:href="#DejaVuSans-73" x="193.554688"/>
       <use xlink:href="#DejaVuSans-71" x="245.654297"/>
       <use xlink:href="#DejaVuSans-75" x="309.130859"/>
       <use xlink:href="#DejaVuSans-61" x="372.509766"/>
       <use xlink:href="#DejaVuSans-72" x="433.789062"/>
       <use xlink:href="#DejaVuSans-65" x="472.652344"/>
       <use xlink:href="#DejaVuSans-64" x="534.175781"/>
       <use xlink:href="#DejaVuSans-5f" x="597.652344"/>
       <use xlink:href="#DejaVuSans-2d" x="647.652344"/>
       <use xlink:href="#DejaVuSans-33" x="683.736328"/>
       <use xlink:href="#DejaVuSans-36" x="747.359375"/>
       <use xlink:href="#DejaVuSans-5f" x="810.982422"/>
       <use xlink:href="#DejaVuSans-2d" x="860.982422"/>
       <use xlink:href="#DejaVuSans-36" x="897.066406"/>
       <use xlink:href="#DejaVuSans-32" x="960.689453"/>
       <use xlink:href="#DejaVuSans-5f" x="1024.3125"/>
       <use xlink:href="#DejaVuSans-39" x="1074.3125"/>
      </g>
     </g>
    </g>
    <g id="xtick_12">
     <g id="line2d_22">
      <g>
       <use xlink:href="#mbfa9923ed7" x="718.343659" y="245.93875" style="stroke: #000000; stroke-width: 0.8"/>
      </g>
     </g>
     <g id="text_26">
      <!-- tmeansquared_-38_-62_11 -->
      <g transform="translate(651.803034 260.537188) scale(0.1 -0.1)">
       <defs>
        <path id="DejaVuSans-38" d="M 2034 2216 
Q 1584 2216 1326 1975 
Q 1069 1734 1069 1313 
Q 1069 891 1326 650 
Q 1584 409 2034 409 
Q 2484 409 2743 651 
Q 3003 894 3003 1313 
Q 3003 1734 2745 1975 
Q 2488 2216 2034 2216 
z
M 1403 2484 
Q 997 2584 770 2862 
Q 544 3141 544 3541 
Q 544 4100 942 4425 
Q 1341 4750 2034 4750 
Q 2731 4750 3128 4425 
Q 3525 4100 3525 3541 
Q 3525 3141 3298 2862 
Q 3072 2584 2669 2484 
Q 3125 2378 3379 2068 
Q 3634 1759 3634 1313 
Q 3634 634 3220 271 
Q 2806 -91 2034 -91 
Q 1263 -91 848 271 
Q 434 634 434 1313 
Q 434 1759 690 2068 
Q 947 2378 1403 2484 
z
M 1172 3481 
Q 1172 3119 1398 2916 
Q 1625 2713 2034 2713 
Q 2441 2713 2670 2916 
Q 2900 3119 2900 3481 
Q 2900 3844 2670 4047 
Q 2441 4250 2034 4250 
Q 1625 4250 1398 4047 
Q 1172 3844 1172 3481 
z
" transform="scale(0.015625)"/>
       </defs>
       <use xlink:href="#DejaVuSans-74"/>
       <use xlink:href="#DejaVuSans-6d" x="39.208984"/>
       <use xlink:href="#DejaVuSans-65" x="136.621094"/>
       <use xlink:href="#DejaVuSans-61" x="198.144531"/>
       <use xlink:href="#DejaVuSans-6e" x="259.423828"/>
       <use xlink:href="#DejaVuSans-73" x="322.802734"/>
       <use xlink:href="#DejaVuSans-71" x="374.902344"/>
       <use xlink:href="#DejaVuSans-75" x="438.378906"/>
       <use xlink:href="#DejaVuSans-61" x="501.757812"/>
       <use xlink:href="#DejaVuSans-72" x="563.037109"/>
       <use xlink:href="#DejaVuSans-65" x="601.900391"/>
       <use xlink:href="#DejaVuSans-64" x="663.423828"/>
       <use xlink:href="#DejaVuSans-5f" x="726.900391"/>
       <use xlink:href="#DejaVuSans-2d" x="776.900391"/>
       <use xlink:href="#DejaVuSans-33" x="812.984375"/>
       <use xlink:href="#DejaVuSans-38" x="876.607422"/>
       <use xlink:href="#DejaVuSans-5f" x="940.230469"/>
       <use xlink:href="#DejaVuSans-2d" x="990.230469"/>
       <use xlink:href="#DejaVuSans-36" x="1026.314453"/>
       <use xlink:href="#DejaVuSans-32" x="1089.9375"/>
       <use xlink:href="#DejaVuSans-5f" x="1153.560547"/>
       <use xlink:href="#DejaVuSans-31" x="1203.560547"/>
       <use xlink:href="#DejaVuSans-31" x="1267.183594"/>
      </g>
     </g>
    </g>
    <g id="xtick_13">
     <g id="line2d_23">
      <g>
       <use xlink:href="#mbfa9923ed7" x="791.128795" y="245.93875" style="stroke: #000000; stroke-width: 0.8"/>
      </g>
     </g>
     <g id="text_27">
      <!-- tmeanrain_-38_-62_11 -->
      <g transform="translate(735.116295 260.537188) scale(0.1 -0.1)">
       <use xlink:href="#DejaVuSans-74"/>
       <use xlink:href="#DejaVuSans-6d" x="39.208984"/>
       <use xlink:href="#DejaVuSans-65" x="136.621094"/>
       <use xlink:href="#DejaVuSans-61" x="198.144531"/>
       <use xlink:href="#DejaVuSans-6e" x="259.423828"/>
       <use xlink:href="#DejaVuSans-72" x="322.802734"/>
       <use xlink:href="#DejaVuSans-61" x="363.916016"/>
       <use xlink:href="#DejaVuSans-69" x="425.195312"/>
       <use xlink:href="#DejaVuSans-6e" x="452.978516"/>
       <use xlink:href="#DejaVuSans-5f" x="516.357422"/>
       <use xlink:href="#DejaVuSans-2d" x="566.357422"/>
       <use xlink:href="#DejaVuSans-33" x="602.441406"/>
       <use xlink:href="#DejaVuSans-38" x="666.064453"/>
       <use xlink:href="#DejaVuSans-5f" x="729.6875"/>
       <use xlink:href="#DejaVuSans-2d" x="779.6875"/>
       <use xlink:href="#DejaVuSans-36" x="815.771484"/>
       <use xlink:href="#DejaVuSans-32" x="879.394531"/>
       <use xlink:href="#DejaVuSans-5f" x="943.017578"/>
       <use xlink:href="#DejaVuSans-31" x="993.017578"/>
       <use xlink:href="#DejaVuSans-31" x="1056.640625"/>
      </g>
     </g>
    </g>
    <g id="text_28">
     <!-- Feature -->
     <g transform="translate(626.668679 274.493437) scale(0.1 -0.1)">
      <defs>
       <path id="DejaVuSans-46" d="M 628 4666 
L 3309 4666 
L 3309 4134 
L 1259 4134 
L 1259 2759 
L 3109 2759 
L 3109 2228 
L 1259 2228 
L 1259 0 
L 628 0 
L 628 4666 
z
" transform="scale(0.015625)"/>
      </defs>
      <use xlink:href="#DejaVuSans-46"/>
      <use xlink:href="#DejaVuSans-65" x="52.019531"/>
      <use xlink:href="#DejaVuSans-61" x="113.542969"/>
      <use xlink:href="#DejaVuSans-74" x="174.822266"/>
      <use xlink:href="#DejaVuSans-75" x="214.03125"/>
      <use xlink:href="#DejaVuSans-72" x="277.410156"/>
      <use xlink:href="#DejaVuSans-65" x="316.273438"/>
     </g>
    </g>
   </g>
   <g id="matplotlib.axis_4">
    <g id="ytick_9">
     <g id="line2d_24">
      <g>
       <use xlink:href="#m37063ea828" x="463.595682" y="241.674595" style="stroke: #000000; stroke-width: 0.8"/>
      </g>
     </g>
     <g id="text_29">
      <!-- −4 -->
      <g transform="translate(441.853494 245.473813) scale(0.1 -0.1)">
       <use xlink:href="#DejaVuSans-2212"/>
       <use xlink:href="#DejaVuSans-34" x="83.789062"/>
      </g>
     </g>
    </g>
    <g id="ytick_10">
     <g id="line2d_25">
      <g>
       <use xlink:href="#m37063ea828" x="463.595682" y="214.928755" style="stroke: #000000; stroke-width: 0.8"/>
      </g>
     </g>
     <g id="text_30">
      <!-- −2 -->
      <g transform="translate(441.853494 218.727974) scale(0.1 -0.1)">
       <use xlink:href="#DejaVuSans-2212"/>
       <use xlink:href="#DejaVuSans-32" x="83.789062"/>
      </g>
     </g>
    </g>
    <g id="ytick_11">
     <g id="line2d_26">
      <g>
       <use xlink:href="#m37063ea828" x="463.595682" y="188.182915" style="stroke: #000000; stroke-width: 0.8"/>
      </g>
     </g>
     <g id="text_31">
      <!-- 0 -->
      <g transform="translate(450.233182 191.982134) scale(0.1 -0.1)">
       <use xlink:href="#DejaVuSans-30"/>
      </g>
     </g>
    </g>
    <g id="ytick_12">
     <g id="line2d_27">
      <g>
       <use xlink:href="#m37063ea828" x="463.595682" y="161.437075" style="stroke: #000000; stroke-width: 0.8"/>
      </g>
     </g>
     <g id="text_32">
      <!-- 2 -->
      <g transform="translate(450.233182 165.236294) scale(0.1 -0.1)">
       <use xlink:href="#DejaVuSans-32"/>
      </g>
     </g>
    </g>
    <g id="ytick_13">
     <g id="line2d_28">
      <g>
       <use xlink:href="#m37063ea828" x="463.595682" y="134.691236" style="stroke: #000000; stroke-width: 0.8"/>
      </g>
     </g>
     <g id="text_33">
      <!-- 4 -->
      <g transform="translate(450.233182 138.490454) scale(0.1 -0.1)">
       <use xlink:href="#DejaVuSans-34"/>
      </g>
     </g>
    </g>
    <g id="ytick_14">
     <g id="line2d_29">
      <g>
       <use xlink:href="#m37063ea828" x="463.595682" y="107.945396" style="stroke: #000000; stroke-width: 0.8"/>
      </g>
     </g>
     <g id="text_34">
      <!-- 6 -->
      <g transform="translate(450.233182 111.744615) scale(0.1 -0.1)">
       <use xlink:href="#DejaVuSans-36"/>
      </g>
     </g>
    </g>
    <g id="ytick_15">
     <g id="line2d_30">
      <g>
       <use xlink:href="#m37063ea828" x="463.595682" y="81.199556" style="stroke: #000000; stroke-width: 0.8"/>
      </g>
     </g>
     <g id="text_35">
      <!-- 8 -->
      <g transform="translate(450.233182 84.998775) scale(0.1 -0.1)">
       <use xlink:href="#DejaVuSans-38"/>
      </g>
     </g>
    </g>
    <g id="ytick_16">
     <g id="line2d_31">
      <g>
       <use xlink:href="#m37063ea828" x="463.595682" y="54.453717" style="stroke: #000000; stroke-width: 0.8"/>
      </g>
     </g>
     <g id="text_36">
      <!-- 10 -->
      <g transform="translate(443.870682 58.252935) scale(0.1 -0.1)">
       <use xlink:href="#DejaVuSans-31"/>
       <use xlink:href="#DejaVuSans-30" x="63.623047"/>
      </g>
     </g>
    </g>
    <g id="ytick_17">
     <g id="line2d_32">
      <g>
       <use xlink:href="#m37063ea828" x="463.595682" y="27.707877" style="stroke: #000000; stroke-width: 0.8"/>
      </g>
     </g>
     <g id="text_37">
      <!-- 12 -->
      <g transform="translate(443.870682 31.507096) scale(0.1 -0.1)">
       <use xlink:href="#DejaVuSans-31"/>
       <use xlink:href="#DejaVuSans-32" x="63.623047"/>
      </g>
     </g>
    </g>
    <g id="text_38">
     <!-- Standardized value -->
     <g transform="translate(435.773807 183.947969) rotate(-90) scale(0.1 -0.1)">
      <defs>
       <path id="DejaVuSans-53" d="M 3425 4513 
L 3425 3897 
Q 3066 4069 2747 4153 
Q 2428 4238 2131 4238 
Q 1616 4238 1336 4038 
Q 1056 3838 1056 3469 
Q 1056 3159 1242 3001 
Q 1428 2844 1947 2747 
L 2328 2669 
Q 3034 2534 3370 2195 
Q 3706 1856 3706 1288 
Q 3706 609 3251 259 
Q 2797 -91 1919 -91 
Q 1588 -91 1214 -16 
Q 841 59 441 206 
L 441 856 
Q 825 641 1194 531 
Q 1563 422 1919 422 
Q 2459 422 2753 634 
Q 3047 847 3047 1241 
Q 3047 1584 2836 1778 
Q 2625 1972 2144 2069 
L 1759 2144 
Q 1053 2284 737 2584 
Q 422 2884 422 3419 
Q 422 4038 858 4394 
Q 1294 4750 2059 4750 
Q 2388 4750 2728 4690 
Q 3069 4631 3425 4513 
z
" transform="scale(0.015625)"/>
       <path id="DejaVuSans-7a" d="M 353 3500 
L 3084 3500 
L 3084 2975 
L 922 459 
L 3084 459 
L 3084 0 
L 275 0 
L 275 525 
L 2438 3041 
L 353 3041 
L 353 3500 
z
" transform="scale(0.015625)"/>
      </defs>
      <use xlink:href="#DejaVuSans-53"/>
      <use xlink:href="#DejaVuSans-74" x="63.476562"/>
      <use xlink:href="#DejaVuSans-61" x="102.685547"/>
      <use xlink:href="#DejaVuSans-6e" x="163.964844"/>
      <use xlink:href="#DejaVuSans-64" x="227.34375"/>
      <use xlink:href="#DejaVuSans-61" x="290.820312"/>
      <use xlink:href="#DejaVuSans-72" x="352.099609"/>
      <use xlink:href="#DejaVuSans-64" x="391.462891"/>
      <use xlink:href="#DejaVuSans-69" x="454.939453"/>
      <use xlink:href="#DejaVuSans-7a" x="482.722656"/>
      <use xlink:href="#DejaVuSans-65" x="535.212891"/>
      <use xlink:href="#DejaVuSans-64" x="596.736328"/>
      <use xlink:href="#DejaVuSans-20" x="660.212891"/>
      <use xlink:href="#DejaVuSans-76" x="692"/>
      <use xlink:href="#DejaVuSans-61" x="751.179688"/>
      <use xlink:href="#DejaVuSans-6c" x="812.458984"/>
      <use xlink:href="#DejaVuSans-75" x="840.242188"/>
      <use xlink:href="#DejaVuSans-65" x="903.621094"/>
     </g>
    </g>
   </g>
   <g id="line2d_33">
    <path d="M 463.595682 188.182915 
L 827.521364 188.182915 
" clip-path="url(#pb4c7f1efe0)" style="fill: none; stroke: #808080; stroke-width: 0.8; stroke-linecap: square"/>
   </g>
   <g id="patch_7">
    <path d="M 463.595682 245.93875 
L 463.595682 25.44 
" style="fill: none; stroke: #000000; stroke-width: 0.8; stroke-linejoin: miter; stroke-linecap: square"/>
   </g>
   <g id="patch_8">
    <path d="M 463.595682 245.93875 
L 827.521364 245.93875 
" style="fill: none; stroke: #000000; stroke-width: 0.8; stroke-linejoin: miter; stroke-linecap: square"/>
   </g>
   <g id="PathCollection_8">
    <path d="M 505.662152 193.293005 
L 512.73322 186.221937 
L 505.662152 179.15087 
L 498.591084 186.221937 
z
" clip-path="url(#pb4c7f1efe0)" style="fill: #3b83e5; fill-opacity: 0.8; stroke: #000000; stroke-opacity: 0.8; stroke-width: 0.5"/>
    <path d="M 503.583502 191.101053 
L 510.65457 184.029985 
L 503.583502 176.958918 
L 496.512434 184.029985 
z
" clip-path="url(#pb4c7f1efe0)" style="fill: #3b83e5; fill-opacity: 0.8; stroke: #000000; stroke-opacity: 0.8; stroke-width: 0.5"/>
    <path d="M 496.34548 173.631727 
L 503.416548 166.560659 
L 496.34548 159.489592 
L 489.274412 166.560659 
z
" clip-path="url(#pb4c7f1efe0)" style="fill: #3b83e5; fill-opacity: 0.8; stroke: #000000; stroke-opacity: 0.8; stroke-width: 0.5"/>
   </g>
   <g id="PathCollection_9">
    <path d="M 566.858683 206.698574 
L 573.929751 199.627506 
L 566.858683 192.556438 
L 559.787616 199.627506 
z
" clip-path="url(#pb4c7f1efe0)" style="fill: #3b83e5; fill-opacity: 0.8; stroke: #000000; stroke-opacity: 0.8; stroke-width: 0.5"/>
    <path d="M 573.656547 200.747276 
L 580.727615 193.676209 
L 573.656547 186.605141 
L 566.585479 193.676209 
z
" clip-path="url(#pb4c7f1efe0)" style="fill: #3b83e5; fill-opacity: 0.8; stroke: #000000; stroke-opacity: 0.8; stroke-width: 0.5"/>
    <path d="M 573.880446 195.077452 
L 580.951514 188.006385 
L 573.880446 180.935317 
L 566.809378 188.006385 
z
" clip-path="url(#pb4c7f1efe0)" style="fill: #3b83e5; fill-opacity: 0.8; stroke: #000000; stroke-opacity: 0.8; stroke-width: 0.5"/>
   </g>
   <g id="PathCollection_10">
    <path d="M 644.368514 204.931377 
L 651.439581 197.860309 
L 644.368514 190.789241 
L 637.297446 197.860309 
z
" clip-path="url(#pb4c7f1efe0)" style="fill: #ff7f0e; fill-opacity: 0.8; stroke: #000000; stroke-opacity: 0.8; stroke-width: 0.5"/>
    <path d="M 651.811469 186.756389 
L 658.882537 179.685321 
L 651.811469 172.614253 
L 644.740401 179.685321 
z
" clip-path="url(#pb4c7f1efe0)" style="fill: #ff7f0e; fill-opacity: 0.8; stroke: #000000; stroke-opacity: 0.8; stroke-width: 0.5"/>
    <path d="M 644.254287 137.812792 
L 651.325355 130.741724 
L 644.254287 123.670656 
L 637.18322 130.741724 
z
" clip-path="url(#pb4c7f1efe0)" style="fill: #ff7f0e; fill-opacity: 0.8; stroke: #000000; stroke-opacity: 0.8; stroke-width: 0.5"/>
   </g>
   <g id="PathCollection_11">
    <path d="M 721.81432 195.265111 
L 728.885388 188.194043 
L 721.81432 181.122975 
L 714.743253 188.194043 
z
" clip-path="url(#pb4c7f1efe0)" style="fill: #2ca02c; fill-opacity: 0.8; stroke: #000000; stroke-opacity: 0.8; stroke-width: 0.5"/>
    <path d="M 724.068052 191.095014 
L 731.13912 184.023946 
L 724.068052 176.952879 
L 716.996985 184.023946 
z
" clip-path="url(#pb4c7f1efe0)" style="fill: #2ca02c; fill-opacity: 0.8; stroke: #000000; stroke-opacity: 0.8; stroke-width: 0.5"/>
    <path d="M 722.151182 200.349495 
L 729.22225 193.278427 
L 722.151182 186.20736 
L 715.080114 193.278427 
z
" clip-path="url(#pb4c7f1efe0)" style="fill: #2ca02c; fill-opacity: 0.8; stroke: #000000; stroke-opacity: 0.8; stroke-width: 0.5"/>
   </g>
   <g id="PathCollection_12">
    <path d="M 792.123499 181.287435 
L 799.194567 174.216367 
L 792.123499 167.1453 
L 785.052431 174.216367 
z
" clip-path="url(#pb4c7f1efe0)" style="fill: #2ca02c; fill-opacity: 0.8; stroke: #000000; stroke-opacity: 0.8; stroke-width: 0.5"/>
    <path d="M 793.057082 150.250991 
L 800.12815 143.179923 
L 793.057082 136.108855 
L 785.986014 143.179923 
z
" clip-path="url(#pb4c7f1efe0)" style="fill: #2ca02c; fill-opacity: 0.8; stroke: #000000; stroke-opacity: 0.8; stroke-width: 0.5"/>
    <path d="M 792.830666 191.800492 
L 799.901733 184.729424 
L 792.830666 177.658356 
L 785.759598 184.729424 
z
" clip-path="url(#pb4c7f1efe0)" style="fill: #2ca02c; fill-opacity: 0.8; stroke: #000000; stroke-opacity: 0.8; stroke-width: 0.5"/>
   </g>
   <g id="PathCollection_13">
    <defs>
     <path id="C0_0_c6390292f9" d="M -2.5 5 
L 0 2.5 
L 2.5 5 
L 5 2.5 
L 2.5 -0 
L 5 -2.5 
L 2.5 -5 
L 0 -2.5 
L -2.5 -5 
L -5 -2.5 
L -2.5 0 
L -5 2.5 
z
"/>
    </defs>
    <g clip-path="url(#pb4c7f1efe0)">
     <use xlink:href="#C0_0_c6390292f9" x="502.248623" y="195.319008" style="fill: #3b83e5; fill-opacity: 0.8; stroke: #000000; stroke-opacity: 0.8; stroke-width: 0.5"/>
    </g>
    <g clip-path="url(#pb4c7f1efe0)">
     <use xlink:href="#C0_0_c6390292f9" x="506.828448" y="180.10472" style="fill: #3b83e5; fill-opacity: 0.8; stroke: #000000; stroke-opacity: 0.8; stroke-width: 0.5"/>
    </g>
    <g clip-path="url(#pb4c7f1efe0)">
     <use xlink:href="#C0_0_c6390292f9" x="500.076228" y="208.010584" style="fill: #3b83e5; fill-opacity: 0.8; stroke: #000000; stroke-opacity: 0.8; stroke-width: 0.5"/>
    </g>
   </g>
   <g id="PathCollection_14">
    <defs>
     <path id="C1_0_9a73042893" d="M -2.5 5 
L 0 2.5 
L 2.5 5 
L 5 2.5 
L 2.5 -0 
L 5 -2.5 
L 2.5 -5 
L 0 -2.5 
L -2.5 -5 
L -5 -2.5 
L -2.5 0 
L -5 2.5 
z
"/>
    </defs>
    <g clip-path="url(#pb4c7f1efe0)">
     <use xlink:href="#C1_0_9a73042893" x="579.922646" y="173.337879" style="fill: #3b83e5; fill-opacity: 0.8; stroke: #000000; stroke-opacity: 0.8; stroke-width: 0.5"/>
    </g>
    <g clip-path="url(#pb4c7f1efe0)">
     <use xlink:href="#C1_0_9a73042893" x="566.24933" y="165.29913" style="fill: #3b83e5; fill-opacity: 0.8; stroke: #000000; stroke-opacity: 0.8; stroke-width: 0.5"/>
    </g>
    <g clip-path="url(#pb4c7f1efe0)">
     <use xlink:href="#C1_0_9a73042893" x="570.79841" y="152.195368" style="fill: #3b83e5; fill-opacity: 0.8; stroke: #000000; stroke-opacity: 0.8; stroke-width: 0.5"/>
    </g>
   </g>
   <g id="PathCollection_15">
    <defs>
     <path id="C2_0_e8f23c2ccf" d="M -2.5 5 
L 0 2.5 
L 2.5 5 
L 5 2.5 
L 2.5 -0 
L 5 -2.5 
L 2.5 -5 
L 0 -2.5 
L -2.5 -5 
L -5 -2.5 
L -2.5 0 
L -5 2.5 
z
"/>
    </defs>
    <g clip-path="url(#pb4c7f1efe0)">
     <use xlink:href="#C2_0_e8f23c2ccf" x="640.158293" y="198.671588" style="fill: #ff7f0e; fill-opacity: 0.8; stroke: #000000; stroke-opacity: 0.8; stroke-width: 0.5"/>
    </g>
    <g clip-path="url(#pb4c7f1efe0)">
     <use xlink:href="#C2_0_e8f23c2ccf" x="642.938846" y="199.398107" style="fill: #ff7f0e; fill-opacity: 0.8; stroke: #000000; stroke-opacity: 0.8; stroke-width: 0.5"/>
    </g>
    <g clip-path="url(#pb4c7f1efe0)">
     <use xlink:href="#C2_0_e8f23c2ccf" x="640.06761" y="198.699178" style="fill: #ff7f0e; fill-opacity: 0.8; stroke: #000000; stroke-opacity: 0.8; stroke-width: 0.5"/>
    </g>
   </g>
   <g id="PathCollection_16">
    <defs>
     <path id="C3_0_34a1f54258" d="M -2.5 5 
L 0 2.5 
L 2.5 5 
L 5 2.5 
L 2.5 -0 
L 5 -2.5 
L 2.5 -5 
L 0 -2.5 
L -2.5 -5 
L -5 -2.5 
L -2.5 0 
L -5 2.5 
z
"/>
    </defs>
    <g clip-path="url(#pb4c7f1efe0)">
     <use xlink:href="#C3_0_34a1f54258" x="716.021419" y="35.46267" style="fill: #2ca02c; fill-opacity: 0.8; stroke: #000000; stroke-opacity: 0.8; stroke-width: 0.5"/>
    </g>
    <g clip-path="url(#pb4c7f1efe0)">
     <use xlink:href="#C3_0_34a1f54258" x="718.927107" y="193.597885" style="fill: #2ca02c; fill-opacity: 0.8; stroke: #000000; stroke-opacity: 0.8; stroke-width: 0.5"/>
    </g>
    <g clip-path="url(#pb4c7f1efe0)">
     <use xlink:href="#C3_0_34a1f54258" x="722.602944" y="192.486409" style="fill: #2ca02c; fill-opacity: 0.8; stroke: #000000; stroke-opacity: 0.8; stroke-width: 0.5"/>
    </g>
   </g>
   <g id="PathCollection_17">
    <defs>
     <path id="C4_0_5289aa6c53" d="M -2.5 5 
L 0 2.5 
L 2.5 5 
L 5 2.5 
L 2.5 -0 
L 5 -2.5 
L 2.5 -5 
L 0 -2.5 
L -2.5 -5 
L -5 -2.5 
L -2.5 0 
L -5 2.5 
z
"/>
    </defs>
    <g clip-path="url(#pb4c7f1efe0)">
     <use xlink:href="#C4_0_5289aa6c53" x="796.169028" y="235.91608" style="fill: #2ca02c; fill-opacity: 0.8; stroke: #000000; stroke-opacity: 0.8; stroke-width: 0.5"/>
    </g>
    <g clip-path="url(#pb4c7f1efe0)">
     <use xlink:href="#C4_0_5289aa6c53" x="792.599473" y="204.514764" style="fill: #2ca02c; fill-opacity: 0.8; stroke: #000000; stroke-opacity: 0.8; stroke-width: 0.5"/>
    </g>
    <g clip-path="url(#pb4c7f1efe0)">
     <use xlink:href="#C4_0_5289aa6c53" x="795.382723" y="193.564645" style="fill: #2ca02c; fill-opacity: 0.8; stroke: #000000; stroke-opacity: 0.8; stroke-width: 0.5"/>
    </g>
   </g>
   <g id="text_39">
    <!-- b) Feature values in extreme years -->
    <g transform="translate(463.595682 19.44) scale(0.12 -0.12)">
     <defs>
      <path id="DejaVuSans-78" d="M 3513 3500 
L 2247 1797 
L 3578 0 
L 2900 0 
L 1881 1375 
L 863 0 
L 184 0 
L 1544 1831 
L 300 3500 
L 978 3500 
L 1906 2253 
L 2834 3500 
L 3513 3500 
z
" transform="scale(0.015625)"/>
     </defs>
     <use xlink:href="#DejaVuSans-62"/>
     <use xlink:href="#DejaVuSans-29" x="63.476562"/>
     <use xlink:href="#DejaVuSans-20" x="102.490234"/>
     <use xlink:href="#DejaVuSans-46" x="134.277344"/>
     <use xlink:href="#DejaVuSans-65" x="186.296875"/>
     <use xlink:href="#DejaVuSans-61" x="247.820312"/>
     <use xlink:href="#DejaVuSans-74" x="309.099609"/>
     <use xlink:href="#DejaVuSans-75" x="348.308594"/>
     <use xlink:href="#DejaVuSans-72" x="411.6875"/>
     <use xlink:href="#DejaVuSans-65" x="450.550781"/>
     <use xlink:href="#DejaVuSans-20" x="512.074219"/>
     <use xlink:href="#DejaVuSans-76" x="543.861328"/>
     <use xlink:href="#DejaVuSans-61" x="603.041016"/>
     <use xlink:href="#DejaVuSans-6c" x="664.320312"/>
     <use xlink:href="#DejaVuSans-75" x="692.103516"/>
     <use xlink:href="#DejaVuSans-65" x="755.482422"/>
     <use xlink:href="#DejaVuSans-73" x="817.005859"/>
     <use xlink:href="#DejaVuSans-20" x="869.105469"/>
     <use xlink:href="#DejaVuSans-69" x="900.892578"/>
     <use xlink:href="#DejaVuSans-6e" x="928.675781"/>
     <use xlink:href="#DejaVuSans-20" x="992.054688"/>
     <use xlink:href="#DejaVuSans-65" x="1023.841797"/>
     <use xlink:href="#DejaVuSans-78" x="1083.615234"/>
     <use xlink:href="#DejaVuSans-74" x="1142.794922"/>
     <use xlink:href="#DejaVuSans-72" x="1182.003906"/>
     <use xlink:href="#DejaVuSans-65" x="1220.867188"/>
     <use xlink:href="#DejaVuSans-6d" x="1282.390625"/>
     <use xlink:href="#DejaVuSans-65" x="1379.802734"/>
     <use xlink:href="#DejaVuSans-20" x="1441.326172"/>
     <use xlink:href="#DejaVuSans-79" x="1473.113281"/>
     <use xlink:href="#DejaVuSans-65" x="1532.292969"/>
     <use xlink:href="#DejaVuSans-61" x="1593.816406"/>
     <use xlink:href="#DejaVuSans-72" x="1655.095703"/>
     <use xlink:href="#DejaVuSans-73" x="1696.208984"/>
    </g>
   </g>
  </g>
 </g>
 <defs>
  <clipPath id="p642354eed4">
   <rect x="53.03" y="25.44" width="363.925682" height="220.49875"/>
  </clipPath>
  <clipPath id="pb4c7f1efe0">
   <rect x="463.595682" y="25.44" width="363.925682" height="220.49875"/>
  </clipPath>
 </defs>
</svg>
