<?xml version="1.0" encoding="utf-8" standalone="no"?>
<!DOCTYPE svg PUBLIC "-//W3C//DTD SVG 1.1//EN"
  "http://www.w3.org/Graphics/SVG/1.1/DTD/svg11.dtd">
<svg xmlns:xlink="http://www.w3.org/1999/xlink" width="1080pt" height="576pt" viewBox="0 0 1080 576" xmlns="http://www.w3.org/2000/svg" version="1.1">
 <metadata>
  <rdf:RDF xmlns:dc="http://purl.org/dc/elements/1.1/" xmlns:cc="http://creativecommons.org/ns#" xmlns:rdf="http://www.w3.org/1999/02/22-rdf-syntax-ns#">
   <cc:Work>
    <dc:type rdf:resource="http://purl.org/dc/dcmitype/StillImage"/>
    <dc:date>2023-12-07T15:37:19.636256</dc:date>
    <dc:format>image/svg+xml</dc:format>
    <dc:creator>
     <cc:Agent>
      <dc:title>Matplotlib v3.7.1, https://matplotlib.org/</dc:title>
     </cc:Agent>
    </dc:creator>
   </cc:Work>
  </rdf:RDF>
 </metadata>
 <defs>
  <style type="text/css">*{stroke-linejoin: round; stroke-linecap: butt}</style>
 </defs>
 <g id="figure_1">
  <g id="patch_1">
   <path d="M 0 576 
L 1080 576 
L 1080 0 
L 0 0 
z
" style="fill: #ffffff"/>
  </g>
  <g id="axes_1">
   <g id="patch_2">
    <path d="M 61.76 250 
L 534.6 250 
L 534.6 25.44 
L 61.76 25.44 
z
" style="fill: #ffffff"/>
   </g>
   <g id="PolyCollection_1"/>
   <g id="PolyCollection_2"/>
   <g id="PolyCollection_3">
    <defs>
     <path id="m8f0a1ef1c8" d="M 83.252727 -450.730265 
L 83.252727 -428.682575 
L 101.942055 -424.357539 
L 120.631383 -426.529978 
L 139.320711 -419.133024 
L 158.01004 -413.845128 
L 176.699368 -422.458147 
L 195.388696 -425.204355 
L 214.078024 -427.51024 
L 232.767352 -429.199299 
L 251.45668 -421.729558 
L 270.146008 -421.666135 
L 288.835336 -421.42803 
L 307.524664 -416.496259 
L 326.213992 -426.5487 
L 344.90332 -425.894291 
L 363.592648 -410.403759 
L 382.281976 -423.37809 
L 400.971304 -419.973987 
L 419.660632 -424.77477 
L 438.34996 -423.101577 
L 457.039289 -418.309273 
L 475.728617 -425.931254 
L 494.417945 -423.836894 
L 513.107273 -425.067982 
L 513.107273 -433.900465 
L 513.107273 -433.900465 
L 494.417945 -429.863528 
L 475.728617 -435.1137 
L 457.039289 -432.175735 
L 438.34996 -430.063412 
L 419.660632 -433.983093 
L 400.971304 -466.237391 
L 382.281976 -428.962245 
L 363.592648 -440.983067 
L 344.90332 -445.221668 
L 326.213992 -428.0212 
L 307.524664 -436.031493 
L 288.835336 -431.164217 
L 270.146008 -432.124711 
L 251.45668 -471.908568 
L 232.767352 -440.887805 
L 214.078024 -438.512966 
L 195.388696 -442.097763 
L 176.699368 -441.798943 
L 158.01004 -439.218784 
L 139.320711 -433.833931 
L 120.631383 -436.931755 
L 101.942055 -430.768214 
L 83.252727 -450.730265 
z
" style="stroke: #008000; stroke-opacity: 0.4"/>
    </defs>
    <g clip-path="url(#p1eb8f704ab)">
     <use xlink:href="#m8f0a1ef1c8" x="0" y="576" style="fill: #008000; fill-opacity: 0.4; stroke: #008000; stroke-opacity: 0.4"/>
    </g>
   </g>
   <g id="matplotlib.axis_1">
    <g id="xtick_1">
     <g id="line2d_1">
      <defs>
       <path id="m12be1bfb33" d="M 0 0 
L 0 3.5 
" style="stroke: #000000; stroke-width: 0.8"/>
      </defs>
      <g>
       <use xlink:href="#m12be1bfb33" x="120.631383" y="250" style="stroke: #000000; stroke-width: 0.8"/>
      </g>
     </g>
     <g id="text_1">
      <!-- 1995 -->
      <g transform="translate(105.361383 266.118125) scale(0.12 -0.12)">
       <defs>
        <path id="DejaVuSans-31" d="M 794 531 
L 1825 531 
L 1825 4091 
L 703 3866 
L 703 4441 
L 1819 4666 
L 2450 4666 
L 2450 531 
L 3481 531 
L 3481 0 
L 794 0 
L 794 531 
z
" transform="scale(0.015625)"/>
        <path id="DejaVuSans-39" d="M 703 97 
L 703 672 
Q 941 559 1184 500 
Q 1428 441 1663 441 
Q 2288 441 2617 861 
Q 2947 1281 2994 2138 
Q 2813 1869 2534 1725 
Q 2256 1581 1919 1581 
Q 1219 1581 811 2004 
Q 403 2428 403 3163 
Q 403 3881 828 4315 
Q 1253 4750 1959 4750 
Q 2769 4750 3195 4129 
Q 3622 3509 3622 2328 
Q 3622 1225 3098 567 
Q 2575 -91 1691 -91 
Q 1453 -91 1209 -44 
Q 966 3 703 97 
z
M 1959 2075 
Q 2384 2075 2632 2365 
Q 2881 2656 2881 3163 
Q 2881 3666 2632 3958 
Q 2384 4250 1959 4250 
Q 1534 4250 1286 3958 
Q 1038 3666 1038 3163 
Q 1038 2656 1286 2365 
Q 1534 2075 1959 2075 
z
" transform="scale(0.015625)"/>
        <path id="DejaVuSans-35" d="M 691 4666 
L 3169 4666 
L 3169 4134 
L 1269 4134 
L 1269 2991 
Q 1406 3038 1543 3061 
Q 1681 3084 1819 3084 
Q 2600 3084 3056 2656 
Q 3513 2228 3513 1497 
Q 3513 744 3044 326 
Q 2575 -91 1722 -91 
Q 1428 -91 1123 -41 
Q 819 9 494 109 
L 494 744 
Q 775 591 1075 516 
Q 1375 441 1709 441 
Q 2250 441 2565 725 
Q 2881 1009 2881 1497 
Q 2881 1984 2565 2268 
Q 2250 2553 1709 2553 
Q 1456 2553 1204 2497 
Q 953 2441 691 2322 
L 691 4666 
z
" transform="scale(0.015625)"/>
       </defs>
       <use xlink:href="#DejaVuSans-31"/>
       <use xlink:href="#DejaVuSans-39" x="63.623047"/>
       <use xlink:href="#DejaVuSans-39" x="127.246094"/>
       <use xlink:href="#DejaVuSans-35" x="190.869141"/>
      </g>
     </g>
    </g>
    <g id="xtick_2">
     <g id="line2d_2">
      <g>
       <use xlink:href="#m12be1bfb33" x="214.078024" y="250" style="stroke: #000000; stroke-width: 0.8"/>
      </g>
     </g>
     <g id="text_2">
      <!-- 2000 -->
      <g transform="translate(198.808024 266.118125) scale(0.12 -0.12)">
       <defs>
        <path id="DejaVuSans-32" d="M 1228 531 
L 3431 531 
L 3431 0 
L 469 0 
L 469 531 
Q 828 903 1448 1529 
Q 2069 2156 2228 2338 
Q 2531 2678 2651 2914 
Q 2772 3150 2772 3378 
Q 2772 3750 2511 3984 
Q 2250 4219 1831 4219 
Q 1534 4219 1204 4116 
Q 875 4013 500 3803 
L 500 4441 
Q 881 4594 1212 4672 
Q 1544 4750 1819 4750 
Q 2544 4750 2975 4387 
Q 3406 4025 3406 3419 
Q 3406 3131 3298 2873 
Q 3191 2616 2906 2266 
Q 2828 2175 2409 1742 
Q 1991 1309 1228 531 
z
" transform="scale(0.015625)"/>
        <path id="DejaVuSans-30" d="M 2034 4250 
Q 1547 4250 1301 3770 
Q 1056 3291 1056 2328 
Q 1056 1369 1301 889 
Q 1547 409 2034 409 
Q 2525 409 2770 889 
Q 3016 1369 3016 2328 
Q 3016 3291 2770 3770 
Q 2525 4250 2034 4250 
z
M 2034 4750 
Q 2819 4750 3233 4129 
Q 3647 3509 3647 2328 
Q 3647 1150 3233 529 
Q 2819 -91 2034 -91 
Q 1250 -91 836 529 
Q 422 1150 422 2328 
Q 422 3509 836 4129 
Q 1250 4750 2034 4750 
z
" transform="scale(0.015625)"/>
       </defs>
       <use xlink:href="#DejaVuSans-32"/>
       <use xlink:href="#DejaVuSans-30" x="63.623047"/>
       <use xlink:href="#DejaVuSans-30" x="127.246094"/>
       <use xlink:href="#DejaVuSans-30" x="190.869141"/>
      </g>
     </g>
    </g>
    <g id="xtick_3">
     <g id="line2d_3">
      <g>
       <use xlink:href="#m12be1bfb33" x="307.524664" y="250" style="stroke: #000000; stroke-width: 0.8"/>
      </g>
     </g>
     <g id="text_3">
      <!-- 2005 -->
      <g transform="translate(292.254664 266.118125) scale(0.12 -0.12)">
       <use xlink:href="#DejaVuSans-32"/>
       <use xlink:href="#DejaVuSans-30" x="63.623047"/>
       <use xlink:href="#DejaVuSans-30" x="127.246094"/>
       <use xlink:href="#DejaVuSans-35" x="190.869141"/>
      </g>
     </g>
    </g>
    <g id="xtick_4">
     <g id="line2d_4">
      <g>
       <use xlink:href="#m12be1bfb33" x="400.971304" y="250" style="stroke: #000000; stroke-width: 0.8"/>
      </g>
     </g>
     <g id="text_4">
      <!-- 2010 -->
      <g transform="translate(385.701304 266.118125) scale(0.12 -0.12)">
       <use xlink:href="#DejaVuSans-32"/>
       <use xlink:href="#DejaVuSans-30" x="63.623047"/>
       <use xlink:href="#DejaVuSans-31" x="127.246094"/>
       <use xlink:href="#DejaVuSans-30" x="190.869141"/>
      </g>
     </g>
    </g>
    <g id="xtick_5">
     <g id="line2d_5">
      <g>
       <use xlink:href="#m12be1bfb33" x="494.417945" y="250" style="stroke: #000000; stroke-width: 0.8"/>
      </g>
     </g>
     <g id="text_5">
      <!-- 2015 -->
      <g transform="translate(479.147945 266.118125) scale(0.12 -0.12)">
       <use xlink:href="#DejaVuSans-32"/>
       <use xlink:href="#DejaVuSans-30" x="63.623047"/>
       <use xlink:href="#DejaVuSans-31" x="127.246094"/>
       <use xlink:href="#DejaVuSans-35" x="190.869141"/>
      </g>
     </g>
    </g>
    <g id="text_6">
     <!-- Year -->
     <g transform="translate(285.475 281.731875) scale(0.12 -0.12)">
      <defs>
       <path id="DejaVuSans-59" d="M -13 4666 
L 666 4666 
L 1959 2747 
L 3244 4666 
L 3922 4666 
L 2272 2222 
L 2272 0 
L 1638 0 
L 1638 2222 
L -13 4666 
z
" transform="scale(0.015625)"/>
       <path id="DejaVuSans-65" d="M 3597 1894 
L 3597 1613 
L 953 1613 
Q 991 1019 1311 708 
Q 1631 397 2203 397 
Q 2534 397 2845 478 
Q 3156 559 3463 722 
L 3463 178 
Q 3153 47 2828 -22 
Q 2503 -91 2169 -91 
Q 1331 -91 842 396 
Q 353 884 353 1716 
Q 353 2575 817 3079 
Q 1281 3584 2069 3584 
Q 2775 3584 3186 3129 
Q 3597 2675 3597 1894 
z
M 3022 2063 
Q 3016 2534 2758 2815 
Q 2500 3097 2075 3097 
Q 1594 3097 1305 2825 
Q 1016 2553 972 2059 
L 3022 2063 
z
" transform="scale(0.015625)"/>
       <path id="DejaVuSans-61" d="M 2194 1759 
Q 1497 1759 1228 1600 
Q 959 1441 959 1056 
Q 959 750 1161 570 
Q 1363 391 1709 391 
Q 2188 391 2477 730 
Q 2766 1069 2766 1631 
L 2766 1759 
L 2194 1759 
z
M 3341 1997 
L 3341 0 
L 2766 0 
L 2766 531 
Q 2569 213 2275 61 
Q 1981 -91 1556 -91 
Q 1019 -91 701 211 
Q 384 513 384 1019 
Q 384 1609 779 1909 
Q 1175 2209 1959 2209 
L 2766 2209 
L 2766 2266 
Q 2766 2663 2505 2880 
Q 2244 3097 1772 3097 
Q 1472 3097 1187 3025 
Q 903 2953 641 2809 
L 641 3341 
Q 956 3463 1253 3523 
Q 1550 3584 1831 3584 
Q 2591 3584 2966 3190 
Q 3341 2797 3341 1997 
z
" transform="scale(0.015625)"/>
       <path id="DejaVuSans-72" d="M 2631 2963 
Q 2534 3019 2420 3045 
Q 2306 3072 2169 3072 
Q 1681 3072 1420 2755 
Q 1159 2438 1159 1844 
L 1159 0 
L 581 0 
L 581 3500 
L 1159 3500 
L 1159 2956 
Q 1341 3275 1631 3429 
Q 1922 3584 2338 3584 
Q 2397 3584 2469 3576 
Q 2541 3569 2628 3553 
L 2631 2963 
z
" transform="scale(0.015625)"/>
      </defs>
      <use xlink:href="#DejaVuSans-59"/>
      <use xlink:href="#DejaVuSans-65" x="47.833984"/>
      <use xlink:href="#DejaVuSans-61" x="109.357422"/>
      <use xlink:href="#DejaVuSans-72" x="170.636719"/>
     </g>
    </g>
   </g>
   <g id="matplotlib.axis_2">
    <g id="ytick_1">
     <g id="line2d_6">
      <defs>
       <path id="m2c81319f24" d="M 0 0 
L -3.5 0 
" style="stroke: #000000; stroke-width: 0.8"/>
      </defs>
      <g>
       <use xlink:href="#m2c81319f24" x="61.76" y="242.569798" style="stroke: #000000; stroke-width: 0.8"/>
      </g>
     </g>
     <g id="text_7">
      <!-- −0.3 -->
      <g transform="translate(25.620625 247.128861) scale(0.12 -0.12)">
       <defs>
        <path id="DejaVuSans-2212" d="M 678 2272 
L 4684 2272 
L 4684 1741 
L 678 1741 
L 678 2272 
z
" transform="scale(0.015625)"/>
        <path id="DejaVuSans-2e" d="M 684 794 
L 1344 794 
L 1344 0 
L 684 0 
L 684 794 
z
" transform="scale(0.015625)"/>
        <path id="DejaVuSans-33" d="M 2597 2516 
Q 3050 2419 3304 2112 
Q 3559 1806 3559 1356 
Q 3559 666 3084 287 
Q 2609 -91 1734 -91 
Q 1441 -91 1130 -33 
Q 819 25 488 141 
L 488 750 
Q 750 597 1062 519 
Q 1375 441 1716 441 
Q 2309 441 2620 675 
Q 2931 909 2931 1356 
Q 2931 1769 2642 2001 
Q 2353 2234 1838 2234 
L 1294 2234 
L 1294 2753 
L 1863 2753 
Q 2328 2753 2575 2939 
Q 2822 3125 2822 3475 
Q 2822 3834 2567 4026 
Q 2313 4219 1838 4219 
Q 1578 4219 1281 4162 
Q 984 4106 628 3988 
L 628 4550 
Q 988 4650 1302 4700 
Q 1616 4750 1894 4750 
Q 2613 4750 3031 4423 
Q 3450 4097 3450 3541 
Q 3450 3153 3228 2886 
Q 3006 2619 2597 2516 
z
" transform="scale(0.015625)"/>
       </defs>
       <use xlink:href="#DejaVuSans-2212"/>
       <use xlink:href="#DejaVuSans-30" x="83.789062"/>
       <use xlink:href="#DejaVuSans-2e" x="147.412109"/>
       <use xlink:href="#DejaVuSans-33" x="179.199219"/>
      </g>
     </g>
    </g>
    <g id="ytick_2">
     <g id="line2d_7">
      <g>
       <use xlink:href="#m2c81319f24" x="61.76" y="212.839271" style="stroke: #000000; stroke-width: 0.8"/>
      </g>
     </g>
     <g id="text_8">
      <!-- −0.2 -->
      <g transform="translate(25.620625 217.398334) scale(0.12 -0.12)">
       <use xlink:href="#DejaVuSans-2212"/>
       <use xlink:href="#DejaVuSans-30" x="83.789062"/>
       <use xlink:href="#DejaVuSans-2e" x="147.412109"/>
       <use xlink:href="#DejaVuSans-32" x="179.199219"/>
      </g>
     </g>
    </g>
    <g id="ytick_3">
     <g id="line2d_8">
      <g>
       <use xlink:href="#m2c81319f24" x="61.76" y="183.108744" style="stroke: #000000; stroke-width: 0.8"/>
      </g>
     </g>
     <g id="text_9">
      <!-- −0.1 -->
      <g transform="translate(25.620625 187.667806) scale(0.12 -0.12)">
       <use xlink:href="#DejaVuSans-2212"/>
       <use xlink:href="#DejaVuSans-30" x="83.789062"/>
       <use xlink:href="#DejaVuSans-2e" x="147.412109"/>
       <use xlink:href="#DejaVuSans-31" x="179.199219"/>
      </g>
     </g>
    </g>
    <g id="ytick_4">
     <g id="line2d_9">
      <g>
       <use xlink:href="#m2c81319f24" x="61.76" y="153.378216" style="stroke: #000000; stroke-width: 0.8"/>
      </g>
     </g>
     <g id="text_10">
      <!-- 0.0 -->
      <g transform="translate(35.67625 157.937279) scale(0.12 -0.12)">
       <use xlink:href="#DejaVuSans-30"/>
       <use xlink:href="#DejaVuSans-2e" x="63.623047"/>
       <use xlink:href="#DejaVuSans-30" x="95.410156"/>
      </g>
     </g>
    </g>
    <g id="ytick_5">
     <g id="line2d_10">
      <g>
       <use xlink:href="#m2c81319f24" x="61.76" y="123.647689" style="stroke: #000000; stroke-width: 0.8"/>
      </g>
     </g>
     <g id="text_11">
      <!-- 0.1 -->
      <g transform="translate(35.67625 128.206751) scale(0.12 -0.12)">
       <use xlink:href="#DejaVuSans-30"/>
       <use xlink:href="#DejaVuSans-2e" x="63.623047"/>
       <use xlink:href="#DejaVuSans-31" x="95.410156"/>
      </g>
     </g>
    </g>
    <g id="ytick_6">
     <g id="line2d_11">
      <g>
       <use xlink:href="#m2c81319f24" x="61.76" y="93.917162" style="stroke: #000000; stroke-width: 0.8"/>
      </g>
     </g>
     <g id="text_12">
      <!-- 0.2 -->
      <g transform="translate(35.67625 98.476224) scale(0.12 -0.12)">
       <use xlink:href="#DejaVuSans-30"/>
       <use xlink:href="#DejaVuSans-2e" x="63.623047"/>
       <use xlink:href="#DejaVuSans-32" x="95.410156"/>
      </g>
     </g>
    </g>
    <g id="ytick_7">
     <g id="line2d_12">
      <g>
       <use xlink:href="#m2c81319f24" x="61.76" y="64.186634" style="stroke: #000000; stroke-width: 0.8"/>
      </g>
     </g>
     <g id="text_13">
      <!-- 0.3 -->
      <g transform="translate(35.67625 68.745697) scale(0.12 -0.12)">
       <use xlink:href="#DejaVuSans-30"/>
       <use xlink:href="#DejaVuSans-2e" x="63.623047"/>
       <use xlink:href="#DejaVuSans-33" x="95.410156"/>
      </g>
     </g>
    </g>
    <g id="ytick_8">
     <g id="line2d_13">
      <g>
       <use xlink:href="#m2c81319f24" x="61.76" y="34.456107" style="stroke: #000000; stroke-width: 0.8"/>
      </g>
     </g>
     <g id="text_14">
      <!-- 0.4 -->
      <g transform="translate(35.67625 39.015169) scale(0.12 -0.12)">
       <defs>
        <path id="DejaVuSans-34" d="M 2419 4116 
L 825 1625 
L 2419 1625 
L 2419 4116 
z
M 2253 4666 
L 3047 4666 
L 3047 1625 
L 3713 1625 
L 3713 1100 
L 3047 1100 
L 3047 0 
L 2419 0 
L 2419 1100 
L 313 1100 
L 313 1709 
L 2253 4666 
z
" transform="scale(0.015625)"/>
       </defs>
       <use xlink:href="#DejaVuSans-30"/>
       <use xlink:href="#DejaVuSans-2e" x="63.623047"/>
       <use xlink:href="#DejaVuSans-34" x="95.410156"/>
      </g>
     </g>
    </g>
    <g id="text_15">
     <!-- Variability [%] -->
     <g transform="translate(19.125 179.849375) rotate(-90) scale(0.12 -0.12)">
      <defs>
       <path id="DejaVuSans-56" d="M 1831 0 
L 50 4666 
L 709 4666 
L 2188 738 
L 3669 4666 
L 4325 4666 
L 2547 0 
L 1831 0 
z
" transform="scale(0.015625)"/>
       <path id="DejaVuSans-69" d="M 603 3500 
L 1178 3500 
L 1178 0 
L 603 0 
L 603 3500 
z
M 603 4863 
L 1178 4863 
L 1178 4134 
L 603 4134 
L 603 4863 
z
" transform="scale(0.015625)"/>
       <path id="DejaVuSans-62" d="M 3116 1747 
Q 3116 2381 2855 2742 
Q 2594 3103 2138 3103 
Q 1681 3103 1420 2742 
Q 1159 2381 1159 1747 
Q 1159 1113 1420 752 
Q 1681 391 2138 391 
Q 2594 391 2855 752 
Q 3116 1113 3116 1747 
z
M 1159 2969 
Q 1341 3281 1617 3432 
Q 1894 3584 2278 3584 
Q 2916 3584 3314 3078 
Q 3713 2572 3713 1747 
Q 3713 922 3314 415 
Q 2916 -91 2278 -91 
Q 1894 -91 1617 61 
Q 1341 213 1159 525 
L 1159 0 
L 581 0 
L 581 4863 
L 1159 4863 
L 1159 2969 
z
" transform="scale(0.015625)"/>
       <path id="DejaVuSans-6c" d="M 603 4863 
L 1178 4863 
L 1178 0 
L 603 0 
L 603 4863 
z
" transform="scale(0.015625)"/>
       <path id="DejaVuSans-74" d="M 1172 4494 
L 1172 3500 
L 2356 3500 
L 2356 3053 
L 1172 3053 
L 1172 1153 
Q 1172 725 1289 603 
Q 1406 481 1766 481 
L 2356 481 
L 2356 0 
L 1766 0 
Q 1100 0 847 248 
Q 594 497 594 1153 
L 594 3053 
L 172 3053 
L 172 3500 
L 594 3500 
L 594 4494 
L 1172 4494 
z
" transform="scale(0.015625)"/>
       <path id="DejaVuSans-79" d="M 2059 -325 
Q 1816 -950 1584 -1140 
Q 1353 -1331 966 -1331 
L 506 -1331 
L 506 -850 
L 844 -850 
Q 1081 -850 1212 -737 
Q 1344 -625 1503 -206 
L 1606 56 
L 191 3500 
L 800 3500 
L 1894 763 
L 2988 3500 
L 3597 3500 
L 2059 -325 
z
" transform="scale(0.015625)"/>
       <path id="DejaVuSans-20" transform="scale(0.015625)"/>
       <path id="DejaVuSans-5b" d="M 550 4863 
L 1875 4863 
L 1875 4416 
L 1125 4416 
L 1125 -397 
L 1875 -397 
L 1875 -844 
L 550 -844 
L 550 4863 
z
" transform="scale(0.015625)"/>
       <path id="DejaVuSans-25" d="M 4653 2053 
Q 4381 2053 4226 1822 
Q 4072 1591 4072 1178 
Q 4072 772 4226 539 
Q 4381 306 4653 306 
Q 4919 306 5073 539 
Q 5228 772 5228 1178 
Q 5228 1588 5073 1820 
Q 4919 2053 4653 2053 
z
M 4653 2450 
Q 5147 2450 5437 2106 
Q 5728 1763 5728 1178 
Q 5728 594 5436 251 
Q 5144 -91 4653 -91 
Q 4153 -91 3862 251 
Q 3572 594 3572 1178 
Q 3572 1766 3864 2108 
Q 4156 2450 4653 2450 
z
M 1428 4353 
Q 1159 4353 1004 4120 
Q 850 3888 850 3481 
Q 850 3069 1003 2837 
Q 1156 2606 1428 2606 
Q 1700 2606 1854 2837 
Q 2009 3069 2009 3481 
Q 2009 3884 1853 4118 
Q 1697 4353 1428 4353 
z
M 4250 4750 
L 4750 4750 
L 1831 -91 
L 1331 -91 
L 4250 4750 
z
M 1428 4750 
Q 1922 4750 2215 4408 
Q 2509 4066 2509 3481 
Q 2509 2891 2217 2550 
Q 1925 2209 1428 2209 
Q 931 2209 642 2551 
Q 353 2894 353 3481 
Q 353 4063 643 4406 
Q 934 4750 1428 4750 
z
" transform="scale(0.015625)"/>
       <path id="DejaVuSans-5d" d="M 1947 4863 
L 1947 -844 
L 622 -844 
L 622 -397 
L 1369 -397 
L 1369 4416 
L 622 4416 
L 622 4863 
L 1947 4863 
z
" transform="scale(0.015625)"/>
      </defs>
      <use xlink:href="#DejaVuSans-56"/>
      <use xlink:href="#DejaVuSans-61" x="60.658203"/>
      <use xlink:href="#DejaVuSans-72" x="121.9375"/>
      <use xlink:href="#DejaVuSans-69" x="163.050781"/>
      <use xlink:href="#DejaVuSans-61" x="190.833984"/>
      <use xlink:href="#DejaVuSans-62" x="252.113281"/>
      <use xlink:href="#DejaVuSans-69" x="315.589844"/>
      <use xlink:href="#DejaVuSans-6c" x="343.373047"/>
      <use xlink:href="#DejaVuSans-69" x="371.15625"/>
      <use xlink:href="#DejaVuSans-74" x="398.939453"/>
      <use xlink:href="#DejaVuSans-79" x="438.148438"/>
      <use xlink:href="#DejaVuSans-20" x="497.328125"/>
      <use xlink:href="#DejaVuSans-5b" x="529.115234"/>
      <use xlink:href="#DejaVuSans-25" x="568.128906"/>
      <use xlink:href="#DejaVuSans-5d" x="663.148438"/>
     </g>
    </g>
   </g>
   <g id="line2d_14">
    <path d="M 83.252727 167.105057 
L 101.942055 147.985771 
L 120.631383 183.782049 
L 139.320711 141.19829 
L 158.01004 101.07841 
L 176.699368 155.439003 
L 195.388696 135.429596 
L 214.078024 139.904559 
L 232.767352 178.117523 
L 251.45668 200.94401 
L 270.146008 127.595556 
L 288.835336 125.623691 
L 307.524664 144.593064 
L 326.213992 136.253911 
L 344.90332 126.590274 
L 363.592648 239.792727 
L 382.281976 129.329281 
L 400.971304 35.647273 
L 419.660632 95.268965 
L 438.34996 176.457463 
L 457.039289 201.279817 
L 475.728617 181.178958 
L 494.417945 163.013688 
L 513.107273 133.753288 
" clip-path="url(#p1eb8f704ab)" style="fill: none; stroke: #000000; stroke-width: 2; stroke-linecap: square"/>
   </g>
   <g id="line2d_15">
    <path d="M 83.252727 141.198142 
L 101.942055 149.383614 
L 120.631383 144.891768 
L 139.320711 149.854909 
L 158.01004 149.176079 
L 176.699368 145.241735 
L 195.388696 141.955849 
L 214.078024 144.006744 
L 232.767352 142.643382 
L 251.45668 137.44053 
L 270.146008 148.106731 
L 288.835336 149.57448 
L 307.524664 147.749916 
L 326.213992 148.906032 
L 344.90332 142.294887 
L 363.592648 148.988582 
L 382.281976 149.096895 
L 400.971304 139.298179 
L 419.660632 146.514451 
L 438.34996 148.463233 
L 457.039289 149.200078 
L 475.728617 145.074933 
L 494.417945 149.103615 
L 513.107273 146.92072 
" clip-path="url(#p1eb8f704ab)" style="fill: none; stroke-dasharray: 11.1,4.8; stroke-dashoffset: 0; stroke: #008000; stroke-width: 3"/>
   </g>
   <g id="patch_3">
    <path d="M 61.76 250 
L 61.76 25.44 
" style="fill: none; stroke: #000000; stroke-width: 0.8; stroke-linejoin: miter; stroke-linecap: square"/>
   </g>
   <g id="patch_4">
    <path d="M 61.76 250 
L 534.6 250 
" style="fill: none; stroke: #000000; stroke-width: 0.8; stroke-linejoin: miter; stroke-linecap: square"/>
   </g>
   <g id="text_16">
    <!-- a) August -->
    <g transform="translate(61.76 19.44) scale(0.12 -0.12)">
     <defs>
      <path id="DejaVuSans-29" d="M 513 4856 
L 1013 4856 
Q 1481 4119 1714 3412 
Q 1947 2706 1947 2009 
Q 1947 1309 1714 600 
Q 1481 -109 1013 -844 
L 513 -844 
Q 928 -128 1133 580 
Q 1338 1288 1338 2009 
Q 1338 2731 1133 3434 
Q 928 4138 513 4856 
z
" transform="scale(0.015625)"/>
      <path id="DejaVuSans-41" d="M 2188 4044 
L 1331 1722 
L 3047 1722 
L 2188 4044 
z
M 1831 4666 
L 2547 4666 
L 4325 0 
L 3669 0 
L 3244 1197 
L 1141 1197 
L 716 0 
L 50 0 
L 1831 4666 
z
" transform="scale(0.015625)"/>
      <path id="DejaVuSans-75" d="M 544 1381 
L 544 3500 
L 1119 3500 
L 1119 1403 
Q 1119 906 1312 657 
Q 1506 409 1894 409 
Q 2359 409 2629 706 
Q 2900 1003 2900 1516 
L 2900 3500 
L 3475 3500 
L 3475 0 
L 2900 0 
L 2900 538 
Q 2691 219 2414 64 
Q 2138 -91 1772 -91 
Q 1169 -91 856 284 
Q 544 659 544 1381 
z
M 1991 3584 
L 1991 3584 
z
" transform="scale(0.015625)"/>
      <path id="DejaVuSans-67" d="M 2906 1791 
Q 2906 2416 2648 2759 
Q 2391 3103 1925 3103 
Q 1463 3103 1205 2759 
Q 947 2416 947 1791 
Q 947 1169 1205 825 
Q 1463 481 1925 481 
Q 2391 481 2648 825 
Q 2906 1169 2906 1791 
z
M 3481 434 
Q 3481 -459 3084 -895 
Q 2688 -1331 1869 -1331 
Q 1566 -1331 1297 -1286 
Q 1028 -1241 775 -1147 
L 775 -588 
Q 1028 -725 1275 -790 
Q 1522 -856 1778 -856 
Q 2344 -856 2625 -561 
Q 2906 -266 2906 331 
L 2906 616 
Q 2728 306 2450 153 
Q 2172 0 1784 0 
Q 1141 0 747 490 
Q 353 981 353 1791 
Q 353 2603 747 3093 
Q 1141 3584 1784 3584 
Q 2172 3584 2450 3431 
Q 2728 3278 2906 2969 
L 2906 3500 
L 3481 3500 
L 3481 434 
z
" transform="scale(0.015625)"/>
      <path id="DejaVuSans-73" d="M 2834 3397 
L 2834 2853 
Q 2591 2978 2328 3040 
Q 2066 3103 1784 3103 
Q 1356 3103 1142 2972 
Q 928 2841 928 2578 
Q 928 2378 1081 2264 
Q 1234 2150 1697 2047 
L 1894 2003 
Q 2506 1872 2764 1633 
Q 3022 1394 3022 966 
Q 3022 478 2636 193 
Q 2250 -91 1575 -91 
Q 1294 -91 989 -36 
Q 684 19 347 128 
L 347 722 
Q 666 556 975 473 
Q 1284 391 1588 391 
Q 1994 391 2212 530 
Q 2431 669 2431 922 
Q 2431 1156 2273 1281 
Q 2116 1406 1581 1522 
L 1381 1569 
Q 847 1681 609 1914 
Q 372 2147 372 2553 
Q 372 3047 722 3315 
Q 1072 3584 1716 3584 
Q 2034 3584 2315 3537 
Q 2597 3491 2834 3397 
z
" transform="scale(0.015625)"/>
     </defs>
     <use xlink:href="#DejaVuSans-61"/>
     <use xlink:href="#DejaVuSans-29" x="61.279297"/>
     <use xlink:href="#DejaVuSans-20" x="100.292969"/>
     <use xlink:href="#DejaVuSans-41" x="132.080078"/>
     <use xlink:href="#DejaVuSans-75" x="200.488281"/>
     <use xlink:href="#DejaVuSans-67" x="263.867188"/>
     <use xlink:href="#DejaVuSans-75" x="327.34375"/>
     <use xlink:href="#DejaVuSans-73" x="390.722656"/>
     <use xlink:href="#DejaVuSans-74" x="442.822266"/>
    </g>
   </g>
   <g id="legend_1">
    <g id="patch_5">
     <path d="M 70.16 70.2675 
L 348.580625 70.2675 
Q 350.980625 70.2675 350.980625 67.8675 
L 350.980625 33.84 
Q 350.980625 31.44 348.580625 31.44 
L 70.16 31.44 
Q 67.76 31.44 67.76 33.84 
L 67.76 67.8675 
Q 67.76 70.2675 70.16 70.2675 
z
" style="fill: #ffffff; opacity: 0.8; stroke: #cccccc; stroke-linejoin: miter"/>
    </g>
    <g id="line2d_16">
     <path d="M 72.56 41.158125 
L 84.56 41.158125 
L 96.56 41.158125 
" style="fill: none; stroke: #000000; stroke-width: 2; stroke-linecap: square"/>
    </g>
    <g id="text_17">
     <!-- Observed -->
     <g transform="translate(106.16 45.358125) scale(0.12 -0.12)">
      <defs>
       <path id="DejaVuSans-4f" d="M 2522 4238 
Q 1834 4238 1429 3725 
Q 1025 3213 1025 2328 
Q 1025 1447 1429 934 
Q 1834 422 2522 422 
Q 3209 422 3611 934 
Q 4013 1447 4013 2328 
Q 4013 3213 3611 3725 
Q 3209 4238 2522 4238 
z
M 2522 4750 
Q 3503 4750 4090 4092 
Q 4678 3434 4678 2328 
Q 4678 1225 4090 567 
Q 3503 -91 2522 -91 
Q 1538 -91 948 565 
Q 359 1222 359 2328 
Q 359 3434 948 4092 
Q 1538 4750 2522 4750 
z
" transform="scale(0.015625)"/>
       <path id="DejaVuSans-76" d="M 191 3500 
L 800 3500 
L 1894 563 
L 2988 3500 
L 3597 3500 
L 2284 0 
L 1503 0 
L 191 3500 
z
" transform="scale(0.015625)"/>
       <path id="DejaVuSans-64" d="M 2906 2969 
L 2906 4863 
L 3481 4863 
L 3481 0 
L 2906 0 
L 2906 525 
Q 2725 213 2448 61 
Q 2172 -91 1784 -91 
Q 1150 -91 751 415 
Q 353 922 353 1747 
Q 353 2572 751 3078 
Q 1150 3584 1784 3584 
Q 2172 3584 2448 3432 
Q 2725 3281 2906 2969 
z
M 947 1747 
Q 947 1113 1208 752 
Q 1469 391 1925 391 
Q 2381 391 2643 752 
Q 2906 1113 2906 1747 
Q 2906 2381 2643 2742 
Q 2381 3103 1925 3103 
Q 1469 3103 1208 2742 
Q 947 2381 947 1747 
z
" transform="scale(0.015625)"/>
      </defs>
      <use xlink:href="#DejaVuSans-4f"/>
      <use xlink:href="#DejaVuSans-62" x="78.710938"/>
      <use xlink:href="#DejaVuSans-73" x="142.1875"/>
      <use xlink:href="#DejaVuSans-65" x="194.287109"/>
      <use xlink:href="#DejaVuSans-72" x="255.810547"/>
      <use xlink:href="#DejaVuSans-76" x="296.923828"/>
      <use xlink:href="#DejaVuSans-65" x="356.103516"/>
      <use xlink:href="#DejaVuSans-64" x="417.626953"/>
     </g>
    </g>
    <g id="line2d_17">
     <path d="M 72.56 58.771875 
L 84.56 58.771875 
L 96.56 58.771875 
" style="fill: none; stroke-dasharray: 11.1,4.8; stroke-dashoffset: 0; stroke: #008000; stroke-width: 3"/>
    </g>
    <g id="text_18">
     <!-- MME forecasts: (R²: 0.0, RRMSE: 13.5%) -->
     <g transform="translate(106.16 62.971875) scale(0.12 -0.12)">
      <defs>
       <path id="DejaVuSans-4d" d="M 628 4666 
L 1569 4666 
L 2759 1491 
L 3956 4666 
L 4897 4666 
L 4897 0 
L 4281 0 
L 4281 4097 
L 3078 897 
L 2444 897 
L 1241 4097 
L 1241 0 
L 628 0 
L 628 4666 
z
" transform="scale(0.015625)"/>
       <path id="DejaVuSans-45" d="M 628 4666 
L 3578 4666 
L 3578 4134 
L 1259 4134 
L 1259 2753 
L 3481 2753 
L 3481 2222 
L 1259 2222 
L 1259 531 
L 3634 531 
L 3634 0 
L 628 0 
L 628 4666 
z
" transform="scale(0.015625)"/>
       <path id="DejaVuSans-66" d="M 2375 4863 
L 2375 4384 
L 1825 4384 
Q 1516 4384 1395 4259 
Q 1275 4134 1275 3809 
L 1275 3500 
L 2222 3500 
L 2222 3053 
L 1275 3053 
L 1275 0 
L 697 0 
L 697 3053 
L 147 3053 
L 147 3500 
L 697 3500 
L 697 3744 
Q 697 4328 969 4595 
Q 1241 4863 1831 4863 
L 2375 4863 
z
" transform="scale(0.015625)"/>
       <path id="DejaVuSans-6f" d="M 1959 3097 
Q 1497 3097 1228 2736 
Q 959 2375 959 1747 
Q 959 1119 1226 758 
Q 1494 397 1959 397 
Q 2419 397 2687 759 
Q 2956 1122 2956 1747 
Q 2956 2369 2687 2733 
Q 2419 3097 1959 3097 
z
M 1959 3584 
Q 2709 3584 3137 3096 
Q 3566 2609 3566 1747 
Q 3566 888 3137 398 
Q 2709 -91 1959 -91 
Q 1206 -91 779 398 
Q 353 888 353 1747 
Q 353 2609 779 3096 
Q 1206 3584 1959 3584 
z
" transform="scale(0.015625)"/>
       <path id="DejaVuSans-63" d="M 3122 3366 
L 3122 2828 
Q 2878 2963 2633 3030 
Q 2388 3097 2138 3097 
Q 1578 3097 1268 2742 
Q 959 2388 959 1747 
Q 959 1106 1268 751 
Q 1578 397 2138 397 
Q 2388 397 2633 464 
Q 2878 531 3122 666 
L 3122 134 
Q 2881 22 2623 -34 
Q 2366 -91 2075 -91 
Q 1284 -91 818 406 
Q 353 903 353 1747 
Q 353 2603 823 3093 
Q 1294 3584 2113 3584 
Q 2378 3584 2631 3529 
Q 2884 3475 3122 3366 
z
" transform="scale(0.015625)"/>
       <path id="DejaVuSans-3a" d="M 750 794 
L 1409 794 
L 1409 0 
L 750 0 
L 750 794 
z
M 750 3309 
L 1409 3309 
L 1409 2516 
L 750 2516 
L 750 3309 
z
" transform="scale(0.015625)"/>
       <path id="DejaVuSans-28" d="M 1984 4856 
Q 1566 4138 1362 3434 
Q 1159 2731 1159 2009 
Q 1159 1288 1364 580 
Q 1569 -128 1984 -844 
L 1484 -844 
Q 1016 -109 783 600 
Q 550 1309 550 2009 
Q 550 2706 781 3412 
Q 1013 4119 1484 4856 
L 1984 4856 
z
" transform="scale(0.015625)"/>
       <path id="DejaVuSans-52" d="M 2841 2188 
Q 3044 2119 3236 1894 
Q 3428 1669 3622 1275 
L 4263 0 
L 3584 0 
L 2988 1197 
Q 2756 1666 2539 1819 
Q 2322 1972 1947 1972 
L 1259 1972 
L 1259 0 
L 628 0 
L 628 4666 
L 2053 4666 
Q 2853 4666 3247 4331 
Q 3641 3997 3641 3322 
Q 3641 2881 3436 2590 
Q 3231 2300 2841 2188 
z
M 1259 4147 
L 1259 2491 
L 2053 2491 
Q 2509 2491 2742 2702 
Q 2975 2913 2975 3322 
Q 2975 3731 2742 3939 
Q 2509 4147 2053 4147 
L 1259 4147 
z
" transform="scale(0.015625)"/>
       <path id="DejaVuSans-b2" d="M 838 2444 
L 2163 2444 
L 2163 2088 
L 294 2088 
L 294 2431 
Q 400 2528 597 2703 
Q 1672 3656 1672 3950 
Q 1672 4156 1509 4282 
Q 1347 4409 1081 4409 
Q 919 4409 728 4354 
Q 538 4300 313 4191 
L 313 4575 
Q 553 4663 761 4706 
Q 969 4750 1147 4750 
Q 1600 4750 1872 4544 
Q 2144 4338 2144 4000 
Q 2144 3566 1109 2678 
Q 934 2528 838 2444 
z
" transform="scale(0.015625)"/>
       <path id="DejaVuSans-2c" d="M 750 794 
L 1409 794 
L 1409 256 
L 897 -744 
L 494 -744 
L 750 256 
L 750 794 
z
" transform="scale(0.015625)"/>
       <path id="DejaVuSans-53" d="M 3425 4513 
L 3425 3897 
Q 3066 4069 2747 4153 
Q 2428 4238 2131 4238 
Q 1616 4238 1336 4038 
Q 1056 3838 1056 3469 
Q 1056 3159 1242 3001 
Q 1428 2844 1947 2747 
L 2328 2669 
Q 3034 2534 3370 2195 
Q 3706 1856 3706 1288 
Q 3706 609 3251 259 
Q 2797 -91 1919 -91 
Q 1588 -91 1214 -16 
Q 841 59 441 206 
L 441 856 
Q 825 641 1194 531 
Q 1563 422 1919 422 
Q 2459 422 2753 634 
Q 3047 847 3047 1241 
Q 3047 1584 2836 1778 
Q 2625 1972 2144 2069 
L 1759 2144 
Q 1053 2284 737 2584 
Q 422 2884 422 3419 
Q 422 4038 858 4394 
Q 1294 4750 2059 4750 
Q 2388 4750 2728 4690 
Q 3069 4631 3425 4513 
z
" transform="scale(0.015625)"/>
      </defs>
      <use xlink:href="#DejaVuSans-4d"/>
      <use xlink:href="#DejaVuSans-4d" x="86.279297"/>
      <use xlink:href="#DejaVuSans-45" x="172.558594"/>
      <use xlink:href="#DejaVuSans-20" x="235.742188"/>
      <use xlink:href="#DejaVuSans-66" x="267.529297"/>
      <use xlink:href="#DejaVuSans-6f" x="302.734375"/>
      <use xlink:href="#DejaVuSans-72" x="363.916016"/>
      <use xlink:href="#DejaVuSans-65" x="402.779297"/>
      <use xlink:href="#DejaVuSans-63" x="464.302734"/>
      <use xlink:href="#DejaVuSans-61" x="519.283203"/>
      <use xlink:href="#DejaVuSans-73" x="580.5625"/>
      <use xlink:href="#DejaVuSans-74" x="632.662109"/>
      <use xlink:href="#DejaVuSans-73" x="671.871094"/>
      <use xlink:href="#DejaVuSans-3a" x="723.970703"/>
      <use xlink:href="#DejaVuSans-20" x="757.662109"/>
      <use xlink:href="#DejaVuSans-28" x="789.449219"/>
      <use xlink:href="#DejaVuSans-52" x="828.462891"/>
      <use xlink:href="#DejaVuSans-b2" x="897.945312"/>
      <use xlink:href="#DejaVuSans-3a" x="938.033203"/>
      <use xlink:href="#DejaVuSans-20" x="971.724609"/>
      <use xlink:href="#DejaVuSans-30" x="1003.511719"/>
      <use xlink:href="#DejaVuSans-2e" x="1067.134766"/>
      <use xlink:href="#DejaVuSans-30" x="1098.921875"/>
      <use xlink:href="#DejaVuSans-2c" x="1162.544922"/>
      <use xlink:href="#DejaVuSans-20" x="1194.332031"/>
      <use xlink:href="#DejaVuSans-52" x="1226.119141"/>
      <use xlink:href="#DejaVuSans-52" x="1295.601562"/>
      <use xlink:href="#DejaVuSans-4d" x="1365.083984"/>
      <use xlink:href="#DejaVuSans-53" x="1451.363281"/>
      <use xlink:href="#DejaVuSans-45" x="1514.839844"/>
      <use xlink:href="#DejaVuSans-3a" x="1578.023438"/>
      <use xlink:href="#DejaVuSans-20" x="1611.714844"/>
      <use xlink:href="#DejaVuSans-31" x="1643.501953"/>
      <use xlink:href="#DejaVuSans-33" x="1707.125"/>
      <use xlink:href="#DejaVuSans-2e" x="1770.748047"/>
      <use xlink:href="#DejaVuSans-35" x="1802.535156"/>
      <use xlink:href="#DejaVuSans-25" x="1866.158203"/>
      <use xlink:href="#DejaVuSans-29" x="1961.177734"/>
     </g>
    </g>
   </g>
  </g>
  <g id="axes_2">
   <g id="patch_6">
    <path d="M 596.36 250 
L 1069.2 250 
L 1069.2 25.44 
L 596.36 25.44 
z
" style="fill: #ffffff"/>
   </g>
   <g id="PolyCollection_4"/>
   <g id="PolyCollection_5"/>
   <g id="PolyCollection_6">
    <defs>
     <path id="m2840fc494d" d="M 617.852727 -445.206921 
L 617.852727 -423.784565 
L 636.542055 -425.698568 
L 655.231383 -412.512358 
L 673.920711 -416.26812 
L 692.61004 -393.863066 
L 711.299368 -420.458952 
L 729.988696 -424.455645 
L 748.678024 -424.860811 
L 767.367352 -423.858565 
L 786.05668 -420.05849 
L 804.746008 -423.376096 
L 823.435336 -424.00739 
L 842.124664 -424.084515 
L 860.813992 -424.431989 
L 879.50332 -421.987068 
L 898.192648 -390.881182 
L 916.881976 -423.863785 
L 935.571304 -410.079828 
L 954.260632 -402.850029 
L 972.94996 -424.197769 
L 991.639289 -419.530676 
L 1010.328617 -424.762448 
L 1029.017945 -414.572144 
L 1047.707273 -420.343106 
L 1047.707273 -436.925675 
L 1047.707273 -436.925675 
L 1029.017945 -433.491032 
L 1010.328617 -442.401471 
L 991.639289 -429.724691 
L 972.94996 -438.57354 
L 954.260632 -434.784154 
L 935.571304 -443.2929 
L 916.881976 -436.223014 
L 898.192648 -424.842509 
L 879.50332 -429.658157 
L 860.813992 -434.368829 
L 842.124664 -432.62597 
L 823.435336 -437.793858 
L 804.746008 -430.152932 
L 786.05668 -436.906014 
L 767.367352 -452.084989 
L 748.678024 -431.300313 
L 729.988696 -435.402618 
L 711.299368 -434.091351 
L 692.61004 -434.468004 
L 673.920711 -431.715446 
L 655.231383 -435.331972 
L 636.542055 -437.230255 
L 617.852727 -445.206921 
z
" style="stroke: #008000; stroke-opacity: 0.4"/>
    </defs>
    <g clip-path="url(#p77ace4ddfd)">
     <use xlink:href="#m2840fc494d" x="0" y="576" style="fill: #008000; fill-opacity: 0.4; stroke: #008000; stroke-opacity: 0.4"/>
    </g>
   </g>
   <g id="matplotlib.axis_3">
    <g id="xtick_6">
     <g id="line2d_18">
      <g>
       <use xlink:href="#m12be1bfb33" x="655.231383" y="250" style="stroke: #000000; stroke-width: 0.8"/>
      </g>
     </g>
     <g id="text_19">
      <!-- 1995 -->
      <g transform="translate(639.961383 266.118125) scale(0.12 -0.12)">
       <use xlink:href="#DejaVuSans-31"/>
       <use xlink:href="#DejaVuSans-39" x="63.623047"/>
       <use xlink:href="#DejaVuSans-39" x="127.246094"/>
       <use xlink:href="#DejaVuSans-35" x="190.869141"/>
      </g>
     </g>
    </g>
    <g id="xtick_7">
     <g id="line2d_19">
      <g>
       <use xlink:href="#m12be1bfb33" x="748.678024" y="250" style="stroke: #000000; stroke-width: 0.8"/>
      </g>
     </g>
     <g id="text_20">
      <!-- 2000 -->
      <g transform="translate(733.408024 266.118125) scale(0.12 -0.12)">
       <use xlink:href="#DejaVuSans-32"/>
       <use xlink:href="#DejaVuSans-30" x="63.623047"/>
       <use xlink:href="#DejaVuSans-30" x="127.246094"/>
       <use xlink:href="#DejaVuSans-30" x="190.869141"/>
      </g>
     </g>
    </g>
    <g id="xtick_8">
     <g id="line2d_20">
      <g>
       <use xlink:href="#m12be1bfb33" x="842.124664" y="250" style="stroke: #000000; stroke-width: 0.8"/>
      </g>
     </g>
     <g id="text_21">
      <!-- 2005 -->
      <g transform="translate(826.854664 266.118125) scale(0.12 -0.12)">
       <use xlink:href="#DejaVuSans-32"/>
       <use xlink:href="#DejaVuSans-30" x="63.623047"/>
       <use xlink:href="#DejaVuSans-30" x="127.246094"/>
       <use xlink:href="#DejaVuSans-35" x="190.869141"/>
      </g>
     </g>
    </g>
    <g id="xtick_9">
     <g id="line2d_21">
      <g>
       <use xlink:href="#m12be1bfb33" x="935.571304" y="250" style="stroke: #000000; stroke-width: 0.8"/>
      </g>
     </g>
     <g id="text_22">
      <!-- 2010 -->
      <g transform="translate(920.301304 266.118125) scale(0.12 -0.12)">
       <use xlink:href="#DejaVuSans-32"/>
       <use xlink:href="#DejaVuSans-30" x="63.623047"/>
       <use xlink:href="#DejaVuSans-31" x="127.246094"/>
       <use xlink:href="#DejaVuSans-30" x="190.869141"/>
      </g>
     </g>
    </g>
    <g id="xtick_10">
     <g id="line2d_22">
      <g>
       <use xlink:href="#m12be1bfb33" x="1029.017945" y="250" style="stroke: #000000; stroke-width: 0.8"/>
      </g>
     </g>
     <g id="text_23">
      <!-- 2015 -->
      <g transform="translate(1013.747945 266.118125) scale(0.12 -0.12)">
       <use xlink:href="#DejaVuSans-32"/>
       <use xlink:href="#DejaVuSans-30" x="63.623047"/>
       <use xlink:href="#DejaVuSans-31" x="127.246094"/>
       <use xlink:href="#DejaVuSans-35" x="190.869141"/>
      </g>
     </g>
    </g>
    <g id="text_24">
     <!-- Year -->
     <g transform="translate(820.075 281.731875) scale(0.12 -0.12)">
      <use xlink:href="#DejaVuSans-59"/>
      <use xlink:href="#DejaVuSans-65" x="47.833984"/>
      <use xlink:href="#DejaVuSans-61" x="109.357422"/>
      <use xlink:href="#DejaVuSans-72" x="170.636719"/>
     </g>
    </g>
   </g>
   <g id="matplotlib.axis_4">
    <g id="ytick_9">
     <g id="line2d_23">
      <g>
       <use xlink:href="#m2c81319f24" x="596.36" y="242.569798" style="stroke: #000000; stroke-width: 0.8"/>
      </g>
     </g>
     <g id="text_25">
      <!-- −0.3 -->
      <g transform="translate(560.220625 247.128861) scale(0.12 -0.12)">
       <use xlink:href="#DejaVuSans-2212"/>
       <use xlink:href="#DejaVuSans-30" x="83.789062"/>
       <use xlink:href="#DejaVuSans-2e" x="147.412109"/>
       <use xlink:href="#DejaVuSans-33" x="179.199219"/>
      </g>
     </g>
    </g>
    <g id="ytick_10">
     <g id="line2d_24">
      <g>
       <use xlink:href="#m2c81319f24" x="596.36" y="212.839271" style="stroke: #000000; stroke-width: 0.8"/>
      </g>
     </g>
     <g id="text_26">
      <!-- −0.2 -->
      <g transform="translate(560.220625 217.398334) scale(0.12 -0.12)">
       <use xlink:href="#DejaVuSans-2212"/>
       <use xlink:href="#DejaVuSans-30" x="83.789062"/>
       <use xlink:href="#DejaVuSans-2e" x="147.412109"/>
       <use xlink:href="#DejaVuSans-32" x="179.199219"/>
      </g>
     </g>
    </g>
    <g id="ytick_11">
     <g id="line2d_25">
      <g>
       <use xlink:href="#m2c81319f24" x="596.36" y="183.108744" style="stroke: #000000; stroke-width: 0.8"/>
      </g>
     </g>
     <g id="text_27">
      <!-- −0.1 -->
      <g transform="translate(560.220625 187.667806) scale(0.12 -0.12)">
       <use xlink:href="#DejaVuSans-2212"/>
       <use xlink:href="#DejaVuSans-30" x="83.789062"/>
       <use xlink:href="#DejaVuSans-2e" x="147.412109"/>
       <use xlink:href="#DejaVuSans-31" x="179.199219"/>
      </g>
     </g>
    </g>
    <g id="ytick_12">
     <g id="line2d_26">
      <g>
       <use xlink:href="#m2c81319f24" x="596.36" y="153.378216" style="stroke: #000000; stroke-width: 0.8"/>
      </g>
     </g>
     <g id="text_28">
      <!-- 0.0 -->
      <g transform="translate(570.27625 157.937279) scale(0.12 -0.12)">
       <use xlink:href="#DejaVuSans-30"/>
       <use xlink:href="#DejaVuSans-2e" x="63.623047"/>
       <use xlink:href="#DejaVuSans-30" x="95.410156"/>
      </g>
     </g>
    </g>
    <g id="ytick_13">
     <g id="line2d_27">
      <g>
       <use xlink:href="#m2c81319f24" x="596.36" y="123.647689" style="stroke: #000000; stroke-width: 0.8"/>
      </g>
     </g>
     <g id="text_29">
      <!-- 0.1 -->
      <g transform="translate(570.27625 128.206751) scale(0.12 -0.12)">
       <use xlink:href="#DejaVuSans-30"/>
       <use xlink:href="#DejaVuSans-2e" x="63.623047"/>
       <use xlink:href="#DejaVuSans-31" x="95.410156"/>
      </g>
     </g>
    </g>
    <g id="ytick_14">
     <g id="line2d_28">
      <g>
       <use xlink:href="#m2c81319f24" x="596.36" y="93.917162" style="stroke: #000000; stroke-width: 0.8"/>
      </g>
     </g>
     <g id="text_30">
      <!-- 0.2 -->
      <g transform="translate(570.27625 98.476224) scale(0.12 -0.12)">
       <use xlink:href="#DejaVuSans-30"/>
       <use xlink:href="#DejaVuSans-2e" x="63.623047"/>
       <use xlink:href="#DejaVuSans-32" x="95.410156"/>
      </g>
     </g>
    </g>
    <g id="ytick_15">
     <g id="line2d_29">
      <g>
       <use xlink:href="#m2c81319f24" x="596.36" y="64.186634" style="stroke: #000000; stroke-width: 0.8"/>
      </g>
     </g>
     <g id="text_31">
      <!-- 0.3 -->
      <g transform="translate(570.27625 68.745697) scale(0.12 -0.12)">
       <use xlink:href="#DejaVuSans-30"/>
       <use xlink:href="#DejaVuSans-2e" x="63.623047"/>
       <use xlink:href="#DejaVuSans-33" x="95.410156"/>
      </g>
     </g>
    </g>
    <g id="ytick_16">
     <g id="line2d_30">
      <g>
       <use xlink:href="#m2c81319f24" x="596.36" y="34.456107" style="stroke: #000000; stroke-width: 0.8"/>
      </g>
     </g>
     <g id="text_32">
      <!-- 0.4 -->
      <g transform="translate(570.27625 39.015169) scale(0.12 -0.12)">
       <use xlink:href="#DejaVuSans-30"/>
       <use xlink:href="#DejaVuSans-2e" x="63.623047"/>
       <use xlink:href="#DejaVuSans-34" x="95.410156"/>
      </g>
     </g>
    </g>
    <g id="text_33">
     <!-- Variability [%] -->
     <g transform="translate(553.725 179.849375) rotate(-90) scale(0.12 -0.12)">
      <use xlink:href="#DejaVuSans-56"/>
      <use xlink:href="#DejaVuSans-61" x="60.658203"/>
      <use xlink:href="#DejaVuSans-72" x="121.9375"/>
      <use xlink:href="#DejaVuSans-69" x="163.050781"/>
      <use xlink:href="#DejaVuSans-61" x="190.833984"/>
      <use xlink:href="#DejaVuSans-62" x="252.113281"/>
      <use xlink:href="#DejaVuSans-69" x="315.589844"/>
      <use xlink:href="#DejaVuSans-6c" x="343.373047"/>
      <use xlink:href="#DejaVuSans-69" x="371.15625"/>
      <use xlink:href="#DejaVuSans-74" x="398.939453"/>
      <use xlink:href="#DejaVuSans-79" x="438.148438"/>
      <use xlink:href="#DejaVuSans-20" x="497.328125"/>
      <use xlink:href="#DejaVuSans-5b" x="529.115234"/>
      <use xlink:href="#DejaVuSans-25" x="568.128906"/>
      <use xlink:href="#DejaVuSans-5d" x="663.148438"/>
     </g>
    </g>
   </g>
   <g id="line2d_31">
    <path d="M 617.852727 167.105057 
L 636.542055 147.985771 
L 655.231383 183.782049 
L 673.920711 141.19829 
L 692.61004 101.07841 
L 711.299368 155.439003 
L 729.988696 135.429596 
L 748.678024 139.904559 
L 767.367352 178.117523 
L 786.05668 200.94401 
L 804.746008 127.595556 
L 823.435336 125.623691 
L 842.124664 144.593064 
L 860.813992 136.253911 
L 879.50332 126.590274 
L 898.192648 239.792727 
L 916.881976 129.329281 
L 935.571304 35.647273 
L 954.260632 95.268965 
L 972.94996 176.457463 
L 991.639289 201.279817 
L 1010.328617 181.178958 
L 1029.017945 163.013688 
L 1047.707273 133.753288 
" clip-path="url(#p77ace4ddfd)" style="fill: none; stroke: #000000; stroke-width: 2; stroke-linecap: square"/>
   </g>
   <g id="line2d_32">
    <path d="M 617.852727 144.732604 
L 636.542055 143.578719 
L 655.231383 150.049149 
L 673.920711 149.908388 
L 692.61004 155.942836 
L 711.299368 146.661273 
L 729.988696 145.3192 
L 748.678024 147.494855 
L 767.367352 141.419789 
L 786.05668 147.633854 
L 804.746008 148.658035 
L 823.435336 145.159475 
L 842.124664 147.289411 
L 860.813992 146.917463 
L 879.50332 149.815144 
L 898.192648 166.170139 
L 916.881976 146.849845 
L 935.571304 148.155208 
L 954.260632 153.454478 
L 972.94996 143.875643 
L 991.639289 151.438531 
L 1010.328617 145.890361 
L 1029.017945 150.965626 
L 1047.707273 146.611297 
" clip-path="url(#p77ace4ddfd)" style="fill: none; stroke-dasharray: 11.1,4.8; stroke-dashoffset: 0; stroke: #008000; stroke-width: 3"/>
   </g>
   <g id="patch_7">
    <path d="M 596.36 250 
L 596.36 25.44 
" style="fill: none; stroke: #000000; stroke-width: 0.8; stroke-linejoin: miter; stroke-linecap: square"/>
   </g>
   <g id="patch_8">
    <path d="M 596.36 250 
L 1069.2 250 
" style="fill: none; stroke: #000000; stroke-width: 0.8; stroke-linejoin: miter; stroke-linecap: square"/>
   </g>
   <g id="text_34">
    <!-- b) September -->
    <g transform="translate(596.36 19.44) scale(0.12 -0.12)">
     <defs>
      <path id="DejaVuSans-70" d="M 1159 525 
L 1159 -1331 
L 581 -1331 
L 581 3500 
L 1159 3500 
L 1159 2969 
Q 1341 3281 1617 3432 
Q 1894 3584 2278 3584 
Q 2916 3584 3314 3078 
Q 3713 2572 3713 1747 
Q 3713 922 3314 415 
Q 2916 -91 2278 -91 
Q 1894 -91 1617 61 
Q 1341 213 1159 525 
z
M 3116 1747 
Q 3116 2381 2855 2742 
Q 2594 3103 2138 3103 
Q 1681 3103 1420 2742 
Q 1159 2381 1159 1747 
Q 1159 1113 1420 752 
Q 1681 391 2138 391 
Q 2594 391 2855 752 
Q 3116 1113 3116 1747 
z
" transform="scale(0.015625)"/>
      <path id="DejaVuSans-6d" d="M 3328 2828 
Q 3544 3216 3844 3400 
Q 4144 3584 4550 3584 
Q 5097 3584 5394 3201 
Q 5691 2819 5691 2113 
L 5691 0 
L 5113 0 
L 5113 2094 
Q 5113 2597 4934 2840 
Q 4756 3084 4391 3084 
Q 3944 3084 3684 2787 
Q 3425 2491 3425 1978 
L 3425 0 
L 2847 0 
L 2847 2094 
Q 2847 2600 2669 2842 
Q 2491 3084 2119 3084 
Q 1678 3084 1418 2786 
Q 1159 2488 1159 1978 
L 1159 0 
L 581 0 
L 581 3500 
L 1159 3500 
L 1159 2956 
Q 1356 3278 1631 3431 
Q 1906 3584 2284 3584 
Q 2666 3584 2933 3390 
Q 3200 3197 3328 2828 
z
" transform="scale(0.015625)"/>
     </defs>
     <use xlink:href="#DejaVuSans-62"/>
     <use xlink:href="#DejaVuSans-29" x="63.476562"/>
     <use xlink:href="#DejaVuSans-20" x="102.490234"/>
     <use xlink:href="#DejaVuSans-53" x="134.277344"/>
     <use xlink:href="#DejaVuSans-65" x="197.753906"/>
     <use xlink:href="#DejaVuSans-70" x="259.277344"/>
     <use xlink:href="#DejaVuSans-74" x="322.753906"/>
     <use xlink:href="#DejaVuSans-65" x="361.962891"/>
     <use xlink:href="#DejaVuSans-6d" x="423.486328"/>
     <use xlink:href="#DejaVuSans-62" x="520.898438"/>
     <use xlink:href="#DejaVuSans-65" x="584.375"/>
     <use xlink:href="#DejaVuSans-72" x="645.898438"/>
    </g>
   </g>
   <g id="legend_2">
    <g id="patch_9">
     <path d="M 604.76 70.2675 
L 890.815625 70.2675 
Q 893.215625 70.2675 893.215625 67.8675 
L 893.215625 33.84 
Q 893.215625 31.44 890.815625 31.44 
L 604.76 31.44 
Q 602.36 31.44 602.36 33.84 
L 602.36 67.8675 
Q 602.36 70.2675 604.76 70.2675 
z
" style="fill: #ffffff; opacity: 0.8; stroke: #cccccc; stroke-linejoin: miter"/>
    </g>
    <g id="line2d_33">
     <path d="M 607.16 41.158125 
L 619.16 41.158125 
L 631.16 41.158125 
" style="fill: none; stroke: #000000; stroke-width: 2; stroke-linecap: square"/>
    </g>
    <g id="text_35">
     <!-- Observed -->
     <g transform="translate(640.76 45.358125) scale(0.12 -0.12)">
      <use xlink:href="#DejaVuSans-4f"/>
      <use xlink:href="#DejaVuSans-62" x="78.710938"/>
      <use xlink:href="#DejaVuSans-73" x="142.1875"/>
      <use xlink:href="#DejaVuSans-65" x="194.287109"/>
      <use xlink:href="#DejaVuSans-72" x="255.810547"/>
      <use xlink:href="#DejaVuSans-76" x="296.923828"/>
      <use xlink:href="#DejaVuSans-65" x="356.103516"/>
      <use xlink:href="#DejaVuSans-64" x="417.626953"/>
     </g>
    </g>
    <g id="line2d_34">
     <path d="M 607.16 58.771875 
L 619.16 58.771875 
L 631.16 58.771875 
" style="fill: none; stroke-dasharray: 11.1,4.8; stroke-dashoffset: 0; stroke: #008000; stroke-width: 3"/>
    </g>
    <g id="text_36">
     <!-- MME forecasts: (R²: 0.03, RRMSE: 13.3%) -->
     <g transform="translate(640.76 62.971875) scale(0.12 -0.12)">
      <use xlink:href="#DejaVuSans-4d"/>
      <use xlink:href="#DejaVuSans-4d" x="86.279297"/>
      <use xlink:href="#DejaVuSans-45" x="172.558594"/>
      <use xlink:href="#DejaVuSans-20" x="235.742188"/>
      <use xlink:href="#DejaVuSans-66" x="267.529297"/>
      <use xlink:href="#DejaVuSans-6f" x="302.734375"/>
      <use xlink:href="#DejaVuSans-72" x="363.916016"/>
      <use xlink:href="#DejaVuSans-65" x="402.779297"/>
      <use xlink:href="#DejaVuSans-63" x="464.302734"/>
      <use xlink:href="#DejaVuSans-61" x="519.283203"/>
      <use xlink:href="#DejaVuSans-73" x="580.5625"/>
      <use xlink:href="#DejaVuSans-74" x="632.662109"/>
      <use xlink:href="#DejaVuSans-73" x="671.871094"/>
      <use xlink:href="#DejaVuSans-3a" x="723.970703"/>
      <use xlink:href="#DejaVuSans-20" x="757.662109"/>
      <use xlink:href="#DejaVuSans-28" x="789.449219"/>
      <use xlink:href="#DejaVuSans-52" x="828.462891"/>
      <use xlink:href="#DejaVuSans-b2" x="897.945312"/>
      <use xlink:href="#DejaVuSans-3a" x="938.033203"/>
      <use xlink:href="#DejaVuSans-20" x="971.724609"/>
      <use xlink:href="#DejaVuSans-30" x="1003.511719"/>
      <use xlink:href="#DejaVuSans-2e" x="1067.134766"/>
      <use xlink:href="#DejaVuSans-30" x="1098.921875"/>
      <use xlink:href="#DejaVuSans-33" x="1162.544922"/>
      <use xlink:href="#DejaVuSans-2c" x="1226.167969"/>
      <use xlink:href="#DejaVuSans-20" x="1257.955078"/>
      <use xlink:href="#DejaVuSans-52" x="1289.742188"/>
      <use xlink:href="#DejaVuSans-52" x="1359.224609"/>
      <use xlink:href="#DejaVuSans-4d" x="1428.707031"/>
      <use xlink:href="#DejaVuSans-53" x="1514.986328"/>
      <use xlink:href="#DejaVuSans-45" x="1578.462891"/>
      <use xlink:href="#DejaVuSans-3a" x="1641.646484"/>
      <use xlink:href="#DejaVuSans-20" x="1675.337891"/>
      <use xlink:href="#DejaVuSans-31" x="1707.125"/>
      <use xlink:href="#DejaVuSans-33" x="1770.748047"/>
      <use xlink:href="#DejaVuSans-2e" x="1834.371094"/>
      <use xlink:href="#DejaVuSans-33" x="1866.158203"/>
      <use xlink:href="#DejaVuSans-25" x="1929.78125"/>
      <use xlink:href="#DejaVuSans-29" x="2024.800781"/>
     </g>
    </g>
   </g>
  </g>
  <g id="axes_3">
   <g id="patch_10">
    <path d="M 61.76 532.6 
L 534.6 532.6 
L 534.6 308.04 
L 61.76 308.04 
z
" style="fill: #ffffff"/>
   </g>
   <g id="PolyCollection_7"/>
   <g id="PolyCollection_8"/>
   <g id="PolyCollection_9">
    <defs>
     <path id="m0d2fb0ed29" d="M 83.252727 -148.499688 
L 83.252727 -136.702914 
L 101.942055 -136.876037 
L 120.631383 -132.02499 
L 139.320711 -126.45583 
L 158.01004 -127.986684 
L 176.699368 -128.25304 
L 195.388696 -156.111389 
L 214.078024 -136.250941 
L 232.767352 -146.741671 
L 251.45668 -129.56026 
L 270.146008 -135.364514 
L 288.835336 -139.138387 
L 307.524664 -132.249699 
L 326.213992 -139.336001 
L 344.90332 -152.143897 
L 363.592648 -99.662868 
L 382.281976 -165.184037 
L 400.971304 -235.159307 
L 419.660632 -129.067401 
L 438.34996 -135.93301 
L 457.039289 -128.263698 
L 475.728617 -139.003123 
L 494.417945 -124.399085 
L 513.107273 -125.889989 
L 513.107273 -138.294907 
L 513.107273 -138.294907 
L 494.417945 -144.536238 
L 475.728617 -142.302169 
L 457.039289 -139.756729 
L 438.34996 -145.90344 
L 419.660632 -151.856922 
L 400.971304 -245.924898 
L 382.281976 -172.580224 
L 363.592648 -143.15623 
L 344.90332 -167.67075 
L 326.213992 -143.071699 
L 307.524664 -142.008539 
L 288.835336 -143.447662 
L 270.146008 -153.78965 
L 251.45668 -139.964663 
L 232.767352 -157.507824 
L 214.078024 -146.000111 
L 195.388696 -164.392524 
L 176.699368 -144.632491 
L 158.01004 -140.690511 
L 139.320711 -141.82914 
L 120.631383 -148.768253 
L 101.942055 -151.018557 
L 83.252727 -148.499688 
z
" style="stroke: #008000; stroke-opacity: 0.4"/>
    </defs>
    <g clip-path="url(#pee3a4c774a)">
     <use xlink:href="#m0d2fb0ed29" x="0" y="576" style="fill: #008000; fill-opacity: 0.4; stroke: #008000; stroke-opacity: 0.4"/>
    </g>
   </g>
   <g id="matplotlib.axis_5">
    <g id="xtick_11">
     <g id="line2d_35">
      <g>
       <use xlink:href="#m12be1bfb33" x="120.631383" y="532.6" style="stroke: #000000; stroke-width: 0.8"/>
      </g>
     </g>
     <g id="text_37">
      <!-- 1995 -->
      <g transform="translate(105.361383 548.718125) scale(0.12 -0.12)">
       <use xlink:href="#DejaVuSans-31"/>
       <use xlink:href="#DejaVuSans-39" x="63.623047"/>
       <use xlink:href="#DejaVuSans-39" x="127.246094"/>
       <use xlink:href="#DejaVuSans-35" x="190.869141"/>
      </g>
     </g>
    </g>
    <g id="xtick_12">
     <g id="line2d_36">
      <g>
       <use xlink:href="#m12be1bfb33" x="214.078024" y="532.6" style="stroke: #000000; stroke-width: 0.8"/>
      </g>
     </g>
     <g id="text_38">
      <!-- 2000 -->
      <g transform="translate(198.808024 548.718125) scale(0.12 -0.12)">
       <use xlink:href="#DejaVuSans-32"/>
       <use xlink:href="#DejaVuSans-30" x="63.623047"/>
       <use xlink:href="#DejaVuSans-30" x="127.246094"/>
       <use xlink:href="#DejaVuSans-30" x="190.869141"/>
      </g>
     </g>
    </g>
    <g id="xtick_13">
     <g id="line2d_37">
      <g>
       <use xlink:href="#m12be1bfb33" x="307.524664" y="532.6" style="stroke: #000000; stroke-width: 0.8"/>
      </g>
     </g>
     <g id="text_39">
      <!-- 2005 -->
      <g transform="translate(292.254664 548.718125) scale(0.12 -0.12)">
       <use xlink:href="#DejaVuSans-32"/>
       <use xlink:href="#DejaVuSans-30" x="63.623047"/>
       <use xlink:href="#DejaVuSans-30" x="127.246094"/>
       <use xlink:href="#DejaVuSans-35" x="190.869141"/>
      </g>
     </g>
    </g>
    <g id="xtick_14">
     <g id="line2d_38">
      <g>
       <use xlink:href="#m12be1bfb33" x="400.971304" y="532.6" style="stroke: #000000; stroke-width: 0.8"/>
      </g>
     </g>
     <g id="text_40">
      <!-- 2010 -->
      <g transform="translate(385.701304 548.718125) scale(0.12 -0.12)">
       <use xlink:href="#DejaVuSans-32"/>
       <use xlink:href="#DejaVuSans-30" x="63.623047"/>
       <use xlink:href="#DejaVuSans-31" x="127.246094"/>
       <use xlink:href="#DejaVuSans-30" x="190.869141"/>
      </g>
     </g>
    </g>
    <g id="xtick_15">
     <g id="line2d_39">
      <g>
       <use xlink:href="#m12be1bfb33" x="494.417945" y="532.6" style="stroke: #000000; stroke-width: 0.8"/>
      </g>
     </g>
     <g id="text_41">
      <!-- 2015 -->
      <g transform="translate(479.147945 548.718125) scale(0.12 -0.12)">
       <use xlink:href="#DejaVuSans-32"/>
       <use xlink:href="#DejaVuSans-30" x="63.623047"/>
       <use xlink:href="#DejaVuSans-31" x="127.246094"/>
       <use xlink:href="#DejaVuSans-35" x="190.869141"/>
      </g>
     </g>
    </g>
    <g id="text_42">
     <!-- Year -->
     <g transform="translate(285.475 564.331875) scale(0.12 -0.12)">
      <use xlink:href="#DejaVuSans-59"/>
      <use xlink:href="#DejaVuSans-65" x="47.833984"/>
      <use xlink:href="#DejaVuSans-61" x="109.357422"/>
      <use xlink:href="#DejaVuSans-72" x="170.636719"/>
     </g>
    </g>
   </g>
   <g id="matplotlib.axis_6">
    <g id="ytick_17">
     <g id="line2d_40">
      <g>
       <use xlink:href="#m2c81319f24" x="61.76" y="525.169798" style="stroke: #000000; stroke-width: 0.8"/>
      </g>
     </g>
     <g id="text_43">
      <!-- −0.3 -->
      <g transform="translate(25.620625 529.728861) scale(0.12 -0.12)">
       <use xlink:href="#DejaVuSans-2212"/>
       <use xlink:href="#DejaVuSans-30" x="83.789062"/>
       <use xlink:href="#DejaVuSans-2e" x="147.412109"/>
       <use xlink:href="#DejaVuSans-33" x="179.199219"/>
      </g>
     </g>
    </g>
    <g id="ytick_18">
     <g id="line2d_41">
      <g>
       <use xlink:href="#m2c81319f24" x="61.76" y="495.439271" style="stroke: #000000; stroke-width: 0.8"/>
      </g>
     </g>
     <g id="text_44">
      <!-- −0.2 -->
      <g transform="translate(25.620625 499.998334) scale(0.12 -0.12)">
       <use xlink:href="#DejaVuSans-2212"/>
       <use xlink:href="#DejaVuSans-30" x="83.789062"/>
       <use xlink:href="#DejaVuSans-2e" x="147.412109"/>
       <use xlink:href="#DejaVuSans-32" x="179.199219"/>
      </g>
     </g>
    </g>
    <g id="ytick_19">
     <g id="line2d_42">
      <g>
       <use xlink:href="#m2c81319f24" x="61.76" y="465.708744" style="stroke: #000000; stroke-width: 0.8"/>
      </g>
     </g>
     <g id="text_45">
      <!-- −0.1 -->
      <g transform="translate(25.620625 470.267806) scale(0.12 -0.12)">
       <use xlink:href="#DejaVuSans-2212"/>
       <use xlink:href="#DejaVuSans-30" x="83.789062"/>
       <use xlink:href="#DejaVuSans-2e" x="147.412109"/>
       <use xlink:href="#DejaVuSans-31" x="179.199219"/>
      </g>
     </g>
    </g>
    <g id="ytick_20">
     <g id="line2d_43">
      <g>
       <use xlink:href="#m2c81319f24" x="61.76" y="435.978216" style="stroke: #000000; stroke-width: 0.8"/>
      </g>
     </g>
     <g id="text_46">
      <!-- 0.0 -->
      <g transform="translate(35.67625 440.537279) scale(0.12 -0.12)">
       <use xlink:href="#DejaVuSans-30"/>
       <use xlink:href="#DejaVuSans-2e" x="63.623047"/>
       <use xlink:href="#DejaVuSans-30" x="95.410156"/>
      </g>
     </g>
    </g>
    <g id="ytick_21">
     <g id="line2d_44">
      <g>
       <use xlink:href="#m2c81319f24" x="61.76" y="406.247689" style="stroke: #000000; stroke-width: 0.8"/>
      </g>
     </g>
     <g id="text_47">
      <!-- 0.1 -->
      <g transform="translate(35.67625 410.806751) scale(0.12 -0.12)">
       <use xlink:href="#DejaVuSans-30"/>
       <use xlink:href="#DejaVuSans-2e" x="63.623047"/>
       <use xlink:href="#DejaVuSans-31" x="95.410156"/>
      </g>
     </g>
    </g>
    <g id="ytick_22">
     <g id="line2d_45">
      <g>
       <use xlink:href="#m2c81319f24" x="61.76" y="376.517162" style="stroke: #000000; stroke-width: 0.8"/>
      </g>
     </g>
     <g id="text_48">
      <!-- 0.2 -->
      <g transform="translate(35.67625 381.076224) scale(0.12 -0.12)">
       <use xlink:href="#DejaVuSans-30"/>
       <use xlink:href="#DejaVuSans-2e" x="63.623047"/>
       <use xlink:href="#DejaVuSans-32" x="95.410156"/>
      </g>
     </g>
    </g>
    <g id="ytick_23">
     <g id="line2d_46">
      <g>
       <use xlink:href="#m2c81319f24" x="61.76" y="346.786634" style="stroke: #000000; stroke-width: 0.8"/>
      </g>
     </g>
     <g id="text_49">
      <!-- 0.3 -->
      <g transform="translate(35.67625 351.345697) scale(0.12 -0.12)">
       <use xlink:href="#DejaVuSans-30"/>
       <use xlink:href="#DejaVuSans-2e" x="63.623047"/>
       <use xlink:href="#DejaVuSans-33" x="95.410156"/>
      </g>
     </g>
    </g>
    <g id="ytick_24">
     <g id="line2d_47">
      <g>
       <use xlink:href="#m2c81319f24" x="61.76" y="317.056107" style="stroke: #000000; stroke-width: 0.8"/>
      </g>
     </g>
     <g id="text_50">
      <!-- 0.4 -->
      <g transform="translate(35.67625 321.615169) scale(0.12 -0.12)">
       <use xlink:href="#DejaVuSans-30"/>
       <use xlink:href="#DejaVuSans-2e" x="63.623047"/>
       <use xlink:href="#DejaVuSans-34" x="95.410156"/>
      </g>
     </g>
    </g>
    <g id="text_51">
     <!-- Variability [%] -->
     <g transform="translate(19.125 462.449375) rotate(-90) scale(0.12 -0.12)">
      <use xlink:href="#DejaVuSans-56"/>
      <use xlink:href="#DejaVuSans-61" x="60.658203"/>
      <use xlink:href="#DejaVuSans-72" x="121.9375"/>
      <use xlink:href="#DejaVuSans-69" x="163.050781"/>
      <use xlink:href="#DejaVuSans-61" x="190.833984"/>
      <use xlink:href="#DejaVuSans-62" x="252.113281"/>
      <use xlink:href="#DejaVuSans-69" x="315.589844"/>
      <use xlink:href="#DejaVuSans-6c" x="343.373047"/>
      <use xlink:href="#DejaVuSans-69" x="371.15625"/>
      <use xlink:href="#DejaVuSans-74" x="398.939453"/>
      <use xlink:href="#DejaVuSans-79" x="438.148438"/>
      <use xlink:href="#DejaVuSans-20" x="497.328125"/>
      <use xlink:href="#DejaVuSans-5b" x="529.115234"/>
      <use xlink:href="#DejaVuSans-25" x="568.128906"/>
      <use xlink:href="#DejaVuSans-5d" x="663.148438"/>
     </g>
    </g>
   </g>
   <g id="line2d_48">
    <path d="M 83.252727 449.705057 
L 101.942055 430.585771 
L 120.631383 466.382049 
L 139.320711 423.79829 
L 158.01004 383.67841 
L 176.699368 438.039003 
L 195.388696 418.029596 
L 214.078024 422.504559 
L 232.767352 460.717523 
L 251.45668 483.54401 
L 270.146008 410.195556 
L 288.835336 408.223691 
L 307.524664 427.193064 
L 326.213992 418.853911 
L 344.90332 409.190274 
L 363.592648 522.392727 
L 382.281976 411.929281 
L 400.971304 318.247273 
L 419.660632 377.868965 
L 438.34996 459.057463 
L 457.039289 483.879817 
L 475.728617 463.778958 
L 494.417945 445.613688 
L 513.107273 416.353288 
" clip-path="url(#pee3a4c774a)" style="fill: none; stroke: #000000; stroke-width: 2; stroke-linecap: square"/>
   </g>
   <g id="line2d_49">
    <path d="M 83.252727 433.477735 
L 101.942055 433.893521 
L 120.631383 433.153509 
L 139.320711 439.986721 
L 158.01004 440.598954 
L 176.699368 441.924693 
L 195.388696 415.028256 
L 214.078024 434.235922 
L 232.767352 423.897103 
L 251.45668 439.899493 
L 270.146008 431.113196 
L 288.835336 434.577448 
L 307.524664 439.661156 
L 326.213992 434.962363 
L 344.90332 415.001585 
L 363.592648 452.671242 
L 382.281976 407.464346 
L 400.971304 336.058847 
L 419.660632 436.900059 
L 438.34996 435.642283 
L 457.039289 441.723938 
L 475.728617 435.717323 
L 494.417945 440.948629 
L 513.107273 442.61587 
" clip-path="url(#pee3a4c774a)" style="fill: none; stroke-dasharray: 11.1,4.8; stroke-dashoffset: 0; stroke: #008000; stroke-width: 3"/>
   </g>
   <g id="patch_11">
    <path d="M 61.76 532.6 
L 61.76 308.04 
" style="fill: none; stroke: #000000; stroke-width: 0.8; stroke-linejoin: miter; stroke-linecap: square"/>
   </g>
   <g id="patch_12">
    <path d="M 61.76 532.6 
L 534.6 532.6 
" style="fill: none; stroke: #000000; stroke-width: 0.8; stroke-linejoin: miter; stroke-linecap: square"/>
   </g>
   <g id="text_52">
    <!-- c) October -->
    <g transform="translate(61.76 302.04) scale(0.12 -0.12)">
     <use xlink:href="#DejaVuSans-63"/>
     <use xlink:href="#DejaVuSans-29" x="54.980469"/>
     <use xlink:href="#DejaVuSans-20" x="93.994141"/>
     <use xlink:href="#DejaVuSans-4f" x="125.78125"/>
     <use xlink:href="#DejaVuSans-63" x="204.492188"/>
     <use xlink:href="#DejaVuSans-74" x="259.472656"/>
     <use xlink:href="#DejaVuSans-6f" x="298.681641"/>
     <use xlink:href="#DejaVuSans-62" x="359.863281"/>
     <use xlink:href="#DejaVuSans-65" x="423.339844"/>
     <use xlink:href="#DejaVuSans-72" x="484.863281"/>
    </g>
   </g>
   <g id="legend_3">
    <g id="patch_13">
     <path d="M 70.16 352.8675 
L 356.215625 352.8675 
Q 358.615625 352.8675 358.615625 350.4675 
L 358.615625 316.44 
Q 358.615625 314.04 356.215625 314.04 
L 70.16 314.04 
Q 67.76 314.04 67.76 316.44 
L 67.76 350.4675 
Q 67.76 352.8675 70.16 352.8675 
z
" style="fill: #ffffff; opacity: 0.8; stroke: #cccccc; stroke-linejoin: miter"/>
    </g>
    <g id="line2d_50">
     <path d="M 72.56 323.758125 
L 84.56 323.758125 
L 96.56 323.758125 
" style="fill: none; stroke: #000000; stroke-width: 2; stroke-linecap: square"/>
    </g>
    <g id="text_53">
     <!-- Observed -->
     <g transform="translate(106.16 327.958125) scale(0.12 -0.12)">
      <use xlink:href="#DejaVuSans-4f"/>
      <use xlink:href="#DejaVuSans-62" x="78.710938"/>
      <use xlink:href="#DejaVuSans-73" x="142.1875"/>
      <use xlink:href="#DejaVuSans-65" x="194.287109"/>
      <use xlink:href="#DejaVuSans-72" x="255.810547"/>
      <use xlink:href="#DejaVuSans-76" x="296.923828"/>
      <use xlink:href="#DejaVuSans-65" x="356.103516"/>
      <use xlink:href="#DejaVuSans-64" x="417.626953"/>
     </g>
    </g>
    <g id="line2d_51">
     <path d="M 72.56 341.371875 
L 84.56 341.371875 
L 96.56 341.371875 
" style="fill: none; stroke-dasharray: 11.1,4.8; stroke-dashoffset: 0; stroke: #008000; stroke-width: 3"/>
    </g>
    <g id="text_54">
     <!-- MME forecasts: (R²: 0.42, RRMSE: 10.3%) -->
     <g transform="translate(106.16 345.571875) scale(0.12 -0.12)">
      <use xlink:href="#DejaVuSans-4d"/>
      <use xlink:href="#DejaVuSans-4d" x="86.279297"/>
      <use xlink:href="#DejaVuSans-45" x="172.558594"/>
      <use xlink:href="#DejaVuSans-20" x="235.742188"/>
      <use xlink:href="#DejaVuSans-66" x="267.529297"/>
      <use xlink:href="#DejaVuSans-6f" x="302.734375"/>
      <use xlink:href="#DejaVuSans-72" x="363.916016"/>
      <use xlink:href="#DejaVuSans-65" x="402.779297"/>
      <use xlink:href="#DejaVuSans-63" x="464.302734"/>
      <use xlink:href="#DejaVuSans-61" x="519.283203"/>
      <use xlink:href="#DejaVuSans-73" x="580.5625"/>
      <use xlink:href="#DejaVuSans-74" x="632.662109"/>
      <use xlink:href="#DejaVuSans-73" x="671.871094"/>
      <use xlink:href="#DejaVuSans-3a" x="723.970703"/>
      <use xlink:href="#DejaVuSans-20" x="757.662109"/>
      <use xlink:href="#DejaVuSans-28" x="789.449219"/>
      <use xlink:href="#DejaVuSans-52" x="828.462891"/>
      <use xlink:href="#DejaVuSans-b2" x="897.945312"/>
      <use xlink:href="#DejaVuSans-3a" x="938.033203"/>
      <use xlink:href="#DejaVuSans-20" x="971.724609"/>
      <use xlink:href="#DejaVuSans-30" x="1003.511719"/>
      <use xlink:href="#DejaVuSans-2e" x="1067.134766"/>
      <use xlink:href="#DejaVuSans-34" x="1098.921875"/>
      <use xlink:href="#DejaVuSans-32" x="1162.544922"/>
      <use xlink:href="#DejaVuSans-2c" x="1226.167969"/>
      <use xlink:href="#DejaVuSans-20" x="1257.955078"/>
      <use xlink:href="#DejaVuSans-52" x="1289.742188"/>
      <use xlink:href="#DejaVuSans-52" x="1359.224609"/>
      <use xlink:href="#DejaVuSans-4d" x="1428.707031"/>
      <use xlink:href="#DejaVuSans-53" x="1514.986328"/>
      <use xlink:href="#DejaVuSans-45" x="1578.462891"/>
      <use xlink:href="#DejaVuSans-3a" x="1641.646484"/>
      <use xlink:href="#DejaVuSans-20" x="1675.337891"/>
      <use xlink:href="#DejaVuSans-31" x="1707.125"/>
      <use xlink:href="#DejaVuSans-30" x="1770.748047"/>
      <use xlink:href="#DejaVuSans-2e" x="1834.371094"/>
      <use xlink:href="#DejaVuSans-33" x="1866.158203"/>
      <use xlink:href="#DejaVuSans-25" x="1929.78125"/>
      <use xlink:href="#DejaVuSans-29" x="2024.800781"/>
     </g>
    </g>
   </g>
  </g>
  <g id="axes_4">
   <g id="patch_14">
    <path d="M 596.36 532.6 
L 1069.2 532.6 
L 1069.2 308.04 
L 596.36 308.04 
z
" style="fill: #ffffff"/>
   </g>
   <g id="PolyCollection_10"/>
   <g id="PolyCollection_11"/>
   <g id="PolyCollection_12">
    <defs>
     <path id="m128205cfd1" d="M 617.852727 -144.633471 
L 617.852727 -133.136051 
L 636.542055 -128.074994 
L 655.231383 -125.929002 
L 673.920711 -131.455376 
L 692.61004 -138.072597 
L 711.299368 -133.06787 
L 729.988696 -151.681098 
L 748.678024 -128.479321 
L 767.367352 -144.025849 
L 786.05668 -132.902907 
L 804.746008 -134.993754 
L 823.435336 -133.732813 
L 842.124664 -116.758534 
L 860.813992 -135.999213 
L 879.50332 -153.686455 
L 898.192648 -78.135778 
L 916.881976 -159.82703 
L 935.571304 -235.0577 
L 954.260632 -146.711207 
L 972.94996 -132.60343 
L 991.639289 -127.491875 
L 1010.328617 -135.949945 
L 1029.017945 -135.030079 
L 1047.707273 -121.215193 
L 1047.707273 -144.395218 
L 1047.707273 -144.395218 
L 1029.017945 -146.907028 
L 1010.328617 -141.039944 
L 991.639289 -146.732514 
L 972.94996 -141.586488 
L 954.260632 -162.084099 
L 935.571304 -255.329082 
L 916.881976 -173.020493 
L 898.192648 -112.250149 
L 879.50332 -172.289087 
L 860.813992 -146.838636 
L 842.124664 -137.556547 
L 823.435336 -142.294325 
L 804.746008 -149.574426 
L 786.05668 -141.70667 
L 767.367352 -147.788897 
L 748.678024 -141.506708 
L 729.988696 -164.470515 
L 711.299368 -139.947495 
L 692.61004 -148.525864 
L 673.920711 -143.505508 
L 655.231383 -143.2291 
L 636.542055 -138.31831 
L 617.852727 -144.633471 
z
" style="stroke: #008000; stroke-opacity: 0.4"/>
    </defs>
    <g clip-path="url(#p7136549f8e)">
     <use xlink:href="#m128205cfd1" x="0" y="576" style="fill: #008000; fill-opacity: 0.4; stroke: #008000; stroke-opacity: 0.4"/>
    </g>
   </g>
   <g id="matplotlib.axis_7">
    <g id="xtick_16">
     <g id="line2d_52">
      <g>
       <use xlink:href="#m12be1bfb33" x="655.231383" y="532.6" style="stroke: #000000; stroke-width: 0.8"/>
      </g>
     </g>
     <g id="text_55">
      <!-- 1995 -->
      <g transform="translate(639.961383 548.718125) scale(0.12 -0.12)">
       <use xlink:href="#DejaVuSans-31"/>
       <use xlink:href="#DejaVuSans-39" x="63.623047"/>
       <use xlink:href="#DejaVuSans-39" x="127.246094"/>
       <use xlink:href="#DejaVuSans-35" x="190.869141"/>
      </g>
     </g>
    </g>
    <g id="xtick_17">
     <g id="line2d_53">
      <g>
       <use xlink:href="#m12be1bfb33" x="748.678024" y="532.6" style="stroke: #000000; stroke-width: 0.8"/>
      </g>
     </g>
     <g id="text_56">
      <!-- 2000 -->
      <g transform="translate(733.408024 548.718125) scale(0.12 -0.12)">
       <use xlink:href="#DejaVuSans-32"/>
       <use xlink:href="#DejaVuSans-30" x="63.623047"/>
       <use xlink:href="#DejaVuSans-30" x="127.246094"/>
       <use xlink:href="#DejaVuSans-30" x="190.869141"/>
      </g>
     </g>
    </g>
    <g id="xtick_18">
     <g id="line2d_54">
      <g>
       <use xlink:href="#m12be1bfb33" x="842.124664" y="532.6" style="stroke: #000000; stroke-width: 0.8"/>
      </g>
     </g>
     <g id="text_57">
      <!-- 2005 -->
      <g transform="translate(826.854664 548.718125) scale(0.12 -0.12)">
       <use xlink:href="#DejaVuSans-32"/>
       <use xlink:href="#DejaVuSans-30" x="63.623047"/>
       <use xlink:href="#DejaVuSans-30" x="127.246094"/>
       <use xlink:href="#DejaVuSans-35" x="190.869141"/>
      </g>
     </g>
    </g>
    <g id="xtick_19">
     <g id="line2d_55">
      <g>
       <use xlink:href="#m12be1bfb33" x="935.571304" y="532.6" style="stroke: #000000; stroke-width: 0.8"/>
      </g>
     </g>
     <g id="text_58">
      <!-- 2010 -->
      <g transform="translate(920.301304 548.718125) scale(0.12 -0.12)">
       <use xlink:href="#DejaVuSans-32"/>
       <use xlink:href="#DejaVuSans-30" x="63.623047"/>
       <use xlink:href="#DejaVuSans-31" x="127.246094"/>
       <use xlink:href="#DejaVuSans-30" x="190.869141"/>
      </g>
     </g>
    </g>
    <g id="xtick_20">
     <g id="line2d_56">
      <g>
       <use xlink:href="#m12be1bfb33" x="1029.017945" y="532.6" style="stroke: #000000; stroke-width: 0.8"/>
      </g>
     </g>
     <g id="text_59">
      <!-- 2015 -->
      <g transform="translate(1013.747945 548.718125) scale(0.12 -0.12)">
       <use xlink:href="#DejaVuSans-32"/>
       <use xlink:href="#DejaVuSans-30" x="63.623047"/>
       <use xlink:href="#DejaVuSans-31" x="127.246094"/>
       <use xlink:href="#DejaVuSans-35" x="190.869141"/>
      </g>
     </g>
    </g>
    <g id="text_60">
     <!-- Year -->
     <g transform="translate(820.075 564.331875) scale(0.12 -0.12)">
      <use xlink:href="#DejaVuSans-59"/>
      <use xlink:href="#DejaVuSans-65" x="47.833984"/>
      <use xlink:href="#DejaVuSans-61" x="109.357422"/>
      <use xlink:href="#DejaVuSans-72" x="170.636719"/>
     </g>
    </g>
   </g>
   <g id="matplotlib.axis_8">
    <g id="ytick_25">
     <g id="line2d_57">
      <g>
       <use xlink:href="#m2c81319f24" x="596.36" y="525.169798" style="stroke: #000000; stroke-width: 0.8"/>
      </g>
     </g>
     <g id="text_61">
      <!-- −0.3 -->
      <g transform="translate(560.220625 529.728861) scale(0.12 -0.12)">
       <use xlink:href="#DejaVuSans-2212"/>
       <use xlink:href="#DejaVuSans-30" x="83.789062"/>
       <use xlink:href="#DejaVuSans-2e" x="147.412109"/>
       <use xlink:href="#DejaVuSans-33" x="179.199219"/>
      </g>
     </g>
    </g>
    <g id="ytick_26">
     <g id="line2d_58">
      <g>
       <use xlink:href="#m2c81319f24" x="596.36" y="495.439271" style="stroke: #000000; stroke-width: 0.8"/>
      </g>
     </g>
     <g id="text_62">
      <!-- −0.2 -->
      <g transform="translate(560.220625 499.998334) scale(0.12 -0.12)">
       <use xlink:href="#DejaVuSans-2212"/>
       <use xlink:href="#DejaVuSans-30" x="83.789062"/>
       <use xlink:href="#DejaVuSans-2e" x="147.412109"/>
       <use xlink:href="#DejaVuSans-32" x="179.199219"/>
      </g>
     </g>
    </g>
    <g id="ytick_27">
     <g id="line2d_59">
      <g>
       <use xlink:href="#m2c81319f24" x="596.36" y="465.708744" style="stroke: #000000; stroke-width: 0.8"/>
      </g>
     </g>
     <g id="text_63">
      <!-- −0.1 -->
      <g transform="translate(560.220625 470.267806) scale(0.12 -0.12)">
       <use xlink:href="#DejaVuSans-2212"/>
       <use xlink:href="#DejaVuSans-30" x="83.789062"/>
       <use xlink:href="#DejaVuSans-2e" x="147.412109"/>
       <use xlink:href="#DejaVuSans-31" x="179.199219"/>
      </g>
     </g>
    </g>
    <g id="ytick_28">
     <g id="line2d_60">
      <g>
       <use xlink:href="#m2c81319f24" x="596.36" y="435.978216" style="stroke: #000000; stroke-width: 0.8"/>
      </g>
     </g>
     <g id="text_64">
      <!-- 0.0 -->
      <g transform="translate(570.27625 440.537279) scale(0.12 -0.12)">
       <use xlink:href="#DejaVuSans-30"/>
       <use xlink:href="#DejaVuSans-2e" x="63.623047"/>
       <use xlink:href="#DejaVuSans-30" x="95.410156"/>
      </g>
     </g>
    </g>
    <g id="ytick_29">
     <g id="line2d_61">
      <g>
       <use xlink:href="#m2c81319f24" x="596.36" y="406.247689" style="stroke: #000000; stroke-width: 0.8"/>
      </g>
     </g>
     <g id="text_65">
      <!-- 0.1 -->
      <g transform="translate(570.27625 410.806751) scale(0.12 -0.12)">
       <use xlink:href="#DejaVuSans-30"/>
       <use xlink:href="#DejaVuSans-2e" x="63.623047"/>
       <use xlink:href="#DejaVuSans-31" x="95.410156"/>
      </g>
     </g>
    </g>
    <g id="ytick_30">
     <g id="line2d_62">
      <g>
       <use xlink:href="#m2c81319f24" x="596.36" y="376.517162" style="stroke: #000000; stroke-width: 0.8"/>
      </g>
     </g>
     <g id="text_66">
      <!-- 0.2 -->
      <g transform="translate(570.27625 381.076224) scale(0.12 -0.12)">
       <use xlink:href="#DejaVuSans-30"/>
       <use xlink:href="#DejaVuSans-2e" x="63.623047"/>
       <use xlink:href="#DejaVuSans-32" x="95.410156"/>
      </g>
     </g>
    </g>
    <g id="ytick_31">
     <g id="line2d_63">
      <g>
       <use xlink:href="#m2c81319f24" x="596.36" y="346.786634" style="stroke: #000000; stroke-width: 0.8"/>
      </g>
     </g>
     <g id="text_67">
      <!-- 0.3 -->
      <g transform="translate(570.27625 351.345697) scale(0.12 -0.12)">
       <use xlink:href="#DejaVuSans-30"/>
       <use xlink:href="#DejaVuSans-2e" x="63.623047"/>
       <use xlink:href="#DejaVuSans-33" x="95.410156"/>
      </g>
     </g>
    </g>
    <g id="ytick_32">
     <g id="line2d_64">
      <g>
       <use xlink:href="#m2c81319f24" x="596.36" y="317.056107" style="stroke: #000000; stroke-width: 0.8"/>
      </g>
     </g>
     <g id="text_68">
      <!-- 0.4 -->
      <g transform="translate(570.27625 321.615169) scale(0.12 -0.12)">
       <use xlink:href="#DejaVuSans-30"/>
       <use xlink:href="#DejaVuSans-2e" x="63.623047"/>
       <use xlink:href="#DejaVuSans-34" x="95.410156"/>
      </g>
     </g>
    </g>
    <g id="text_69">
     <!-- Variability [%] -->
     <g transform="translate(553.725 462.449375) rotate(-90) scale(0.12 -0.12)">
      <use xlink:href="#DejaVuSans-56"/>
      <use xlink:href="#DejaVuSans-61" x="60.658203"/>
      <use xlink:href="#DejaVuSans-72" x="121.9375"/>
      <use xlink:href="#DejaVuSans-69" x="163.050781"/>
      <use xlink:href="#DejaVuSans-61" x="190.833984"/>
      <use xlink:href="#DejaVuSans-62" x="252.113281"/>
      <use xlink:href="#DejaVuSans-69" x="315.589844"/>
      <use xlink:href="#DejaVuSans-6c" x="343.373047"/>
      <use xlink:href="#DejaVuSans-69" x="371.15625"/>
      <use xlink:href="#DejaVuSans-74" x="398.939453"/>
      <use xlink:href="#DejaVuSans-79" x="438.148438"/>
      <use xlink:href="#DejaVuSans-20" x="497.328125"/>
      <use xlink:href="#DejaVuSans-5b" x="529.115234"/>
      <use xlink:href="#DejaVuSans-25" x="568.128906"/>
      <use xlink:href="#DejaVuSans-5d" x="663.148438"/>
     </g>
    </g>
   </g>
   <g id="line2d_65">
    <path d="M 617.852727 449.705057 
L 636.542055 430.585771 
L 655.231383 466.382049 
L 673.920711 423.79829 
L 692.61004 383.67841 
L 711.299368 438.039003 
L 729.988696 418.029596 
L 748.678024 422.504559 
L 767.367352 460.717523 
L 786.05668 483.54401 
L 804.746008 410.195556 
L 823.435336 408.223691 
L 842.124664 427.193064 
L 860.813992 418.853911 
L 879.50332 409.190274 
L 898.192648 522.392727 
L 916.881976 411.929281 
L 935.571304 318.247273 
L 954.260632 377.868965 
L 972.94996 459.057463 
L 991.639289 483.879817 
L 1010.328617 463.778958 
L 1029.017945 445.613688 
L 1047.707273 416.353288 
" clip-path="url(#p7136549f8e)" style="fill: none; stroke: #000000; stroke-width: 2; stroke-linecap: square"/>
   </g>
   <g id="line2d_66">
    <path d="M 617.852727 439.062169 
L 636.542055 443.271576 
L 655.231383 438.392607 
L 673.920711 436.977624 
L 692.61004 434.333574 
L 711.299368 439.019983 
L 729.988696 417.051082 
L 748.678024 439.30275 
L 767.367352 430.202456 
L 786.05668 439.791177 
L 804.746008 434.690241 
L 823.435336 437.396417 
L 842.124664 445.715271 
L 860.813992 433.284362 
L 879.50332 410.207544 
L 898.192648 478.64922 
L 916.881976 407.979049 
L 935.571304 333.520922 
L 954.260632 425.070345 
L 972.94996 437.085238 
L 991.639289 437.629878 
L 1010.328617 437.093826 
L 1029.017945 435.145373 
L 1047.707273 440.354336 
" clip-path="url(#p7136549f8e)" style="fill: none; stroke-dasharray: 11.1,4.8; stroke-dashoffset: 0; stroke: #008000; stroke-width: 3"/>
   </g>
   <g id="patch_15">
    <path d="M 596.36 532.6 
L 596.36 308.04 
" style="fill: none; stroke: #000000; stroke-width: 0.8; stroke-linejoin: miter; stroke-linecap: square"/>
   </g>
   <g id="patch_16">
    <path d="M 596.36 532.6 
L 1069.2 532.6 
" style="fill: none; stroke: #000000; stroke-width: 0.8; stroke-linejoin: miter; stroke-linecap: square"/>
   </g>
   <g id="text_70">
    <!-- d) November -->
    <g transform="translate(596.36 302.04) scale(0.12 -0.12)">
     <defs>
      <path id="DejaVuSans-4e" d="M 628 4666 
L 1478 4666 
L 3547 763 
L 3547 4666 
L 4159 4666 
L 4159 0 
L 3309 0 
L 1241 3903 
L 1241 0 
L 628 0 
L 628 4666 
z
" transform="scale(0.015625)"/>
     </defs>
     <use xlink:href="#DejaVuSans-64"/>
     <use xlink:href="#DejaVuSans-29" x="63.476562"/>
     <use xlink:href="#DejaVuSans-20" x="102.490234"/>
     <use xlink:href="#DejaVuSans-4e" x="134.277344"/>
     <use xlink:href="#DejaVuSans-6f" x="209.082031"/>
     <use xlink:href="#DejaVuSans-76" x="270.263672"/>
     <use xlink:href="#DejaVuSans-65" x="329.443359"/>
     <use xlink:href="#DejaVuSans-6d" x="390.966797"/>
     <use xlink:href="#DejaVuSans-62" x="488.378906"/>
     <use xlink:href="#DejaVuSans-65" x="551.855469"/>
     <use xlink:href="#DejaVuSans-72" x="613.378906"/>
    </g>
   </g>
   <g id="legend_4">
    <g id="patch_17">
     <path d="M 604.76 352.8675 
L 883.180625 352.8675 
Q 885.580625 352.8675 885.580625 350.4675 
L 885.580625 316.44 
Q 885.580625 314.04 883.180625 314.04 
L 604.76 314.04 
Q 602.36 314.04 602.36 316.44 
L 602.36 350.4675 
Q 602.36 352.8675 604.76 352.8675 
z
" style="fill: #ffffff; opacity: 0.8; stroke: #cccccc; stroke-linejoin: miter"/>
    </g>
    <g id="line2d_67">
     <path d="M 607.16 323.758125 
L 619.16 323.758125 
L 631.16 323.758125 
" style="fill: none; stroke: #000000; stroke-width: 2; stroke-linecap: square"/>
    </g>
    <g id="text_71">
     <!-- Observed -->
     <g transform="translate(640.76 327.958125) scale(0.12 -0.12)">
      <use xlink:href="#DejaVuSans-4f"/>
      <use xlink:href="#DejaVuSans-62" x="78.710938"/>
      <use xlink:href="#DejaVuSans-73" x="142.1875"/>
      <use xlink:href="#DejaVuSans-65" x="194.287109"/>
      <use xlink:href="#DejaVuSans-72" x="255.810547"/>
      <use xlink:href="#DejaVuSans-76" x="296.923828"/>
      <use xlink:href="#DejaVuSans-65" x="356.103516"/>
      <use xlink:href="#DejaVuSans-64" x="417.626953"/>
     </g>
    </g>
    <g id="line2d_68">
     <path d="M 607.16 341.371875 
L 619.16 341.371875 
L 631.16 341.371875 
" style="fill: none; stroke-dasharray: 11.1,4.8; stroke-dashoffset: 0; stroke: #008000; stroke-width: 3"/>
    </g>
    <g id="text_72">
     <!-- MME forecasts: (R²: 0.55, RRMSE: 9.0%) -->
     <g transform="translate(640.76 345.571875) scale(0.12 -0.12)">
      <use xlink:href="#DejaVuSans-4d"/>
      <use xlink:href="#DejaVuSans-4d" x="86.279297"/>
      <use xlink:href="#DejaVuSans-45" x="172.558594"/>
      <use xlink:href="#DejaVuSans-20" x="235.742188"/>
      <use xlink:href="#DejaVuSans-66" x="267.529297"/>
      <use xlink:href="#DejaVuSans-6f" x="302.734375"/>
      <use xlink:href="#DejaVuSans-72" x="363.916016"/>
      <use xlink:href="#DejaVuSans-65" x="402.779297"/>
      <use xlink:href="#DejaVuSans-63" x="464.302734"/>
      <use xlink:href="#DejaVuSans-61" x="519.283203"/>
      <use xlink:href="#DejaVuSans-73" x="580.5625"/>
      <use xlink:href="#DejaVuSans-74" x="632.662109"/>
      <use xlink:href="#DejaVuSans-73" x="671.871094"/>
      <use xlink:href="#DejaVuSans-3a" x="723.970703"/>
      <use xlink:href="#DejaVuSans-20" x="757.662109"/>
      <use xlink:href="#DejaVuSans-28" x="789.449219"/>
      <use xlink:href="#DejaVuSans-52" x="828.462891"/>
      <use xlink:href="#DejaVuSans-b2" x="897.945312"/>
      <use xlink:href="#DejaVuSans-3a" x="938.033203"/>
      <use xlink:href="#DejaVuSans-20" x="971.724609"/>
      <use xlink:href="#DejaVuSans-30" x="1003.511719"/>
      <use xlink:href="#DejaVuSans-2e" x="1067.134766"/>
      <use xlink:href="#DejaVuSans-35" x="1098.921875"/>
      <use xlink:href="#DejaVuSans-35" x="1162.544922"/>
      <use xlink:href="#DejaVuSans-2c" x="1226.167969"/>
      <use xlink:href="#DejaVuSans-20" x="1257.955078"/>
      <use xlink:href="#DejaVuSans-52" x="1289.742188"/>
      <use xlink:href="#DejaVuSans-52" x="1359.224609"/>
      <use xlink:href="#DejaVuSans-4d" x="1428.707031"/>
      <use xlink:href="#DejaVuSans-53" x="1514.986328"/>
      <use xlink:href="#DejaVuSans-45" x="1578.462891"/>
      <use xlink:href="#DejaVuSans-3a" x="1641.646484"/>
      <use xlink:href="#DejaVuSans-20" x="1675.337891"/>
      <use xlink:href="#DejaVuSans-39" x="1707.125"/>
      <use xlink:href="#DejaVuSans-2e" x="1770.748047"/>
      <use xlink:href="#DejaVuSans-30" x="1802.535156"/>
      <use xlink:href="#DejaVuSans-25" x="1866.158203"/>
      <use xlink:href="#DejaVuSans-29" x="1961.177734"/>
     </g>
    </g>
   </g>
  </g>
 </g>
 <defs>
  <clipPath id="p1eb8f704ab">
   <rect x="61.76" y="25.44" width="472.84" height="224.56"/>
  </clipPath>
  <clipPath id="p77ace4ddfd">
   <rect x="596.36" y="25.44" width="472.84" height="224.56"/>
  </clipPath>
  <clipPath id="pee3a4c774a">
   <rect x="61.76" y="308.04" width="472.84" height="224.56"/>
  </clipPath>
  <clipPath id="p7136549f8e">
   <rect x="596.36" y="308.04" width="472.84" height="224.56"/>
  </clipPath>
 </defs>
</svg>
