<?xml version="1.0" encoding="utf-8" standalone="no"?>
<!DOCTYPE svg PUBLIC "-//W3C//DTD SVG 1.1//EN"
  "http://www.w3.org/Graphics/SVG/1.1/DTD/svg11.dtd">
<svg xmlns:xlink="http://www.w3.org/1999/xlink" width="1080pt" height="720pt" viewBox="0 0 1080 720" xmlns="http://www.w3.org/2000/svg" version="1.1">
 <metadata>
  <rdf:RDF xmlns:dc="http://purl.org/dc/elements/1.1/" xmlns:cc="http://creativecommons.org/ns#" xmlns:rdf="http://www.w3.org/1999/02/22-rdf-syntax-ns#">
   <cc:Work>
    <dc:type rdf:resource="http://purl.org/dc/dcmitype/StillImage"/>
    <dc:date>2024-01-15T17:43:35.855172</dc:date>
    <dc:format>image/svg+xml</dc:format>
    <dc:creator>
     <cc:Agent>
      <dc:title>Matplotlib v3.7.1, https://matplotlib.org/</dc:title>
     </cc:Agent>
    </dc:creator>
   </cc:Work>
  </rdf:RDF>
 </metadata>
 <defs>
  <style type="text/css">*{stroke-linejoin: round; stroke-linecap: butt}</style>
 </defs>
 <g id="figure_1">
  <g id="patch_1">
   <path d="M 0 720 
L 1080 720 
L 1080 0 
L 0 0 
z
" style="fill: #ffffff"/>
  </g>
  <g id="axes_1">
   <g id="patch_2">
    <path d="M 69.5 221.28 
L 562.2 221.28 
L 562.2 27.6 
L 69.5 27.6 
z
" style="fill: #ffffff"/>
   </g>
   <g id="PolyCollection_1"/>
   <g id="PolyCollection_2"/>
   <g id="PolyCollection_3">
    <defs>
     <path id="m9bd3b632b4" d="M 91.895455 -587.960499 
L 91.895455 -580.069415 
L 111.369763 -580.878472 
L 130.844071 -587.375913 
L 150.318379 -582.296248 
L 169.792688 -574.666032 
L 189.266996 -576.503464 
L 208.741304 -582.66673 
L 228.215613 -583.109539 
L 247.689921 -585.183737 
L 267.164229 -580.053692 
L 286.638538 -585.612299 
L 306.112846 -583.044284 
L 325.587154 -584.307434 
L 345.061462 -582.158137 
L 364.535771 -582.456 
L 384.010079 -577.818242 
L 403.484387 -580.816804 
L 422.958696 -580.557409 
L 442.433004 -584.321881 
L 461.907312 -583.080706 
L 481.381621 -580.434798 
L 500.855929 -574.401757 
L 520.330237 -582.652927 
L 539.804545 -582.590753 
L 539.804545 -590.753916 
L 539.804545 -590.753916 
L 520.330237 -595.675999 
L 500.855929 -586.781372 
L 481.381621 -602.126272 
L 461.907312 -588.789785 
L 442.433004 -601.788573 
L 422.958696 -594.931398 
L 403.484387 -589.3593 
L 384.010079 -587.202474 
L 364.535771 -593.763342 
L 345.061462 -589.311891 
L 325.587154 -587.124864 
L 306.112846 -589.772455 
L 286.638538 -592.528693 
L 267.164229 -592.658189 
L 247.689921 -589.449592 
L 228.215613 -591.934642 
L 208.741304 -591.356508 
L 189.266996 -585.929446 
L 169.792688 -590.070576 
L 150.318379 -587.507407 
L 130.844071 -597.117066 
L 111.369763 -593.396472 
L 91.895455 -587.960499 
z
" style="stroke: #008000; stroke-opacity: 0.4"/>
    </defs>
    <g clip-path="url(#p35aabec0f3)">
     <use xlink:href="#m9bd3b632b4" x="0" y="720" style="fill: #008000; fill-opacity: 0.4; stroke: #008000; stroke-opacity: 0.4"/>
    </g>
   </g>
   <g id="matplotlib.axis_1">
    <g id="xtick_1">
     <g id="line2d_1">
      <defs>
       <path id="mccd3b1d852" d="M 0 0 
L 0 3.5 
" style="stroke: #000000; stroke-width: 0.8"/>
      </defs>
      <g>
       <use xlink:href="#mccd3b1d852" x="130.844071" y="221.28" style="stroke: #000000; stroke-width: 0.8"/>
      </g>
     </g>
    </g>
    <g id="xtick_2">
     <g id="line2d_2">
      <g>
       <use xlink:href="#mccd3b1d852" x="228.215613" y="221.28" style="stroke: #000000; stroke-width: 0.8"/>
      </g>
     </g>
    </g>
    <g id="xtick_3">
     <g id="line2d_3">
      <g>
       <use xlink:href="#mccd3b1d852" x="325.587154" y="221.28" style="stroke: #000000; stroke-width: 0.8"/>
      </g>
     </g>
    </g>
    <g id="xtick_4">
     <g id="line2d_4">
      <g>
       <use xlink:href="#mccd3b1d852" x="422.958696" y="221.28" style="stroke: #000000; stroke-width: 0.8"/>
      </g>
     </g>
    </g>
    <g id="xtick_5">
     <g id="line2d_5">
      <g>
       <use xlink:href="#mccd3b1d852" x="520.330237" y="221.28" style="stroke: #000000; stroke-width: 0.8"/>
      </g>
     </g>
    </g>
   </g>
   <g id="matplotlib.axis_2">
    <g id="ytick_1">
     <g id="line2d_6">
      <defs>
       <path id="m80b0a1475f" d="M 0 0 
L -3.5 0 
" style="stroke: #000000; stroke-width: 0.8"/>
      </defs>
      <g>
       <use xlink:href="#m80b0a1475f" x="69.5" y="189.462458" style="stroke: #000000; stroke-width: 0.8"/>
      </g>
     </g>
     <g id="text_1">
      <!-- −0.2 -->
      <g transform="translate(28.504062 194.781364) scale(0.14 -0.14)">
       <defs>
        <path id="DejaVuSans-2212" d="M 678 2272 
L 4684 2272 
L 4684 1741 
L 678 1741 
L 678 2272 
z
" transform="scale(0.015625)"/>
        <path id="DejaVuSans-30" d="M 2034 4250 
Q 1547 4250 1301 3770 
Q 1056 3291 1056 2328 
Q 1056 1369 1301 889 
Q 1547 409 2034 409 
Q 2525 409 2770 889 
Q 3016 1369 3016 2328 
Q 3016 3291 2770 3770 
Q 2525 4250 2034 4250 
z
M 2034 4750 
Q 2819 4750 3233 4129 
Q 3647 3509 3647 2328 
Q 3647 1150 3233 529 
Q 2819 -91 2034 -91 
Q 1250 -91 836 529 
Q 422 1150 422 2328 
Q 422 3509 836 4129 
Q 1250 4750 2034 4750 
z
" transform="scale(0.015625)"/>
        <path id="DejaVuSans-2e" d="M 684 794 
L 1344 794 
L 1344 0 
L 684 0 
L 684 794 
z
" transform="scale(0.015625)"/>
        <path id="DejaVuSans-32" d="M 1228 531 
L 3431 531 
L 3431 0 
L 469 0 
L 469 531 
Q 828 903 1448 1529 
Q 2069 2156 2228 2338 
Q 2531 2678 2651 2914 
Q 2772 3150 2772 3378 
Q 2772 3750 2511 3984 
Q 2250 4219 1831 4219 
Q 1534 4219 1204 4116 
Q 875 4013 500 3803 
L 500 4441 
Q 881 4594 1212 4672 
Q 1544 4750 1819 4750 
Q 2544 4750 2975 4387 
Q 3406 4025 3406 3419 
Q 3406 3131 3298 2873 
Q 3191 2616 2906 2266 
Q 2828 2175 2409 1742 
Q 1991 1309 1228 531 
z
" transform="scale(0.015625)"/>
       </defs>
       <use xlink:href="#DejaVuSans-2212"/>
       <use xlink:href="#DejaVuSans-30" x="83.789062"/>
       <use xlink:href="#DejaVuSans-2e" x="147.412109"/>
       <use xlink:href="#DejaVuSans-32" x="179.199219"/>
      </g>
     </g>
    </g>
    <g id="ytick_2">
     <g id="line2d_7">
      <g>
       <use xlink:href="#m80b0a1475f" x="69.5" y="137.863638" style="stroke: #000000; stroke-width: 0.8"/>
      </g>
     </g>
     <g id="text_2">
      <!-- 0.0 -->
      <g transform="translate(40.235625 143.182544) scale(0.14 -0.14)">
       <use xlink:href="#DejaVuSans-30"/>
       <use xlink:href="#DejaVuSans-2e" x="63.623047"/>
       <use xlink:href="#DejaVuSans-30" x="95.410156"/>
      </g>
     </g>
    </g>
    <g id="ytick_3">
     <g id="line2d_8">
      <g>
       <use xlink:href="#m80b0a1475f" x="69.5" y="86.264819" style="stroke: #000000; stroke-width: 0.8"/>
      </g>
     </g>
     <g id="text_3">
      <!-- 0.2 -->
      <g transform="translate(40.235625 91.583725) scale(0.14 -0.14)">
       <use xlink:href="#DejaVuSans-30"/>
       <use xlink:href="#DejaVuSans-2e" x="63.623047"/>
       <use xlink:href="#DejaVuSans-32" x="95.410156"/>
      </g>
     </g>
    </g>
    <g id="ytick_4">
     <g id="line2d_9">
      <g>
       <use xlink:href="#m80b0a1475f" x="69.5" y="34.665999" style="stroke: #000000; stroke-width: 0.8"/>
      </g>
     </g>
     <g id="text_4">
      <!-- 0.4 -->
      <g transform="translate(40.235625 39.984905) scale(0.14 -0.14)">
       <defs>
        <path id="DejaVuSans-34" d="M 2419 4116 
L 825 1625 
L 2419 1625 
L 2419 4116 
z
M 2253 4666 
L 3047 4666 
L 3047 1625 
L 3713 1625 
L 3713 1100 
L 3047 1100 
L 3047 0 
L 2419 0 
L 2419 1100 
L 313 1100 
L 313 1709 
L 2253 4666 
z
" transform="scale(0.015625)"/>
       </defs>
       <use xlink:href="#DejaVuSans-30"/>
       <use xlink:href="#DejaVuSans-2e" x="63.623047"/>
       <use xlink:href="#DejaVuSans-34" x="95.410156"/>
      </g>
     </g>
    </g>
    <g id="text_5">
     <!-- Variability [%] -->
     <g transform="translate(21.5925 173.590938) rotate(-90) scale(0.14 -0.14)">
      <defs>
       <path id="DejaVuSans-56" d="M 1831 0 
L 50 4666 
L 709 4666 
L 2188 738 
L 3669 4666 
L 4325 4666 
L 2547 0 
L 1831 0 
z
" transform="scale(0.015625)"/>
       <path id="DejaVuSans-61" d="M 2194 1759 
Q 1497 1759 1228 1600 
Q 959 1441 959 1056 
Q 959 750 1161 570 
Q 1363 391 1709 391 
Q 2188 391 2477 730 
Q 2766 1069 2766 1631 
L 2766 1759 
L 2194 1759 
z
M 3341 1997 
L 3341 0 
L 2766 0 
L 2766 531 
Q 2569 213 2275 61 
Q 1981 -91 1556 -91 
Q 1019 -91 701 211 
Q 384 513 384 1019 
Q 384 1609 779 1909 
Q 1175 2209 1959 2209 
L 2766 2209 
L 2766 2266 
Q 2766 2663 2505 2880 
Q 2244 3097 1772 3097 
Q 1472 3097 1187 3025 
Q 903 2953 641 2809 
L 641 3341 
Q 956 3463 1253 3523 
Q 1550 3584 1831 3584 
Q 2591 3584 2966 3190 
Q 3341 2797 3341 1997 
z
" transform="scale(0.015625)"/>
       <path id="DejaVuSans-72" d="M 2631 2963 
Q 2534 3019 2420 3045 
Q 2306 3072 2169 3072 
Q 1681 3072 1420 2755 
Q 1159 2438 1159 1844 
L 1159 0 
L 581 0 
L 581 3500 
L 1159 3500 
L 1159 2956 
Q 1341 3275 1631 3429 
Q 1922 3584 2338 3584 
Q 2397 3584 2469 3576 
Q 2541 3569 2628 3553 
L 2631 2963 
z
" transform="scale(0.015625)"/>
       <path id="DejaVuSans-69" d="M 603 3500 
L 1178 3500 
L 1178 0 
L 603 0 
L 603 3500 
z
M 603 4863 
L 1178 4863 
L 1178 4134 
L 603 4134 
L 603 4863 
z
" transform="scale(0.015625)"/>
       <path id="DejaVuSans-62" d="M 3116 1747 
Q 3116 2381 2855 2742 
Q 2594 3103 2138 3103 
Q 1681 3103 1420 2742 
Q 1159 2381 1159 1747 
Q 1159 1113 1420 752 
Q 1681 391 2138 391 
Q 2594 391 2855 752 
Q 3116 1113 3116 1747 
z
M 1159 2969 
Q 1341 3281 1617 3432 
Q 1894 3584 2278 3584 
Q 2916 3584 3314 3078 
Q 3713 2572 3713 1747 
Q 3713 922 3314 415 
Q 2916 -91 2278 -91 
Q 1894 -91 1617 61 
Q 1341 213 1159 525 
L 1159 0 
L 581 0 
L 581 4863 
L 1159 4863 
L 1159 2969 
z
" transform="scale(0.015625)"/>
       <path id="DejaVuSans-6c" d="M 603 4863 
L 1178 4863 
L 1178 0 
L 603 0 
L 603 4863 
z
" transform="scale(0.015625)"/>
       <path id="DejaVuSans-74" d="M 1172 4494 
L 1172 3500 
L 2356 3500 
L 2356 3053 
L 1172 3053 
L 1172 1153 
Q 1172 725 1289 603 
Q 1406 481 1766 481 
L 2356 481 
L 2356 0 
L 1766 0 
Q 1100 0 847 248 
Q 594 497 594 1153 
L 594 3053 
L 172 3053 
L 172 3500 
L 594 3500 
L 594 4494 
L 1172 4494 
z
" transform="scale(0.015625)"/>
       <path id="DejaVuSans-79" d="M 2059 -325 
Q 1816 -950 1584 -1140 
Q 1353 -1331 966 -1331 
L 506 -1331 
L 506 -850 
L 844 -850 
Q 1081 -850 1212 -737 
Q 1344 -625 1503 -206 
L 1606 56 
L 191 3500 
L 800 3500 
L 1894 763 
L 2988 3500 
L 3597 3500 
L 2059 -325 
z
" transform="scale(0.015625)"/>
       <path id="DejaVuSans-20" transform="scale(0.015625)"/>
       <path id="DejaVuSans-5b" d="M 550 4863 
L 1875 4863 
L 1875 4416 
L 1125 4416 
L 1125 -397 
L 1875 -397 
L 1875 -844 
L 550 -844 
L 550 4863 
z
" transform="scale(0.015625)"/>
       <path id="DejaVuSans-25" d="M 4653 2053 
Q 4381 2053 4226 1822 
Q 4072 1591 4072 1178 
Q 4072 772 4226 539 
Q 4381 306 4653 306 
Q 4919 306 5073 539 
Q 5228 772 5228 1178 
Q 5228 1588 5073 1820 
Q 4919 2053 4653 2053 
z
M 4653 2450 
Q 5147 2450 5437 2106 
Q 5728 1763 5728 1178 
Q 5728 594 5436 251 
Q 5144 -91 4653 -91 
Q 4153 -91 3862 251 
Q 3572 594 3572 1178 
Q 3572 1766 3864 2108 
Q 4156 2450 4653 2450 
z
M 1428 4353 
Q 1159 4353 1004 4120 
Q 850 3888 850 3481 
Q 850 3069 1003 2837 
Q 1156 2606 1428 2606 
Q 1700 2606 1854 2837 
Q 2009 3069 2009 3481 
Q 2009 3884 1853 4118 
Q 1697 4353 1428 4353 
z
M 4250 4750 
L 4750 4750 
L 1831 -91 
L 1331 -91 
L 4250 4750 
z
M 1428 4750 
Q 1922 4750 2215 4408 
Q 2509 4066 2509 3481 
Q 2509 2891 2217 2550 
Q 1925 2209 1428 2209 
Q 931 2209 642 2551 
Q 353 2894 353 3481 
Q 353 4063 643 4406 
Q 934 4750 1428 4750 
z
" transform="scale(0.015625)"/>
       <path id="DejaVuSans-5d" d="M 1947 4863 
L 1947 -844 
L 622 -844 
L 622 -397 
L 1369 -397 
L 1369 4416 
L 622 4416 
L 622 4863 
L 1947 4863 
z
" transform="scale(0.015625)"/>
      </defs>
      <use xlink:href="#DejaVuSans-56"/>
      <use xlink:href="#DejaVuSans-61" x="60.658203"/>
      <use xlink:href="#DejaVuSans-72" x="121.9375"/>
      <use xlink:href="#DejaVuSans-69" x="163.050781"/>
      <use xlink:href="#DejaVuSans-61" x="190.833984"/>
      <use xlink:href="#DejaVuSans-62" x="252.113281"/>
      <use xlink:href="#DejaVuSans-69" x="315.589844"/>
      <use xlink:href="#DejaVuSans-6c" x="343.373047"/>
      <use xlink:href="#DejaVuSans-69" x="371.15625"/>
      <use xlink:href="#DejaVuSans-74" x="398.939453"/>
      <use xlink:href="#DejaVuSans-79" x="438.148438"/>
      <use xlink:href="#DejaVuSans-20" x="497.328125"/>
      <use xlink:href="#DejaVuSans-5b" x="529.115234"/>
      <use xlink:href="#DejaVuSans-25" x="568.128906"/>
      <use xlink:href="#DejaVuSans-5d" x="663.148438"/>
     </g>
    </g>
   </g>
   <g id="line2d_10">
    <path d="M 91.895455 149.9884 
L 111.369763 132.659452 
L 130.844071 163.836054 
L 150.318379 126.552602 
L 169.792688 92.724361 
L 189.266996 139.374635 
L 208.741304 122.258396 
L 228.215613 126.725026 
L 247.689921 160.060713 
L 267.164229 179.928919 
L 286.638538 116.046169 
L 306.112846 113.873643 
L 325.587154 129.897127 
L 345.061462 122.546215 
L 364.535771 114.498395 
L 384.010079 212.476364 
L 403.484387 116.283229 
L 422.958696 36.403636 
L 442.433004 87.496926 
L 461.907312 158.296803 
L 481.381621 179.030398 
L 500.855929 162.162687 
L 520.330237 146.505131 
L 539.804545 121.009195 
" clip-path="url(#p35aabec0f3)" style="fill: none; stroke: #000000; stroke-width: 2; stroke-linecap: square"/>
   </g>
   <g id="line2d_11">
    <path d="M 91.895455 136.749647 
L 111.369763 135.738394 
L 130.844071 131.995483 
L 150.318379 134.713986 
L 169.792688 138.912726 
L 189.266996 134.274497 
L 208.741304 133.999247 
L 228.215613 134.58933 
L 247.689921 134.151897 
L 267.164229 136.777635 
L 286.638538 133.302314 
L 306.112846 132.795212 
L 325.587154 134.881862 
L 345.061462 136.448033 
L 364.535771 134.991694 
L 384.010079 140.084414 
L 403.484387 130.791436 
L 422.958696 133.296279 
L 442.433004 131.832036 
L 461.907312 133.251657 
L 481.381621 137.564695 
L 500.855929 135.485654 
L 520.330237 134.748403 
L 539.804545 134.459785 
" clip-path="url(#p35aabec0f3)" style="fill: none; stroke-dasharray: 11.1,4.8; stroke-dashoffset: 0; stroke: #008000; stroke-width: 3"/>
   </g>
   <g id="patch_3">
    <path d="M 69.5 221.28 
L 69.5 27.6 
" style="fill: none; stroke: #000000; stroke-width: 0.8; stroke-linejoin: miter; stroke-linecap: square"/>
   </g>
   <g id="patch_4">
    <path d="M 69.5 221.28 
L 562.2 221.28 
" style="fill: none; stroke: #000000; stroke-width: 0.8; stroke-linejoin: miter; stroke-linecap: square"/>
   </g>
   <g id="text_6">
    <!-- a) June -->
    <g transform="translate(69.5 21.6) scale(0.14 -0.14)">
     <defs>
      <path id="DejaVuSans-29" d="M 513 4856 
L 1013 4856 
Q 1481 4119 1714 3412 
Q 1947 2706 1947 2009 
Q 1947 1309 1714 600 
Q 1481 -109 1013 -844 
L 513 -844 
Q 928 -128 1133 580 
Q 1338 1288 1338 2009 
Q 1338 2731 1133 3434 
Q 928 4138 513 4856 
z
" transform="scale(0.015625)"/>
      <path id="DejaVuSans-4a" d="M 628 4666 
L 1259 4666 
L 1259 325 
Q 1259 -519 939 -900 
Q 619 -1281 -91 -1281 
L -331 -1281 
L -331 -750 
L -134 -750 
Q 284 -750 456 -515 
Q 628 -281 628 325 
L 628 4666 
z
" transform="scale(0.015625)"/>
      <path id="DejaVuSans-75" d="M 544 1381 
L 544 3500 
L 1119 3500 
L 1119 1403 
Q 1119 906 1312 657 
Q 1506 409 1894 409 
Q 2359 409 2629 706 
Q 2900 1003 2900 1516 
L 2900 3500 
L 3475 3500 
L 3475 0 
L 2900 0 
L 2900 538 
Q 2691 219 2414 64 
Q 2138 -91 1772 -91 
Q 1169 -91 856 284 
Q 544 659 544 1381 
z
M 1991 3584 
L 1991 3584 
z
" transform="scale(0.015625)"/>
      <path id="DejaVuSans-6e" d="M 3513 2113 
L 3513 0 
L 2938 0 
L 2938 2094 
Q 2938 2591 2744 2837 
Q 2550 3084 2163 3084 
Q 1697 3084 1428 2787 
Q 1159 2491 1159 1978 
L 1159 0 
L 581 0 
L 581 3500 
L 1159 3500 
L 1159 2956 
Q 1366 3272 1645 3428 
Q 1925 3584 2291 3584 
Q 2894 3584 3203 3211 
Q 3513 2838 3513 2113 
z
" transform="scale(0.015625)"/>
      <path id="DejaVuSans-65" d="M 3597 1894 
L 3597 1613 
L 953 1613 
Q 991 1019 1311 708 
Q 1631 397 2203 397 
Q 2534 397 2845 478 
Q 3156 559 3463 722 
L 3463 178 
Q 3153 47 2828 -22 
Q 2503 -91 2169 -91 
Q 1331 -91 842 396 
Q 353 884 353 1716 
Q 353 2575 817 3079 
Q 1281 3584 2069 3584 
Q 2775 3584 3186 3129 
Q 3597 2675 3597 1894 
z
M 3022 2063 
Q 3016 2534 2758 2815 
Q 2500 3097 2075 3097 
Q 1594 3097 1305 2825 
Q 1016 2553 972 2059 
L 3022 2063 
z
" transform="scale(0.015625)"/>
     </defs>
     <use xlink:href="#DejaVuSans-61"/>
     <use xlink:href="#DejaVuSans-29" x="61.279297"/>
     <use xlink:href="#DejaVuSans-20" x="100.292969"/>
     <use xlink:href="#DejaVuSans-4a" x="132.080078"/>
     <use xlink:href="#DejaVuSans-75" x="161.572266"/>
     <use xlink:href="#DejaVuSans-6e" x="224.951172"/>
     <use xlink:href="#DejaVuSans-65" x="288.330078"/>
    </g>
   </g>
   <g id="legend_1">
    <g id="patch_5">
     <path d="M 79.3 79.89875 
L 413.031563 79.89875 
Q 415.831563 79.89875 415.831563 77.09875 
L 415.831563 37.4 
Q 415.831563 34.6 413.031563 34.6 
L 79.3 34.6 
Q 76.5 34.6 76.5 37.4 
L 76.5 77.09875 
Q 76.5 79.89875 79.3 79.89875 
z
" style="fill: #ffffff; opacity: 0.8; stroke: #cccccc; stroke-linejoin: miter"/>
    </g>
    <g id="line2d_12">
     <path d="M 82.1 45.937813 
L 96.1 45.937813 
L 110.1 45.937813 
" style="fill: none; stroke: #000000; stroke-width: 2; stroke-linecap: square"/>
    </g>
    <g id="text_7">
     <!-- Observed -->
     <g transform="translate(121.3 50.837813) scale(0.14 -0.14)">
      <defs>
       <path id="DejaVuSans-4f" d="M 2522 4238 
Q 1834 4238 1429 3725 
Q 1025 3213 1025 2328 
Q 1025 1447 1429 934 
Q 1834 422 2522 422 
Q 3209 422 3611 934 
Q 4013 1447 4013 2328 
Q 4013 3213 3611 3725 
Q 3209 4238 2522 4238 
z
M 2522 4750 
Q 3503 4750 4090 4092 
Q 4678 3434 4678 2328 
Q 4678 1225 4090 567 
Q 3503 -91 2522 -91 
Q 1538 -91 948 565 
Q 359 1222 359 2328 
Q 359 3434 948 4092 
Q 1538 4750 2522 4750 
z
" transform="scale(0.015625)"/>
       <path id="DejaVuSans-73" d="M 2834 3397 
L 2834 2853 
Q 2591 2978 2328 3040 
Q 2066 3103 1784 3103 
Q 1356 3103 1142 2972 
Q 928 2841 928 2578 
Q 928 2378 1081 2264 
Q 1234 2150 1697 2047 
L 1894 2003 
Q 2506 1872 2764 1633 
Q 3022 1394 3022 966 
Q 3022 478 2636 193 
Q 2250 -91 1575 -91 
Q 1294 -91 989 -36 
Q 684 19 347 128 
L 347 722 
Q 666 556 975 473 
Q 1284 391 1588 391 
Q 1994 391 2212 530 
Q 2431 669 2431 922 
Q 2431 1156 2273 1281 
Q 2116 1406 1581 1522 
L 1381 1569 
Q 847 1681 609 1914 
Q 372 2147 372 2553 
Q 372 3047 722 3315 
Q 1072 3584 1716 3584 
Q 2034 3584 2315 3537 
Q 2597 3491 2834 3397 
z
" transform="scale(0.015625)"/>
       <path id="DejaVuSans-76" d="M 191 3500 
L 800 3500 
L 1894 563 
L 2988 3500 
L 3597 3500 
L 2284 0 
L 1503 0 
L 191 3500 
z
" transform="scale(0.015625)"/>
       <path id="DejaVuSans-64" d="M 2906 2969 
L 2906 4863 
L 3481 4863 
L 3481 0 
L 2906 0 
L 2906 525 
Q 2725 213 2448 61 
Q 2172 -91 1784 -91 
Q 1150 -91 751 415 
Q 353 922 353 1747 
Q 353 2572 751 3078 
Q 1150 3584 1784 3584 
Q 2172 3584 2448 3432 
Q 2725 3281 2906 2969 
z
M 947 1747 
Q 947 1113 1208 752 
Q 1469 391 1925 391 
Q 2381 391 2643 752 
Q 2906 1113 2906 1747 
Q 2906 2381 2643 2742 
Q 2381 3103 1925 3103 
Q 1469 3103 1208 2742 
Q 947 2381 947 1747 
z
" transform="scale(0.015625)"/>
      </defs>
      <use xlink:href="#DejaVuSans-4f"/>
      <use xlink:href="#DejaVuSans-62" x="78.710938"/>
      <use xlink:href="#DejaVuSans-73" x="142.1875"/>
      <use xlink:href="#DejaVuSans-65" x="194.287109"/>
      <use xlink:href="#DejaVuSans-72" x="255.810547"/>
      <use xlink:href="#DejaVuSans-76" x="296.923828"/>
      <use xlink:href="#DejaVuSans-65" x="356.103516"/>
      <use xlink:href="#DejaVuSans-64" x="417.626953"/>
     </g>
    </g>
    <g id="line2d_13">
     <path d="M 82.1 66.487187 
L 96.1 66.487187 
L 110.1 66.487187 
" style="fill: none; stroke-dasharray: 11.1,4.8; stroke-dashoffset: 0; stroke: #008000; stroke-width: 3"/>
    </g>
    <g id="text_8">
     <!-- MME forecasts: (R²: 0.05, RRMSE: 13.2%) -->
     <g transform="translate(121.3 71.387187) scale(0.14 -0.14)">
      <defs>
       <path id="DejaVuSans-4d" d="M 628 4666 
L 1569 4666 
L 2759 1491 
L 3956 4666 
L 4897 4666 
L 4897 0 
L 4281 0 
L 4281 4097 
L 3078 897 
L 2444 897 
L 1241 4097 
L 1241 0 
L 628 0 
L 628 4666 
z
" transform="scale(0.015625)"/>
       <path id="DejaVuSans-45" d="M 628 4666 
L 3578 4666 
L 3578 4134 
L 1259 4134 
L 1259 2753 
L 3481 2753 
L 3481 2222 
L 1259 2222 
L 1259 531 
L 3634 531 
L 3634 0 
L 628 0 
L 628 4666 
z
" transform="scale(0.015625)"/>
       <path id="DejaVuSans-66" d="M 2375 4863 
L 2375 4384 
L 1825 4384 
Q 1516 4384 1395 4259 
Q 1275 4134 1275 3809 
L 1275 3500 
L 2222 3500 
L 2222 3053 
L 1275 3053 
L 1275 0 
L 697 0 
L 697 3053 
L 147 3053 
L 147 3500 
L 697 3500 
L 697 3744 
Q 697 4328 969 4595 
Q 1241 4863 1831 4863 
L 2375 4863 
z
" transform="scale(0.015625)"/>
       <path id="DejaVuSans-6f" d="M 1959 3097 
Q 1497 3097 1228 2736 
Q 959 2375 959 1747 
Q 959 1119 1226 758 
Q 1494 397 1959 397 
Q 2419 397 2687 759 
Q 2956 1122 2956 1747 
Q 2956 2369 2687 2733 
Q 2419 3097 1959 3097 
z
M 1959 3584 
Q 2709 3584 3137 3096 
Q 3566 2609 3566 1747 
Q 3566 888 3137 398 
Q 2709 -91 1959 -91 
Q 1206 -91 779 398 
Q 353 888 353 1747 
Q 353 2609 779 3096 
Q 1206 3584 1959 3584 
z
" transform="scale(0.015625)"/>
       <path id="DejaVuSans-63" d="M 3122 3366 
L 3122 2828 
Q 2878 2963 2633 3030 
Q 2388 3097 2138 3097 
Q 1578 3097 1268 2742 
Q 959 2388 959 1747 
Q 959 1106 1268 751 
Q 1578 397 2138 397 
Q 2388 397 2633 464 
Q 2878 531 3122 666 
L 3122 134 
Q 2881 22 2623 -34 
Q 2366 -91 2075 -91 
Q 1284 -91 818 406 
Q 353 903 353 1747 
Q 353 2603 823 3093 
Q 1294 3584 2113 3584 
Q 2378 3584 2631 3529 
Q 2884 3475 3122 3366 
z
" transform="scale(0.015625)"/>
       <path id="DejaVuSans-3a" d="M 750 794 
L 1409 794 
L 1409 0 
L 750 0 
L 750 794 
z
M 750 3309 
L 1409 3309 
L 1409 2516 
L 750 2516 
L 750 3309 
z
" transform="scale(0.015625)"/>
       <path id="DejaVuSans-28" d="M 1984 4856 
Q 1566 4138 1362 3434 
Q 1159 2731 1159 2009 
Q 1159 1288 1364 580 
Q 1569 -128 1984 -844 
L 1484 -844 
Q 1016 -109 783 600 
Q 550 1309 550 2009 
Q 550 2706 781 3412 
Q 1013 4119 1484 4856 
L 1984 4856 
z
" transform="scale(0.015625)"/>
       <path id="DejaVuSans-52" d="M 2841 2188 
Q 3044 2119 3236 1894 
Q 3428 1669 3622 1275 
L 4263 0 
L 3584 0 
L 2988 1197 
Q 2756 1666 2539 1819 
Q 2322 1972 1947 1972 
L 1259 1972 
L 1259 0 
L 628 0 
L 628 4666 
L 2053 4666 
Q 2853 4666 3247 4331 
Q 3641 3997 3641 3322 
Q 3641 2881 3436 2590 
Q 3231 2300 2841 2188 
z
M 1259 4147 
L 1259 2491 
L 2053 2491 
Q 2509 2491 2742 2702 
Q 2975 2913 2975 3322 
Q 2975 3731 2742 3939 
Q 2509 4147 2053 4147 
L 1259 4147 
z
" transform="scale(0.015625)"/>
       <path id="DejaVuSans-b2" d="M 838 2444 
L 2163 2444 
L 2163 2088 
L 294 2088 
L 294 2431 
Q 400 2528 597 2703 
Q 1672 3656 1672 3950 
Q 1672 4156 1509 4282 
Q 1347 4409 1081 4409 
Q 919 4409 728 4354 
Q 538 4300 313 4191 
L 313 4575 
Q 553 4663 761 4706 
Q 969 4750 1147 4750 
Q 1600 4750 1872 4544 
Q 2144 4338 2144 4000 
Q 2144 3566 1109 2678 
Q 934 2528 838 2444 
z
" transform="scale(0.015625)"/>
       <path id="DejaVuSans-35" d="M 691 4666 
L 3169 4666 
L 3169 4134 
L 1269 4134 
L 1269 2991 
Q 1406 3038 1543 3061 
Q 1681 3084 1819 3084 
Q 2600 3084 3056 2656 
Q 3513 2228 3513 1497 
Q 3513 744 3044 326 
Q 2575 -91 1722 -91 
Q 1428 -91 1123 -41 
Q 819 9 494 109 
L 494 744 
Q 775 591 1075 516 
Q 1375 441 1709 441 
Q 2250 441 2565 725 
Q 2881 1009 2881 1497 
Q 2881 1984 2565 2268 
Q 2250 2553 1709 2553 
Q 1456 2553 1204 2497 
Q 953 2441 691 2322 
L 691 4666 
z
" transform="scale(0.015625)"/>
       <path id="DejaVuSans-2c" d="M 750 794 
L 1409 794 
L 1409 256 
L 897 -744 
L 494 -744 
L 750 256 
L 750 794 
z
" transform="scale(0.015625)"/>
       <path id="DejaVuSans-53" d="M 3425 4513 
L 3425 3897 
Q 3066 4069 2747 4153 
Q 2428 4238 2131 4238 
Q 1616 4238 1336 4038 
Q 1056 3838 1056 3469 
Q 1056 3159 1242 3001 
Q 1428 2844 1947 2747 
L 2328 2669 
Q 3034 2534 3370 2195 
Q 3706 1856 3706 1288 
Q 3706 609 3251 259 
Q 2797 -91 1919 -91 
Q 1588 -91 1214 -16 
Q 841 59 441 206 
L 441 856 
Q 825 641 1194 531 
Q 1563 422 1919 422 
Q 2459 422 2753 634 
Q 3047 847 3047 1241 
Q 3047 1584 2836 1778 
Q 2625 1972 2144 2069 
L 1759 2144 
Q 1053 2284 737 2584 
Q 422 2884 422 3419 
Q 422 4038 858 4394 
Q 1294 4750 2059 4750 
Q 2388 4750 2728 4690 
Q 3069 4631 3425 4513 
z
" transform="scale(0.015625)"/>
       <path id="DejaVuSans-31" d="M 794 531 
L 1825 531 
L 1825 4091 
L 703 3866 
L 703 4441 
L 1819 4666 
L 2450 4666 
L 2450 531 
L 3481 531 
L 3481 0 
L 794 0 
L 794 531 
z
" transform="scale(0.015625)"/>
       <path id="DejaVuSans-33" d="M 2597 2516 
Q 3050 2419 3304 2112 
Q 3559 1806 3559 1356 
Q 3559 666 3084 287 
Q 2609 -91 1734 -91 
Q 1441 -91 1130 -33 
Q 819 25 488 141 
L 488 750 
Q 750 597 1062 519 
Q 1375 441 1716 441 
Q 2309 441 2620 675 
Q 2931 909 2931 1356 
Q 2931 1769 2642 2001 
Q 2353 2234 1838 2234 
L 1294 2234 
L 1294 2753 
L 1863 2753 
Q 2328 2753 2575 2939 
Q 2822 3125 2822 3475 
Q 2822 3834 2567 4026 
Q 2313 4219 1838 4219 
Q 1578 4219 1281 4162 
Q 984 4106 628 3988 
L 628 4550 
Q 988 4650 1302 4700 
Q 1616 4750 1894 4750 
Q 2613 4750 3031 4423 
Q 3450 4097 3450 3541 
Q 3450 3153 3228 2886 
Q 3006 2619 2597 2516 
z
" transform="scale(0.015625)"/>
      </defs>
      <use xlink:href="#DejaVuSans-4d"/>
      <use xlink:href="#DejaVuSans-4d" x="86.279297"/>
      <use xlink:href="#DejaVuSans-45" x="172.558594"/>
      <use xlink:href="#DejaVuSans-20" x="235.742188"/>
      <use xlink:href="#DejaVuSans-66" x="267.529297"/>
      <use xlink:href="#DejaVuSans-6f" x="302.734375"/>
      <use xlink:href="#DejaVuSans-72" x="363.916016"/>
      <use xlink:href="#DejaVuSans-65" x="402.779297"/>
      <use xlink:href="#DejaVuSans-63" x="464.302734"/>
      <use xlink:href="#DejaVuSans-61" x="519.283203"/>
      <use xlink:href="#DejaVuSans-73" x="580.5625"/>
      <use xlink:href="#DejaVuSans-74" x="632.662109"/>
      <use xlink:href="#DejaVuSans-73" x="671.871094"/>
      <use xlink:href="#DejaVuSans-3a" x="723.970703"/>
      <use xlink:href="#DejaVuSans-20" x="757.662109"/>
      <use xlink:href="#DejaVuSans-28" x="789.449219"/>
      <use xlink:href="#DejaVuSans-52" x="828.462891"/>
      <use xlink:href="#DejaVuSans-b2" x="897.945312"/>
      <use xlink:href="#DejaVuSans-3a" x="938.033203"/>
      <use xlink:href="#DejaVuSans-20" x="971.724609"/>
      <use xlink:href="#DejaVuSans-30" x="1003.511719"/>
      <use xlink:href="#DejaVuSans-2e" x="1067.134766"/>
      <use xlink:href="#DejaVuSans-30" x="1098.921875"/>
      <use xlink:href="#DejaVuSans-35" x="1162.544922"/>
      <use xlink:href="#DejaVuSans-2c" x="1226.167969"/>
      <use xlink:href="#DejaVuSans-20" x="1257.955078"/>
      <use xlink:href="#DejaVuSans-52" x="1289.742188"/>
      <use xlink:href="#DejaVuSans-52" x="1359.224609"/>
      <use xlink:href="#DejaVuSans-4d" x="1428.707031"/>
      <use xlink:href="#DejaVuSans-53" x="1514.986328"/>
      <use xlink:href="#DejaVuSans-45" x="1578.462891"/>
      <use xlink:href="#DejaVuSans-3a" x="1641.646484"/>
      <use xlink:href="#DejaVuSans-20" x="1675.337891"/>
      <use xlink:href="#DejaVuSans-31" x="1707.125"/>
      <use xlink:href="#DejaVuSans-33" x="1770.748047"/>
      <use xlink:href="#DejaVuSans-2e" x="1834.371094"/>
      <use xlink:href="#DejaVuSans-32" x="1866.158203"/>
      <use xlink:href="#DejaVuSans-25" x="1929.78125"/>
      <use xlink:href="#DejaVuSans-29" x="2024.800781"/>
     </g>
    </g>
   </g>
  </g>
  <g id="axes_2">
   <g id="patch_6">
    <path d="M 576.5 221.28 
L 1069.2 221.28 
L 1069.2 27.6 
L 576.5 27.6 
z
" style="fill: #ffffff"/>
   </g>
   <g id="PolyCollection_4"/>
   <g id="PolyCollection_5"/>
   <g id="PolyCollection_6">
    <defs>
     <path id="m0bfd97cb9f" d="M 598.895455 -588.885491 
L 598.895455 -583.212901 
L 618.369763 -583.046351 
L 637.844071 -589.103433 
L 657.318379 -580.652468 
L 676.792688 -571.864978 
L 696.266996 -579.283202 
L 715.741304 -573.82537 
L 735.215613 -585.538696 
L 754.689921 -582.422809 
L 774.164229 -569.094372 
L 793.638538 -584.476336 
L 813.112846 -579.19282 
L 832.587154 -583.599035 
L 852.061462 -584.82824 
L 871.535771 -581.811433 
L 891.010079 -575.274317 
L 910.484387 -582.636728 
L 929.958696 -583.90517 
L 949.433004 -581.185771 
L 968.907312 -577.702609 
L 988.381621 -579.192417 
L 1007.855929 -578.891175 
L 1027.330237 -571.043707 
L 1046.804545 -582.972417 
L 1046.804545 -592.408602 
L 1046.804545 -592.408602 
L 1027.330237 -595.269383 
L 1007.855929 -586.131637 
L 988.381621 -584.394965 
L 968.907312 -602.329768 
L 949.433004 -598.057433 
L 929.958696 -593.791234 
L 910.484387 -592.103036 
L 891.010079 -585.926526 
L 871.535771 -594.864854 
L 852.061462 -587.540515 
L 832.587154 -587.228166 
L 813.112846 -589.124655 
L 793.638538 -589.170685 
L 774.164229 -586.675526 
L 754.689921 -589.399136 
L 735.215613 -587.640222 
L 715.741304 -588.753924 
L 696.266996 -589.279162 
L 676.792688 -590.107253 
L 657.318379 -593.448183 
L 637.844071 -592.733937 
L 618.369763 -593.111023 
L 598.895455 -588.885491 
z
" style="stroke: #008000; stroke-opacity: 0.4"/>
    </defs>
    <g clip-path="url(#pa54e35c5f7)">
     <use xlink:href="#m0bfd97cb9f" x="0" y="720" style="fill: #008000; fill-opacity: 0.4; stroke: #008000; stroke-opacity: 0.4"/>
    </g>
   </g>
   <g id="matplotlib.axis_3">
    <g id="xtick_6">
     <g id="line2d_14">
      <g>
       <use xlink:href="#mccd3b1d852" x="637.844071" y="221.28" style="stroke: #000000; stroke-width: 0.8"/>
      </g>
     </g>
    </g>
    <g id="xtick_7">
     <g id="line2d_15">
      <g>
       <use xlink:href="#mccd3b1d852" x="735.215613" y="221.28" style="stroke: #000000; stroke-width: 0.8"/>
      </g>
     </g>
    </g>
    <g id="xtick_8">
     <g id="line2d_16">
      <g>
       <use xlink:href="#mccd3b1d852" x="832.587154" y="221.28" style="stroke: #000000; stroke-width: 0.8"/>
      </g>
     </g>
    </g>
    <g id="xtick_9">
     <g id="line2d_17">
      <g>
       <use xlink:href="#mccd3b1d852" x="929.958696" y="221.28" style="stroke: #000000; stroke-width: 0.8"/>
      </g>
     </g>
    </g>
    <g id="xtick_10">
     <g id="line2d_18">
      <g>
       <use xlink:href="#mccd3b1d852" x="1027.330237" y="221.28" style="stroke: #000000; stroke-width: 0.8"/>
      </g>
     </g>
    </g>
   </g>
   <g id="matplotlib.axis_4">
    <g id="ytick_5">
     <g id="line2d_19">
      <g>
       <use xlink:href="#m80b0a1475f" x="576.5" y="189.462458" style="stroke: #000000; stroke-width: 0.8"/>
      </g>
     </g>
    </g>
    <g id="ytick_6">
     <g id="line2d_20">
      <g>
       <use xlink:href="#m80b0a1475f" x="576.5" y="137.863638" style="stroke: #000000; stroke-width: 0.8"/>
      </g>
     </g>
    </g>
    <g id="ytick_7">
     <g id="line2d_21">
      <g>
       <use xlink:href="#m80b0a1475f" x="576.5" y="86.264819" style="stroke: #000000; stroke-width: 0.8"/>
      </g>
     </g>
    </g>
    <g id="ytick_8">
     <g id="line2d_22">
      <g>
       <use xlink:href="#m80b0a1475f" x="576.5" y="34.665999" style="stroke: #000000; stroke-width: 0.8"/>
      </g>
     </g>
    </g>
   </g>
   <g id="line2d_23">
    <path d="M 598.895455 149.9884 
L 618.369763 132.659452 
L 637.844071 163.836054 
L 657.318379 126.552602 
L 676.792688 92.724361 
L 696.266996 139.374635 
L 715.741304 122.258396 
L 735.215613 126.725026 
L 754.689921 160.060713 
L 774.164229 179.928919 
L 793.638538 116.046169 
L 813.112846 113.873643 
L 832.587154 129.897127 
L 852.061462 122.546215 
L 871.535771 114.498395 
L 891.010079 212.476364 
L 910.484387 116.283229 
L 929.958696 36.403636 
L 949.433004 87.496926 
L 968.907312 158.296803 
L 988.381621 179.030398 
L 1007.855929 162.162687 
L 1027.330237 146.505131 
L 1046.804545 121.009195 
" clip-path="url(#pa54e35c5f7)" style="fill: none; stroke: #000000; stroke-width: 2; stroke-linecap: square"/>
   </g>
   <g id="line2d_24">
    <path d="M 598.895455 135.148713 
L 618.369763 134.708219 
L 637.844071 129.838061 
L 657.318379 135.317149 
L 676.792688 142.892276 
L 696.266996 134.536931 
L 715.741304 135.874163 
L 735.215613 134.069254 
L 754.689921 133.533497 
L 774.164229 137.563519 
L 793.638538 133.406806 
L 813.112846 135.24475 
L 832.587154 135.111326 
L 852.061462 134.770364 
L 871.535771 134.202784 
L 891.010079 139.408412 
L 910.484387 131.367661 
L 929.958696 132.709642 
L 949.433004 130.536402 
L 968.907312 135.901463 
L 988.381621 139.065659 
L 1007.855929 134.73302 
L 1027.330237 134.655319 
L 1046.804545 136.075682 
" clip-path="url(#pa54e35c5f7)" style="fill: none; stroke-dasharray: 11.1,4.8; stroke-dashoffset: 0; stroke: #008000; stroke-width: 3"/>
   </g>
   <g id="patch_7">
    <path d="M 576.5 221.28 
L 576.5 27.6 
" style="fill: none; stroke: #000000; stroke-width: 0.8; stroke-linejoin: miter; stroke-linecap: square"/>
   </g>
   <g id="patch_8">
    <path d="M 576.5 221.28 
L 1069.2 221.28 
" style="fill: none; stroke: #000000; stroke-width: 0.8; stroke-linejoin: miter; stroke-linecap: square"/>
   </g>
   <g id="text_9">
    <!-- b) July -->
    <g transform="translate(576.5 21.6) scale(0.14 -0.14)">
     <use xlink:href="#DejaVuSans-62"/>
     <use xlink:href="#DejaVuSans-29" x="63.476562"/>
     <use xlink:href="#DejaVuSans-20" x="102.490234"/>
     <use xlink:href="#DejaVuSans-4a" x="134.277344"/>
     <use xlink:href="#DejaVuSans-75" x="163.769531"/>
     <use xlink:href="#DejaVuSans-6c" x="227.148438"/>
     <use xlink:href="#DejaVuSans-79" x="254.931641"/>
    </g>
   </g>
   <g id="legend_2">
    <g id="patch_9">
     <path d="M 586.3 59.349375 
L 920.031562 59.349375 
Q 922.831562 59.349375 922.831562 56.549375 
L 922.831562 37.4 
Q 922.831562 34.6 920.031562 34.6 
L 586.3 34.6 
Q 583.5 34.6 583.5 37.4 
L 583.5 56.549375 
Q 583.5 59.349375 586.3 59.349375 
z
" style="fill: #ffffff; opacity: 0.8; stroke: #cccccc; stroke-linejoin: miter"/>
    </g>
    <g id="line2d_25">
     <path d="M 589.1 45.937813 
L 603.1 45.937813 
L 617.1 45.937813 
" style="fill: none; stroke-dasharray: 11.1,4.8; stroke-dashoffset: 0; stroke: #008000; stroke-width: 3"/>
    </g>
    <g id="text_10">
     <!-- MME forecasts: (R²: 0.04, RRMSE: 13.2%) -->
     <g transform="translate(628.3 50.837813) scale(0.14 -0.14)">
      <use xlink:href="#DejaVuSans-4d"/>
      <use xlink:href="#DejaVuSans-4d" x="86.279297"/>
      <use xlink:href="#DejaVuSans-45" x="172.558594"/>
      <use xlink:href="#DejaVuSans-20" x="235.742188"/>
      <use xlink:href="#DejaVuSans-66" x="267.529297"/>
      <use xlink:href="#DejaVuSans-6f" x="302.734375"/>
      <use xlink:href="#DejaVuSans-72" x="363.916016"/>
      <use xlink:href="#DejaVuSans-65" x="402.779297"/>
      <use xlink:href="#DejaVuSans-63" x="464.302734"/>
      <use xlink:href="#DejaVuSans-61" x="519.283203"/>
      <use xlink:href="#DejaVuSans-73" x="580.5625"/>
      <use xlink:href="#DejaVuSans-74" x="632.662109"/>
      <use xlink:href="#DejaVuSans-73" x="671.871094"/>
      <use xlink:href="#DejaVuSans-3a" x="723.970703"/>
      <use xlink:href="#DejaVuSans-20" x="757.662109"/>
      <use xlink:href="#DejaVuSans-28" x="789.449219"/>
      <use xlink:href="#DejaVuSans-52" x="828.462891"/>
      <use xlink:href="#DejaVuSans-b2" x="897.945312"/>
      <use xlink:href="#DejaVuSans-3a" x="938.033203"/>
      <use xlink:href="#DejaVuSans-20" x="971.724609"/>
      <use xlink:href="#DejaVuSans-30" x="1003.511719"/>
      <use xlink:href="#DejaVuSans-2e" x="1067.134766"/>
      <use xlink:href="#DejaVuSans-30" x="1098.921875"/>
      <use xlink:href="#DejaVuSans-34" x="1162.544922"/>
      <use xlink:href="#DejaVuSans-2c" x="1226.167969"/>
      <use xlink:href="#DejaVuSans-20" x="1257.955078"/>
      <use xlink:href="#DejaVuSans-52" x="1289.742188"/>
      <use xlink:href="#DejaVuSans-52" x="1359.224609"/>
      <use xlink:href="#DejaVuSans-4d" x="1428.707031"/>
      <use xlink:href="#DejaVuSans-53" x="1514.986328"/>
      <use xlink:href="#DejaVuSans-45" x="1578.462891"/>
      <use xlink:href="#DejaVuSans-3a" x="1641.646484"/>
      <use xlink:href="#DejaVuSans-20" x="1675.337891"/>
      <use xlink:href="#DejaVuSans-31" x="1707.125"/>
      <use xlink:href="#DejaVuSans-33" x="1770.748047"/>
      <use xlink:href="#DejaVuSans-2e" x="1834.371094"/>
      <use xlink:href="#DejaVuSans-32" x="1866.158203"/>
      <use xlink:href="#DejaVuSans-25" x="1929.78125"/>
      <use xlink:href="#DejaVuSans-29" x="2024.800781"/>
     </g>
    </g>
   </g>
  </g>
  <g id="axes_3">
   <g id="patch_10">
    <path d="M 69.5 446.06 
L 562.2 446.06 
L 562.2 252.38 
L 69.5 252.38 
z
" style="fill: #ffffff"/>
   </g>
   <g id="PolyCollection_7"/>
   <g id="PolyCollection_8"/>
   <g id="PolyCollection_9">
    <defs>
     <path id="mfd08612695" d="M 91.895455 -363.514655 
L 91.895455 -352.282154 
L 111.369763 -347.346845 
L 130.844071 -362.966207 
L 150.318379 -357.927853 
L 169.792688 -354.580449 
L 189.266996 -358.796438 
L 208.741304 -348.891463 
L 228.215613 -360.4527 
L 247.689921 -356.045543 
L 267.164229 -353.663602 
L 286.638538 -361.088078 
L 306.112846 -358.559838 
L 325.587154 -357.561814 
L 345.061462 -359.313727 
L 364.535771 -358.731394 
L 384.010079 -356.54719 
L 403.484387 -353.620292 
L 422.958696 -349.031233 
L 442.433004 -360.328666 
L 461.907312 -359.916093 
L 481.381621 -354.807706 
L 500.855929 -358.836113 
L 520.330237 -353.678741 
L 539.804545 -358.811033 
L 539.804545 -364.356355 
L 539.804545 -364.356355 
L 520.330237 -385.605478 
L 500.855929 -374.945541 
L 481.381621 -358.831324 
L 461.907312 -369.097747 
L 442.433004 -374.126412 
L 422.958696 -369.157689 
L 403.484387 -363.830864 
L 384.010079 -369.200939 
L 364.535771 -364.851545 
L 345.061462 -366.000345 
L 325.587154 -361.681595 
L 306.112846 -361.630742 
L 286.638538 -366.578175 
L 267.164229 -442.066953 
L 247.689921 -364.793616 
L 228.215613 -394.158139 
L 208.741304 -373.779683 
L 189.266996 -366.186527 
L 169.792688 -413.996709 
L 150.318379 -367.12271 
L 130.844071 -371.241135 
L 111.369763 -365.758275 
L 91.895455 -363.514655 
z
" style="stroke: #008000; stroke-opacity: 0.4"/>
    </defs>
    <g clip-path="url(#p0851df324c)">
     <use xlink:href="#mfd08612695" x="0" y="720" style="fill: #008000; fill-opacity: 0.4; stroke: #008000; stroke-opacity: 0.4"/>
    </g>
   </g>
   <g id="matplotlib.axis_5">
    <g id="xtick_11">
     <g id="line2d_26">
      <g>
       <use xlink:href="#mccd3b1d852" x="130.844071" y="446.06" style="stroke: #000000; stroke-width: 0.8"/>
      </g>
     </g>
    </g>
    <g id="xtick_12">
     <g id="line2d_27">
      <g>
       <use xlink:href="#mccd3b1d852" x="228.215613" y="446.06" style="stroke: #000000; stroke-width: 0.8"/>
      </g>
     </g>
    </g>
    <g id="xtick_13">
     <g id="line2d_28">
      <g>
       <use xlink:href="#mccd3b1d852" x="325.587154" y="446.06" style="stroke: #000000; stroke-width: 0.8"/>
      </g>
     </g>
    </g>
    <g id="xtick_14">
     <g id="line2d_29">
      <g>
       <use xlink:href="#mccd3b1d852" x="422.958696" y="446.06" style="stroke: #000000; stroke-width: 0.8"/>
      </g>
     </g>
    </g>
    <g id="xtick_15">
     <g id="line2d_30">
      <g>
       <use xlink:href="#mccd3b1d852" x="520.330237" y="446.06" style="stroke: #000000; stroke-width: 0.8"/>
      </g>
     </g>
    </g>
   </g>
   <g id="matplotlib.axis_6">
    <g id="ytick_9">
     <g id="line2d_31">
      <g>
       <use xlink:href="#m80b0a1475f" x="69.5" y="414.242458" style="stroke: #000000; stroke-width: 0.8"/>
      </g>
     </g>
     <g id="text_11">
      <!-- −0.2 -->
      <g transform="translate(28.504062 419.561364) scale(0.14 -0.14)">
       <use xlink:href="#DejaVuSans-2212"/>
       <use xlink:href="#DejaVuSans-30" x="83.789062"/>
       <use xlink:href="#DejaVuSans-2e" x="147.412109"/>
       <use xlink:href="#DejaVuSans-32" x="179.199219"/>
      </g>
     </g>
    </g>
    <g id="ytick_10">
     <g id="line2d_32">
      <g>
       <use xlink:href="#m80b0a1475f" x="69.5" y="362.643638" style="stroke: #000000; stroke-width: 0.8"/>
      </g>
     </g>
     <g id="text_12">
      <!-- 0.0 -->
      <g transform="translate(40.235625 367.962544) scale(0.14 -0.14)">
       <use xlink:href="#DejaVuSans-30"/>
       <use xlink:href="#DejaVuSans-2e" x="63.623047"/>
       <use xlink:href="#DejaVuSans-30" x="95.410156"/>
      </g>
     </g>
    </g>
    <g id="ytick_11">
     <g id="line2d_33">
      <g>
       <use xlink:href="#m80b0a1475f" x="69.5" y="311.044819" style="stroke: #000000; stroke-width: 0.8"/>
      </g>
     </g>
     <g id="text_13">
      <!-- 0.2 -->
      <g transform="translate(40.235625 316.363725) scale(0.14 -0.14)">
       <use xlink:href="#DejaVuSans-30"/>
       <use xlink:href="#DejaVuSans-2e" x="63.623047"/>
       <use xlink:href="#DejaVuSans-32" x="95.410156"/>
      </g>
     </g>
    </g>
    <g id="ytick_12">
     <g id="line2d_34">
      <g>
       <use xlink:href="#m80b0a1475f" x="69.5" y="259.445999" style="stroke: #000000; stroke-width: 0.8"/>
      </g>
     </g>
     <g id="text_14">
      <!-- 0.4 -->
      <g transform="translate(40.235625 264.764905) scale(0.14 -0.14)">
       <use xlink:href="#DejaVuSans-30"/>
       <use xlink:href="#DejaVuSans-2e" x="63.623047"/>
       <use xlink:href="#DejaVuSans-34" x="95.410156"/>
      </g>
     </g>
    </g>
    <g id="text_15">
     <!-- Variability [%] -->
     <g transform="translate(21.5925 398.370938) rotate(-90) scale(0.14 -0.14)">
      <use xlink:href="#DejaVuSans-56"/>
      <use xlink:href="#DejaVuSans-61" x="60.658203"/>
      <use xlink:href="#DejaVuSans-72" x="121.9375"/>
      <use xlink:href="#DejaVuSans-69" x="163.050781"/>
      <use xlink:href="#DejaVuSans-61" x="190.833984"/>
      <use xlink:href="#DejaVuSans-62" x="252.113281"/>
      <use xlink:href="#DejaVuSans-69" x="315.589844"/>
      <use xlink:href="#DejaVuSans-6c" x="343.373047"/>
      <use xlink:href="#DejaVuSans-69" x="371.15625"/>
      <use xlink:href="#DejaVuSans-74" x="398.939453"/>
      <use xlink:href="#DejaVuSans-79" x="438.148438"/>
      <use xlink:href="#DejaVuSans-20" x="497.328125"/>
      <use xlink:href="#DejaVuSans-5b" x="529.115234"/>
      <use xlink:href="#DejaVuSans-25" x="568.128906"/>
      <use xlink:href="#DejaVuSans-5d" x="663.148438"/>
     </g>
    </g>
   </g>
   <g id="line2d_35">
    <path d="M 91.895455 374.7684 
L 111.369763 357.439452 
L 130.844071 388.616054 
L 150.318379 351.332602 
L 169.792688 317.504361 
L 189.266996 364.154635 
L 208.741304 347.038396 
L 228.215613 351.505026 
L 247.689921 384.840713 
L 267.164229 404.708919 
L 286.638538 340.826169 
L 306.112846 338.653643 
L 325.587154 354.677127 
L 345.061462 347.326215 
L 364.535771 339.278395 
L 384.010079 437.256364 
L 403.484387 341.063229 
L 422.958696 261.183636 
L 442.433004 312.276926 
L 461.907312 383.076803 
L 481.381621 403.810398 
L 500.855929 386.942687 
L 520.330237 371.285131 
L 539.804545 345.789195 
" clip-path="url(#p0851df324c)" style="fill: none; stroke: #000000; stroke-width: 2; stroke-linecap: square"/>
   </g>
   <g id="line2d_36">
    <path d="M 91.895455 360.391844 
L 111.369763 360.728128 
L 130.844071 356.64059 
L 150.318379 360.948082 
L 169.792688 364.814103 
L 189.266996 357.311944 
L 208.741304 359.111674 
L 228.215613 359.086197 
L 247.689921 358.677327 
L 267.164229 360.936002 
L 286.638538 358.440868 
L 306.112846 359.627274 
L 325.587154 359.330983 
L 345.061462 359.989242 
L 364.535771 358.751118 
L 384.010079 362.342747 
L 403.484387 358.564933 
L 422.958696 356.893026 
L 442.433004 359.627509 
L 461.907312 358.448528 
L 481.381621 362.447029 
L 500.855929 360.12407 
L 520.330237 363.249069 
L 539.804545 360.930331 
" clip-path="url(#p0851df324c)" style="fill: none; stroke-dasharray: 11.1,4.8; stroke-dashoffset: 0; stroke: #008000; stroke-width: 3"/>
   </g>
   <g id="patch_11">
    <path d="M 69.5 446.06 
L 69.5 252.38 
" style="fill: none; stroke: #000000; stroke-width: 0.8; stroke-linejoin: miter; stroke-linecap: square"/>
   </g>
   <g id="patch_12">
    <path d="M 69.5 446.06 
L 562.2 446.06 
" style="fill: none; stroke: #000000; stroke-width: 0.8; stroke-linejoin: miter; stroke-linecap: square"/>
   </g>
   <g id="text_16">
    <!-- c) August -->
    <g transform="translate(69.5 246.38) scale(0.14 -0.14)">
     <defs>
      <path id="DejaVuSans-41" d="M 2188 4044 
L 1331 1722 
L 3047 1722 
L 2188 4044 
z
M 1831 4666 
L 2547 4666 
L 4325 0 
L 3669 0 
L 3244 1197 
L 1141 1197 
L 716 0 
L 50 0 
L 1831 4666 
z
" transform="scale(0.015625)"/>
      <path id="DejaVuSans-67" d="M 2906 1791 
Q 2906 2416 2648 2759 
Q 2391 3103 1925 3103 
Q 1463 3103 1205 2759 
Q 947 2416 947 1791 
Q 947 1169 1205 825 
Q 1463 481 1925 481 
Q 2391 481 2648 825 
Q 2906 1169 2906 1791 
z
M 3481 434 
Q 3481 -459 3084 -895 
Q 2688 -1331 1869 -1331 
Q 1566 -1331 1297 -1286 
Q 1028 -1241 775 -1147 
L 775 -588 
Q 1028 -725 1275 -790 
Q 1522 -856 1778 -856 
Q 2344 -856 2625 -561 
Q 2906 -266 2906 331 
L 2906 616 
Q 2728 306 2450 153 
Q 2172 0 1784 0 
Q 1141 0 747 490 
Q 353 981 353 1791 
Q 353 2603 747 3093 
Q 1141 3584 1784 3584 
Q 2172 3584 2450 3431 
Q 2728 3278 2906 2969 
L 2906 3500 
L 3481 3500 
L 3481 434 
z
" transform="scale(0.015625)"/>
     </defs>
     <use xlink:href="#DejaVuSans-63"/>
     <use xlink:href="#DejaVuSans-29" x="54.980469"/>
     <use xlink:href="#DejaVuSans-20" x="93.994141"/>
     <use xlink:href="#DejaVuSans-41" x="125.78125"/>
     <use xlink:href="#DejaVuSans-75" x="194.189453"/>
     <use xlink:href="#DejaVuSans-67" x="257.568359"/>
     <use xlink:href="#DejaVuSans-75" x="321.044922"/>
     <use xlink:href="#DejaVuSans-73" x="384.423828"/>
     <use xlink:href="#DejaVuSans-74" x="436.523438"/>
    </g>
   </g>
   <g id="legend_3">
    <g id="patch_13">
     <path d="M 79.3 284.129375 
L 413.031563 284.129375 
Q 415.831563 284.129375 415.831563 281.329375 
L 415.831563 262.18 
Q 415.831563 259.38 413.031563 259.38 
L 79.3 259.38 
Q 76.5 259.38 76.5 262.18 
L 76.5 281.329375 
Q 76.5 284.129375 79.3 284.129375 
z
" style="fill: #ffffff; opacity: 0.8; stroke: #cccccc; stroke-linejoin: miter"/>
    </g>
    <g id="line2d_37">
     <path d="M 82.1 270.717812 
L 96.1 270.717812 
L 110.1 270.717812 
" style="fill: none; stroke-dasharray: 11.1,4.8; stroke-dashoffset: 0; stroke: #008000; stroke-width: 3"/>
    </g>
    <g id="text_17">
     <!-- MME forecasts: (R²: 0.02, RRMSE: 13.3%) -->
     <g transform="translate(121.3 275.617812) scale(0.14 -0.14)">
      <use xlink:href="#DejaVuSans-4d"/>
      <use xlink:href="#DejaVuSans-4d" x="86.279297"/>
      <use xlink:href="#DejaVuSans-45" x="172.558594"/>
      <use xlink:href="#DejaVuSans-20" x="235.742188"/>
      <use xlink:href="#DejaVuSans-66" x="267.529297"/>
      <use xlink:href="#DejaVuSans-6f" x="302.734375"/>
      <use xlink:href="#DejaVuSans-72" x="363.916016"/>
      <use xlink:href="#DejaVuSans-65" x="402.779297"/>
      <use xlink:href="#DejaVuSans-63" x="464.302734"/>
      <use xlink:href="#DejaVuSans-61" x="519.283203"/>
      <use xlink:href="#DejaVuSans-73" x="580.5625"/>
      <use xlink:href="#DejaVuSans-74" x="632.662109"/>
      <use xlink:href="#DejaVuSans-73" x="671.871094"/>
      <use xlink:href="#DejaVuSans-3a" x="723.970703"/>
      <use xlink:href="#DejaVuSans-20" x="757.662109"/>
      <use xlink:href="#DejaVuSans-28" x="789.449219"/>
      <use xlink:href="#DejaVuSans-52" x="828.462891"/>
      <use xlink:href="#DejaVuSans-b2" x="897.945312"/>
      <use xlink:href="#DejaVuSans-3a" x="938.033203"/>
      <use xlink:href="#DejaVuSans-20" x="971.724609"/>
      <use xlink:href="#DejaVuSans-30" x="1003.511719"/>
      <use xlink:href="#DejaVuSans-2e" x="1067.134766"/>
      <use xlink:href="#DejaVuSans-30" x="1098.921875"/>
      <use xlink:href="#DejaVuSans-32" x="1162.544922"/>
      <use xlink:href="#DejaVuSans-2c" x="1226.167969"/>
      <use xlink:href="#DejaVuSans-20" x="1257.955078"/>
      <use xlink:href="#DejaVuSans-52" x="1289.742188"/>
      <use xlink:href="#DejaVuSans-52" x="1359.224609"/>
      <use xlink:href="#DejaVuSans-4d" x="1428.707031"/>
      <use xlink:href="#DejaVuSans-53" x="1514.986328"/>
      <use xlink:href="#DejaVuSans-45" x="1578.462891"/>
      <use xlink:href="#DejaVuSans-3a" x="1641.646484"/>
      <use xlink:href="#DejaVuSans-20" x="1675.337891"/>
      <use xlink:href="#DejaVuSans-31" x="1707.125"/>
      <use xlink:href="#DejaVuSans-33" x="1770.748047"/>
      <use xlink:href="#DejaVuSans-2e" x="1834.371094"/>
      <use xlink:href="#DejaVuSans-33" x="1866.158203"/>
      <use xlink:href="#DejaVuSans-25" x="1929.78125"/>
      <use xlink:href="#DejaVuSans-29" x="2024.800781"/>
     </g>
    </g>
   </g>
  </g>
  <g id="axes_4">
   <g id="patch_14">
    <path d="M 576.5 446.06 
L 1069.2 446.06 
L 1069.2 252.38 
L 576.5 252.38 
z
" style="fill: #ffffff"/>
   </g>
   <g id="PolyCollection_10"/>
   <g id="PolyCollection_11"/>
   <g id="PolyCollection_12">
    <defs>
     <path id="m191e9e8d65" d="M 598.895455 -363.640048 
L 598.895455 -353.451295 
L 618.369763 -358.804349 
L 637.844071 -361.003464 
L 657.318379 -357.886988 
L 676.792688 -343.414149 
L 696.266996 -358.75594 
L 715.741304 -351.750759 
L 735.215613 -360.167269 
L 754.689921 -356.926664 
L 774.164229 -339.125253 
L 793.638538 -360.516379 
L 813.112846 -359.767055 
L 832.587154 -359.675992 
L 852.061462 -359.845824 
L 871.535771 -357.104196 
L 891.010079 -352.917546 
L 910.484387 -355.822024 
L 929.958696 -345.652218 
L 949.433004 -350.661573 
L 968.907312 -361.033643 
L 988.381621 -355.883259 
L 1007.855929 -362.839308 
L 1027.330237 -341.547923 
L 1046.804545 -356.862582 
L 1046.804545 -362.870608 
L 1046.804545 -362.870608 
L 1027.330237 -361.513805 
L 1007.855929 -425.533005 
L 988.381621 -362.909886 
L 968.907312 -401.356043 
L 949.433004 -382.527416 
L 929.958696 -378.837562 
L 910.484387 -368.466497 
L 891.010079 -373.048113 
L 871.535771 -399.274041 
L 852.061462 -364.995748 
L 832.587154 -363.621749 
L 813.112846 -376.254826 
L 793.638538 -368.312684 
L 774.164229 -361.212641 
L 754.689921 -373.919785 
L 735.215613 -367.089427 
L 715.741304 -364.078913 
L 696.266996 -366.704066 
L 676.792688 -386.975649 
L 657.318379 -370.45698 
L 637.844071 -379.529013 
L 618.369763 -367.22055 
L 598.895455 -363.640048 
z
" style="stroke: #008000; stroke-opacity: 0.4"/>
    </defs>
    <g clip-path="url(#pced5ef342a)">
     <use xlink:href="#m191e9e8d65" x="0" y="720" style="fill: #008000; fill-opacity: 0.4; stroke: #008000; stroke-opacity: 0.4"/>
    </g>
   </g>
   <g id="matplotlib.axis_7">
    <g id="xtick_16">
     <g id="line2d_38">
      <g>
       <use xlink:href="#mccd3b1d852" x="637.844071" y="446.06" style="stroke: #000000; stroke-width: 0.8"/>
      </g>
     </g>
    </g>
    <g id="xtick_17">
     <g id="line2d_39">
      <g>
       <use xlink:href="#mccd3b1d852" x="735.215613" y="446.06" style="stroke: #000000; stroke-width: 0.8"/>
      </g>
     </g>
    </g>
    <g id="xtick_18">
     <g id="line2d_40">
      <g>
       <use xlink:href="#mccd3b1d852" x="832.587154" y="446.06" style="stroke: #000000; stroke-width: 0.8"/>
      </g>
     </g>
    </g>
    <g id="xtick_19">
     <g id="line2d_41">
      <g>
       <use xlink:href="#mccd3b1d852" x="929.958696" y="446.06" style="stroke: #000000; stroke-width: 0.8"/>
      </g>
     </g>
    </g>
    <g id="xtick_20">
     <g id="line2d_42">
      <g>
       <use xlink:href="#mccd3b1d852" x="1027.330237" y="446.06" style="stroke: #000000; stroke-width: 0.8"/>
      </g>
     </g>
    </g>
   </g>
   <g id="matplotlib.axis_8">
    <g id="ytick_13">
     <g id="line2d_43">
      <g>
       <use xlink:href="#m80b0a1475f" x="576.5" y="414.242458" style="stroke: #000000; stroke-width: 0.8"/>
      </g>
     </g>
    </g>
    <g id="ytick_14">
     <g id="line2d_44">
      <g>
       <use xlink:href="#m80b0a1475f" x="576.5" y="362.643638" style="stroke: #000000; stroke-width: 0.8"/>
      </g>
     </g>
    </g>
    <g id="ytick_15">
     <g id="line2d_45">
      <g>
       <use xlink:href="#m80b0a1475f" x="576.5" y="311.044819" style="stroke: #000000; stroke-width: 0.8"/>
      </g>
     </g>
    </g>
    <g id="ytick_16">
     <g id="line2d_46">
      <g>
       <use xlink:href="#m80b0a1475f" x="576.5" y="259.445999" style="stroke: #000000; stroke-width: 0.8"/>
      </g>
     </g>
    </g>
   </g>
   <g id="line2d_47">
    <path d="M 598.895455 374.7684 
L 618.369763 357.439452 
L 637.844071 388.616054 
L 657.318379 351.332602 
L 676.792688 317.504361 
L 696.266996 364.154635 
L 715.741304 347.038396 
L 735.215613 351.505026 
L 754.689921 384.840713 
L 774.164229 404.708919 
L 793.638538 340.826169 
L 813.112846 338.653643 
L 832.587154 354.677127 
L 852.061462 347.326215 
L 871.535771 339.278395 
L 891.010079 437.256364 
L 910.484387 341.063229 
L 929.958696 261.183636 
L 949.433004 312.276926 
L 968.907312 383.076803 
L 988.381621 403.810398 
L 1007.855929 386.942687 
L 1027.330237 371.285131 
L 1046.804545 345.789195 
" clip-path="url(#pced5ef342a)" style="fill: none; stroke: #000000; stroke-width: 2; stroke-linecap: square"/>
   </g>
   <g id="line2d_48">
    <path d="M 598.895455 359.935187 
L 618.369763 356.116955 
L 637.844071 353.731213 
L 657.318379 355.960806 
L 676.792688 360.766136 
L 696.266996 359.442539 
L 715.741304 359.25491 
L 735.215613 357.949817 
L 754.689921 356.990414 
L 774.164229 360.241875 
L 793.638538 358.299253 
L 813.112846 359.541415 
L 832.587154 358.552123 
L 852.061462 357.926576 
L 871.535771 356.994339 
L 891.010079 358.34075 
L 910.484387 354.127788 
L 929.958696 359.929037 
L 949.433004 355.779584 
L 968.907312 358.719547 
L 988.381621 361.088871 
L 1007.855929 355.65193 
L 1027.330237 360.574245 
L 1046.804545 360.133405 
" clip-path="url(#pced5ef342a)" style="fill: none; stroke-dasharray: 11.1,4.8; stroke-dashoffset: 0; stroke: #008000; stroke-width: 3"/>
   </g>
   <g id="patch_15">
    <path d="M 576.5 446.06 
L 576.5 252.38 
" style="fill: none; stroke: #000000; stroke-width: 0.8; stroke-linejoin: miter; stroke-linecap: square"/>
   </g>
   <g id="patch_16">
    <path d="M 576.5 446.06 
L 1069.2 446.06 
" style="fill: none; stroke: #000000; stroke-width: 0.8; stroke-linejoin: miter; stroke-linecap: square"/>
   </g>
   <g id="text_18">
    <!-- d) September -->
    <g transform="translate(576.5 246.38) scale(0.14 -0.14)">
     <defs>
      <path id="DejaVuSans-70" d="M 1159 525 
L 1159 -1331 
L 581 -1331 
L 581 3500 
L 1159 3500 
L 1159 2969 
Q 1341 3281 1617 3432 
Q 1894 3584 2278 3584 
Q 2916 3584 3314 3078 
Q 3713 2572 3713 1747 
Q 3713 922 3314 415 
Q 2916 -91 2278 -91 
Q 1894 -91 1617 61 
Q 1341 213 1159 525 
z
M 3116 1747 
Q 3116 2381 2855 2742 
Q 2594 3103 2138 3103 
Q 1681 3103 1420 2742 
Q 1159 2381 1159 1747 
Q 1159 1113 1420 752 
Q 1681 391 2138 391 
Q 2594 391 2855 752 
Q 3116 1113 3116 1747 
z
" transform="scale(0.015625)"/>
      <path id="DejaVuSans-6d" d="M 3328 2828 
Q 3544 3216 3844 3400 
Q 4144 3584 4550 3584 
Q 5097 3584 5394 3201 
Q 5691 2819 5691 2113 
L 5691 0 
L 5113 0 
L 5113 2094 
Q 5113 2597 4934 2840 
Q 4756 3084 4391 3084 
Q 3944 3084 3684 2787 
Q 3425 2491 3425 1978 
L 3425 0 
L 2847 0 
L 2847 2094 
Q 2847 2600 2669 2842 
Q 2491 3084 2119 3084 
Q 1678 3084 1418 2786 
Q 1159 2488 1159 1978 
L 1159 0 
L 581 0 
L 581 3500 
L 1159 3500 
L 1159 2956 
Q 1356 3278 1631 3431 
Q 1906 3584 2284 3584 
Q 2666 3584 2933 3390 
Q 3200 3197 3328 2828 
z
" transform="scale(0.015625)"/>
     </defs>
     <use xlink:href="#DejaVuSans-64"/>
     <use xlink:href="#DejaVuSans-29" x="63.476562"/>
     <use xlink:href="#DejaVuSans-20" x="102.490234"/>
     <use xlink:href="#DejaVuSans-53" x="134.277344"/>
     <use xlink:href="#DejaVuSans-65" x="197.753906"/>
     <use xlink:href="#DejaVuSans-70" x="259.277344"/>
     <use xlink:href="#DejaVuSans-74" x="322.753906"/>
     <use xlink:href="#DejaVuSans-65" x="361.962891"/>
     <use xlink:href="#DejaVuSans-6d" x="423.486328"/>
     <use xlink:href="#DejaVuSans-62" x="520.898438"/>
     <use xlink:href="#DejaVuSans-65" x="584.375"/>
     <use xlink:href="#DejaVuSans-72" x="645.898438"/>
    </g>
   </g>
   <g id="legend_4">
    <g id="patch_17">
     <path d="M 586.3 284.129375 
L 925.0825 284.129375 
Q 927.8825 284.129375 927.8825 281.329375 
L 927.8825 262.18 
Q 927.8825 259.38 925.0825 259.38 
L 586.3 259.38 
Q 583.5 259.38 583.5 262.18 
L 583.5 281.329375 
Q 583.5 284.129375 586.3 284.129375 
z
" style="fill: #ffffff; opacity: 0.8; stroke: #cccccc; stroke-linejoin: miter"/>
    </g>
    <g id="line2d_49">
     <path d="M 589.1 270.717812 
L 603.1 270.717812 
L 617.1 270.717812 
" style="fill: none; stroke-dasharray: 11.1,4.8; stroke-dashoffset: 0; stroke: #008000; stroke-width: 3"/>
    </g>
    <g id="text_19">
     <!-- MME forecasts: (R²: -0.01, RRMSE: 13.5%) -->
     <g transform="translate(628.3 275.617812) scale(0.14 -0.14)">
      <defs>
       <path id="DejaVuSans-2d" d="M 313 2009 
L 1997 2009 
L 1997 1497 
L 313 1497 
L 313 2009 
z
" transform="scale(0.015625)"/>
      </defs>
      <use xlink:href="#DejaVuSans-4d"/>
      <use xlink:href="#DejaVuSans-4d" x="86.279297"/>
      <use xlink:href="#DejaVuSans-45" x="172.558594"/>
      <use xlink:href="#DejaVuSans-20" x="235.742188"/>
      <use xlink:href="#DejaVuSans-66" x="267.529297"/>
      <use xlink:href="#DejaVuSans-6f" x="302.734375"/>
      <use xlink:href="#DejaVuSans-72" x="363.916016"/>
      <use xlink:href="#DejaVuSans-65" x="402.779297"/>
      <use xlink:href="#DejaVuSans-63" x="464.302734"/>
      <use xlink:href="#DejaVuSans-61" x="519.283203"/>
      <use xlink:href="#DejaVuSans-73" x="580.5625"/>
      <use xlink:href="#DejaVuSans-74" x="632.662109"/>
      <use xlink:href="#DejaVuSans-73" x="671.871094"/>
      <use xlink:href="#DejaVuSans-3a" x="723.970703"/>
      <use xlink:href="#DejaVuSans-20" x="757.662109"/>
      <use xlink:href="#DejaVuSans-28" x="789.449219"/>
      <use xlink:href="#DejaVuSans-52" x="828.462891"/>
      <use xlink:href="#DejaVuSans-b2" x="897.945312"/>
      <use xlink:href="#DejaVuSans-3a" x="938.033203"/>
      <use xlink:href="#DejaVuSans-20" x="971.724609"/>
      <use xlink:href="#DejaVuSans-2d" x="1003.511719"/>
      <use xlink:href="#DejaVuSans-30" x="1039.595703"/>
      <use xlink:href="#DejaVuSans-2e" x="1103.21875"/>
      <use xlink:href="#DejaVuSans-30" x="1135.005859"/>
      <use xlink:href="#DejaVuSans-31" x="1198.628906"/>
      <use xlink:href="#DejaVuSans-2c" x="1262.251953"/>
      <use xlink:href="#DejaVuSans-20" x="1294.039062"/>
      <use xlink:href="#DejaVuSans-52" x="1325.826172"/>
      <use xlink:href="#DejaVuSans-52" x="1395.308594"/>
      <use xlink:href="#DejaVuSans-4d" x="1464.791016"/>
      <use xlink:href="#DejaVuSans-53" x="1551.070312"/>
      <use xlink:href="#DejaVuSans-45" x="1614.546875"/>
      <use xlink:href="#DejaVuSans-3a" x="1677.730469"/>
      <use xlink:href="#DejaVuSans-20" x="1711.421875"/>
      <use xlink:href="#DejaVuSans-31" x="1743.208984"/>
      <use xlink:href="#DejaVuSans-33" x="1806.832031"/>
      <use xlink:href="#DejaVuSans-2e" x="1870.455078"/>
      <use xlink:href="#DejaVuSans-35" x="1902.242188"/>
      <use xlink:href="#DejaVuSans-25" x="1965.865234"/>
      <use xlink:href="#DejaVuSans-29" x="2060.884766"/>
     </g>
    </g>
   </g>
  </g>
  <g id="axes_5">
   <g id="patch_18">
    <path d="M 69.5 670.84 
L 562.2 670.84 
L 562.2 477.16 
L 69.5 477.16 
z
" style="fill: #ffffff"/>
   </g>
   <g id="PolyCollection_13"/>
   <g id="PolyCollection_14"/>
   <g id="PolyCollection_15">
    <defs>
     <path id="mb48431f52f" d="M 91.895455 -134.808916 
L 91.895455 -129.84765 
L 111.369763 -119.456834 
L 130.844071 -137.325379 
L 150.318379 -127.400373 
L 169.792688 -110.092959 
L 189.266996 -116.220187 
L 208.741304 -158.896805 
L 228.215613 -123.362148 
L 247.689921 -154.001569 
L 267.164229 -103.234377 
L 286.638538 -138.023973 
L 306.112846 -125.080785 
L 325.587154 -117.661498 
L 345.061462 -125.260824 
L 364.535771 -154.061134 
L 384.010079 -112.5636 
L 403.484387 -146.654036 
L 422.958696 -176.98204 
L 442.433004 -129.326176 
L 461.907312 -117.439238 
L 481.381621 -115.799852 
L 500.855929 -115.358795 
L 520.330237 -113.920841 
L 539.804545 -123.867731 
L 539.804545 -127.82518 
L 539.804545 -127.82518 
L 520.330237 -126.576253 
L 500.855929 -124.119536 
L 481.381621 -119.796844 
L 461.907312 -123.26125 
L 442.433004 -150.541908 
L 422.958696 -191.247928 
L 403.484387 -166.516544 
L 384.010079 -120.359562 
L 364.535771 -156.755705 
L 345.061462 -128.807483 
L 325.587154 -121.750875 
L 306.112846 -132.92419 
L 286.638538 -144.171708 
L 267.164229 -120.243686 
L 247.689921 -158.421079 
L 228.215613 -126.065835 
L 208.741304 -164.225528 
L 189.266996 -121.755406 
L 169.792688 -121.609844 
L 150.318379 -134.629219 
L 130.844071 -143.052349 
L 111.369763 -131.06281 
L 91.895455 -134.808916 
z
" style="stroke: #008000; stroke-opacity: 0.4"/>
    </defs>
    <g clip-path="url(#p6cd3ca0e09)">
     <use xlink:href="#mb48431f52f" x="0" y="720" style="fill: #008000; fill-opacity: 0.4; stroke: #008000; stroke-opacity: 0.4"/>
    </g>
   </g>
   <g id="matplotlib.axis_9">
    <g id="xtick_21">
     <g id="line2d_50">
      <g>
       <use xlink:href="#mccd3b1d852" x="130.844071" y="670.84" style="stroke: #000000; stroke-width: 0.8"/>
      </g>
     </g>
     <g id="text_20">
      <!-- 1995 -->
      <g transform="translate(113.029071 688.477813) scale(0.14 -0.14)">
       <defs>
        <path id="DejaVuSans-39" d="M 703 97 
L 703 672 
Q 941 559 1184 500 
Q 1428 441 1663 441 
Q 2288 441 2617 861 
Q 2947 1281 2994 2138 
Q 2813 1869 2534 1725 
Q 2256 1581 1919 1581 
Q 1219 1581 811 2004 
Q 403 2428 403 3163 
Q 403 3881 828 4315 
Q 1253 4750 1959 4750 
Q 2769 4750 3195 4129 
Q 3622 3509 3622 2328 
Q 3622 1225 3098 567 
Q 2575 -91 1691 -91 
Q 1453 -91 1209 -44 
Q 966 3 703 97 
z
M 1959 2075 
Q 2384 2075 2632 2365 
Q 2881 2656 2881 3163 
Q 2881 3666 2632 3958 
Q 2384 4250 1959 4250 
Q 1534 4250 1286 3958 
Q 1038 3666 1038 3163 
Q 1038 2656 1286 2365 
Q 1534 2075 1959 2075 
z
" transform="scale(0.015625)"/>
       </defs>
       <use xlink:href="#DejaVuSans-31"/>
       <use xlink:href="#DejaVuSans-39" x="63.623047"/>
       <use xlink:href="#DejaVuSans-39" x="127.246094"/>
       <use xlink:href="#DejaVuSans-35" x="190.869141"/>
      </g>
     </g>
    </g>
    <g id="xtick_22">
     <g id="line2d_51">
      <g>
       <use xlink:href="#mccd3b1d852" x="228.215613" y="670.84" style="stroke: #000000; stroke-width: 0.8"/>
      </g>
     </g>
     <g id="text_21">
      <!-- 2000 -->
      <g transform="translate(210.400613 688.477813) scale(0.14 -0.14)">
       <use xlink:href="#DejaVuSans-32"/>
       <use xlink:href="#DejaVuSans-30" x="63.623047"/>
       <use xlink:href="#DejaVuSans-30" x="127.246094"/>
       <use xlink:href="#DejaVuSans-30" x="190.869141"/>
      </g>
     </g>
    </g>
    <g id="xtick_23">
     <g id="line2d_52">
      <g>
       <use xlink:href="#mccd3b1d852" x="325.587154" y="670.84" style="stroke: #000000; stroke-width: 0.8"/>
      </g>
     </g>
     <g id="text_22">
      <!-- 2005 -->
      <g transform="translate(307.772154 688.477813) scale(0.14 -0.14)">
       <use xlink:href="#DejaVuSans-32"/>
       <use xlink:href="#DejaVuSans-30" x="63.623047"/>
       <use xlink:href="#DejaVuSans-30" x="127.246094"/>
       <use xlink:href="#DejaVuSans-35" x="190.869141"/>
      </g>
     </g>
    </g>
    <g id="xtick_24">
     <g id="line2d_53">
      <g>
       <use xlink:href="#mccd3b1d852" x="422.958696" y="670.84" style="stroke: #000000; stroke-width: 0.8"/>
      </g>
     </g>
     <g id="text_23">
      <!-- 2010 -->
      <g transform="translate(405.143696 688.477813) scale(0.14 -0.14)">
       <use xlink:href="#DejaVuSans-32"/>
       <use xlink:href="#DejaVuSans-30" x="63.623047"/>
       <use xlink:href="#DejaVuSans-31" x="127.246094"/>
       <use xlink:href="#DejaVuSans-30" x="190.869141"/>
      </g>
     </g>
    </g>
    <g id="xtick_25">
     <g id="line2d_54">
      <g>
       <use xlink:href="#mccd3b1d852" x="520.330237" y="670.84" style="stroke: #000000; stroke-width: 0.8"/>
      </g>
     </g>
     <g id="text_24">
      <!-- 2015 -->
      <g transform="translate(502.515237 688.477813) scale(0.14 -0.14)">
       <use xlink:href="#DejaVuSans-32"/>
       <use xlink:href="#DejaVuSans-30" x="63.623047"/>
       <use xlink:href="#DejaVuSans-31" x="127.246094"/>
       <use xlink:href="#DejaVuSans-35" x="190.869141"/>
      </g>
     </g>
    </g>
    <g id="text_25">
     <!-- Year -->
     <g transform="translate(301.0275 706.027187) scale(0.14 -0.14)">
      <defs>
       <path id="DejaVuSans-59" d="M -13 4666 
L 666 4666 
L 1959 2747 
L 3244 4666 
L 3922 4666 
L 2272 2222 
L 2272 0 
L 1638 0 
L 1638 2222 
L -13 4666 
z
" transform="scale(0.015625)"/>
      </defs>
      <use xlink:href="#DejaVuSans-59"/>
      <use xlink:href="#DejaVuSans-65" x="47.833984"/>
      <use xlink:href="#DejaVuSans-61" x="109.357422"/>
      <use xlink:href="#DejaVuSans-72" x="170.636719"/>
     </g>
    </g>
   </g>
   <g id="matplotlib.axis_10">
    <g id="ytick_17">
     <g id="line2d_55">
      <g>
       <use xlink:href="#m80b0a1475f" x="69.5" y="639.022458" style="stroke: #000000; stroke-width: 0.8"/>
      </g>
     </g>
     <g id="text_26">
      <!-- −0.2 -->
      <g transform="translate(28.504062 644.341364) scale(0.14 -0.14)">
       <use xlink:href="#DejaVuSans-2212"/>
       <use xlink:href="#DejaVuSans-30" x="83.789062"/>
       <use xlink:href="#DejaVuSans-2e" x="147.412109"/>
       <use xlink:href="#DejaVuSans-32" x="179.199219"/>
      </g>
     </g>
    </g>
    <g id="ytick_18">
     <g id="line2d_56">
      <g>
       <use xlink:href="#m80b0a1475f" x="69.5" y="587.423638" style="stroke: #000000; stroke-width: 0.8"/>
      </g>
     </g>
     <g id="text_27">
      <!-- 0.0 -->
      <g transform="translate(40.235625 592.742544) scale(0.14 -0.14)">
       <use xlink:href="#DejaVuSans-30"/>
       <use xlink:href="#DejaVuSans-2e" x="63.623047"/>
       <use xlink:href="#DejaVuSans-30" x="95.410156"/>
      </g>
     </g>
    </g>
    <g id="ytick_19">
     <g id="line2d_57">
      <g>
       <use xlink:href="#m80b0a1475f" x="69.5" y="535.824819" style="stroke: #000000; stroke-width: 0.8"/>
      </g>
     </g>
     <g id="text_28">
      <!-- 0.2 -->
      <g transform="translate(40.235625 541.143725) scale(0.14 -0.14)">
       <use xlink:href="#DejaVuSans-30"/>
       <use xlink:href="#DejaVuSans-2e" x="63.623047"/>
       <use xlink:href="#DejaVuSans-32" x="95.410156"/>
      </g>
     </g>
    </g>
    <g id="ytick_20">
     <g id="line2d_58">
      <g>
       <use xlink:href="#m80b0a1475f" x="69.5" y="484.225999" style="stroke: #000000; stroke-width: 0.8"/>
      </g>
     </g>
     <g id="text_29">
      <!-- 0.4 -->
      <g transform="translate(40.235625 489.544905) scale(0.14 -0.14)">
       <use xlink:href="#DejaVuSans-30"/>
       <use xlink:href="#DejaVuSans-2e" x="63.623047"/>
       <use xlink:href="#DejaVuSans-34" x="95.410156"/>
      </g>
     </g>
    </g>
    <g id="text_30">
     <!-- Variability [%] -->
     <g transform="translate(21.5925 623.150938) rotate(-90) scale(0.14 -0.14)">
      <use xlink:href="#DejaVuSans-56"/>
      <use xlink:href="#DejaVuSans-61" x="60.658203"/>
      <use xlink:href="#DejaVuSans-72" x="121.9375"/>
      <use xlink:href="#DejaVuSans-69" x="163.050781"/>
      <use xlink:href="#DejaVuSans-61" x="190.833984"/>
      <use xlink:href="#DejaVuSans-62" x="252.113281"/>
      <use xlink:href="#DejaVuSans-69" x="315.589844"/>
      <use xlink:href="#DejaVuSans-6c" x="343.373047"/>
      <use xlink:href="#DejaVuSans-69" x="371.15625"/>
      <use xlink:href="#DejaVuSans-74" x="398.939453"/>
      <use xlink:href="#DejaVuSans-79" x="438.148438"/>
      <use xlink:href="#DejaVuSans-20" x="497.328125"/>
      <use xlink:href="#DejaVuSans-5b" x="529.115234"/>
      <use xlink:href="#DejaVuSans-25" x="568.128906"/>
      <use xlink:href="#DejaVuSans-5d" x="663.148438"/>
     </g>
    </g>
   </g>
   <g id="line2d_59">
    <path d="M 91.895455 599.5484 
L 111.369763 582.219452 
L 130.844071 613.396054 
L 150.318379 576.112602 
L 169.792688 542.284361 
L 189.266996 588.934635 
L 208.741304 571.818396 
L 228.215613 576.285026 
L 247.689921 609.620713 
L 267.164229 629.488919 
L 286.638538 565.606169 
L 306.112846 563.433643 
L 325.587154 579.457127 
L 345.061462 572.106215 
L 364.535771 564.058395 
L 384.010079 662.036364 
L 403.484387 565.843229 
L 422.958696 485.963636 
L 442.433004 537.056926 
L 461.907312 607.856803 
L 481.381621 628.590398 
L 500.855929 611.722687 
L 520.330237 596.065131 
L 539.804545 570.569195 
" clip-path="url(#p6cd3ca0e09)" style="fill: none; stroke: #000000; stroke-width: 2; stroke-linecap: square"/>
   </g>
   <g id="line2d_60">
    <path d="M 91.895455 588.168369 
L 111.369763 591.860232 
L 130.844071 580.183696 
L 150.318379 588.760072 
L 169.792688 601.200709 
L 189.266996 599.02329 
L 208.741304 556.63971 
L 228.215613 595.957585 
L 247.689921 564.675893 
L 267.164229 600.743778 
L 286.638538 576.352814 
L 306.112846 587.52488 
L 325.587154 598.706375 
L 345.061462 591.430307 
L 364.535771 565.594751 
L 384.010079 605.725184 
L 403.484387 556.873352 
L 422.958696 531.838882 
L 442.433004 573.334816 
L 461.907312 597.259101 
L 481.381621 601.548656 
L 500.855929 599.095535 
L 520.330237 602.472861 
L 539.804545 592.64566 
" clip-path="url(#p6cd3ca0e09)" style="fill: none; stroke-dasharray: 11.1,4.8; stroke-dashoffset: 0; stroke: #008000; stroke-width: 3"/>
   </g>
   <g id="patch_19">
    <path d="M 69.5 670.84 
L 69.5 477.16 
" style="fill: none; stroke: #000000; stroke-width: 0.8; stroke-linejoin: miter; stroke-linecap: square"/>
   </g>
   <g id="patch_20">
    <path d="M 69.5 670.84 
L 562.2 670.84 
" style="fill: none; stroke: #000000; stroke-width: 0.8; stroke-linejoin: miter; stroke-linecap: square"/>
   </g>
   <g id="text_31">
    <!-- e) October -->
    <g transform="translate(69.5 471.16) scale(0.14 -0.14)">
     <use xlink:href="#DejaVuSans-65"/>
     <use xlink:href="#DejaVuSans-29" x="61.523438"/>
     <use xlink:href="#DejaVuSans-20" x="100.537109"/>
     <use xlink:href="#DejaVuSans-4f" x="132.324219"/>
     <use xlink:href="#DejaVuSans-63" x="211.035156"/>
     <use xlink:href="#DejaVuSans-74" x="266.015625"/>
     <use xlink:href="#DejaVuSans-6f" x="305.224609"/>
     <use xlink:href="#DejaVuSans-62" x="366.40625"/>
     <use xlink:href="#DejaVuSans-65" x="429.882812"/>
     <use xlink:href="#DejaVuSans-72" x="491.40625"/>
    </g>
   </g>
   <g id="legend_5">
    <g id="patch_21">
     <path d="M 79.3 508.909375 
L 413.031563 508.909375 
Q 415.831563 508.909375 415.831563 506.109375 
L 415.831563 486.96 
Q 415.831563 484.16 413.031563 484.16 
L 79.3 484.16 
Q 76.5 484.16 76.5 486.96 
L 76.5 506.109375 
Q 76.5 508.909375 79.3 508.909375 
z
" style="fill: #ffffff; opacity: 0.8; stroke: #cccccc; stroke-linejoin: miter"/>
    </g>
    <g id="line2d_61">
     <path d="M 82.1 495.497813 
L 96.1 495.497813 
L 110.1 495.497813 
" style="fill: none; stroke-dasharray: 11.1,4.8; stroke-dashoffset: 0; stroke: #008000; stroke-width: 3"/>
    </g>
    <g id="text_32">
     <!-- MME forecasts: (R²: 0.37, RRMSE: 10.7%) -->
     <g transform="translate(121.3 500.397812) scale(0.14 -0.14)">
      <defs>
       <path id="DejaVuSans-37" d="M 525 4666 
L 3525 4666 
L 3525 4397 
L 1831 0 
L 1172 0 
L 2766 4134 
L 525 4134 
L 525 4666 
z
" transform="scale(0.015625)"/>
      </defs>
      <use xlink:href="#DejaVuSans-4d"/>
      <use xlink:href="#DejaVuSans-4d" x="86.279297"/>
      <use xlink:href="#DejaVuSans-45" x="172.558594"/>
      <use xlink:href="#DejaVuSans-20" x="235.742188"/>
      <use xlink:href="#DejaVuSans-66" x="267.529297"/>
      <use xlink:href="#DejaVuSans-6f" x="302.734375"/>
      <use xlink:href="#DejaVuSans-72" x="363.916016"/>
      <use xlink:href="#DejaVuSans-65" x="402.779297"/>
      <use xlink:href="#DejaVuSans-63" x="464.302734"/>
      <use xlink:href="#DejaVuSans-61" x="519.283203"/>
      <use xlink:href="#DejaVuSans-73" x="580.5625"/>
      <use xlink:href="#DejaVuSans-74" x="632.662109"/>
      <use xlink:href="#DejaVuSans-73" x="671.871094"/>
      <use xlink:href="#DejaVuSans-3a" x="723.970703"/>
      <use xlink:href="#DejaVuSans-20" x="757.662109"/>
      <use xlink:href="#DejaVuSans-28" x="789.449219"/>
      <use xlink:href="#DejaVuSans-52" x="828.462891"/>
      <use xlink:href="#DejaVuSans-b2" x="897.945312"/>
      <use xlink:href="#DejaVuSans-3a" x="938.033203"/>
      <use xlink:href="#DejaVuSans-20" x="971.724609"/>
      <use xlink:href="#DejaVuSans-30" x="1003.511719"/>
      <use xlink:href="#DejaVuSans-2e" x="1067.134766"/>
      <use xlink:href="#DejaVuSans-33" x="1098.921875"/>
      <use xlink:href="#DejaVuSans-37" x="1162.544922"/>
      <use xlink:href="#DejaVuSans-2c" x="1226.167969"/>
      <use xlink:href="#DejaVuSans-20" x="1257.955078"/>
      <use xlink:href="#DejaVuSans-52" x="1289.742188"/>
      <use xlink:href="#DejaVuSans-52" x="1359.224609"/>
      <use xlink:href="#DejaVuSans-4d" x="1428.707031"/>
      <use xlink:href="#DejaVuSans-53" x="1514.986328"/>
      <use xlink:href="#DejaVuSans-45" x="1578.462891"/>
      <use xlink:href="#DejaVuSans-3a" x="1641.646484"/>
      <use xlink:href="#DejaVuSans-20" x="1675.337891"/>
      <use xlink:href="#DejaVuSans-31" x="1707.125"/>
      <use xlink:href="#DejaVuSans-30" x="1770.748047"/>
      <use xlink:href="#DejaVuSans-2e" x="1834.371094"/>
      <use xlink:href="#DejaVuSans-37" x="1866.158203"/>
      <use xlink:href="#DejaVuSans-25" x="1929.78125"/>
      <use xlink:href="#DejaVuSans-29" x="2024.800781"/>
     </g>
    </g>
   </g>
  </g>
  <g id="axes_6">
   <g id="patch_22">
    <path d="M 576.5 670.84 
L 1069.2 670.84 
L 1069.2 477.16 
L 576.5 477.16 
z
" style="fill: #ffffff"/>
   </g>
   <g id="PolyCollection_16"/>
   <g id="PolyCollection_17"/>
   <g id="PolyCollection_18">
    <defs>
     <path id="m5b4f7b95ab" d="M 598.895455 -135.383477 
L 598.895455 -125.579522 
L 618.369763 -124.274476 
L 637.844071 -134.28661 
L 657.318379 -115.131289 
L 676.792688 -99.385615 
L 696.266996 -114.380944 
L 715.741304 -153.165251 
L 735.215613 -117.569793 
L 754.689921 -149.940206 
L 774.164229 -93.90542 
L 793.638538 -129.028075 
L 813.112846 -123.631303 
L 832.587154 -114.838335 
L 852.061462 -125.678417 
L 871.535771 -147.019774 
L 891.010079 -105.539829 
L 910.484387 -143.816995 
L 929.958696 -177.198731 
L 949.433004 -145.107417 
L 968.907312 -115.642643 
L 988.381621 -85.982777 
L 1007.855929 -112.755065 
L 1027.330237 -101.500918 
L 1046.804545 -119.022774 
L 1046.804545 -127.505859 
L 1046.804545 -127.505859 
L 1027.330237 -127.352281 
L 1007.855929 -124.602871 
L 988.381621 -118.251593 
L 968.907312 -124.517399 
L 949.433004 -173.885814 
L 929.958696 -194.053239 
L 910.484387 -165.44233 
L 891.010079 -118.40933 
L 871.535771 -157.371839 
L 852.061462 -136.977197 
L 832.587154 -121.23676 
L 813.112846 -132.764211 
L 793.638538 -143.488148 
L 774.164229 -120.728431 
L 754.689921 -157.311028 
L 735.215613 -126.859278 
L 715.741304 -163.875861 
L 696.266996 -121.801034 
L 676.792688 -122.699052 
L 657.318379 -133.815065 
L 637.844071 -142.30942 
L 618.369763 -131.894064 
L 598.895455 -135.383477 
z
" style="stroke: #008000; stroke-opacity: 0.4"/>
    </defs>
    <g clip-path="url(#pf238b70d80)">
     <use xlink:href="#m5b4f7b95ab" x="0" y="720" style="fill: #008000; fill-opacity: 0.4; stroke: #008000; stroke-opacity: 0.4"/>
    </g>
   </g>
   <g id="matplotlib.axis_11">
    <g id="xtick_26">
     <g id="line2d_62">
      <g>
       <use xlink:href="#mccd3b1d852" x="637.844071" y="670.84" style="stroke: #000000; stroke-width: 0.8"/>
      </g>
     </g>
     <g id="text_33">
      <!-- 1995 -->
      <g transform="translate(620.029071 688.477813) scale(0.14 -0.14)">
       <use xlink:href="#DejaVuSans-31"/>
       <use xlink:href="#DejaVuSans-39" x="63.623047"/>
       <use xlink:href="#DejaVuSans-39" x="127.246094"/>
       <use xlink:href="#DejaVuSans-35" x="190.869141"/>
      </g>
     </g>
    </g>
    <g id="xtick_27">
     <g id="line2d_63">
      <g>
       <use xlink:href="#mccd3b1d852" x="735.215613" y="670.84" style="stroke: #000000; stroke-width: 0.8"/>
      </g>
     </g>
     <g id="text_34">
      <!-- 2000 -->
      <g transform="translate(717.400613 688.477813) scale(0.14 -0.14)">
       <use xlink:href="#DejaVuSans-32"/>
       <use xlink:href="#DejaVuSans-30" x="63.623047"/>
       <use xlink:href="#DejaVuSans-30" x="127.246094"/>
       <use xlink:href="#DejaVuSans-30" x="190.869141"/>
      </g>
     </g>
    </g>
    <g id="xtick_28">
     <g id="line2d_64">
      <g>
       <use xlink:href="#mccd3b1d852" x="832.587154" y="670.84" style="stroke: #000000; stroke-width: 0.8"/>
      </g>
     </g>
     <g id="text_35">
      <!-- 2005 -->
      <g transform="translate(814.772154 688.477813) scale(0.14 -0.14)">
       <use xlink:href="#DejaVuSans-32"/>
       <use xlink:href="#DejaVuSans-30" x="63.623047"/>
       <use xlink:href="#DejaVuSans-30" x="127.246094"/>
       <use xlink:href="#DejaVuSans-35" x="190.869141"/>
      </g>
     </g>
    </g>
    <g id="xtick_29">
     <g id="line2d_65">
      <g>
       <use xlink:href="#mccd3b1d852" x="929.958696" y="670.84" style="stroke: #000000; stroke-width: 0.8"/>
      </g>
     </g>
     <g id="text_36">
      <!-- 2010 -->
      <g transform="translate(912.143696 688.477813) scale(0.14 -0.14)">
       <use xlink:href="#DejaVuSans-32"/>
       <use xlink:href="#DejaVuSans-30" x="63.623047"/>
       <use xlink:href="#DejaVuSans-31" x="127.246094"/>
       <use xlink:href="#DejaVuSans-30" x="190.869141"/>
      </g>
     </g>
    </g>
    <g id="xtick_30">
     <g id="line2d_66">
      <g>
       <use xlink:href="#mccd3b1d852" x="1027.330237" y="670.84" style="stroke: #000000; stroke-width: 0.8"/>
      </g>
     </g>
     <g id="text_37">
      <!-- 2015 -->
      <g transform="translate(1009.515237 688.477813) scale(0.14 -0.14)">
       <use xlink:href="#DejaVuSans-32"/>
       <use xlink:href="#DejaVuSans-30" x="63.623047"/>
       <use xlink:href="#DejaVuSans-31" x="127.246094"/>
       <use xlink:href="#DejaVuSans-35" x="190.869141"/>
      </g>
     </g>
    </g>
    <g id="text_38">
     <!-- Year -->
     <g transform="translate(808.0275 706.027187) scale(0.14 -0.14)">
      <use xlink:href="#DejaVuSans-59"/>
      <use xlink:href="#DejaVuSans-65" x="47.833984"/>
      <use xlink:href="#DejaVuSans-61" x="109.357422"/>
      <use xlink:href="#DejaVuSans-72" x="170.636719"/>
     </g>
    </g>
   </g>
   <g id="matplotlib.axis_12">
    <g id="ytick_21">
     <g id="line2d_67">
      <g>
       <use xlink:href="#m80b0a1475f" x="576.5" y="639.022458" style="stroke: #000000; stroke-width: 0.8"/>
      </g>
     </g>
    </g>
    <g id="ytick_22">
     <g id="line2d_68">
      <g>
       <use xlink:href="#m80b0a1475f" x="576.5" y="587.423638" style="stroke: #000000; stroke-width: 0.8"/>
      </g>
     </g>
    </g>
    <g id="ytick_23">
     <g id="line2d_69">
      <g>
       <use xlink:href="#m80b0a1475f" x="576.5" y="535.824819" style="stroke: #000000; stroke-width: 0.8"/>
      </g>
     </g>
    </g>
    <g id="ytick_24">
     <g id="line2d_70">
      <g>
       <use xlink:href="#m80b0a1475f" x="576.5" y="484.225999" style="stroke: #000000; stroke-width: 0.8"/>
      </g>
     </g>
    </g>
   </g>
   <g id="line2d_71">
    <path d="M 598.895455 599.5484 
L 618.369763 582.219452 
L 637.844071 613.396054 
L 657.318379 576.112602 
L 676.792688 542.284361 
L 696.266996 588.934635 
L 715.741304 571.818396 
L 735.215613 576.285026 
L 754.689921 609.620713 
L 774.164229 629.488919 
L 793.638538 565.606169 
L 813.112846 563.433643 
L 832.587154 579.457127 
L 852.061462 572.106215 
L 871.535771 564.058395 
L 891.010079 662.036364 
L 910.484387 565.843229 
L 929.958696 485.963636 
L 949.433004 537.056926 
L 968.907312 607.856803 
L 988.381621 628.590398 
L 1007.855929 611.722687 
L 1027.330237 596.065131 
L 1046.804545 570.569195 
" clip-path="url(#pf238b70d80)" style="fill: none; stroke: #000000; stroke-width: 2; stroke-linecap: square"/>
   </g>
   <g id="line2d_72">
    <path d="M 598.895455 590.090074 
L 618.369763 591.91573 
L 637.844071 577.782691 
L 657.318379 600.117031 
L 676.792688 599.270363 
L 696.266996 600.827113 
L 715.741304 565.767898 
L 735.215613 599.746477 
L 754.689921 564.565842 
L 774.164229 603.404076 
L 793.638538 579.762259 
L 813.112846 593.498757 
L 832.587154 601.16802 
L 852.061462 592.316797 
L 871.535771 564.985771 
L 891.010079 612.742028 
L 910.484387 561.926731 
L 929.958696 531.773997 
L 949.433004 567.156375 
L 968.907312 598.839455 
L 988.381621 613.231351 
L 1007.855929 597.800316 
L 1027.330237 593.649413 
L 1046.804545 597.651069 
" clip-path="url(#pf238b70d80)" style="fill: none; stroke-dasharray: 11.1,4.8; stroke-dashoffset: 0; stroke: #008000; stroke-width: 3"/>
   </g>
   <g id="patch_23">
    <path d="M 576.5 670.84 
L 576.5 477.16 
" style="fill: none; stroke: #000000; stroke-width: 0.8; stroke-linejoin: miter; stroke-linecap: square"/>
   </g>
   <g id="patch_24">
    <path d="M 576.5 670.84 
L 1069.2 670.84 
" style="fill: none; stroke: #000000; stroke-width: 0.8; stroke-linejoin: miter; stroke-linecap: square"/>
   </g>
   <g id="text_39">
    <!-- f) November -->
    <g transform="translate(576.5 471.16) scale(0.14 -0.14)">
     <defs>
      <path id="DejaVuSans-4e" d="M 628 4666 
L 1478 4666 
L 3547 763 
L 3547 4666 
L 4159 4666 
L 4159 0 
L 3309 0 
L 1241 3903 
L 1241 0 
L 628 0 
L 628 4666 
z
" transform="scale(0.015625)"/>
     </defs>
     <use xlink:href="#DejaVuSans-66"/>
     <use xlink:href="#DejaVuSans-29" x="35.205078"/>
     <use xlink:href="#DejaVuSans-20" x="74.21875"/>
     <use xlink:href="#DejaVuSans-4e" x="106.005859"/>
     <use xlink:href="#DejaVuSans-6f" x="180.810547"/>
     <use xlink:href="#DejaVuSans-76" x="241.992188"/>
     <use xlink:href="#DejaVuSans-65" x="301.171875"/>
     <use xlink:href="#DejaVuSans-6d" x="362.695312"/>
     <use xlink:href="#DejaVuSans-62" x="460.107422"/>
     <use xlink:href="#DejaVuSans-65" x="523.583984"/>
     <use xlink:href="#DejaVuSans-72" x="585.107422"/>
    </g>
   </g>
   <g id="legend_6">
    <g id="patch_25">
     <path d="M 586.3 508.909375 
L 911.124062 508.909375 
Q 913.924062 508.909375 913.924062 506.109375 
L 913.924062 486.96 
Q 913.924062 484.16 911.124062 484.16 
L 586.3 484.16 
Q 583.5 484.16 583.5 486.96 
L 583.5 506.109375 
Q 583.5 508.909375 586.3 508.909375 
z
" style="fill: #ffffff; opacity: 0.8; stroke: #cccccc; stroke-linejoin: miter"/>
    </g>
    <g id="line2d_73">
     <path d="M 589.1 495.497813 
L 603.1 495.497813 
L 617.1 495.497813 
" style="fill: none; stroke-dasharray: 11.1,4.8; stroke-dashoffset: 0; stroke: #008000; stroke-width: 3"/>
    </g>
    <g id="text_40">
     <!-- MME forecasts: (R²: 0.4, RRMSE: 10.4%) -->
     <g transform="translate(628.3 500.397812) scale(0.14 -0.14)">
      <use xlink:href="#DejaVuSans-4d"/>
      <use xlink:href="#DejaVuSans-4d" x="86.279297"/>
      <use xlink:href="#DejaVuSans-45" x="172.558594"/>
      <use xlink:href="#DejaVuSans-20" x="235.742188"/>
      <use xlink:href="#DejaVuSans-66" x="267.529297"/>
      <use xlink:href="#DejaVuSans-6f" x="302.734375"/>
      <use xlink:href="#DejaVuSans-72" x="363.916016"/>
      <use xlink:href="#DejaVuSans-65" x="402.779297"/>
      <use xlink:href="#DejaVuSans-63" x="464.302734"/>
      <use xlink:href="#DejaVuSans-61" x="519.283203"/>
      <use xlink:href="#DejaVuSans-73" x="580.5625"/>
      <use xlink:href="#DejaVuSans-74" x="632.662109"/>
      <use xlink:href="#DejaVuSans-73" x="671.871094"/>
      <use xlink:href="#DejaVuSans-3a" x="723.970703"/>
      <use xlink:href="#DejaVuSans-20" x="757.662109"/>
      <use xlink:href="#DejaVuSans-28" x="789.449219"/>
      <use xlink:href="#DejaVuSans-52" x="828.462891"/>
      <use xlink:href="#DejaVuSans-b2" x="897.945312"/>
      <use xlink:href="#DejaVuSans-3a" x="938.033203"/>
      <use xlink:href="#DejaVuSans-20" x="971.724609"/>
      <use xlink:href="#DejaVuSans-30" x="1003.511719"/>
      <use xlink:href="#DejaVuSans-2e" x="1067.134766"/>
      <use xlink:href="#DejaVuSans-34" x="1098.921875"/>
      <use xlink:href="#DejaVuSans-2c" x="1162.544922"/>
      <use xlink:href="#DejaVuSans-20" x="1194.332031"/>
      <use xlink:href="#DejaVuSans-52" x="1226.119141"/>
      <use xlink:href="#DejaVuSans-52" x="1295.601562"/>
      <use xlink:href="#DejaVuSans-4d" x="1365.083984"/>
      <use xlink:href="#DejaVuSans-53" x="1451.363281"/>
      <use xlink:href="#DejaVuSans-45" x="1514.839844"/>
      <use xlink:href="#DejaVuSans-3a" x="1578.023438"/>
      <use xlink:href="#DejaVuSans-20" x="1611.714844"/>
      <use xlink:href="#DejaVuSans-31" x="1643.501953"/>
      <use xlink:href="#DejaVuSans-30" x="1707.125"/>
      <use xlink:href="#DejaVuSans-2e" x="1770.748047"/>
      <use xlink:href="#DejaVuSans-34" x="1802.535156"/>
      <use xlink:href="#DejaVuSans-25" x="1866.158203"/>
      <use xlink:href="#DejaVuSans-29" x="1961.177734"/>
     </g>
    </g>
   </g>
  </g>
 </g>
 <defs>
  <clipPath id="p35aabec0f3">
   <rect x="69.5" y="27.6" width="492.7" height="193.68"/>
  </clipPath>
  <clipPath id="pa54e35c5f7">
   <rect x="576.5" y="27.6" width="492.7" height="193.68"/>
  </clipPath>
  <clipPath id="p0851df324c">
   <rect x="69.5" y="252.38" width="492.7" height="193.68"/>
  </clipPath>
  <clipPath id="pced5ef342a">
   <rect x="576.5" y="252.38" width="492.7" height="193.68"/>
  </clipPath>
  <clipPath id="p6cd3ca0e09">
   <rect x="69.5" y="477.16" width="492.7" height="193.68"/>
  </clipPath>
  <clipPath id="pf238b70d80">
   <rect x="576.5" y="477.16" width="492.7" height="193.68"/>
  </clipPath>
 </defs>
</svg>
