<?xml version="1.0" encoding="utf-8" standalone="no"?>
<!DOCTYPE svg PUBLIC "-//W3C//DTD SVG 1.1//EN"
  "http://www.w3.org/Graphics/SVG/1.1/DTD/svg11.dtd">
<svg xmlns:xlink="http://www.w3.org/1999/xlink" width="1224pt" height="648pt" viewBox="0 0 1224 648" xmlns="http://www.w3.org/2000/svg" version="1.1">
 <metadata>
  <rdf:RDF xmlns:dc="http://purl.org/dc/elements/1.1/" xmlns:cc="http://creativecommons.org/ns#" xmlns:rdf="http://www.w3.org/1999/02/22-rdf-syntax-ns#">
   <cc:Work>
    <dc:type rdf:resource="http://purl.org/dc/dcmitype/StillImage"/>
    <dc:date>2023-11-17T13:35:49.998256</dc:date>
    <dc:format>image/svg+xml</dc:format>
    <dc:creator>
     <cc:Agent>
      <dc:title>Matplotlib v3.7.1, https://matplotlib.org/</dc:title>
     </cc:Agent>
    </dc:creator>
   </cc:Work>
  </rdf:RDF>
 </metadata>
 <defs>
  <style type="text/css">*{stroke-linejoin: round; stroke-linecap: butt}</style>
 </defs>
 <g id="figure_1">
  <g id="patch_1">
   <path d="M 0 648 
L 1224 648 
L 1224 0 
L 0 0 
z
" style="fill: #ffffff"/>
  </g>
  <g id="axes_1">
   <g id="patch_2">
    <path d="M 153 304.56 
L 584.181818 304.56 
L 584.181818 77.76 
L 153 77.76 
z
" style="fill: #ffffff"/>
   </g>
   <g id="matplotlib.axis_1">
    <g id="xtick_1">
     <g id="line2d_1">
      <defs>
       <path id="m696a776092" d="M 0 0 
L 0 3.5 
" style="stroke: #000000; stroke-width: 0.8"/>
      </defs>
      <g>
       <use xlink:href="#m696a776092" x="206.684693" y="304.56" style="stroke: #000000; stroke-width: 0.8"/>
      </g>
     </g>
     <g id="text_1">
      <!-- 1995 -->
      <g transform="translate(193.959693 319.158437) scale(0.1 -0.1)">
       <defs>
        <path id="DejaVuSans-31" d="M 794 531 
L 1825 531 
L 1825 4091 
L 703 3866 
L 703 4441 
L 1819 4666 
L 2450 4666 
L 2450 531 
L 3481 531 
L 3481 0 
L 794 0 
L 794 531 
z
" transform="scale(0.015625)"/>
        <path id="DejaVuSans-39" d="M 703 97 
L 703 672 
Q 941 559 1184 500 
Q 1428 441 1663 441 
Q 2288 441 2617 861 
Q 2947 1281 2994 2138 
Q 2813 1869 2534 1725 
Q 2256 1581 1919 1581 
Q 1219 1581 811 2004 
Q 403 2428 403 3163 
Q 403 3881 828 4315 
Q 1253 4750 1959 4750 
Q 2769 4750 3195 4129 
Q 3622 3509 3622 2328 
Q 3622 1225 3098 567 
Q 2575 -91 1691 -91 
Q 1453 -91 1209 -44 
Q 966 3 703 97 
z
M 1959 2075 
Q 2384 2075 2632 2365 
Q 2881 2656 2881 3163 
Q 2881 3666 2632 3958 
Q 2384 4250 1959 4250 
Q 1534 4250 1286 3958 
Q 1038 3666 1038 3163 
Q 1038 2656 1286 2365 
Q 1534 2075 1959 2075 
z
" transform="scale(0.015625)"/>
        <path id="DejaVuSans-35" d="M 691 4666 
L 3169 4666 
L 3169 4134 
L 1269 4134 
L 1269 2991 
Q 1406 3038 1543 3061 
Q 1681 3084 1819 3084 
Q 2600 3084 3056 2656 
Q 3513 2228 3513 1497 
Q 3513 744 3044 326 
Q 2575 -91 1722 -91 
Q 1428 -91 1123 -41 
Q 819 9 494 109 
L 494 744 
Q 775 591 1075 516 
Q 1375 441 1709 441 
Q 2250 441 2565 725 
Q 2881 1009 2881 1497 
Q 2881 1984 2565 2268 
Q 2250 2553 1709 2553 
Q 1456 2553 1204 2497 
Q 953 2441 691 2322 
L 691 4666 
z
" transform="scale(0.015625)"/>
       </defs>
       <use xlink:href="#DejaVuSans-31"/>
       <use xlink:href="#DejaVuSans-39" x="63.623047"/>
       <use xlink:href="#DejaVuSans-39" x="127.246094"/>
       <use xlink:href="#DejaVuSans-35" x="190.869141"/>
      </g>
     </g>
    </g>
    <g id="xtick_2">
     <g id="line2d_2">
      <g>
       <use xlink:href="#m696a776092" x="291.898491" y="304.56" style="stroke: #000000; stroke-width: 0.8"/>
      </g>
     </g>
     <g id="text_2">
      <!-- 2000 -->
      <g transform="translate(279.173491 319.158437) scale(0.1 -0.1)">
       <defs>
        <path id="DejaVuSans-32" d="M 1228 531 
L 3431 531 
L 3431 0 
L 469 0 
L 469 531 
Q 828 903 1448 1529 
Q 2069 2156 2228 2338 
Q 2531 2678 2651 2914 
Q 2772 3150 2772 3378 
Q 2772 3750 2511 3984 
Q 2250 4219 1831 4219 
Q 1534 4219 1204 4116 
Q 875 4013 500 3803 
L 500 4441 
Q 881 4594 1212 4672 
Q 1544 4750 1819 4750 
Q 2544 4750 2975 4387 
Q 3406 4025 3406 3419 
Q 3406 3131 3298 2873 
Q 3191 2616 2906 2266 
Q 2828 2175 2409 1742 
Q 1991 1309 1228 531 
z
" transform="scale(0.015625)"/>
        <path id="DejaVuSans-30" d="M 2034 4250 
Q 1547 4250 1301 3770 
Q 1056 3291 1056 2328 
Q 1056 1369 1301 889 
Q 1547 409 2034 409 
Q 2525 409 2770 889 
Q 3016 1369 3016 2328 
Q 3016 3291 2770 3770 
Q 2525 4250 2034 4250 
z
M 2034 4750 
Q 2819 4750 3233 4129 
Q 3647 3509 3647 2328 
Q 3647 1150 3233 529 
Q 2819 -91 2034 -91 
Q 1250 -91 836 529 
Q 422 1150 422 2328 
Q 422 3509 836 4129 
Q 1250 4750 2034 4750 
z
" transform="scale(0.015625)"/>
       </defs>
       <use xlink:href="#DejaVuSans-32"/>
       <use xlink:href="#DejaVuSans-30" x="63.623047"/>
       <use xlink:href="#DejaVuSans-30" x="127.246094"/>
       <use xlink:href="#DejaVuSans-30" x="190.869141"/>
      </g>
     </g>
    </g>
    <g id="xtick_3">
     <g id="line2d_3">
      <g>
       <use xlink:href="#m696a776092" x="377.112289" y="304.56" style="stroke: #000000; stroke-width: 0.8"/>
      </g>
     </g>
     <g id="text_3">
      <!-- 2005 -->
      <g transform="translate(364.387289 319.158437) scale(0.1 -0.1)">
       <use xlink:href="#DejaVuSans-32"/>
       <use xlink:href="#DejaVuSans-30" x="63.623047"/>
       <use xlink:href="#DejaVuSans-30" x="127.246094"/>
       <use xlink:href="#DejaVuSans-35" x="190.869141"/>
      </g>
     </g>
    </g>
    <g id="xtick_4">
     <g id="line2d_4">
      <g>
       <use xlink:href="#m696a776092" x="462.326087" y="304.56" style="stroke: #000000; stroke-width: 0.8"/>
      </g>
     </g>
     <g id="text_4">
      <!-- 2010 -->
      <g transform="translate(449.601087 319.158437) scale(0.1 -0.1)">
       <use xlink:href="#DejaVuSans-32"/>
       <use xlink:href="#DejaVuSans-30" x="63.623047"/>
       <use xlink:href="#DejaVuSans-31" x="127.246094"/>
       <use xlink:href="#DejaVuSans-30" x="190.869141"/>
      </g>
     </g>
    </g>
    <g id="xtick_5">
     <g id="line2d_5">
      <g>
       <use xlink:href="#m696a776092" x="547.539885" y="304.56" style="stroke: #000000; stroke-width: 0.8"/>
      </g>
     </g>
     <g id="text_5">
      <!-- 2015 -->
      <g transform="translate(534.814885 319.158437) scale(0.1 -0.1)">
       <use xlink:href="#DejaVuSans-32"/>
       <use xlink:href="#DejaVuSans-30" x="63.623047"/>
       <use xlink:href="#DejaVuSans-31" x="127.246094"/>
       <use xlink:href="#DejaVuSans-35" x="190.869141"/>
      </g>
     </g>
    </g>
    <g id="text_6">
     <!-- Time [year] -->
     <g transform="translate(333.935284 334.35625) scale(0.12 -0.12)">
      <defs>
       <path id="DejaVuSans-54" d="M -19 4666 
L 3928 4666 
L 3928 4134 
L 2272 4134 
L 2272 0 
L 1638 0 
L 1638 4134 
L -19 4134 
L -19 4666 
z
" transform="scale(0.015625)"/>
       <path id="DejaVuSans-69" d="M 603 3500 
L 1178 3500 
L 1178 0 
L 603 0 
L 603 3500 
z
M 603 4863 
L 1178 4863 
L 1178 4134 
L 603 4134 
L 603 4863 
z
" transform="scale(0.015625)"/>
       <path id="DejaVuSans-6d" d="M 3328 2828 
Q 3544 3216 3844 3400 
Q 4144 3584 4550 3584 
Q 5097 3584 5394 3201 
Q 5691 2819 5691 2113 
L 5691 0 
L 5113 0 
L 5113 2094 
Q 5113 2597 4934 2840 
Q 4756 3084 4391 3084 
Q 3944 3084 3684 2787 
Q 3425 2491 3425 1978 
L 3425 0 
L 2847 0 
L 2847 2094 
Q 2847 2600 2669 2842 
Q 2491 3084 2119 3084 
Q 1678 3084 1418 2786 
Q 1159 2488 1159 1978 
L 1159 0 
L 581 0 
L 581 3500 
L 1159 3500 
L 1159 2956 
Q 1356 3278 1631 3431 
Q 1906 3584 2284 3584 
Q 2666 3584 2933 3390 
Q 3200 3197 3328 2828 
z
" transform="scale(0.015625)"/>
       <path id="DejaVuSans-65" d="M 3597 1894 
L 3597 1613 
L 953 1613 
Q 991 1019 1311 708 
Q 1631 397 2203 397 
Q 2534 397 2845 478 
Q 3156 559 3463 722 
L 3463 178 
Q 3153 47 2828 -22 
Q 2503 -91 2169 -91 
Q 1331 -91 842 396 
Q 353 884 353 1716 
Q 353 2575 817 3079 
Q 1281 3584 2069 3584 
Q 2775 3584 3186 3129 
Q 3597 2675 3597 1894 
z
M 3022 2063 
Q 3016 2534 2758 2815 
Q 2500 3097 2075 3097 
Q 1594 3097 1305 2825 
Q 1016 2553 972 2059 
L 3022 2063 
z
" transform="scale(0.015625)"/>
       <path id="DejaVuSans-20" transform="scale(0.015625)"/>
       <path id="DejaVuSans-5b" d="M 550 4863 
L 1875 4863 
L 1875 4416 
L 1125 4416 
L 1125 -397 
L 1875 -397 
L 1875 -844 
L 550 -844 
L 550 4863 
z
" transform="scale(0.015625)"/>
       <path id="DejaVuSans-79" d="M 2059 -325 
Q 1816 -950 1584 -1140 
Q 1353 -1331 966 -1331 
L 506 -1331 
L 506 -850 
L 844 -850 
Q 1081 -850 1212 -737 
Q 1344 -625 1503 -206 
L 1606 56 
L 191 3500 
L 800 3500 
L 1894 763 
L 2988 3500 
L 3597 3500 
L 2059 -325 
z
" transform="scale(0.015625)"/>
       <path id="DejaVuSans-61" d="M 2194 1759 
Q 1497 1759 1228 1600 
Q 959 1441 959 1056 
Q 959 750 1161 570 
Q 1363 391 1709 391 
Q 2188 391 2477 730 
Q 2766 1069 2766 1631 
L 2766 1759 
L 2194 1759 
z
M 3341 1997 
L 3341 0 
L 2766 0 
L 2766 531 
Q 2569 213 2275 61 
Q 1981 -91 1556 -91 
Q 1019 -91 701 211 
Q 384 513 384 1019 
Q 384 1609 779 1909 
Q 1175 2209 1959 2209 
L 2766 2209 
L 2766 2266 
Q 2766 2663 2505 2880 
Q 2244 3097 1772 3097 
Q 1472 3097 1187 3025 
Q 903 2953 641 2809 
L 641 3341 
Q 956 3463 1253 3523 
Q 1550 3584 1831 3584 
Q 2591 3584 2966 3190 
Q 3341 2797 3341 1997 
z
" transform="scale(0.015625)"/>
       <path id="DejaVuSans-72" d="M 2631 2963 
Q 2534 3019 2420 3045 
Q 2306 3072 2169 3072 
Q 1681 3072 1420 2755 
Q 1159 2438 1159 1844 
L 1159 0 
L 581 0 
L 581 3500 
L 1159 3500 
L 1159 2956 
Q 1341 3275 1631 3429 
Q 1922 3584 2338 3584 
Q 2397 3584 2469 3576 
Q 2541 3569 2628 3553 
L 2631 2963 
z
" transform="scale(0.015625)"/>
       <path id="DejaVuSans-5d" d="M 1947 4863 
L 1947 -844 
L 622 -844 
L 622 -397 
L 1369 -397 
L 1369 4416 
L 622 4416 
L 622 4863 
L 1947 4863 
z
" transform="scale(0.015625)"/>
      </defs>
      <use xlink:href="#DejaVuSans-54"/>
      <use xlink:href="#DejaVuSans-69" x="57.958984"/>
      <use xlink:href="#DejaVuSans-6d" x="85.742188"/>
      <use xlink:href="#DejaVuSans-65" x="183.154297"/>
      <use xlink:href="#DejaVuSans-20" x="244.677734"/>
      <use xlink:href="#DejaVuSans-5b" x="276.464844"/>
      <use xlink:href="#DejaVuSans-79" x="315.478516"/>
      <use xlink:href="#DejaVuSans-65" x="374.658203"/>
      <use xlink:href="#DejaVuSans-61" x="436.181641"/>
      <use xlink:href="#DejaVuSans-72" x="497.460938"/>
      <use xlink:href="#DejaVuSans-5d" x="538.574219"/>
     </g>
    </g>
   </g>
   <g id="matplotlib.axis_2">
    <g id="ytick_1">
     <g id="line2d_6">
      <defs>
       <path id="mee22b54847" d="M 0 0 
L -3.5 0 
" style="stroke: #000000; stroke-width: 0.8"/>
      </defs>
      <g>
       <use xlink:href="#mee22b54847" x="153" y="304.56" style="stroke: #000000; stroke-width: 0.8"/>
      </g>
     </g>
     <g id="text_7">
      <!-- −40 -->
      <g transform="translate(124.895313 308.359219) scale(0.1 -0.1)">
       <defs>
        <path id="DejaVuSans-2212" d="M 678 2272 
L 4684 2272 
L 4684 1741 
L 678 1741 
L 678 2272 
z
" transform="scale(0.015625)"/>
        <path id="DejaVuSans-34" d="M 2419 4116 
L 825 1625 
L 2419 1625 
L 2419 4116 
z
M 2253 4666 
L 3047 4666 
L 3047 1625 
L 3713 1625 
L 3713 1100 
L 3047 1100 
L 3047 0 
L 2419 0 
L 2419 1100 
L 313 1100 
L 313 1709 
L 2253 4666 
z
" transform="scale(0.015625)"/>
       </defs>
       <use xlink:href="#DejaVuSans-2212"/>
       <use xlink:href="#DejaVuSans-34" x="83.789062"/>
       <use xlink:href="#DejaVuSans-30" x="147.412109"/>
      </g>
     </g>
    </g>
    <g id="ytick_2">
     <g id="line2d_7">
      <g>
       <use xlink:href="#mee22b54847" x="153" y="259.2" style="stroke: #000000; stroke-width: 0.8"/>
      </g>
     </g>
     <g id="text_8">
      <!-- −20 -->
      <g transform="translate(124.895313 262.999219) scale(0.1 -0.1)">
       <use xlink:href="#DejaVuSans-2212"/>
       <use xlink:href="#DejaVuSans-32" x="83.789062"/>
       <use xlink:href="#DejaVuSans-30" x="147.412109"/>
      </g>
     </g>
    </g>
    <g id="ytick_3">
     <g id="line2d_8">
      <g>
       <use xlink:href="#mee22b54847" x="153" y="213.84" style="stroke: #000000; stroke-width: 0.8"/>
      </g>
     </g>
     <g id="text_9">
      <!-- 0 -->
      <g transform="translate(139.6375 217.639219) scale(0.1 -0.1)">
       <use xlink:href="#DejaVuSans-30"/>
      </g>
     </g>
    </g>
    <g id="ytick_4">
     <g id="line2d_9">
      <g>
       <use xlink:href="#mee22b54847" x="153" y="168.48" style="stroke: #000000; stroke-width: 0.8"/>
      </g>
     </g>
     <g id="text_10">
      <!-- 20 -->
      <g transform="translate(133.275 172.279219) scale(0.1 -0.1)">
       <use xlink:href="#DejaVuSans-32"/>
       <use xlink:href="#DejaVuSans-30" x="63.623047"/>
      </g>
     </g>
    </g>
    <g id="ytick_5">
     <g id="line2d_10">
      <g>
       <use xlink:href="#mee22b54847" x="153" y="123.12" style="stroke: #000000; stroke-width: 0.8"/>
      </g>
     </g>
     <g id="text_11">
      <!-- 40 -->
      <g transform="translate(133.275 126.919219) scale(0.1 -0.1)">
       <use xlink:href="#DejaVuSans-34"/>
       <use xlink:href="#DejaVuSans-30" x="63.623047"/>
      </g>
     </g>
    </g>
    <g id="ytick_6">
     <g id="line2d_11">
      <g>
       <use xlink:href="#mee22b54847" x="153" y="77.76" style="stroke: #000000; stroke-width: 0.8"/>
      </g>
     </g>
     <g id="text_12">
      <!-- 60 -->
      <g transform="translate(133.275 81.559219) scale(0.1 -0.1)">
       <defs>
        <path id="DejaVuSans-36" d="M 2113 2584 
Q 1688 2584 1439 2293 
Q 1191 2003 1191 1497 
Q 1191 994 1439 701 
Q 1688 409 2113 409 
Q 2538 409 2786 701 
Q 3034 994 3034 1497 
Q 3034 2003 2786 2293 
Q 2538 2584 2113 2584 
z
M 3366 4563 
L 3366 3988 
Q 3128 4100 2886 4159 
Q 2644 4219 2406 4219 
Q 1781 4219 1451 3797 
Q 1122 3375 1075 2522 
Q 1259 2794 1537 2939 
Q 1816 3084 2150 3084 
Q 2853 3084 3261 2657 
Q 3669 2231 3669 1497 
Q 3669 778 3244 343 
Q 2819 -91 2113 -91 
Q 1303 -91 875 529 
Q 447 1150 447 2328 
Q 447 3434 972 4092 
Q 1497 4750 2381 4750 
Q 2619 4750 2861 4703 
Q 3103 4656 3366 4563 
z
" transform="scale(0.015625)"/>
       </defs>
       <use xlink:href="#DejaVuSans-36"/>
       <use xlink:href="#DejaVuSans-30" x="63.623047"/>
      </g>
     </g>
    </g>
    <g id="text_13">
     <!-- Variability [%] -->
     <g transform="translate(118.399687 233.289375) rotate(-90) scale(0.12 -0.12)">
      <defs>
       <path id="DejaVuSans-56" d="M 1831 0 
L 50 4666 
L 709 4666 
L 2188 738 
L 3669 4666 
L 4325 4666 
L 2547 0 
L 1831 0 
z
" transform="scale(0.015625)"/>
       <path id="DejaVuSans-62" d="M 3116 1747 
Q 3116 2381 2855 2742 
Q 2594 3103 2138 3103 
Q 1681 3103 1420 2742 
Q 1159 2381 1159 1747 
Q 1159 1113 1420 752 
Q 1681 391 2138 391 
Q 2594 391 2855 752 
Q 3116 1113 3116 1747 
z
M 1159 2969 
Q 1341 3281 1617 3432 
Q 1894 3584 2278 3584 
Q 2916 3584 3314 3078 
Q 3713 2572 3713 1747 
Q 3713 922 3314 415 
Q 2916 -91 2278 -91 
Q 1894 -91 1617 61 
Q 1341 213 1159 525 
L 1159 0 
L 581 0 
L 581 4863 
L 1159 4863 
L 1159 2969 
z
" transform="scale(0.015625)"/>
       <path id="DejaVuSans-6c" d="M 603 4863 
L 1178 4863 
L 1178 0 
L 603 0 
L 603 4863 
z
" transform="scale(0.015625)"/>
       <path id="DejaVuSans-74" d="M 1172 4494 
L 1172 3500 
L 2356 3500 
L 2356 3053 
L 1172 3053 
L 1172 1153 
Q 1172 725 1289 603 
Q 1406 481 1766 481 
L 2356 481 
L 2356 0 
L 1766 0 
Q 1100 0 847 248 
Q 594 497 594 1153 
L 594 3053 
L 172 3053 
L 172 3500 
L 594 3500 
L 594 4494 
L 1172 4494 
z
" transform="scale(0.015625)"/>
       <path id="DejaVuSans-25" d="M 4653 2053 
Q 4381 2053 4226 1822 
Q 4072 1591 4072 1178 
Q 4072 772 4226 539 
Q 4381 306 4653 306 
Q 4919 306 5073 539 
Q 5228 772 5228 1178 
Q 5228 1588 5073 1820 
Q 4919 2053 4653 2053 
z
M 4653 2450 
Q 5147 2450 5437 2106 
Q 5728 1763 5728 1178 
Q 5728 594 5436 251 
Q 5144 -91 4653 -91 
Q 4153 -91 3862 251 
Q 3572 594 3572 1178 
Q 3572 1766 3864 2108 
Q 4156 2450 4653 2450 
z
M 1428 4353 
Q 1159 4353 1004 4120 
Q 850 3888 850 3481 
Q 850 3069 1003 2837 
Q 1156 2606 1428 2606 
Q 1700 2606 1854 2837 
Q 2009 3069 2009 3481 
Q 2009 3884 1853 4118 
Q 1697 4353 1428 4353 
z
M 4250 4750 
L 4750 4750 
L 1831 -91 
L 1331 -91 
L 4250 4750 
z
M 1428 4750 
Q 1922 4750 2215 4408 
Q 2509 4066 2509 3481 
Q 2509 2891 2217 2550 
Q 1925 2209 1428 2209 
Q 931 2209 642 2551 
Q 353 2894 353 3481 
Q 353 4063 643 4406 
Q 934 4750 1428 4750 
z
" transform="scale(0.015625)"/>
      </defs>
      <use xlink:href="#DejaVuSans-56"/>
      <use xlink:href="#DejaVuSans-61" x="60.658203"/>
      <use xlink:href="#DejaVuSans-72" x="121.9375"/>
      <use xlink:href="#DejaVuSans-69" x="163.050781"/>
      <use xlink:href="#DejaVuSans-61" x="190.833984"/>
      <use xlink:href="#DejaVuSans-62" x="252.113281"/>
      <use xlink:href="#DejaVuSans-69" x="315.589844"/>
      <use xlink:href="#DejaVuSans-6c" x="343.373047"/>
      <use xlink:href="#DejaVuSans-69" x="371.15625"/>
      <use xlink:href="#DejaVuSans-74" x="398.939453"/>
      <use xlink:href="#DejaVuSans-79" x="438.148438"/>
      <use xlink:href="#DejaVuSans-20" x="497.328125"/>
      <use xlink:href="#DejaVuSans-5b" x="529.115234"/>
      <use xlink:href="#DejaVuSans-25" x="568.128906"/>
      <use xlink:href="#DejaVuSans-5d" x="663.148438"/>
     </g>
    </g>
   </g>
   <g id="line2d_12">
    <path d="M 172.599174 224.311552 
L 189.641933 209.726361 
L 206.684693 237.033633 
L 223.727452 204.548516 
L 240.770212 173.942974 
L 257.812972 215.412076 
L 274.855731 200.147854 
L 291.898491 203.56159 
L 308.94125 232.712436 
L 325.98401 250.125673 
L 343.02677 194.17164 
L 360.069529 192.667398 
L 377.112289 207.138226 
L 394.155049 200.776685 
L 411.197808 193.404758 
L 428.240568 279.761505 
L 445.283327 195.494215 
L 462.326087 124.028684 
L 479.368847 169.511227 
L 496.411606 231.446056 
L 513.454366 250.381844 
L 530.497125 235.047858 
L 547.539885 221.190441 
L 564.582645 198.869079 
" clip-path="url(#p6d64a23824)" style="fill: none; stroke: #000000; stroke-width: 1.5; stroke-linecap: square"/>
   </g>
   <g id="line2d_13">
    <path d="M 172.599174 200.698179 
L 189.641933 206.756939 
L 206.684693 214.313304 
L 223.727452 231.542073 
L 240.770212 203.726592 
L 257.812972 207.699812 
L 274.855731 221.906414 
L 291.898491 205.342683 
L 308.94125 215.900279 
L 325.98401 210.793717 
L 343.02677 212.246288 
L 360.069529 197.543316 
L 377.112289 209.670391 
L 394.155049 204.020529 
L 411.197808 211.292619 
L 428.240568 215.891215 
L 445.283327 213.702837 
L 462.326087 216.257958 
L 479.368847 208.862147 
L 496.411606 202.37337 
L 513.454366 223.386534 
L 530.497125 202.679497 
L 547.539885 203.665815 
L 564.582645 193.599169 
" clip-path="url(#p6d64a23824)" style="fill: none; stroke-dasharray: 7.4,3.2; stroke-dashoffset: 0; stroke: #0000ff; stroke-width: 2"/>
   </g>
   <g id="patch_3">
    <path d="M 153 304.56 
L 153 77.76 
" style="fill: none; stroke: #000000; stroke-width: 0.8; stroke-linejoin: miter; stroke-linecap: square"/>
   </g>
   <g id="patch_4">
    <path d="M 153 304.56 
L 584.181818 304.56 
" style="fill: none; stroke: #000000; stroke-width: 0.8; stroke-linejoin: miter; stroke-linecap: square"/>
   </g>
   <g id="text_14">
    <!-- a) Beginning of September -->
    <g transform="translate(153 71.76) scale(0.12 -0.12)">
     <defs>
      <path id="DejaVuSans-29" d="M 513 4856 
L 1013 4856 
Q 1481 4119 1714 3412 
Q 1947 2706 1947 2009 
Q 1947 1309 1714 600 
Q 1481 -109 1013 -844 
L 513 -844 
Q 928 -128 1133 580 
Q 1338 1288 1338 2009 
Q 1338 2731 1133 3434 
Q 928 4138 513 4856 
z
" transform="scale(0.015625)"/>
      <path id="DejaVuSans-42" d="M 1259 2228 
L 1259 519 
L 2272 519 
Q 2781 519 3026 730 
Q 3272 941 3272 1375 
Q 3272 1813 3026 2020 
Q 2781 2228 2272 2228 
L 1259 2228 
z
M 1259 4147 
L 1259 2741 
L 2194 2741 
Q 2656 2741 2882 2914 
Q 3109 3088 3109 3444 
Q 3109 3797 2882 3972 
Q 2656 4147 2194 4147 
L 1259 4147 
z
M 628 4666 
L 2241 4666 
Q 2963 4666 3353 4366 
Q 3744 4066 3744 3513 
Q 3744 3084 3544 2831 
Q 3344 2578 2956 2516 
Q 3422 2416 3680 2098 
Q 3938 1781 3938 1306 
Q 3938 681 3513 340 
Q 3088 0 2303 0 
L 628 0 
L 628 4666 
z
" transform="scale(0.015625)"/>
      <path id="DejaVuSans-67" d="M 2906 1791 
Q 2906 2416 2648 2759 
Q 2391 3103 1925 3103 
Q 1463 3103 1205 2759 
Q 947 2416 947 1791 
Q 947 1169 1205 825 
Q 1463 481 1925 481 
Q 2391 481 2648 825 
Q 2906 1169 2906 1791 
z
M 3481 434 
Q 3481 -459 3084 -895 
Q 2688 -1331 1869 -1331 
Q 1566 -1331 1297 -1286 
Q 1028 -1241 775 -1147 
L 775 -588 
Q 1028 -725 1275 -790 
Q 1522 -856 1778 -856 
Q 2344 -856 2625 -561 
Q 2906 -266 2906 331 
L 2906 616 
Q 2728 306 2450 153 
Q 2172 0 1784 0 
Q 1141 0 747 490 
Q 353 981 353 1791 
Q 353 2603 747 3093 
Q 1141 3584 1784 3584 
Q 2172 3584 2450 3431 
Q 2728 3278 2906 2969 
L 2906 3500 
L 3481 3500 
L 3481 434 
z
" transform="scale(0.015625)"/>
      <path id="DejaVuSans-6e" d="M 3513 2113 
L 3513 0 
L 2938 0 
L 2938 2094 
Q 2938 2591 2744 2837 
Q 2550 3084 2163 3084 
Q 1697 3084 1428 2787 
Q 1159 2491 1159 1978 
L 1159 0 
L 581 0 
L 581 3500 
L 1159 3500 
L 1159 2956 
Q 1366 3272 1645 3428 
Q 1925 3584 2291 3584 
Q 2894 3584 3203 3211 
Q 3513 2838 3513 2113 
z
" transform="scale(0.015625)"/>
      <path id="DejaVuSans-6f" d="M 1959 3097 
Q 1497 3097 1228 2736 
Q 959 2375 959 1747 
Q 959 1119 1226 758 
Q 1494 397 1959 397 
Q 2419 397 2687 759 
Q 2956 1122 2956 1747 
Q 2956 2369 2687 2733 
Q 2419 3097 1959 3097 
z
M 1959 3584 
Q 2709 3584 3137 3096 
Q 3566 2609 3566 1747 
Q 3566 888 3137 398 
Q 2709 -91 1959 -91 
Q 1206 -91 779 398 
Q 353 888 353 1747 
Q 353 2609 779 3096 
Q 1206 3584 1959 3584 
z
" transform="scale(0.015625)"/>
      <path id="DejaVuSans-66" d="M 2375 4863 
L 2375 4384 
L 1825 4384 
Q 1516 4384 1395 4259 
Q 1275 4134 1275 3809 
L 1275 3500 
L 2222 3500 
L 2222 3053 
L 1275 3053 
L 1275 0 
L 697 0 
L 697 3053 
L 147 3053 
L 147 3500 
L 697 3500 
L 697 3744 
Q 697 4328 969 4595 
Q 1241 4863 1831 4863 
L 2375 4863 
z
" transform="scale(0.015625)"/>
      <path id="DejaVuSans-53" d="M 3425 4513 
L 3425 3897 
Q 3066 4069 2747 4153 
Q 2428 4238 2131 4238 
Q 1616 4238 1336 4038 
Q 1056 3838 1056 3469 
Q 1056 3159 1242 3001 
Q 1428 2844 1947 2747 
L 2328 2669 
Q 3034 2534 3370 2195 
Q 3706 1856 3706 1288 
Q 3706 609 3251 259 
Q 2797 -91 1919 -91 
Q 1588 -91 1214 -16 
Q 841 59 441 206 
L 441 856 
Q 825 641 1194 531 
Q 1563 422 1919 422 
Q 2459 422 2753 634 
Q 3047 847 3047 1241 
Q 3047 1584 2836 1778 
Q 2625 1972 2144 2069 
L 1759 2144 
Q 1053 2284 737 2584 
Q 422 2884 422 3419 
Q 422 4038 858 4394 
Q 1294 4750 2059 4750 
Q 2388 4750 2728 4690 
Q 3069 4631 3425 4513 
z
" transform="scale(0.015625)"/>
      <path id="DejaVuSans-70" d="M 1159 525 
L 1159 -1331 
L 581 -1331 
L 581 3500 
L 1159 3500 
L 1159 2969 
Q 1341 3281 1617 3432 
Q 1894 3584 2278 3584 
Q 2916 3584 3314 3078 
Q 3713 2572 3713 1747 
Q 3713 922 3314 415 
Q 2916 -91 2278 -91 
Q 1894 -91 1617 61 
Q 1341 213 1159 525 
z
M 3116 1747 
Q 3116 2381 2855 2742 
Q 2594 3103 2138 3103 
Q 1681 3103 1420 2742 
Q 1159 2381 1159 1747 
Q 1159 1113 1420 752 
Q 1681 391 2138 391 
Q 2594 391 2855 752 
Q 3116 1113 3116 1747 
z
" transform="scale(0.015625)"/>
     </defs>
     <use xlink:href="#DejaVuSans-61"/>
     <use xlink:href="#DejaVuSans-29" x="61.279297"/>
     <use xlink:href="#DejaVuSans-20" x="100.292969"/>
     <use xlink:href="#DejaVuSans-42" x="132.080078"/>
     <use xlink:href="#DejaVuSans-65" x="200.683594"/>
     <use xlink:href="#DejaVuSans-67" x="262.207031"/>
     <use xlink:href="#DejaVuSans-69" x="325.683594"/>
     <use xlink:href="#DejaVuSans-6e" x="353.466797"/>
     <use xlink:href="#DejaVuSans-6e" x="416.845703"/>
     <use xlink:href="#DejaVuSans-69" x="480.224609"/>
     <use xlink:href="#DejaVuSans-6e" x="508.007812"/>
     <use xlink:href="#DejaVuSans-67" x="571.386719"/>
     <use xlink:href="#DejaVuSans-20" x="634.863281"/>
     <use xlink:href="#DejaVuSans-6f" x="666.650391"/>
     <use xlink:href="#DejaVuSans-66" x="727.832031"/>
     <use xlink:href="#DejaVuSans-20" x="763.037109"/>
     <use xlink:href="#DejaVuSans-53" x="794.824219"/>
     <use xlink:href="#DejaVuSans-65" x="858.300781"/>
     <use xlink:href="#DejaVuSans-70" x="919.824219"/>
     <use xlink:href="#DejaVuSans-74" x="983.300781"/>
     <use xlink:href="#DejaVuSans-65" x="1022.509766"/>
     <use xlink:href="#DejaVuSans-6d" x="1084.033203"/>
     <use xlink:href="#DejaVuSans-62" x="1181.445312"/>
     <use xlink:href="#DejaVuSans-65" x="1244.921875"/>
     <use xlink:href="#DejaVuSans-72" x="1306.445312"/>
    </g>
   </g>
   <g id="legend_1">
    <g id="patch_5">
     <path d="M 160.7 119.157812 
L 526.76625 119.157812 
Q 528.96625 119.157812 528.96625 116.957812 
L 528.96625 85.46 
Q 528.96625 83.26 526.76625 83.26 
L 160.7 83.26 
Q 158.5 83.26 158.5 85.46 
L 158.5 116.957812 
Q 158.5 119.157812 160.7 119.157812 
z
" style="fill: #ffffff; opacity: 0.8; stroke: #cccccc; stroke-linejoin: miter"/>
    </g>
    <g id="line2d_14">
     <path d="M 162.9 92.168281 
L 173.9 92.168281 
L 184.9 92.168281 
" style="fill: none; stroke: #000000; stroke-width: 1.5; stroke-linecap: square"/>
    </g>
    <g id="text_15">
     <!-- observed -->
     <g transform="translate(193.7 96.018281) scale(0.11 -0.11)">
      <defs>
       <path id="DejaVuSans-73" d="M 2834 3397 
L 2834 2853 
Q 2591 2978 2328 3040 
Q 2066 3103 1784 3103 
Q 1356 3103 1142 2972 
Q 928 2841 928 2578 
Q 928 2378 1081 2264 
Q 1234 2150 1697 2047 
L 1894 2003 
Q 2506 1872 2764 1633 
Q 3022 1394 3022 966 
Q 3022 478 2636 193 
Q 2250 -91 1575 -91 
Q 1294 -91 989 -36 
Q 684 19 347 128 
L 347 722 
Q 666 556 975 473 
Q 1284 391 1588 391 
Q 1994 391 2212 530 
Q 2431 669 2431 922 
Q 2431 1156 2273 1281 
Q 2116 1406 1581 1522 
L 1381 1569 
Q 847 1681 609 1914 
Q 372 2147 372 2553 
Q 372 3047 722 3315 
Q 1072 3584 1716 3584 
Q 2034 3584 2315 3537 
Q 2597 3491 2834 3397 
z
" transform="scale(0.015625)"/>
       <path id="DejaVuSans-76" d="M 191 3500 
L 800 3500 
L 1894 563 
L 2988 3500 
L 3597 3500 
L 2284 0 
L 1503 0 
L 191 3500 
z
" transform="scale(0.015625)"/>
       <path id="DejaVuSans-64" d="M 2906 2969 
L 2906 4863 
L 3481 4863 
L 3481 0 
L 2906 0 
L 2906 525 
Q 2725 213 2448 61 
Q 2172 -91 1784 -91 
Q 1150 -91 751 415 
Q 353 922 353 1747 
Q 353 2572 751 3078 
Q 1150 3584 1784 3584 
Q 2172 3584 2448 3432 
Q 2725 3281 2906 2969 
z
M 947 1747 
Q 947 1113 1208 752 
Q 1469 391 1925 391 
Q 2381 391 2643 752 
Q 2906 1113 2906 1747 
Q 2906 2381 2643 2742 
Q 2381 3103 1925 3103 
Q 1469 3103 1208 2742 
Q 947 2381 947 1747 
z
" transform="scale(0.015625)"/>
      </defs>
      <use xlink:href="#DejaVuSans-6f"/>
      <use xlink:href="#DejaVuSans-62" x="61.181641"/>
      <use xlink:href="#DejaVuSans-73" x="124.658203"/>
      <use xlink:href="#DejaVuSans-65" x="176.757812"/>
      <use xlink:href="#DejaVuSans-72" x="238.28125"/>
      <use xlink:href="#DejaVuSans-76" x="279.394531"/>
      <use xlink:href="#DejaVuSans-65" x="338.574219"/>
      <use xlink:href="#DejaVuSans-64" x="400.097656"/>
     </g>
    </g>
    <g id="line2d_15">
     <path d="M 162.9 108.314219 
L 173.9 108.314219 
L 184.9 108.314219 
" style="fill: none; stroke-dasharray: 7.4,3.2; stroke-dashoffset: 0; stroke: #0000ff; stroke-width: 2"/>
    </g>
    <g id="text_16">
     <!-- CWB_HMC_JMA_NCEP_PNU forecast (R²: 0.0, RRMSE: 13.7%) -->
     <g transform="translate(193.7 112.164219) scale(0.11 -0.11)">
      <defs>
       <path id="DejaVuSans-43" d="M 4122 4306 
L 4122 3641 
Q 3803 3938 3442 4084 
Q 3081 4231 2675 4231 
Q 1875 4231 1450 3742 
Q 1025 3253 1025 2328 
Q 1025 1406 1450 917 
Q 1875 428 2675 428 
Q 3081 428 3442 575 
Q 3803 722 4122 1019 
L 4122 359 
Q 3791 134 3420 21 
Q 3050 -91 2638 -91 
Q 1578 -91 968 557 
Q 359 1206 359 2328 
Q 359 3453 968 4101 
Q 1578 4750 2638 4750 
Q 3056 4750 3426 4639 
Q 3797 4528 4122 4306 
z
" transform="scale(0.015625)"/>
       <path id="DejaVuSans-57" d="M 213 4666 
L 850 4666 
L 1831 722 
L 2809 4666 
L 3519 4666 
L 4500 722 
L 5478 4666 
L 6119 4666 
L 4947 0 
L 4153 0 
L 3169 4050 
L 2175 0 
L 1381 0 
L 213 4666 
z
" transform="scale(0.015625)"/>
       <path id="DejaVuSans-5f" d="M 3263 -1063 
L 3263 -1509 
L -63 -1509 
L -63 -1063 
L 3263 -1063 
z
" transform="scale(0.015625)"/>
       <path id="DejaVuSans-48" d="M 628 4666 
L 1259 4666 
L 1259 2753 
L 3553 2753 
L 3553 4666 
L 4184 4666 
L 4184 0 
L 3553 0 
L 3553 2222 
L 1259 2222 
L 1259 0 
L 628 0 
L 628 4666 
z
" transform="scale(0.015625)"/>
       <path id="DejaVuSans-4d" d="M 628 4666 
L 1569 4666 
L 2759 1491 
L 3956 4666 
L 4897 4666 
L 4897 0 
L 4281 0 
L 4281 4097 
L 3078 897 
L 2444 897 
L 1241 4097 
L 1241 0 
L 628 0 
L 628 4666 
z
" transform="scale(0.015625)"/>
       <path id="DejaVuSans-4a" d="M 628 4666 
L 1259 4666 
L 1259 325 
Q 1259 -519 939 -900 
Q 619 -1281 -91 -1281 
L -331 -1281 
L -331 -750 
L -134 -750 
Q 284 -750 456 -515 
Q 628 -281 628 325 
L 628 4666 
z
" transform="scale(0.015625)"/>
       <path id="DejaVuSans-41" d="M 2188 4044 
L 1331 1722 
L 3047 1722 
L 2188 4044 
z
M 1831 4666 
L 2547 4666 
L 4325 0 
L 3669 0 
L 3244 1197 
L 1141 1197 
L 716 0 
L 50 0 
L 1831 4666 
z
" transform="scale(0.015625)"/>
       <path id="DejaVuSans-4e" d="M 628 4666 
L 1478 4666 
L 3547 763 
L 3547 4666 
L 4159 4666 
L 4159 0 
L 3309 0 
L 1241 3903 
L 1241 0 
L 628 0 
L 628 4666 
z
" transform="scale(0.015625)"/>
       <path id="DejaVuSans-45" d="M 628 4666 
L 3578 4666 
L 3578 4134 
L 1259 4134 
L 1259 2753 
L 3481 2753 
L 3481 2222 
L 1259 2222 
L 1259 531 
L 3634 531 
L 3634 0 
L 628 0 
L 628 4666 
z
" transform="scale(0.015625)"/>
       <path id="DejaVuSans-50" d="M 1259 4147 
L 1259 2394 
L 2053 2394 
Q 2494 2394 2734 2622 
Q 2975 2850 2975 3272 
Q 2975 3691 2734 3919 
Q 2494 4147 2053 4147 
L 1259 4147 
z
M 628 4666 
L 2053 4666 
Q 2838 4666 3239 4311 
Q 3641 3956 3641 3272 
Q 3641 2581 3239 2228 
Q 2838 1875 2053 1875 
L 1259 1875 
L 1259 0 
L 628 0 
L 628 4666 
z
" transform="scale(0.015625)"/>
       <path id="DejaVuSans-55" d="M 556 4666 
L 1191 4666 
L 1191 1831 
Q 1191 1081 1462 751 
Q 1734 422 2344 422 
Q 2950 422 3222 751 
Q 3494 1081 3494 1831 
L 3494 4666 
L 4128 4666 
L 4128 1753 
Q 4128 841 3676 375 
Q 3225 -91 2344 -91 
Q 1459 -91 1007 375 
Q 556 841 556 1753 
L 556 4666 
z
" transform="scale(0.015625)"/>
       <path id="DejaVuSans-63" d="M 3122 3366 
L 3122 2828 
Q 2878 2963 2633 3030 
Q 2388 3097 2138 3097 
Q 1578 3097 1268 2742 
Q 959 2388 959 1747 
Q 959 1106 1268 751 
Q 1578 397 2138 397 
Q 2388 397 2633 464 
Q 2878 531 3122 666 
L 3122 134 
Q 2881 22 2623 -34 
Q 2366 -91 2075 -91 
Q 1284 -91 818 406 
Q 353 903 353 1747 
Q 353 2603 823 3093 
Q 1294 3584 2113 3584 
Q 2378 3584 2631 3529 
Q 2884 3475 3122 3366 
z
" transform="scale(0.015625)"/>
       <path id="DejaVuSans-28" d="M 1984 4856 
Q 1566 4138 1362 3434 
Q 1159 2731 1159 2009 
Q 1159 1288 1364 580 
Q 1569 -128 1984 -844 
L 1484 -844 
Q 1016 -109 783 600 
Q 550 1309 550 2009 
Q 550 2706 781 3412 
Q 1013 4119 1484 4856 
L 1984 4856 
z
" transform="scale(0.015625)"/>
       <path id="DejaVuSans-52" d="M 2841 2188 
Q 3044 2119 3236 1894 
Q 3428 1669 3622 1275 
L 4263 0 
L 3584 0 
L 2988 1197 
Q 2756 1666 2539 1819 
Q 2322 1972 1947 1972 
L 1259 1972 
L 1259 0 
L 628 0 
L 628 4666 
L 2053 4666 
Q 2853 4666 3247 4331 
Q 3641 3997 3641 3322 
Q 3641 2881 3436 2590 
Q 3231 2300 2841 2188 
z
M 1259 4147 
L 1259 2491 
L 2053 2491 
Q 2509 2491 2742 2702 
Q 2975 2913 2975 3322 
Q 2975 3731 2742 3939 
Q 2509 4147 2053 4147 
L 1259 4147 
z
" transform="scale(0.015625)"/>
       <path id="DejaVuSans-b2" d="M 838 2444 
L 2163 2444 
L 2163 2088 
L 294 2088 
L 294 2431 
Q 400 2528 597 2703 
Q 1672 3656 1672 3950 
Q 1672 4156 1509 4282 
Q 1347 4409 1081 4409 
Q 919 4409 728 4354 
Q 538 4300 313 4191 
L 313 4575 
Q 553 4663 761 4706 
Q 969 4750 1147 4750 
Q 1600 4750 1872 4544 
Q 2144 4338 2144 4000 
Q 2144 3566 1109 2678 
Q 934 2528 838 2444 
z
" transform="scale(0.015625)"/>
       <path id="DejaVuSans-3a" d="M 750 794 
L 1409 794 
L 1409 0 
L 750 0 
L 750 794 
z
M 750 3309 
L 1409 3309 
L 1409 2516 
L 750 2516 
L 750 3309 
z
" transform="scale(0.015625)"/>
       <path id="DejaVuSans-2e" d="M 684 794 
L 1344 794 
L 1344 0 
L 684 0 
L 684 794 
z
" transform="scale(0.015625)"/>
       <path id="DejaVuSans-2c" d="M 750 794 
L 1409 794 
L 1409 256 
L 897 -744 
L 494 -744 
L 750 256 
L 750 794 
z
" transform="scale(0.015625)"/>
       <path id="DejaVuSans-33" d="M 2597 2516 
Q 3050 2419 3304 2112 
Q 3559 1806 3559 1356 
Q 3559 666 3084 287 
Q 2609 -91 1734 -91 
Q 1441 -91 1130 -33 
Q 819 25 488 141 
L 488 750 
Q 750 597 1062 519 
Q 1375 441 1716 441 
Q 2309 441 2620 675 
Q 2931 909 2931 1356 
Q 2931 1769 2642 2001 
Q 2353 2234 1838 2234 
L 1294 2234 
L 1294 2753 
L 1863 2753 
Q 2328 2753 2575 2939 
Q 2822 3125 2822 3475 
Q 2822 3834 2567 4026 
Q 2313 4219 1838 4219 
Q 1578 4219 1281 4162 
Q 984 4106 628 3988 
L 628 4550 
Q 988 4650 1302 4700 
Q 1616 4750 1894 4750 
Q 2613 4750 3031 4423 
Q 3450 4097 3450 3541 
Q 3450 3153 3228 2886 
Q 3006 2619 2597 2516 
z
" transform="scale(0.015625)"/>
       <path id="DejaVuSans-37" d="M 525 4666 
L 3525 4666 
L 3525 4397 
L 1831 0 
L 1172 0 
L 2766 4134 
L 525 4134 
L 525 4666 
z
" transform="scale(0.015625)"/>
      </defs>
      <use xlink:href="#DejaVuSans-43"/>
      <use xlink:href="#DejaVuSans-57" x="69.824219"/>
      <use xlink:href="#DejaVuSans-42" x="168.701172"/>
      <use xlink:href="#DejaVuSans-5f" x="237.304688"/>
      <use xlink:href="#DejaVuSans-48" x="287.304688"/>
      <use xlink:href="#DejaVuSans-4d" x="362.5"/>
      <use xlink:href="#DejaVuSans-43" x="448.779297"/>
      <use xlink:href="#DejaVuSans-5f" x="518.603516"/>
      <use xlink:href="#DejaVuSans-4a" x="568.603516"/>
      <use xlink:href="#DejaVuSans-4d" x="598.095703"/>
      <use xlink:href="#DejaVuSans-41" x="684.375"/>
      <use xlink:href="#DejaVuSans-5f" x="752.783203"/>
      <use xlink:href="#DejaVuSans-4e" x="802.783203"/>
      <use xlink:href="#DejaVuSans-43" x="877.587891"/>
      <use xlink:href="#DejaVuSans-45" x="947.412109"/>
      <use xlink:href="#DejaVuSans-50" x="1010.595703"/>
      <use xlink:href="#DejaVuSans-5f" x="1070.898438"/>
      <use xlink:href="#DejaVuSans-50" x="1120.898438"/>
      <use xlink:href="#DejaVuSans-4e" x="1181.201172"/>
      <use xlink:href="#DejaVuSans-55" x="1256.005859"/>
      <use xlink:href="#DejaVuSans-20" x="1329.199219"/>
      <use xlink:href="#DejaVuSans-66" x="1360.986328"/>
      <use xlink:href="#DejaVuSans-6f" x="1396.191406"/>
      <use xlink:href="#DejaVuSans-72" x="1457.373047"/>
      <use xlink:href="#DejaVuSans-65" x="1496.236328"/>
      <use xlink:href="#DejaVuSans-63" x="1557.759766"/>
      <use xlink:href="#DejaVuSans-61" x="1612.740234"/>
      <use xlink:href="#DejaVuSans-73" x="1674.019531"/>
      <use xlink:href="#DejaVuSans-74" x="1726.119141"/>
      <use xlink:href="#DejaVuSans-20" x="1765.328125"/>
      <use xlink:href="#DejaVuSans-28" x="1797.115234"/>
      <use xlink:href="#DejaVuSans-52" x="1836.128906"/>
      <use xlink:href="#DejaVuSans-b2" x="1905.611328"/>
      <use xlink:href="#DejaVuSans-3a" x="1945.699219"/>
      <use xlink:href="#DejaVuSans-20" x="1979.390625"/>
      <use xlink:href="#DejaVuSans-30" x="2011.177734"/>
      <use xlink:href="#DejaVuSans-2e" x="2074.800781"/>
      <use xlink:href="#DejaVuSans-30" x="2106.587891"/>
      <use xlink:href="#DejaVuSans-2c" x="2170.210938"/>
      <use xlink:href="#DejaVuSans-20" x="2201.998047"/>
      <use xlink:href="#DejaVuSans-52" x="2233.785156"/>
      <use xlink:href="#DejaVuSans-52" x="2303.267578"/>
      <use xlink:href="#DejaVuSans-4d" x="2372.75"/>
      <use xlink:href="#DejaVuSans-53" x="2459.029297"/>
      <use xlink:href="#DejaVuSans-45" x="2522.505859"/>
      <use xlink:href="#DejaVuSans-3a" x="2585.689453"/>
      <use xlink:href="#DejaVuSans-20" x="2619.380859"/>
      <use xlink:href="#DejaVuSans-31" x="2651.167969"/>
      <use xlink:href="#DejaVuSans-33" x="2714.791016"/>
      <use xlink:href="#DejaVuSans-2e" x="2778.414062"/>
      <use xlink:href="#DejaVuSans-37" x="2810.201172"/>
      <use xlink:href="#DejaVuSans-25" x="2873.824219"/>
      <use xlink:href="#DejaVuSans-29" x="2968.84375"/>
     </g>
    </g>
   </g>
  </g>
  <g id="axes_2">
   <g id="patch_6">
    <path d="M 670.418182 304.56 
L 1101.6 304.56 
L 1101.6 77.76 
L 670.418182 77.76 
z
" style="fill: #ffffff"/>
   </g>
   <g id="matplotlib.axis_3">
    <g id="xtick_6">
     <g id="line2d_16">
      <g>
       <use xlink:href="#m696a776092" x="724.102875" y="304.56" style="stroke: #000000; stroke-width: 0.8"/>
      </g>
     </g>
     <g id="text_17">
      <!-- 1995 -->
      <g transform="translate(711.377875 319.158437) scale(0.1 -0.1)">
       <use xlink:href="#DejaVuSans-31"/>
       <use xlink:href="#DejaVuSans-39" x="63.623047"/>
       <use xlink:href="#DejaVuSans-39" x="127.246094"/>
       <use xlink:href="#DejaVuSans-35" x="190.869141"/>
      </g>
     </g>
    </g>
    <g id="xtick_7">
     <g id="line2d_17">
      <g>
       <use xlink:href="#m696a776092" x="809.316673" y="304.56" style="stroke: #000000; stroke-width: 0.8"/>
      </g>
     </g>
     <g id="text_18">
      <!-- 2000 -->
      <g transform="translate(796.591673 319.158437) scale(0.1 -0.1)">
       <use xlink:href="#DejaVuSans-32"/>
       <use xlink:href="#DejaVuSans-30" x="63.623047"/>
       <use xlink:href="#DejaVuSans-30" x="127.246094"/>
       <use xlink:href="#DejaVuSans-30" x="190.869141"/>
      </g>
     </g>
    </g>
    <g id="xtick_8">
     <g id="line2d_18">
      <g>
       <use xlink:href="#m696a776092" x="894.530471" y="304.56" style="stroke: #000000; stroke-width: 0.8"/>
      </g>
     </g>
     <g id="text_19">
      <!-- 2005 -->
      <g transform="translate(881.805471 319.158437) scale(0.1 -0.1)">
       <use xlink:href="#DejaVuSans-32"/>
       <use xlink:href="#DejaVuSans-30" x="63.623047"/>
       <use xlink:href="#DejaVuSans-30" x="127.246094"/>
       <use xlink:href="#DejaVuSans-35" x="190.869141"/>
      </g>
     </g>
    </g>
    <g id="xtick_9">
     <g id="line2d_19">
      <g>
       <use xlink:href="#m696a776092" x="979.744269" y="304.56" style="stroke: #000000; stroke-width: 0.8"/>
      </g>
     </g>
     <g id="text_20">
      <!-- 2010 -->
      <g transform="translate(967.019269 319.158437) scale(0.1 -0.1)">
       <use xlink:href="#DejaVuSans-32"/>
       <use xlink:href="#DejaVuSans-30" x="63.623047"/>
       <use xlink:href="#DejaVuSans-31" x="127.246094"/>
       <use xlink:href="#DejaVuSans-30" x="190.869141"/>
      </g>
     </g>
    </g>
    <g id="xtick_10">
     <g id="line2d_20">
      <g>
       <use xlink:href="#m696a776092" x="1064.958067" y="304.56" style="stroke: #000000; stroke-width: 0.8"/>
      </g>
     </g>
     <g id="text_21">
      <!-- 2015 -->
      <g transform="translate(1052.233067 319.158437) scale(0.1 -0.1)">
       <use xlink:href="#DejaVuSans-32"/>
       <use xlink:href="#DejaVuSans-30" x="63.623047"/>
       <use xlink:href="#DejaVuSans-31" x="127.246094"/>
       <use xlink:href="#DejaVuSans-35" x="190.869141"/>
      </g>
     </g>
    </g>
    <g id="text_22">
     <!-- Time [year] -->
     <g transform="translate(851.353466 334.35625) scale(0.12 -0.12)">
      <use xlink:href="#DejaVuSans-54"/>
      <use xlink:href="#DejaVuSans-69" x="57.958984"/>
      <use xlink:href="#DejaVuSans-6d" x="85.742188"/>
      <use xlink:href="#DejaVuSans-65" x="183.154297"/>
      <use xlink:href="#DejaVuSans-20" x="244.677734"/>
      <use xlink:href="#DejaVuSans-5b" x="276.464844"/>
      <use xlink:href="#DejaVuSans-79" x="315.478516"/>
      <use xlink:href="#DejaVuSans-65" x="374.658203"/>
      <use xlink:href="#DejaVuSans-61" x="436.181641"/>
      <use xlink:href="#DejaVuSans-72" x="497.460938"/>
      <use xlink:href="#DejaVuSans-5d" x="538.574219"/>
     </g>
    </g>
   </g>
   <g id="matplotlib.axis_4">
    <g id="ytick_7">
     <g id="line2d_21">
      <g>
       <use xlink:href="#mee22b54847" x="670.418182" y="304.56" style="stroke: #000000; stroke-width: 0.8"/>
      </g>
     </g>
     <g id="text_23">
      <!-- −40 -->
      <g transform="translate(642.313494 308.359219) scale(0.1 -0.1)">
       <use xlink:href="#DejaVuSans-2212"/>
       <use xlink:href="#DejaVuSans-34" x="83.789062"/>
       <use xlink:href="#DejaVuSans-30" x="147.412109"/>
      </g>
     </g>
    </g>
    <g id="ytick_8">
     <g id="line2d_22">
      <g>
       <use xlink:href="#mee22b54847" x="670.418182" y="259.2" style="stroke: #000000; stroke-width: 0.8"/>
      </g>
     </g>
     <g id="text_24">
      <!-- −20 -->
      <g transform="translate(642.313494 262.999219) scale(0.1 -0.1)">
       <use xlink:href="#DejaVuSans-2212"/>
       <use xlink:href="#DejaVuSans-32" x="83.789062"/>
       <use xlink:href="#DejaVuSans-30" x="147.412109"/>
      </g>
     </g>
    </g>
    <g id="ytick_9">
     <g id="line2d_23">
      <g>
       <use xlink:href="#mee22b54847" x="670.418182" y="213.84" style="stroke: #000000; stroke-width: 0.8"/>
      </g>
     </g>
     <g id="text_25">
      <!-- 0 -->
      <g transform="translate(657.055682 217.639219) scale(0.1 -0.1)">
       <use xlink:href="#DejaVuSans-30"/>
      </g>
     </g>
    </g>
    <g id="ytick_10">
     <g id="line2d_24">
      <g>
       <use xlink:href="#mee22b54847" x="670.418182" y="168.48" style="stroke: #000000; stroke-width: 0.8"/>
      </g>
     </g>
     <g id="text_26">
      <!-- 20 -->
      <g transform="translate(650.693182 172.279219) scale(0.1 -0.1)">
       <use xlink:href="#DejaVuSans-32"/>
       <use xlink:href="#DejaVuSans-30" x="63.623047"/>
      </g>
     </g>
    </g>
    <g id="ytick_11">
     <g id="line2d_25">
      <g>
       <use xlink:href="#mee22b54847" x="670.418182" y="123.12" style="stroke: #000000; stroke-width: 0.8"/>
      </g>
     </g>
     <g id="text_27">
      <!-- 40 -->
      <g transform="translate(650.693182 126.919219) scale(0.1 -0.1)">
       <use xlink:href="#DejaVuSans-34"/>
       <use xlink:href="#DejaVuSans-30" x="63.623047"/>
      </g>
     </g>
    </g>
    <g id="ytick_12">
     <g id="line2d_26">
      <g>
       <use xlink:href="#mee22b54847" x="670.418182" y="77.76" style="stroke: #000000; stroke-width: 0.8"/>
      </g>
     </g>
     <g id="text_28">
      <!-- 60 -->
      <g transform="translate(650.693182 81.559219) scale(0.1 -0.1)">
       <use xlink:href="#DejaVuSans-36"/>
       <use xlink:href="#DejaVuSans-30" x="63.623047"/>
      </g>
     </g>
    </g>
    <g id="text_29">
     <!-- Variability [%] -->
     <g transform="translate(635.817869 233.289375) rotate(-90) scale(0.12 -0.12)">
      <use xlink:href="#DejaVuSans-56"/>
      <use xlink:href="#DejaVuSans-61" x="60.658203"/>
      <use xlink:href="#DejaVuSans-72" x="121.9375"/>
      <use xlink:href="#DejaVuSans-69" x="163.050781"/>
      <use xlink:href="#DejaVuSans-61" x="190.833984"/>
      <use xlink:href="#DejaVuSans-62" x="252.113281"/>
      <use xlink:href="#DejaVuSans-69" x="315.589844"/>
      <use xlink:href="#DejaVuSans-6c" x="343.373047"/>
      <use xlink:href="#DejaVuSans-69" x="371.15625"/>
      <use xlink:href="#DejaVuSans-74" x="398.939453"/>
      <use xlink:href="#DejaVuSans-79" x="438.148438"/>
      <use xlink:href="#DejaVuSans-20" x="497.328125"/>
      <use xlink:href="#DejaVuSans-5b" x="529.115234"/>
      <use xlink:href="#DejaVuSans-25" x="568.128906"/>
      <use xlink:href="#DejaVuSans-5d" x="663.148438"/>
     </g>
    </g>
   </g>
   <g id="line2d_27">
    <path d="M 690.017355 224.311552 
L 707.060115 209.726361 
L 724.102875 237.033633 
L 741.145634 204.548516 
L 758.188394 173.942974 
L 775.231153 215.412076 
L 792.273913 200.147854 
L 809.316673 203.56159 
L 826.359432 232.712436 
L 843.402192 250.125673 
L 860.444951 194.17164 
L 877.487711 192.667398 
L 894.530471 207.138226 
L 911.57323 200.776685 
L 928.61599 193.404758 
L 945.65875 279.761505 
L 962.701509 195.494215 
L 979.744269 124.028684 
L 996.787028 169.511227 
L 1013.829788 231.446056 
L 1030.872548 250.381844 
L 1047.915307 235.047858 
L 1064.958067 221.190441 
L 1082.000826 198.869079 
" clip-path="url(#p79c4f12b34)" style="fill: none; stroke: #000000; stroke-width: 1.5; stroke-linecap: square"/>
   </g>
   <g id="line2d_28">
    <path d="M 690.017355 216.30377 
L 707.060115 233.232391 
L 724.102875 223.687848 
L 741.145634 219.93721 
L 758.188394 214.035059 
L 775.231153 212.704764 
L 792.273913 186.36667 
L 809.316673 213.011565 
L 826.359432 212.782016 
L 843.402192 211.494046 
L 860.444951 204.330045 
L 877.487711 199.222367 
L 894.530471 200.954109 
L 911.57323 203.730819 
L 928.61599 210.382043 
L 945.65875 221.629673 
L 962.701509 195.525287 
L 979.744269 118.87417 
L 996.787028 202.081357 
L 1013.829788 218.702993 
L 1030.872548 217.33515 
L 1047.915307 241.481917 
L 1064.958067 241.931677 
L 1082.000826 205.718531 
" clip-path="url(#p79c4f12b34)" style="fill: none; stroke-dasharray: 7.4,3.2; stroke-dashoffset: 0; stroke: #ffa500; stroke-width: 2"/>
   </g>
   <g id="patch_7">
    <path d="M 670.418182 304.56 
L 670.418182 77.76 
" style="fill: none; stroke: #000000; stroke-width: 0.8; stroke-linejoin: miter; stroke-linecap: square"/>
   </g>
   <g id="patch_8">
    <path d="M 670.418182 304.56 
L 1101.6 304.56 
" style="fill: none; stroke: #000000; stroke-width: 0.8; stroke-linejoin: miter; stroke-linecap: square"/>
   </g>
   <g id="text_30">
    <!-- b) Beginning of October -->
    <g transform="translate(670.418182 71.76) scale(0.12 -0.12)">
     <defs>
      <path id="DejaVuSans-4f" d="M 2522 4238 
Q 1834 4238 1429 3725 
Q 1025 3213 1025 2328 
Q 1025 1447 1429 934 
Q 1834 422 2522 422 
Q 3209 422 3611 934 
Q 4013 1447 4013 2328 
Q 4013 3213 3611 3725 
Q 3209 4238 2522 4238 
z
M 2522 4750 
Q 3503 4750 4090 4092 
Q 4678 3434 4678 2328 
Q 4678 1225 4090 567 
Q 3503 -91 2522 -91 
Q 1538 -91 948 565 
Q 359 1222 359 2328 
Q 359 3434 948 4092 
Q 1538 4750 2522 4750 
z
" transform="scale(0.015625)"/>
     </defs>
     <use xlink:href="#DejaVuSans-62"/>
     <use xlink:href="#DejaVuSans-29" x="63.476562"/>
     <use xlink:href="#DejaVuSans-20" x="102.490234"/>
     <use xlink:href="#DejaVuSans-42" x="134.277344"/>
     <use xlink:href="#DejaVuSans-65" x="202.880859"/>
     <use xlink:href="#DejaVuSans-67" x="264.404297"/>
     <use xlink:href="#DejaVuSans-69" x="327.880859"/>
     <use xlink:href="#DejaVuSans-6e" x="355.664062"/>
     <use xlink:href="#DejaVuSans-6e" x="419.042969"/>
     <use xlink:href="#DejaVuSans-69" x="482.421875"/>
     <use xlink:href="#DejaVuSans-6e" x="510.205078"/>
     <use xlink:href="#DejaVuSans-67" x="573.583984"/>
     <use xlink:href="#DejaVuSans-20" x="637.060547"/>
     <use xlink:href="#DejaVuSans-6f" x="668.847656"/>
     <use xlink:href="#DejaVuSans-66" x="730.029297"/>
     <use xlink:href="#DejaVuSans-20" x="765.234375"/>
     <use xlink:href="#DejaVuSans-4f" x="797.021484"/>
     <use xlink:href="#DejaVuSans-63" x="875.732422"/>
     <use xlink:href="#DejaVuSans-74" x="930.712891"/>
     <use xlink:href="#DejaVuSans-6f" x="969.921875"/>
     <use xlink:href="#DejaVuSans-62" x="1031.103516"/>
     <use xlink:href="#DejaVuSans-65" x="1094.580078"/>
     <use xlink:href="#DejaVuSans-72" x="1156.103516"/>
    </g>
   </g>
   <g id="legend_2">
    <g id="patch_9">
     <path d="M 678.118182 103.011875 
L 952.023338 103.011875 
Q 954.223338 103.011875 954.223338 100.811875 
L 954.223338 85.46 
Q 954.223338 83.26 952.023338 83.26 
L 678.118182 83.26 
Q 675.918182 83.26 675.918182 85.46 
L 675.918182 100.811875 
Q 675.918182 103.011875 678.118182 103.011875 
z
" style="fill: #ffffff; opacity: 0.8; stroke: #cccccc; stroke-linejoin: miter"/>
    </g>
    <g id="line2d_29">
     <path d="M 680.318182 92.168281 
L 691.318182 92.168281 
L 702.318182 92.168281 
" style="fill: none; stroke-dasharray: 7.4,3.2; stroke-dashoffset: 0; stroke: #ffa500; stroke-width: 2"/>
    </g>
    <g id="text_31">
     <!-- CWB_GFDL forecast (R²: 0.5, RRMSE: 9.7%) -->
     <g transform="translate(711.118182 96.018281) scale(0.11 -0.11)">
      <defs>
       <path id="DejaVuSans-47" d="M 3809 666 
L 3809 1919 
L 2778 1919 
L 2778 2438 
L 4434 2438 
L 4434 434 
Q 4069 175 3628 42 
Q 3188 -91 2688 -91 
Q 1594 -91 976 548 
Q 359 1188 359 2328 
Q 359 3472 976 4111 
Q 1594 4750 2688 4750 
Q 3144 4750 3555 4637 
Q 3966 4525 4313 4306 
L 4313 3634 
Q 3963 3931 3569 4081 
Q 3175 4231 2741 4231 
Q 1884 4231 1454 3753 
Q 1025 3275 1025 2328 
Q 1025 1384 1454 906 
Q 1884 428 2741 428 
Q 3075 428 3337 486 
Q 3600 544 3809 666 
z
" transform="scale(0.015625)"/>
       <path id="DejaVuSans-46" d="M 628 4666 
L 3309 4666 
L 3309 4134 
L 1259 4134 
L 1259 2759 
L 3109 2759 
L 3109 2228 
L 1259 2228 
L 1259 0 
L 628 0 
L 628 4666 
z
" transform="scale(0.015625)"/>
       <path id="DejaVuSans-44" d="M 1259 4147 
L 1259 519 
L 2022 519 
Q 2988 519 3436 956 
Q 3884 1394 3884 2338 
Q 3884 3275 3436 3711 
Q 2988 4147 2022 4147 
L 1259 4147 
z
M 628 4666 
L 1925 4666 
Q 3281 4666 3915 4102 
Q 4550 3538 4550 2338 
Q 4550 1131 3912 565 
Q 3275 0 1925 0 
L 628 0 
L 628 4666 
z
" transform="scale(0.015625)"/>
       <path id="DejaVuSans-4c" d="M 628 4666 
L 1259 4666 
L 1259 531 
L 3531 531 
L 3531 0 
L 628 0 
L 628 4666 
z
" transform="scale(0.015625)"/>
      </defs>
      <use xlink:href="#DejaVuSans-43"/>
      <use xlink:href="#DejaVuSans-57" x="69.824219"/>
      <use xlink:href="#DejaVuSans-42" x="168.701172"/>
      <use xlink:href="#DejaVuSans-5f" x="237.304688"/>
      <use xlink:href="#DejaVuSans-47" x="287.304688"/>
      <use xlink:href="#DejaVuSans-46" x="364.794922"/>
      <use xlink:href="#DejaVuSans-44" x="422.314453"/>
      <use xlink:href="#DejaVuSans-4c" x="499.316406"/>
      <use xlink:href="#DejaVuSans-20" x="555.029297"/>
      <use xlink:href="#DejaVuSans-66" x="586.816406"/>
      <use xlink:href="#DejaVuSans-6f" x="622.021484"/>
      <use xlink:href="#DejaVuSans-72" x="683.203125"/>
      <use xlink:href="#DejaVuSans-65" x="722.066406"/>
      <use xlink:href="#DejaVuSans-63" x="783.589844"/>
      <use xlink:href="#DejaVuSans-61" x="838.570312"/>
      <use xlink:href="#DejaVuSans-73" x="899.849609"/>
      <use xlink:href="#DejaVuSans-74" x="951.949219"/>
      <use xlink:href="#DejaVuSans-20" x="991.158203"/>
      <use xlink:href="#DejaVuSans-28" x="1022.945312"/>
      <use xlink:href="#DejaVuSans-52" x="1061.958984"/>
      <use xlink:href="#DejaVuSans-b2" x="1131.441406"/>
      <use xlink:href="#DejaVuSans-3a" x="1171.529297"/>
      <use xlink:href="#DejaVuSans-20" x="1205.220703"/>
      <use xlink:href="#DejaVuSans-30" x="1237.007812"/>
      <use xlink:href="#DejaVuSans-2e" x="1300.630859"/>
      <use xlink:href="#DejaVuSans-35" x="1332.417969"/>
      <use xlink:href="#DejaVuSans-2c" x="1396.041016"/>
      <use xlink:href="#DejaVuSans-20" x="1427.828125"/>
      <use xlink:href="#DejaVuSans-52" x="1459.615234"/>
      <use xlink:href="#DejaVuSans-52" x="1529.097656"/>
      <use xlink:href="#DejaVuSans-4d" x="1598.580078"/>
      <use xlink:href="#DejaVuSans-53" x="1684.859375"/>
      <use xlink:href="#DejaVuSans-45" x="1748.335938"/>
      <use xlink:href="#DejaVuSans-3a" x="1811.519531"/>
      <use xlink:href="#DejaVuSans-20" x="1845.210938"/>
      <use xlink:href="#DejaVuSans-39" x="1876.998047"/>
      <use xlink:href="#DejaVuSans-2e" x="1940.621094"/>
      <use xlink:href="#DejaVuSans-37" x="1972.408203"/>
      <use xlink:href="#DejaVuSans-25" x="2036.03125"/>
      <use xlink:href="#DejaVuSans-29" x="2131.050781"/>
     </g>
    </g>
   </g>
  </g>
  <g id="axes_3">
   <g id="patch_10">
    <path d="M 153 576.72 
L 584.181818 576.72 
L 584.181818 349.92 
L 153 349.92 
z
" style="fill: #ffffff"/>
   </g>
   <g id="matplotlib.axis_5">
    <g id="xtick_11">
     <g id="line2d_30">
      <g>
       <use xlink:href="#m696a776092" x="206.684693" y="576.72" style="stroke: #000000; stroke-width: 0.8"/>
      </g>
     </g>
     <g id="text_32">
      <!-- 1995 -->
      <g transform="translate(193.959693 591.318438) scale(0.1 -0.1)">
       <use xlink:href="#DejaVuSans-31"/>
       <use xlink:href="#DejaVuSans-39" x="63.623047"/>
       <use xlink:href="#DejaVuSans-39" x="127.246094"/>
       <use xlink:href="#DejaVuSans-35" x="190.869141"/>
      </g>
     </g>
    </g>
    <g id="xtick_12">
     <g id="line2d_31">
      <g>
       <use xlink:href="#m696a776092" x="291.898491" y="576.72" style="stroke: #000000; stroke-width: 0.8"/>
      </g>
     </g>
     <g id="text_33">
      <!-- 2000 -->
      <g transform="translate(279.173491 591.318438) scale(0.1 -0.1)">
       <use xlink:href="#DejaVuSans-32"/>
       <use xlink:href="#DejaVuSans-30" x="63.623047"/>
       <use xlink:href="#DejaVuSans-30" x="127.246094"/>
       <use xlink:href="#DejaVuSans-30" x="190.869141"/>
      </g>
     </g>
    </g>
    <g id="xtick_13">
     <g id="line2d_32">
      <g>
       <use xlink:href="#m696a776092" x="377.112289" y="576.72" style="stroke: #000000; stroke-width: 0.8"/>
      </g>
     </g>
     <g id="text_34">
      <!-- 2005 -->
      <g transform="translate(364.387289 591.318438) scale(0.1 -0.1)">
       <use xlink:href="#DejaVuSans-32"/>
       <use xlink:href="#DejaVuSans-30" x="63.623047"/>
       <use xlink:href="#DejaVuSans-30" x="127.246094"/>
       <use xlink:href="#DejaVuSans-35" x="190.869141"/>
      </g>
     </g>
    </g>
    <g id="xtick_14">
     <g id="line2d_33">
      <g>
       <use xlink:href="#m696a776092" x="462.326087" y="576.72" style="stroke: #000000; stroke-width: 0.8"/>
      </g>
     </g>
     <g id="text_35">
      <!-- 2010 -->
      <g transform="translate(449.601087 591.318438) scale(0.1 -0.1)">
       <use xlink:href="#DejaVuSans-32"/>
       <use xlink:href="#DejaVuSans-30" x="63.623047"/>
       <use xlink:href="#DejaVuSans-31" x="127.246094"/>
       <use xlink:href="#DejaVuSans-30" x="190.869141"/>
      </g>
     </g>
    </g>
    <g id="xtick_15">
     <g id="line2d_34">
      <g>
       <use xlink:href="#m696a776092" x="547.539885" y="576.72" style="stroke: #000000; stroke-width: 0.8"/>
      </g>
     </g>
     <g id="text_36">
      <!-- 2015 -->
      <g transform="translate(534.814885 591.318438) scale(0.1 -0.1)">
       <use xlink:href="#DejaVuSans-32"/>
       <use xlink:href="#DejaVuSans-30" x="63.623047"/>
       <use xlink:href="#DejaVuSans-31" x="127.246094"/>
       <use xlink:href="#DejaVuSans-35" x="190.869141"/>
      </g>
     </g>
    </g>
    <g id="text_37">
     <!-- Time [year] -->
     <g transform="translate(333.935284 606.51625) scale(0.12 -0.12)">
      <use xlink:href="#DejaVuSans-54"/>
      <use xlink:href="#DejaVuSans-69" x="57.958984"/>
      <use xlink:href="#DejaVuSans-6d" x="85.742188"/>
      <use xlink:href="#DejaVuSans-65" x="183.154297"/>
      <use xlink:href="#DejaVuSans-20" x="244.677734"/>
      <use xlink:href="#DejaVuSans-5b" x="276.464844"/>
      <use xlink:href="#DejaVuSans-79" x="315.478516"/>
      <use xlink:href="#DejaVuSans-65" x="374.658203"/>
      <use xlink:href="#DejaVuSans-61" x="436.181641"/>
      <use xlink:href="#DejaVuSans-72" x="497.460938"/>
      <use xlink:href="#DejaVuSans-5d" x="538.574219"/>
     </g>
    </g>
   </g>
   <g id="matplotlib.axis_6">
    <g id="ytick_13">
     <g id="line2d_35">
      <g>
       <use xlink:href="#mee22b54847" x="153" y="576.72" style="stroke: #000000; stroke-width: 0.8"/>
      </g>
     </g>
     <g id="text_38">
      <!-- −40 -->
      <g transform="translate(124.895313 580.519219) scale(0.1 -0.1)">
       <use xlink:href="#DejaVuSans-2212"/>
       <use xlink:href="#DejaVuSans-34" x="83.789062"/>
       <use xlink:href="#DejaVuSans-30" x="147.412109"/>
      </g>
     </g>
    </g>
    <g id="ytick_14">
     <g id="line2d_36">
      <g>
       <use xlink:href="#mee22b54847" x="153" y="531.36" style="stroke: #000000; stroke-width: 0.8"/>
      </g>
     </g>
     <g id="text_39">
      <!-- −20 -->
      <g transform="translate(124.895313 535.159219) scale(0.1 -0.1)">
       <use xlink:href="#DejaVuSans-2212"/>
       <use xlink:href="#DejaVuSans-32" x="83.789062"/>
       <use xlink:href="#DejaVuSans-30" x="147.412109"/>
      </g>
     </g>
    </g>
    <g id="ytick_15">
     <g id="line2d_37">
      <g>
       <use xlink:href="#mee22b54847" x="153" y="486" style="stroke: #000000; stroke-width: 0.8"/>
      </g>
     </g>
     <g id="text_40">
      <!-- 0 -->
      <g transform="translate(139.6375 489.799219) scale(0.1 -0.1)">
       <use xlink:href="#DejaVuSans-30"/>
      </g>
     </g>
    </g>
    <g id="ytick_16">
     <g id="line2d_38">
      <g>
       <use xlink:href="#mee22b54847" x="153" y="440.64" style="stroke: #000000; stroke-width: 0.8"/>
      </g>
     </g>
     <g id="text_41">
      <!-- 20 -->
      <g transform="translate(133.275 444.439219) scale(0.1 -0.1)">
       <use xlink:href="#DejaVuSans-32"/>
       <use xlink:href="#DejaVuSans-30" x="63.623047"/>
      </g>
     </g>
    </g>
    <g id="ytick_17">
     <g id="line2d_39">
      <g>
       <use xlink:href="#mee22b54847" x="153" y="395.28" style="stroke: #000000; stroke-width: 0.8"/>
      </g>
     </g>
     <g id="text_42">
      <!-- 40 -->
      <g transform="translate(133.275 399.079219) scale(0.1 -0.1)">
       <use xlink:href="#DejaVuSans-34"/>
       <use xlink:href="#DejaVuSans-30" x="63.623047"/>
      </g>
     </g>
    </g>
    <g id="ytick_18">
     <g id="line2d_40">
      <g>
       <use xlink:href="#mee22b54847" x="153" y="349.92" style="stroke: #000000; stroke-width: 0.8"/>
      </g>
     </g>
     <g id="text_43">
      <!-- 60 -->
      <g transform="translate(133.275 353.719219) scale(0.1 -0.1)">
       <use xlink:href="#DejaVuSans-36"/>
       <use xlink:href="#DejaVuSans-30" x="63.623047"/>
      </g>
     </g>
    </g>
    <g id="text_44">
     <!-- Variability [%] -->
     <g transform="translate(118.399687 505.449375) rotate(-90) scale(0.12 -0.12)">
      <use xlink:href="#DejaVuSans-56"/>
      <use xlink:href="#DejaVuSans-61" x="60.658203"/>
      <use xlink:href="#DejaVuSans-72" x="121.9375"/>
      <use xlink:href="#DejaVuSans-69" x="163.050781"/>
      <use xlink:href="#DejaVuSans-61" x="190.833984"/>
      <use xlink:href="#DejaVuSans-62" x="252.113281"/>
      <use xlink:href="#DejaVuSans-69" x="315.589844"/>
      <use xlink:href="#DejaVuSans-6c" x="343.373047"/>
      <use xlink:href="#DejaVuSans-69" x="371.15625"/>
      <use xlink:href="#DejaVuSans-74" x="398.939453"/>
      <use xlink:href="#DejaVuSans-79" x="438.148438"/>
      <use xlink:href="#DejaVuSans-20" x="497.328125"/>
      <use xlink:href="#DejaVuSans-5b" x="529.115234"/>
      <use xlink:href="#DejaVuSans-25" x="568.128906"/>
      <use xlink:href="#DejaVuSans-5d" x="663.148438"/>
     </g>
    </g>
   </g>
   <g id="line2d_41">
    <path d="M 172.599174 496.471552 
L 189.641933 481.886361 
L 206.684693 509.193633 
L 223.727452 476.708516 
L 240.770212 446.102974 
L 257.812972 487.572076 
L 274.855731 472.307854 
L 291.898491 475.72159 
L 308.94125 504.872436 
L 325.98401 522.285673 
L 343.02677 466.33164 
L 360.069529 464.827398 
L 377.112289 479.298226 
L 394.155049 472.936685 
L 411.197808 465.564758 
L 428.240568 551.921505 
L 445.283327 467.654215 
L 462.326087 396.188684 
L 479.368847 441.671227 
L 496.411606 503.606056 
L 513.454366 522.541844 
L 530.497125 507.207858 
L 547.539885 493.350441 
L 564.582645 471.029079 
" clip-path="url(#pf8acf20e20)" style="fill: none; stroke: #000000; stroke-width: 1.5; stroke-linecap: square"/>
   </g>
   <g id="line2d_42">
    <path d="M 172.599174 487.683503 
L 189.641933 477.219078 
L 206.684693 484.429744 
L 223.727452 493.176336 
L 240.770212 487.572419 
L 257.812972 486.284345 
L 274.855731 469.766558 
L 291.898491 490.850147 
L 308.94125 485.569432 
L 325.98401 508.442171 
L 343.02677 475.615944 
L 360.069529 497.461388 
L 377.112289 496.648982 
L 394.155049 472.979806 
L 411.197808 469.167085 
L 428.240568 494.165401 
L 445.283327 462.895388 
L 462.326087 382.767346 
L 479.368847 464.544016 
L 496.411606 484.035626 
L 513.454366 496.481395 
L 530.497125 491.088147 
L 547.539885 518.548381 
L 564.582645 489.944673 
" clip-path="url(#pf8acf20e20)" style="fill: none; stroke-dasharray: 7.4,3.2; stroke-dashoffset: 0; stroke: #008000; stroke-width: 2"/>
   </g>
   <g id="patch_11">
    <path d="M 153 576.72 
L 153 349.92 
" style="fill: none; stroke: #000000; stroke-width: 0.8; stroke-linejoin: miter; stroke-linecap: square"/>
   </g>
   <g id="patch_12">
    <path d="M 153 576.72 
L 584.181818 576.72 
" style="fill: none; stroke: #000000; stroke-width: 0.8; stroke-linejoin: miter; stroke-linecap: square"/>
   </g>
   <g id="text_45">
    <!-- c) Beginning of November -->
    <g transform="translate(153 343.92) scale(0.12 -0.12)">
     <use xlink:href="#DejaVuSans-63"/>
     <use xlink:href="#DejaVuSans-29" x="54.980469"/>
     <use xlink:href="#DejaVuSans-20" x="93.994141"/>
     <use xlink:href="#DejaVuSans-42" x="125.78125"/>
     <use xlink:href="#DejaVuSans-65" x="194.384766"/>
     <use xlink:href="#DejaVuSans-67" x="255.908203"/>
     <use xlink:href="#DejaVuSans-69" x="319.384766"/>
     <use xlink:href="#DejaVuSans-6e" x="347.167969"/>
     <use xlink:href="#DejaVuSans-6e" x="410.546875"/>
     <use xlink:href="#DejaVuSans-69" x="473.925781"/>
     <use xlink:href="#DejaVuSans-6e" x="501.708984"/>
     <use xlink:href="#DejaVuSans-67" x="565.087891"/>
     <use xlink:href="#DejaVuSans-20" x="628.564453"/>
     <use xlink:href="#DejaVuSans-6f" x="660.351562"/>
     <use xlink:href="#DejaVuSans-66" x="721.533203"/>
     <use xlink:href="#DejaVuSans-20" x="756.738281"/>
     <use xlink:href="#DejaVuSans-4e" x="788.525391"/>
     <use xlink:href="#DejaVuSans-6f" x="863.330078"/>
     <use xlink:href="#DejaVuSans-76" x="924.511719"/>
     <use xlink:href="#DejaVuSans-65" x="983.691406"/>
     <use xlink:href="#DejaVuSans-6d" x="1045.214844"/>
     <use xlink:href="#DejaVuSans-62" x="1142.626953"/>
     <use xlink:href="#DejaVuSans-65" x="1206.103516"/>
     <use xlink:href="#DejaVuSans-72" x="1267.626953"/>
    </g>
   </g>
   <g id="legend_3">
    <g id="patch_13">
     <path d="M 160.7 375.171875 
L 472.830156 375.171875 
Q 475.030156 375.171875 475.030156 372.971875 
L 475.030156 357.62 
Q 475.030156 355.42 472.830156 355.42 
L 160.7 355.42 
Q 158.5 355.42 158.5 357.62 
L 158.5 372.971875 
Q 158.5 375.171875 160.7 375.171875 
z
" style="fill: #ffffff; opacity: 0.8; stroke: #cccccc; stroke-linejoin: miter"/>
    </g>
    <g id="line2d_43">
     <path d="M 162.9 364.328281 
L 173.9 364.328281 
L 184.9 364.328281 
" style="fill: none; stroke-dasharray: 7.4,3.2; stroke-dashoffset: 0; stroke: #008000; stroke-width: 2"/>
    </g>
    <g id="text_46">
     <!-- ECCC_DWD_NASA forecast (R²: 0.5, RRMSE: 9.6%) -->
     <g transform="translate(193.7 368.178281) scale(0.11 -0.11)">
      <use xlink:href="#DejaVuSans-45"/>
      <use xlink:href="#DejaVuSans-43" x="63.183594"/>
      <use xlink:href="#DejaVuSans-43" x="133.007812"/>
      <use xlink:href="#DejaVuSans-43" x="202.832031"/>
      <use xlink:href="#DejaVuSans-5f" x="272.65625"/>
      <use xlink:href="#DejaVuSans-44" x="322.65625"/>
      <use xlink:href="#DejaVuSans-57" x="399.658203"/>
      <use xlink:href="#DejaVuSans-44" x="498.535156"/>
      <use xlink:href="#DejaVuSans-5f" x="575.537109"/>
      <use xlink:href="#DejaVuSans-4e" x="625.537109"/>
      <use xlink:href="#DejaVuSans-41" x="700.341797"/>
      <use xlink:href="#DejaVuSans-53" x="768.75"/>
      <use xlink:href="#DejaVuSans-41" x="834.101562"/>
      <use xlink:href="#DejaVuSans-20" x="902.509766"/>
      <use xlink:href="#DejaVuSans-66" x="934.296875"/>
      <use xlink:href="#DejaVuSans-6f" x="969.501953"/>
      <use xlink:href="#DejaVuSans-72" x="1030.683594"/>
      <use xlink:href="#DejaVuSans-65" x="1069.546875"/>
      <use xlink:href="#DejaVuSans-63" x="1131.070312"/>
      <use xlink:href="#DejaVuSans-61" x="1186.050781"/>
      <use xlink:href="#DejaVuSans-73" x="1247.330078"/>
      <use xlink:href="#DejaVuSans-74" x="1299.429688"/>
      <use xlink:href="#DejaVuSans-20" x="1338.638672"/>
      <use xlink:href="#DejaVuSans-28" x="1370.425781"/>
      <use xlink:href="#DejaVuSans-52" x="1409.439453"/>
      <use xlink:href="#DejaVuSans-b2" x="1478.921875"/>
      <use xlink:href="#DejaVuSans-3a" x="1519.009766"/>
      <use xlink:href="#DejaVuSans-20" x="1552.701172"/>
      <use xlink:href="#DejaVuSans-30" x="1584.488281"/>
      <use xlink:href="#DejaVuSans-2e" x="1648.111328"/>
      <use xlink:href="#DejaVuSans-35" x="1679.898438"/>
      <use xlink:href="#DejaVuSans-2c" x="1743.521484"/>
      <use xlink:href="#DejaVuSans-20" x="1775.308594"/>
      <use xlink:href="#DejaVuSans-52" x="1807.095703"/>
      <use xlink:href="#DejaVuSans-52" x="1876.578125"/>
      <use xlink:href="#DejaVuSans-4d" x="1946.060547"/>
      <use xlink:href="#DejaVuSans-53" x="2032.339844"/>
      <use xlink:href="#DejaVuSans-45" x="2095.816406"/>
      <use xlink:href="#DejaVuSans-3a" x="2159"/>
      <use xlink:href="#DejaVuSans-20" x="2192.691406"/>
      <use xlink:href="#DejaVuSans-39" x="2224.478516"/>
      <use xlink:href="#DejaVuSans-2e" x="2288.101562"/>
      <use xlink:href="#DejaVuSans-36" x="2319.888672"/>
      <use xlink:href="#DejaVuSans-25" x="2383.511719"/>
      <use xlink:href="#DejaVuSans-29" x="2478.53125"/>
     </g>
    </g>
   </g>
  </g>
  <g id="axes_4">
   <g id="patch_14">
    <path d="M 670.418182 576.72 
L 1101.6 576.72 
L 1101.6 349.92 
L 670.418182 349.92 
z
" style="fill: #ffffff"/>
   </g>
   <g id="matplotlib.axis_7">
    <g id="xtick_16">
     <g id="line2d_44">
      <g>
       <use xlink:href="#m696a776092" x="724.102875" y="576.72" style="stroke: #000000; stroke-width: 0.8"/>
      </g>
     </g>
     <g id="text_47">
      <!-- 1995 -->
      <g transform="translate(711.377875 591.318438) scale(0.1 -0.1)">
       <use xlink:href="#DejaVuSans-31"/>
       <use xlink:href="#DejaVuSans-39" x="63.623047"/>
       <use xlink:href="#DejaVuSans-39" x="127.246094"/>
       <use xlink:href="#DejaVuSans-35" x="190.869141"/>
      </g>
     </g>
    </g>
    <g id="xtick_17">
     <g id="line2d_45">
      <g>
       <use xlink:href="#m696a776092" x="809.316673" y="576.72" style="stroke: #000000; stroke-width: 0.8"/>
      </g>
     </g>
     <g id="text_48">
      <!-- 2000 -->
      <g transform="translate(796.591673 591.318438) scale(0.1 -0.1)">
       <use xlink:href="#DejaVuSans-32"/>
       <use xlink:href="#DejaVuSans-30" x="63.623047"/>
       <use xlink:href="#DejaVuSans-30" x="127.246094"/>
       <use xlink:href="#DejaVuSans-30" x="190.869141"/>
      </g>
     </g>
    </g>
    <g id="xtick_18">
     <g id="line2d_46">
      <g>
       <use xlink:href="#m696a776092" x="894.530471" y="576.72" style="stroke: #000000; stroke-width: 0.8"/>
      </g>
     </g>
     <g id="text_49">
      <!-- 2005 -->
      <g transform="translate(881.805471 591.318438) scale(0.1 -0.1)">
       <use xlink:href="#DejaVuSans-32"/>
       <use xlink:href="#DejaVuSans-30" x="63.623047"/>
       <use xlink:href="#DejaVuSans-30" x="127.246094"/>
       <use xlink:href="#DejaVuSans-35" x="190.869141"/>
      </g>
     </g>
    </g>
    <g id="xtick_19">
     <g id="line2d_47">
      <g>
       <use xlink:href="#m696a776092" x="979.744269" y="576.72" style="stroke: #000000; stroke-width: 0.8"/>
      </g>
     </g>
     <g id="text_50">
      <!-- 2010 -->
      <g transform="translate(967.019269 591.318438) scale(0.1 -0.1)">
       <use xlink:href="#DejaVuSans-32"/>
       <use xlink:href="#DejaVuSans-30" x="63.623047"/>
       <use xlink:href="#DejaVuSans-31" x="127.246094"/>
       <use xlink:href="#DejaVuSans-30" x="190.869141"/>
      </g>
     </g>
    </g>
    <g id="xtick_20">
     <g id="line2d_48">
      <g>
       <use xlink:href="#m696a776092" x="1064.958067" y="576.72" style="stroke: #000000; stroke-width: 0.8"/>
      </g>
     </g>
     <g id="text_51">
      <!-- 2015 -->
      <g transform="translate(1052.233067 591.318438) scale(0.1 -0.1)">
       <use xlink:href="#DejaVuSans-32"/>
       <use xlink:href="#DejaVuSans-30" x="63.623047"/>
       <use xlink:href="#DejaVuSans-31" x="127.246094"/>
       <use xlink:href="#DejaVuSans-35" x="190.869141"/>
      </g>
     </g>
    </g>
    <g id="text_52">
     <!-- Time [year] -->
     <g transform="translate(851.353466 606.51625) scale(0.12 -0.12)">
      <use xlink:href="#DejaVuSans-54"/>
      <use xlink:href="#DejaVuSans-69" x="57.958984"/>
      <use xlink:href="#DejaVuSans-6d" x="85.742188"/>
      <use xlink:href="#DejaVuSans-65" x="183.154297"/>
      <use xlink:href="#DejaVuSans-20" x="244.677734"/>
      <use xlink:href="#DejaVuSans-5b" x="276.464844"/>
      <use xlink:href="#DejaVuSans-79" x="315.478516"/>
      <use xlink:href="#DejaVuSans-65" x="374.658203"/>
      <use xlink:href="#DejaVuSans-61" x="436.181641"/>
      <use xlink:href="#DejaVuSans-72" x="497.460938"/>
      <use xlink:href="#DejaVuSans-5d" x="538.574219"/>
     </g>
    </g>
   </g>
   <g id="matplotlib.axis_8">
    <g id="ytick_19">
     <g id="line2d_49">
      <g>
       <use xlink:href="#mee22b54847" x="670.418182" y="576.72" style="stroke: #000000; stroke-width: 0.8"/>
      </g>
     </g>
     <g id="text_53">
      <!-- −40 -->
      <g transform="translate(642.313494 580.519219) scale(0.1 -0.1)">
       <use xlink:href="#DejaVuSans-2212"/>
       <use xlink:href="#DejaVuSans-34" x="83.789062"/>
       <use xlink:href="#DejaVuSans-30" x="147.412109"/>
      </g>
     </g>
    </g>
    <g id="ytick_20">
     <g id="line2d_50">
      <g>
       <use xlink:href="#mee22b54847" x="670.418182" y="531.36" style="stroke: #000000; stroke-width: 0.8"/>
      </g>
     </g>
     <g id="text_54">
      <!-- −20 -->
      <g transform="translate(642.313494 535.159219) scale(0.1 -0.1)">
       <use xlink:href="#DejaVuSans-2212"/>
       <use xlink:href="#DejaVuSans-32" x="83.789062"/>
       <use xlink:href="#DejaVuSans-30" x="147.412109"/>
      </g>
     </g>
    </g>
    <g id="ytick_21">
     <g id="line2d_51">
      <g>
       <use xlink:href="#mee22b54847" x="670.418182" y="486" style="stroke: #000000; stroke-width: 0.8"/>
      </g>
     </g>
     <g id="text_55">
      <!-- 0 -->
      <g transform="translate(657.055682 489.799219) scale(0.1 -0.1)">
       <use xlink:href="#DejaVuSans-30"/>
      </g>
     </g>
    </g>
    <g id="ytick_22">
     <g id="line2d_52">
      <g>
       <use xlink:href="#mee22b54847" x="670.418182" y="440.64" style="stroke: #000000; stroke-width: 0.8"/>
      </g>
     </g>
     <g id="text_56">
      <!-- 20 -->
      <g transform="translate(650.693182 444.439219) scale(0.1 -0.1)">
       <use xlink:href="#DejaVuSans-32"/>
       <use xlink:href="#DejaVuSans-30" x="63.623047"/>
      </g>
     </g>
    </g>
    <g id="ytick_23">
     <g id="line2d_53">
      <g>
       <use xlink:href="#mee22b54847" x="670.418182" y="395.28" style="stroke: #000000; stroke-width: 0.8"/>
      </g>
     </g>
     <g id="text_57">
      <!-- 40 -->
      <g transform="translate(650.693182 399.079219) scale(0.1 -0.1)">
       <use xlink:href="#DejaVuSans-34"/>
       <use xlink:href="#DejaVuSans-30" x="63.623047"/>
      </g>
     </g>
    </g>
    <g id="ytick_24">
     <g id="line2d_54">
      <g>
       <use xlink:href="#mee22b54847" x="670.418182" y="349.92" style="stroke: #000000; stroke-width: 0.8"/>
      </g>
     </g>
     <g id="text_58">
      <!-- 60 -->
      <g transform="translate(650.693182 353.719219) scale(0.1 -0.1)">
       <use xlink:href="#DejaVuSans-36"/>
       <use xlink:href="#DejaVuSans-30" x="63.623047"/>
      </g>
     </g>
    </g>
    <g id="text_59">
     <!-- Variability [%] -->
     <g transform="translate(635.817869 505.449375) rotate(-90) scale(0.12 -0.12)">
      <use xlink:href="#DejaVuSans-56"/>
      <use xlink:href="#DejaVuSans-61" x="60.658203"/>
      <use xlink:href="#DejaVuSans-72" x="121.9375"/>
      <use xlink:href="#DejaVuSans-69" x="163.050781"/>
      <use xlink:href="#DejaVuSans-61" x="190.833984"/>
      <use xlink:href="#DejaVuSans-62" x="252.113281"/>
      <use xlink:href="#DejaVuSans-69" x="315.589844"/>
      <use xlink:href="#DejaVuSans-6c" x="343.373047"/>
      <use xlink:href="#DejaVuSans-69" x="371.15625"/>
      <use xlink:href="#DejaVuSans-74" x="398.939453"/>
      <use xlink:href="#DejaVuSans-79" x="438.148438"/>
      <use xlink:href="#DejaVuSans-20" x="497.328125"/>
      <use xlink:href="#DejaVuSans-5b" x="529.115234"/>
      <use xlink:href="#DejaVuSans-25" x="568.128906"/>
      <use xlink:href="#DejaVuSans-5d" x="663.148438"/>
     </g>
    </g>
   </g>
   <g id="line2d_55">
    <path d="M 690.017355 496.471552 
L 707.060115 481.886361 
L 724.102875 509.193633 
L 741.145634 476.708516 
L 758.188394 446.102974 
L 775.231153 487.572076 
L 792.273913 472.307854 
L 809.316673 475.72159 
L 826.359432 504.872436 
L 843.402192 522.285673 
L 860.444951 466.33164 
L 877.487711 464.827398 
L 894.530471 479.298226 
L 911.57323 472.936685 
L 928.61599 465.564758 
L 945.65875 551.921505 
L 962.701509 467.654215 
L 979.744269 396.188684 
L 996.787028 441.671227 
L 1013.829788 503.606056 
L 1030.872548 522.541844 
L 1047.915307 507.207858 
L 1064.958067 493.350441 
L 1082.000826 471.029079 
" clip-path="url(#p867d1dfbdb)" style="fill: none; stroke: #000000; stroke-width: 1.5; stroke-linecap: square"/>
   </g>
   <g id="line2d_56">
    <path d="M 690.017355 503.089586 
L 707.060115 495.863032 
L 724.102875 471.514918 
L 741.145634 474.34544 
L 758.188394 470.754792 
L 775.231153 480.812082 
L 792.273913 488.800871 
L 809.316673 475.668755 
L 826.359432 510.619332 
L 843.402192 522.438733 
L 860.444951 477.369071 
L 877.487711 479.411952 
L 894.530471 484.964168 
L 911.57323 485.48471 
L 928.61599 474.849417 
L 945.65875 546.04338 
L 962.701509 453.457462 
L 979.744269 361.919178 
L 996.787028 452.593812 
L 1013.829788 475.246086 
L 1030.872548 516.356498 
L 1047.915307 487.124666 
L 1064.958067 490.899709 
L 1082.000826 482.687082 
" clip-path="url(#p867d1dfbdb)" style="fill: none; stroke-dasharray: 7.4,3.2; stroke-dashoffset: 0; stroke: #ff0000; stroke-width: 2"/>
   </g>
   <g id="patch_15">
    <path d="M 670.418182 576.72 
L 670.418182 349.92 
" style="fill: none; stroke: #000000; stroke-width: 0.8; stroke-linejoin: miter; stroke-linecap: square"/>
   </g>
   <g id="patch_16">
    <path d="M 670.418182 576.72 
L 1101.6 576.72 
" style="fill: none; stroke: #000000; stroke-width: 0.8; stroke-linejoin: miter; stroke-linecap: square"/>
   </g>
   <g id="text_60">
    <!-- d) Beginning of December -->
    <g transform="translate(670.418182 343.92) scale(0.12 -0.12)">
     <use xlink:href="#DejaVuSans-64"/>
     <use xlink:href="#DejaVuSans-29" x="63.476562"/>
     <use xlink:href="#DejaVuSans-20" x="102.490234"/>
     <use xlink:href="#DejaVuSans-42" x="134.277344"/>
     <use xlink:href="#DejaVuSans-65" x="202.880859"/>
     <use xlink:href="#DejaVuSans-67" x="264.404297"/>
     <use xlink:href="#DejaVuSans-69" x="327.880859"/>
     <use xlink:href="#DejaVuSans-6e" x="355.664062"/>
     <use xlink:href="#DejaVuSans-6e" x="419.042969"/>
     <use xlink:href="#DejaVuSans-69" x="482.421875"/>
     <use xlink:href="#DejaVuSans-6e" x="510.205078"/>
     <use xlink:href="#DejaVuSans-67" x="573.583984"/>
     <use xlink:href="#DejaVuSans-20" x="637.060547"/>
     <use xlink:href="#DejaVuSans-6f" x="668.847656"/>
     <use xlink:href="#DejaVuSans-66" x="730.029297"/>
     <use xlink:href="#DejaVuSans-20" x="765.234375"/>
     <use xlink:href="#DejaVuSans-44" x="797.021484"/>
     <use xlink:href="#DejaVuSans-65" x="874.023438"/>
     <use xlink:href="#DejaVuSans-63" x="935.546875"/>
     <use xlink:href="#DejaVuSans-65" x="990.527344"/>
     <use xlink:href="#DejaVuSans-6d" x="1052.050781"/>
     <use xlink:href="#DejaVuSans-62" x="1149.462891"/>
     <use xlink:href="#DejaVuSans-65" x="1212.939453"/>
     <use xlink:href="#DejaVuSans-72" x="1274.462891"/>
    </g>
   </g>
   <g id="legend_4">
    <g id="patch_17">
     <path d="M 678.118182 374.865937 
L 926.788651 374.865937 
Q 928.988651 374.865937 928.988651 372.665937 
L 928.988651 357.62 
Q 928.988651 355.42 926.788651 355.42 
L 678.118182 355.42 
Q 675.918182 355.42 675.918182 357.62 
L 675.918182 372.665937 
Q 675.918182 374.865937 678.118182 374.865937 
z
" style="fill: #ffffff; opacity: 0.8; stroke: #cccccc; stroke-linejoin: miter"/>
    </g>
    <g id="line2d_57">
     <path d="M 680.318182 364.328281 
L 691.318182 364.328281 
L 702.318182 364.328281 
" style="fill: none; stroke-dasharray: 7.4,3.2; stroke-dashoffset: 0; stroke: #ff0000; stroke-width: 2"/>
    </g>
    <g id="text_61">
     <!-- ERA-estimation (R²: 0.7, RRMSE: 7.1%) -->
     <g transform="translate(711.118182 368.178281) scale(0.11 -0.11)">
      <defs>
       <path id="DejaVuSans-2d" d="M 313 2009 
L 1997 2009 
L 1997 1497 
L 313 1497 
L 313 2009 
z
" transform="scale(0.015625)"/>
      </defs>
      <use xlink:href="#DejaVuSans-45"/>
      <use xlink:href="#DejaVuSans-52" x="63.183594"/>
      <use xlink:href="#DejaVuSans-41" x="128.666016"/>
      <use xlink:href="#DejaVuSans-2d" x="194.824219"/>
      <use xlink:href="#DejaVuSans-65" x="230.908203"/>
      <use xlink:href="#DejaVuSans-73" x="292.431641"/>
      <use xlink:href="#DejaVuSans-74" x="344.53125"/>
      <use xlink:href="#DejaVuSans-69" x="383.740234"/>
      <use xlink:href="#DejaVuSans-6d" x="411.523438"/>
      <use xlink:href="#DejaVuSans-61" x="508.935547"/>
      <use xlink:href="#DejaVuSans-74" x="570.214844"/>
      <use xlink:href="#DejaVuSans-69" x="609.423828"/>
      <use xlink:href="#DejaVuSans-6f" x="637.207031"/>
      <use xlink:href="#DejaVuSans-6e" x="698.388672"/>
      <use xlink:href="#DejaVuSans-20" x="761.767578"/>
      <use xlink:href="#DejaVuSans-28" x="793.554688"/>
      <use xlink:href="#DejaVuSans-52" x="832.568359"/>
      <use xlink:href="#DejaVuSans-b2" x="902.050781"/>
      <use xlink:href="#DejaVuSans-3a" x="942.138672"/>
      <use xlink:href="#DejaVuSans-20" x="975.830078"/>
      <use xlink:href="#DejaVuSans-30" x="1007.617188"/>
      <use xlink:href="#DejaVuSans-2e" x="1071.240234"/>
      <use xlink:href="#DejaVuSans-37" x="1103.027344"/>
      <use xlink:href="#DejaVuSans-2c" x="1166.650391"/>
      <use xlink:href="#DejaVuSans-20" x="1198.4375"/>
      <use xlink:href="#DejaVuSans-52" x="1230.224609"/>
      <use xlink:href="#DejaVuSans-52" x="1299.707031"/>
      <use xlink:href="#DejaVuSans-4d" x="1369.189453"/>
      <use xlink:href="#DejaVuSans-53" x="1455.46875"/>
      <use xlink:href="#DejaVuSans-45" x="1518.945312"/>
      <use xlink:href="#DejaVuSans-3a" x="1582.128906"/>
      <use xlink:href="#DejaVuSans-20" x="1615.820312"/>
      <use xlink:href="#DejaVuSans-37" x="1647.607422"/>
      <use xlink:href="#DejaVuSans-2e" x="1711.230469"/>
      <use xlink:href="#DejaVuSans-31" x="1743.017578"/>
      <use xlink:href="#DejaVuSans-25" x="1806.640625"/>
      <use xlink:href="#DejaVuSans-29" x="1901.660156"/>
     </g>
    </g>
   </g>
  </g>
 </g>
 <defs>
  <clipPath id="p6d64a23824">
   <rect x="153" y="77.76" width="431.181818" height="226.8"/>
  </clipPath>
  <clipPath id="p79c4f12b34">
   <rect x="670.418182" y="77.76" width="431.181818" height="226.8"/>
  </clipPath>
  <clipPath id="pf8acf20e20">
   <rect x="153" y="349.92" width="431.181818" height="226.8"/>
  </clipPath>
  <clipPath id="p867d1dfbdb">
   <rect x="670.418182" y="349.92" width="431.181818" height="226.8"/>
  </clipPath>
 </defs>
</svg>
