<?xml version="1.0" encoding="utf-8" standalone="no"?>
<!DOCTYPE svg PUBLIC "-//W3C//DTD SVG 1.1//EN"
  "http://www.w3.org/Graphics/SVG/1.1/DTD/svg11.dtd">
<svg xmlns:xlink="http://www.w3.org/1999/xlink" width="864pt" height="288pt" viewBox="0 0 864 288" xmlns="http://www.w3.org/2000/svg" version="1.1">
 <metadata>
  <rdf:RDF xmlns:dc="http://purl.org/dc/elements/1.1/" xmlns:cc="http://creativecommons.org/ns#" xmlns:rdf="http://www.w3.org/1999/02/22-rdf-syntax-ns#">
   <cc:Work>
    <dc:type rdf:resource="http://purl.org/dc/dcmitype/StillImage"/>
    <dc:date>2024-01-09T09:48:31.518952</dc:date>
    <dc:format>image/svg+xml</dc:format>
    <dc:creator>
     <cc:Agent>
      <dc:title>Matplotlib v3.7.1, https://matplotlib.org/</dc:title>
     </cc:Agent>
    </dc:creator>
   </cc:Work>
  </rdf:RDF>
 </metadata>
 <defs>
  <style type="text/css">*{stroke-linejoin: round; stroke-linecap: butt}</style>
 </defs>
 <g id="figure_1">
  <g id="patch_1">
   <path d="M 0 288 
L 864 288 
L 864 0 
L 0 0 
z
" style="fill: #ffffff"/>
  </g>
  <g id="axes_1">
   <g id="patch_2">
    <path d="M 53.03 245.93875 
L 420.760227 245.93875 
L 420.760227 25.44 
L 53.03 25.44 
z
" style="fill: #ffffff"/>
   </g>
   <g id="PolyCollection_1"/>
   <g id="PathCollection_1">
    <path d="M 74.901244 219.212966 
L 81.972312 212.141898 
L 74.901244 205.07083 
L 67.830176 212.141898 
z
" clip-path="url(#p9037b1c819)" style="fill: #808080; stroke: #000000; stroke-width: 0.5"/>
    <path d="M 135.149675 207.434352 
L 142.220742 200.363284 
L 135.149675 193.292216 
L 128.078607 200.363284 
z
" clip-path="url(#p9037b1c819)" style="fill: #808080; stroke: #000000; stroke-width: 0.5"/>
    <path d="M 136.812922 218.16364 
L 143.88399 211.092572 
L 136.812922 204.021504 
L 129.741854 211.092572 
z
" clip-path="url(#p9037b1c819)" style="fill: #808080; stroke: #000000; stroke-width: 0.5"/>
    <path d="M 164.939105 123.885477 
C 165.602113 123.885477 166.238055 123.622061 166.706872 123.153244 
C 167.175689 122.684427 167.439105 122.048485 167.439105 121.385477 
C 167.439105 120.722469 167.175689 120.086527 166.706872 119.61771 
C 166.238055 119.148893 165.602113 118.885477 164.939105 118.885477 
C 164.276097 118.885477 163.640156 119.148893 163.171338 119.61771 
C 162.702521 120.086527 162.439105 120.722469 162.439105 121.385477 
C 162.439105 122.048485 162.702521 122.684427 163.171338 123.153244 
C 163.640156 123.622061 164.276097 123.885477 164.939105 123.885477 
z
" clip-path="url(#p9037b1c819)" style="fill: #808080; stroke: #000000; stroke-width: 0.5"/>
    <path d="M 168.036666 165.104122 
C 168.699674 165.104122 169.335616 164.840706 169.804433 164.371889 
C 170.27325 163.903072 170.536666 163.26713 170.536666 162.604122 
C 170.536666 161.941115 170.27325 161.305173 169.804433 160.836355 
C 169.335616 160.367538 168.699674 160.104122 168.036666 160.104122 
C 167.373658 160.104122 166.737717 160.367538 166.268899 160.836355 
C 165.800082 161.305173 165.536666 161.941115 165.536666 162.604122 
C 165.536666 163.26713 165.800082 163.903072 166.268899 164.371889 
C 166.737717 164.840706 167.373658 165.104122 168.036666 165.104122 
z
" clip-path="url(#p9037b1c819)" style="fill: #808080; stroke: #000000; stroke-width: 0.5"/>
    <path d="M 171.92762 156.234362 
C 172.590628 156.234362 173.22657 155.970947 173.695387 155.502129 
C 174.164205 155.033312 174.42762 154.39737 174.42762 153.734362 
C 174.42762 153.071355 174.164205 152.435413 173.695387 151.966595 
C 173.22657 151.497778 172.590628 151.234362 171.92762 151.234362 
C 171.264613 151.234362 170.628671 151.497778 170.159853 151.966595 
C 169.691036 152.435413 169.42762 153.071355 169.42762 153.734362 
C 169.42762 154.39737 169.691036 155.033312 170.159853 155.502129 
C 170.628671 155.970947 171.264613 156.234362 171.92762 156.234362 
z
" clip-path="url(#p9037b1c819)" style="fill: #808080; stroke: #000000; stroke-width: 0.5"/>
    <path d="M 175.192786 152.126646 
C 175.855794 152.126646 176.491736 151.863231 176.960553 151.394413 
C 177.429371 150.925596 177.692786 150.289654 177.692786 149.626646 
C 177.692786 148.963639 177.429371 148.327697 176.960553 147.85888 
C 176.491736 147.390062 175.855794 147.126646 175.192786 147.126646 
C 174.529779 147.126646 173.893837 147.390062 173.425019 147.85888 
C 172.956202 148.327697 172.692786 148.963639 172.692786 149.626646 
C 172.692786 150.289654 172.956202 150.925596 173.425019 151.394413 
C 173.893837 151.863231 174.529779 152.126646 175.192786 152.126646 
z
" clip-path="url(#p9037b1c819)" style="fill: #808080; stroke: #000000; stroke-width: 0.5"/>
    <path d="M 190.572436 168.600167 
C 191.235444 168.600167 191.871385 168.336751 192.340203 167.867934 
C 192.80902 167.399117 193.072436 166.763175 193.072436 166.100167 
C 193.072436 165.437159 192.80902 164.801217 192.340203 164.3324 
C 191.871385 163.863583 191.235444 163.600167 190.572436 163.600167 
C 189.909428 163.600167 189.273486 163.863583 188.804669 164.3324 
C 188.335852 164.801217 188.072436 165.437159 188.072436 166.100167 
C 188.072436 166.763175 188.335852 167.399117 188.804669 167.867934 
C 189.273486 168.336751 189.909428 168.600167 190.572436 168.600167 
z
" clip-path="url(#p9037b1c819)" style="fill: #808080; stroke: #000000; stroke-width: 0.5"/>
    <path d="M 197.020299 146.287546 
C 197.683307 146.287546 198.319249 146.02413 198.788066 145.555313 
C 199.256883 145.086496 199.520299 144.450554 199.520299 143.787546 
C 199.520299 143.124538 199.256883 142.488596 198.788066 142.019779 
C 198.319249 141.550962 197.683307 141.287546 197.020299 141.287546 
C 196.357291 141.287546 195.721349 141.550962 195.252532 142.019779 
C 194.783715 142.488596 194.520299 143.124538 194.520299 143.787546 
C 194.520299 144.450554 194.783715 145.086496 195.252532 145.555313 
C 195.721349 146.02413 196.357291 146.287546 197.020299 146.287546 
z
" clip-path="url(#p9037b1c819)" style="fill: #808080; stroke: #000000; stroke-width: 0.5"/>
    <path d="M 210.219528 153.036299 
C 210.882536 153.036299 211.518478 152.772883 211.987295 152.304066 
C 212.456112 151.835249 212.719528 151.199307 212.719528 150.536299 
C 212.719528 149.873291 212.456112 149.237349 211.987295 148.768532 
C 211.518478 148.299715 210.882536 148.036299 210.219528 148.036299 
C 209.55652 148.036299 208.920578 148.299715 208.451761 148.768532 
C 207.982944 149.237349 207.719528 149.873291 207.719528 150.536299 
C 207.719528 151.199307 207.982944 151.835249 208.451761 152.304066 
C 208.920578 152.772883 209.55652 153.036299 210.219528 153.036299 
z
" clip-path="url(#p9037b1c819)" style="fill: #808080; stroke: #000000; stroke-width: 0.5"/>
    <path d="M 222.649973 158.43487 
C 223.312981 158.43487 223.948922 158.171454 224.41774 157.702637 
C 224.886557 157.233819 225.149973 156.597877 225.149973 155.93487 
C 225.149973 155.271862 224.886557 154.63592 224.41774 154.167103 
C 223.948922 153.698285 223.312981 153.43487 222.649973 153.43487 
C 221.986965 153.43487 221.351023 153.698285 220.882206 154.167103 
C 220.413389 154.63592 220.149973 155.271862 220.149973 155.93487 
C 220.149973 156.597877 220.413389 157.233819 220.882206 157.702637 
C 221.351023 158.171454 221.986965 158.43487 222.649973 158.43487 
z
" clip-path="url(#p9037b1c819)" style="fill: #808080; stroke: #000000; stroke-width: 0.5"/>
    <path d="M 227.7633 153.705211 
C 228.426308 153.705211 229.06225 153.441795 229.531067 152.972978 
C 229.999885 152.504161 230.2633 151.868219 230.2633 151.205211 
C 230.2633 150.542203 229.999885 149.906262 229.531067 149.437444 
C 229.06225 148.968627 228.426308 148.705211 227.7633 148.705211 
C 227.100293 148.705211 226.464351 148.968627 225.995533 149.437444 
C 225.526716 149.906262 225.2633 150.542203 225.2633 151.205211 
C 225.2633 151.868219 225.526716 152.504161 225.995533 152.972978 
C 226.464351 153.441795 227.100293 153.705211 227.7633 153.705211 
z
" clip-path="url(#p9037b1c819)" style="fill: #808080; stroke: #000000; stroke-width: 0.5"/>
    <path d="M 233.635164 140.537677 
C 234.298171 140.537677 234.934113 140.274261 235.40293 139.805444 
C 235.871748 139.336626 236.135164 138.700684 236.135164 138.037677 
C 236.135164 137.374669 235.871748 136.738727 235.40293 136.26991 
C 234.934113 135.801092 234.298171 135.537677 233.635164 135.537677 
C 232.972156 135.537677 232.336214 135.801092 231.867397 136.26991 
C 231.398579 136.738727 231.135164 137.374669 231.135164 138.037677 
C 231.135164 138.700684 231.398579 139.336626 231.867397 139.805444 
C 232.336214 140.274261 232.972156 140.537677 233.635164 140.537677 
z
" clip-path="url(#p9037b1c819)" style="fill: #808080; stroke: #000000; stroke-width: 0.5"/>
    <path d="M 233.954337 136.586402 
C 234.617344 136.586402 235.253286 136.322987 235.722104 135.854169 
C 236.190921 135.385352 236.454337 134.74941 236.454337 134.086402 
C 236.454337 133.423395 236.190921 132.787453 235.722104 132.318635 
C 235.253286 131.849818 234.617344 131.586402 233.954337 131.586402 
C 233.291329 131.586402 232.655387 131.849818 232.18657 132.318635 
C 231.717752 132.787453 231.454337 133.423395 231.454337 134.086402 
C 231.454337 134.74941 231.717752 135.385352 232.18657 135.854169 
C 232.655387 136.322987 233.291329 136.586402 233.954337 136.586402 
z
" clip-path="url(#p9037b1c819)" style="fill: #808080; stroke: #000000; stroke-width: 0.5"/>
    <path d="M 241.370541 150.220062 
C 242.033549 150.220062 242.669491 149.956646 243.138308 149.487828 
C 243.607125 149.019011 243.870541 148.383069 243.870541 147.720062 
C 243.870541 147.057054 243.607125 146.421112 243.138308 145.952295 
C 242.669491 145.483477 242.033549 145.220062 241.370541 145.220062 
C 240.707534 145.220062 240.071592 145.483477 239.602774 145.952295 
C 239.133957 146.421112 238.870541 147.057054 238.870541 147.720062 
C 238.870541 148.383069 239.133957 149.019011 239.602774 149.487828 
C 240.071592 149.956646 240.707534 150.220062 241.370541 150.220062 
z
" clip-path="url(#p9037b1c819)" style="fill: #808080; stroke: #000000; stroke-width: 0.5"/>
    <path d="M 241.903321 132.056286 
C 242.566329 132.056286 243.202271 131.79287 243.671088 131.324053 
C 244.139905 130.855236 244.403321 130.219294 244.403321 129.556286 
C 244.403321 128.893278 244.139905 128.257336 243.671088 127.788519 
C 243.202271 127.319702 242.566329 127.056286 241.903321 127.056286 
C 241.240313 127.056286 240.604371 127.319702 240.135554 127.788519 
C 239.666737 128.257336 239.403321 128.893278 239.403321 129.556286 
C 239.403321 130.219294 239.666737 130.855236 240.135554 131.324053 
C 240.604371 131.79287 241.240313 132.056286 241.903321 132.056286 
z
" clip-path="url(#p9037b1c819)" style="fill: #808080; stroke: #000000; stroke-width: 0.5"/>
    <path d="M 244.215713 146.222668 
C 244.87872 146.222668 245.514662 145.959252 245.98348 145.490435 
C 246.452297 145.021617 246.715713 144.385675 246.715713 143.722668 
C 246.715713 143.05966 246.452297 142.423718 245.98348 141.954901 
C 245.514662 141.486083 244.87872 141.222668 244.215713 141.222668 
C 243.552705 141.222668 242.916763 141.486083 242.447946 141.954901 
C 241.979128 142.423718 241.715713 143.05966 241.715713 143.722668 
C 241.715713 144.385675 241.979128 145.021617 242.447946 145.490435 
C 242.916763 145.959252 243.552705 146.222668 244.215713 146.222668 
z
" clip-path="url(#p9037b1c819)" style="fill: #808080; stroke: #000000; stroke-width: 0.5"/>
    <path d="M 252.963927 122.921026 
C 253.626934 122.921026 254.262876 122.65761 254.731693 122.188793 
C 255.200511 121.719976 255.463927 121.084034 255.463927 120.421026 
C 255.463927 119.758018 255.200511 119.122076 254.731693 118.653259 
C 254.262876 118.184442 253.626934 117.921026 252.963927 117.921026 
C 252.300919 117.921026 251.664977 118.184442 251.19616 118.653259 
C 250.727342 119.122076 250.463927 119.758018 250.463927 120.421026 
C 250.463927 121.084034 250.727342 121.719976 251.19616 122.188793 
C 251.664977 122.65761 252.300919 122.921026 252.963927 122.921026 
z
" clip-path="url(#p9037b1c819)" style="fill: #808080; stroke: #000000; stroke-width: 0.5"/>
    <path d="M 253.402748 129.173459 
C 254.065756 129.173459 254.701698 128.910043 255.170515 128.441226 
C 255.639332 127.972409 255.902748 127.336467 255.902748 126.673459 
C 255.902748 126.010451 255.639332 125.37451 255.170515 124.905692 
C 254.701698 124.436875 254.065756 124.173459 253.402748 124.173459 
C 252.73974 124.173459 252.103798 124.436875 251.634981 124.905692 
C 251.166164 125.37451 250.902748 126.010451 250.902748 126.673459 
C 250.902748 127.336467 251.166164 127.972409 251.634981 128.441226 
C 252.103798 128.910043 252.73974 129.173459 253.402748 129.173459 
z
" clip-path="url(#p9037b1c819)" style="fill: #808080; stroke: #000000; stroke-width: 0.5"/>
    <path d="M 256.267825 133.746566 
C 256.930833 133.746566 257.566775 133.483151 258.035592 133.014333 
C 258.504409 132.545516 258.767825 131.909574 258.767825 131.246566 
C 258.767825 130.583559 258.504409 129.947617 258.035592 129.478799 
C 257.566775 129.009982 256.930833 128.746566 256.267825 128.746566 
C 255.604817 128.746566 254.968875 129.009982 254.500058 129.478799 
C 254.031241 129.947617 253.767825 130.583559 253.767825 131.246566 
C 253.767825 131.909574 254.031241 132.545516 254.500058 133.014333 
C 254.968875 133.483151 255.604817 133.746566 256.267825 133.746566 
z
" clip-path="url(#p9037b1c819)" style="fill: #808080; stroke: #000000; stroke-width: 0.5"/>
    <path d="M 257.424301 140.369205 
C 258.087309 140.369205 258.723251 140.10579 259.192068 139.636972 
C 259.660885 139.168155 259.924301 138.532213 259.924301 137.869205 
C 259.924301 137.206198 259.660885 136.570256 259.192068 136.101439 
C 258.723251 135.632621 258.087309 135.369205 257.424301 135.369205 
C 256.761293 135.369205 256.125352 135.632621 255.656534 136.101439 
C 255.187717 136.570256 254.924301 137.206198 254.924301 137.869205 
C 254.924301 138.532213 255.187717 139.168155 255.656534 139.636972 
C 256.125352 140.10579 256.761293 140.369205 257.424301 140.369205 
z
" clip-path="url(#p9037b1c819)" style="fill: #808080; stroke: #000000; stroke-width: 0.5"/>
    <path d="M 294.073642 147.108436 
L 296.573642 144.608436 
L 299.073642 147.108436 
L 301.573642 144.608436 
L 299.073642 142.108436 
L 301.573642 139.608436 
L 299.073642 137.108436 
L 296.573642 139.608436 
L 294.073642 137.108436 
L 291.573642 139.608436 
L 294.073642 142.108436 
L 291.573642 144.608436 
z
" clip-path="url(#p9037b1c819)" style="fill: #808080; stroke: #000000; stroke-width: 0.5"/>
    <path d="M 303.750124 95.487995 
L 306.250124 92.987995 
L 308.750124 95.487995 
L 311.250124 92.987995 
L 308.750124 90.487995 
L 311.250124 87.987995 
L 308.750124 85.487995 
L 306.250124 87.987995 
L 303.750124 85.487995 
L 301.250124 87.987995 
L 303.750124 90.487995 
L 301.250124 92.987995 
z
" clip-path="url(#p9037b1c819)" style="fill: #808080; stroke: #000000; stroke-width: 0.5"/>
    <path d="M 398.328685 86.648635 
L 400.828685 84.148635 
L 403.328685 86.648635 
L 405.828685 84.148635 
L 403.328685 81.648635 
L 405.828685 79.148635 
L 403.328685 76.648635 
L 400.828685 79.148635 
L 398.328685 76.648635 
L 395.828685 79.148635 
L 398.328685 81.648635 
L 395.828685 84.148635 
z
" clip-path="url(#p9037b1c819)" style="fill: #808080; stroke: #000000; stroke-width: 0.5"/>
   </g>
   <g id="PathCollection_2"/>
   <g id="PathCollection_3"/>
   <g id="PathCollection_4"/>
   <g id="matplotlib.axis_1">
    <g id="xtick_1">
     <g id="line2d_1">
      <defs>
       <path id="m9eeb8e2e21" d="M 0 0 
L 0 3.5 
" style="stroke: #000000; stroke-width: 0.8"/>
      </defs>
      <g>
       <use xlink:href="#m9eeb8e2e21" x="69.74501" y="245.93875" style="stroke: #000000; stroke-width: 0.8"/>
      </g>
     </g>
     <g id="text_1">
      <!-- −30 -->
      <g transform="translate(59.192667 260.537188) scale(0.1 -0.1)">
       <defs>
        <path id="DejaVuSans-2212" d="M 678 2272 
L 4684 2272 
L 4684 1741 
L 678 1741 
L 678 2272 
z
" transform="scale(0.015625)"/>
        <path id="DejaVuSans-33" d="M 2597 2516 
Q 3050 2419 3304 2112 
Q 3559 1806 3559 1356 
Q 3559 666 3084 287 
Q 2609 -91 1734 -91 
Q 1441 -91 1130 -33 
Q 819 25 488 141 
L 488 750 
Q 750 597 1062 519 
Q 1375 441 1716 441 
Q 2309 441 2620 675 
Q 2931 909 2931 1356 
Q 2931 1769 2642 2001 
Q 2353 2234 1838 2234 
L 1294 2234 
L 1294 2753 
L 1863 2753 
Q 2328 2753 2575 2939 
Q 2822 3125 2822 3475 
Q 2822 3834 2567 4026 
Q 2313 4219 1838 4219 
Q 1578 4219 1281 4162 
Q 984 4106 628 3988 
L 628 4550 
Q 988 4650 1302 4700 
Q 1616 4750 1894 4750 
Q 2613 4750 3031 4423 
Q 3450 4097 3450 3541 
Q 3450 3153 3228 2886 
Q 3006 2619 2597 2516 
z
" transform="scale(0.015625)"/>
        <path id="DejaVuSans-30" d="M 2034 4250 
Q 1547 4250 1301 3770 
Q 1056 3291 1056 2328 
Q 1056 1369 1301 889 
Q 1547 409 2034 409 
Q 2525 409 2770 889 
Q 3016 1369 3016 2328 
Q 3016 3291 2770 3770 
Q 2525 4250 2034 4250 
z
M 2034 4750 
Q 2819 4750 3233 4129 
Q 3647 3509 3647 2328 
Q 3647 1150 3233 529 
Q 2819 -91 2034 -91 
Q 1250 -91 836 529 
Q 422 1150 422 2328 
Q 422 3509 836 4129 
Q 1250 4750 2034 4750 
z
" transform="scale(0.015625)"/>
       </defs>
       <use xlink:href="#DejaVuSans-2212"/>
       <use xlink:href="#DejaVuSans-33" x="83.789062"/>
       <use xlink:href="#DejaVuSans-30" x="147.412109"/>
      </g>
     </g>
    </g>
    <g id="xtick_2">
     <g id="line2d_2">
      <g>
       <use xlink:href="#m9eeb8e2e21" x="117.502183" y="245.93875" style="stroke: #000000; stroke-width: 0.8"/>
      </g>
     </g>
     <g id="text_2">
      <!-- −20 -->
      <g transform="translate(106.949839 260.537188) scale(0.1 -0.1)">
       <defs>
        <path id="DejaVuSans-32" d="M 1228 531 
L 3431 531 
L 3431 0 
L 469 0 
L 469 531 
Q 828 903 1448 1529 
Q 2069 2156 2228 2338 
Q 2531 2678 2651 2914 
Q 2772 3150 2772 3378 
Q 2772 3750 2511 3984 
Q 2250 4219 1831 4219 
Q 1534 4219 1204 4116 
Q 875 4013 500 3803 
L 500 4441 
Q 881 4594 1212 4672 
Q 1544 4750 1819 4750 
Q 2544 4750 2975 4387 
Q 3406 4025 3406 3419 
Q 3406 3131 3298 2873 
Q 3191 2616 2906 2266 
Q 2828 2175 2409 1742 
Q 1991 1309 1228 531 
z
" transform="scale(0.015625)"/>
       </defs>
       <use xlink:href="#DejaVuSans-2212"/>
       <use xlink:href="#DejaVuSans-32" x="83.789062"/>
       <use xlink:href="#DejaVuSans-30" x="147.412109"/>
      </g>
     </g>
    </g>
    <g id="xtick_3">
     <g id="line2d_3">
      <g>
       <use xlink:href="#m9eeb8e2e21" x="165.259355" y="245.93875" style="stroke: #000000; stroke-width: 0.8"/>
      </g>
     </g>
     <g id="text_3">
      <!-- −10 -->
      <g transform="translate(154.707011 260.537188) scale(0.1 -0.1)">
       <defs>
        <path id="DejaVuSans-31" d="M 794 531 
L 1825 531 
L 1825 4091 
L 703 3866 
L 703 4441 
L 1819 4666 
L 2450 4666 
L 2450 531 
L 3481 531 
L 3481 0 
L 794 0 
L 794 531 
z
" transform="scale(0.015625)"/>
       </defs>
       <use xlink:href="#DejaVuSans-2212"/>
       <use xlink:href="#DejaVuSans-31" x="83.789062"/>
       <use xlink:href="#DejaVuSans-30" x="147.412109"/>
      </g>
     </g>
    </g>
    <g id="xtick_4">
     <g id="line2d_4">
      <g>
       <use xlink:href="#m9eeb8e2e21" x="213.016527" y="245.93875" style="stroke: #000000; stroke-width: 0.8"/>
      </g>
     </g>
     <g id="text_4">
      <!-- 0 -->
      <g transform="translate(209.835277 260.537188) scale(0.1 -0.1)">
       <use xlink:href="#DejaVuSans-30"/>
      </g>
     </g>
    </g>
    <g id="xtick_5">
     <g id="line2d_5">
      <g>
       <use xlink:href="#m9eeb8e2e21" x="260.7737" y="245.93875" style="stroke: #000000; stroke-width: 0.8"/>
      </g>
     </g>
     <g id="text_5">
      <!-- 10 -->
      <g transform="translate(254.4112 260.537188) scale(0.1 -0.1)">
       <use xlink:href="#DejaVuSans-31"/>
       <use xlink:href="#DejaVuSans-30" x="63.623047"/>
      </g>
     </g>
    </g>
    <g id="xtick_6">
     <g id="line2d_6">
      <g>
       <use xlink:href="#m9eeb8e2e21" x="308.530872" y="245.93875" style="stroke: #000000; stroke-width: 0.8"/>
      </g>
     </g>
     <g id="text_6">
      <!-- 20 -->
      <g transform="translate(302.168372 260.537188) scale(0.1 -0.1)">
       <use xlink:href="#DejaVuSans-32"/>
       <use xlink:href="#DejaVuSans-30" x="63.623047"/>
      </g>
     </g>
    </g>
    <g id="xtick_7">
     <g id="line2d_7">
      <g>
       <use xlink:href="#m9eeb8e2e21" x="356.288045" y="245.93875" style="stroke: #000000; stroke-width: 0.8"/>
      </g>
     </g>
     <g id="text_7">
      <!-- 30 -->
      <g transform="translate(349.925545 260.537188) scale(0.1 -0.1)">
       <use xlink:href="#DejaVuSans-33"/>
       <use xlink:href="#DejaVuSans-30" x="63.623047"/>
      </g>
     </g>
    </g>
    <g id="xtick_8">
     <g id="line2d_8">
      <g>
       <use xlink:href="#m9eeb8e2e21" x="404.045217" y="245.93875" style="stroke: #000000; stroke-width: 0.8"/>
      </g>
     </g>
     <g id="text_8">
      <!-- 40 -->
      <g transform="translate(397.682717 260.537188) scale(0.1 -0.1)">
       <defs>
        <path id="DejaVuSans-34" d="M 2419 4116 
L 825 1625 
L 2419 1625 
L 2419 4116 
z
M 2253 4666 
L 3047 4666 
L 3047 1625 
L 3713 1625 
L 3713 1100 
L 3047 1100 
L 3047 0 
L 2419 0 
L 2419 1100 
L 313 1100 
L 313 1709 
L 2253 4666 
z
" transform="scale(0.015625)"/>
       </defs>
       <use xlink:href="#DejaVuSans-34"/>
       <use xlink:href="#DejaVuSans-30" x="63.623047"/>
      </g>
     </g>
    </g>
    <g id="text_9">
     <!-- Observed yield variability [%] -->
     <g transform="translate(162.637301 274.215312) scale(0.1 -0.1)">
      <defs>
       <path id="DejaVuSans-4f" d="M 2522 4238 
Q 1834 4238 1429 3725 
Q 1025 3213 1025 2328 
Q 1025 1447 1429 934 
Q 1834 422 2522 422 
Q 3209 422 3611 934 
Q 4013 1447 4013 2328 
Q 4013 3213 3611 3725 
Q 3209 4238 2522 4238 
z
M 2522 4750 
Q 3503 4750 4090 4092 
Q 4678 3434 4678 2328 
Q 4678 1225 4090 567 
Q 3503 -91 2522 -91 
Q 1538 -91 948 565 
Q 359 1222 359 2328 
Q 359 3434 948 4092 
Q 1538 4750 2522 4750 
z
" transform="scale(0.015625)"/>
       <path id="DejaVuSans-62" d="M 3116 1747 
Q 3116 2381 2855 2742 
Q 2594 3103 2138 3103 
Q 1681 3103 1420 2742 
Q 1159 2381 1159 1747 
Q 1159 1113 1420 752 
Q 1681 391 2138 391 
Q 2594 391 2855 752 
Q 3116 1113 3116 1747 
z
M 1159 2969 
Q 1341 3281 1617 3432 
Q 1894 3584 2278 3584 
Q 2916 3584 3314 3078 
Q 3713 2572 3713 1747 
Q 3713 922 3314 415 
Q 2916 -91 2278 -91 
Q 1894 -91 1617 61 
Q 1341 213 1159 525 
L 1159 0 
L 581 0 
L 581 4863 
L 1159 4863 
L 1159 2969 
z
" transform="scale(0.015625)"/>
       <path id="DejaVuSans-73" d="M 2834 3397 
L 2834 2853 
Q 2591 2978 2328 3040 
Q 2066 3103 1784 3103 
Q 1356 3103 1142 2972 
Q 928 2841 928 2578 
Q 928 2378 1081 2264 
Q 1234 2150 1697 2047 
L 1894 2003 
Q 2506 1872 2764 1633 
Q 3022 1394 3022 966 
Q 3022 478 2636 193 
Q 2250 -91 1575 -91 
Q 1294 -91 989 -36 
Q 684 19 347 128 
L 347 722 
Q 666 556 975 473 
Q 1284 391 1588 391 
Q 1994 391 2212 530 
Q 2431 669 2431 922 
Q 2431 1156 2273 1281 
Q 2116 1406 1581 1522 
L 1381 1569 
Q 847 1681 609 1914 
Q 372 2147 372 2553 
Q 372 3047 722 3315 
Q 1072 3584 1716 3584 
Q 2034 3584 2315 3537 
Q 2597 3491 2834 3397 
z
" transform="scale(0.015625)"/>
       <path id="DejaVuSans-65" d="M 3597 1894 
L 3597 1613 
L 953 1613 
Q 991 1019 1311 708 
Q 1631 397 2203 397 
Q 2534 397 2845 478 
Q 3156 559 3463 722 
L 3463 178 
Q 3153 47 2828 -22 
Q 2503 -91 2169 -91 
Q 1331 -91 842 396 
Q 353 884 353 1716 
Q 353 2575 817 3079 
Q 1281 3584 2069 3584 
Q 2775 3584 3186 3129 
Q 3597 2675 3597 1894 
z
M 3022 2063 
Q 3016 2534 2758 2815 
Q 2500 3097 2075 3097 
Q 1594 3097 1305 2825 
Q 1016 2553 972 2059 
L 3022 2063 
z
" transform="scale(0.015625)"/>
       <path id="DejaVuSans-72" d="M 2631 2963 
Q 2534 3019 2420 3045 
Q 2306 3072 2169 3072 
Q 1681 3072 1420 2755 
Q 1159 2438 1159 1844 
L 1159 0 
L 581 0 
L 581 3500 
L 1159 3500 
L 1159 2956 
Q 1341 3275 1631 3429 
Q 1922 3584 2338 3584 
Q 2397 3584 2469 3576 
Q 2541 3569 2628 3553 
L 2631 2963 
z
" transform="scale(0.015625)"/>
       <path id="DejaVuSans-76" d="M 191 3500 
L 800 3500 
L 1894 563 
L 2988 3500 
L 3597 3500 
L 2284 0 
L 1503 0 
L 191 3500 
z
" transform="scale(0.015625)"/>
       <path id="DejaVuSans-64" d="M 2906 2969 
L 2906 4863 
L 3481 4863 
L 3481 0 
L 2906 0 
L 2906 525 
Q 2725 213 2448 61 
Q 2172 -91 1784 -91 
Q 1150 -91 751 415 
Q 353 922 353 1747 
Q 353 2572 751 3078 
Q 1150 3584 1784 3584 
Q 2172 3584 2448 3432 
Q 2725 3281 2906 2969 
z
M 947 1747 
Q 947 1113 1208 752 
Q 1469 391 1925 391 
Q 2381 391 2643 752 
Q 2906 1113 2906 1747 
Q 2906 2381 2643 2742 
Q 2381 3103 1925 3103 
Q 1469 3103 1208 2742 
Q 947 2381 947 1747 
z
" transform="scale(0.015625)"/>
       <path id="DejaVuSans-20" transform="scale(0.015625)"/>
       <path id="DejaVuSans-79" d="M 2059 -325 
Q 1816 -950 1584 -1140 
Q 1353 -1331 966 -1331 
L 506 -1331 
L 506 -850 
L 844 -850 
Q 1081 -850 1212 -737 
Q 1344 -625 1503 -206 
L 1606 56 
L 191 3500 
L 800 3500 
L 1894 763 
L 2988 3500 
L 3597 3500 
L 2059 -325 
z
" transform="scale(0.015625)"/>
       <path id="DejaVuSans-69" d="M 603 3500 
L 1178 3500 
L 1178 0 
L 603 0 
L 603 3500 
z
M 603 4863 
L 1178 4863 
L 1178 4134 
L 603 4134 
L 603 4863 
z
" transform="scale(0.015625)"/>
       <path id="DejaVuSans-6c" d="M 603 4863 
L 1178 4863 
L 1178 0 
L 603 0 
L 603 4863 
z
" transform="scale(0.015625)"/>
       <path id="DejaVuSans-61" d="M 2194 1759 
Q 1497 1759 1228 1600 
Q 959 1441 959 1056 
Q 959 750 1161 570 
Q 1363 391 1709 391 
Q 2188 391 2477 730 
Q 2766 1069 2766 1631 
L 2766 1759 
L 2194 1759 
z
M 3341 1997 
L 3341 0 
L 2766 0 
L 2766 531 
Q 2569 213 2275 61 
Q 1981 -91 1556 -91 
Q 1019 -91 701 211 
Q 384 513 384 1019 
Q 384 1609 779 1909 
Q 1175 2209 1959 2209 
L 2766 2209 
L 2766 2266 
Q 2766 2663 2505 2880 
Q 2244 3097 1772 3097 
Q 1472 3097 1187 3025 
Q 903 2953 641 2809 
L 641 3341 
Q 956 3463 1253 3523 
Q 1550 3584 1831 3584 
Q 2591 3584 2966 3190 
Q 3341 2797 3341 1997 
z
" transform="scale(0.015625)"/>
       <path id="DejaVuSans-74" d="M 1172 4494 
L 1172 3500 
L 2356 3500 
L 2356 3053 
L 1172 3053 
L 1172 1153 
Q 1172 725 1289 603 
Q 1406 481 1766 481 
L 2356 481 
L 2356 0 
L 1766 0 
Q 1100 0 847 248 
Q 594 497 594 1153 
L 594 3053 
L 172 3053 
L 172 3500 
L 594 3500 
L 594 4494 
L 1172 4494 
z
" transform="scale(0.015625)"/>
       <path id="DejaVuSans-5b" d="M 550 4863 
L 1875 4863 
L 1875 4416 
L 1125 4416 
L 1125 -397 
L 1875 -397 
L 1875 -844 
L 550 -844 
L 550 4863 
z
" transform="scale(0.015625)"/>
       <path id="DejaVuSans-25" d="M 4653 2053 
Q 4381 2053 4226 1822 
Q 4072 1591 4072 1178 
Q 4072 772 4226 539 
Q 4381 306 4653 306 
Q 4919 306 5073 539 
Q 5228 772 5228 1178 
Q 5228 1588 5073 1820 
Q 4919 2053 4653 2053 
z
M 4653 2450 
Q 5147 2450 5437 2106 
Q 5728 1763 5728 1178 
Q 5728 594 5436 251 
Q 5144 -91 4653 -91 
Q 4153 -91 3862 251 
Q 3572 594 3572 1178 
Q 3572 1766 3864 2108 
Q 4156 2450 4653 2450 
z
M 1428 4353 
Q 1159 4353 1004 4120 
Q 850 3888 850 3481 
Q 850 3069 1003 2837 
Q 1156 2606 1428 2606 
Q 1700 2606 1854 2837 
Q 2009 3069 2009 3481 
Q 2009 3884 1853 4118 
Q 1697 4353 1428 4353 
z
M 4250 4750 
L 4750 4750 
L 1831 -91 
L 1331 -91 
L 4250 4750 
z
M 1428 4750 
Q 1922 4750 2215 4408 
Q 2509 4066 2509 3481 
Q 2509 2891 2217 2550 
Q 1925 2209 1428 2209 
Q 931 2209 642 2551 
Q 353 2894 353 3481 
Q 353 4063 643 4406 
Q 934 4750 1428 4750 
z
" transform="scale(0.015625)"/>
       <path id="DejaVuSans-5d" d="M 1947 4863 
L 1947 -844 
L 622 -844 
L 622 -397 
L 1369 -397 
L 1369 4416 
L 622 4416 
L 622 4863 
L 1947 4863 
z
" transform="scale(0.015625)"/>
      </defs>
      <use xlink:href="#DejaVuSans-4f"/>
      <use xlink:href="#DejaVuSans-62" x="78.710938"/>
      <use xlink:href="#DejaVuSans-73" x="142.1875"/>
      <use xlink:href="#DejaVuSans-65" x="194.287109"/>
      <use xlink:href="#DejaVuSans-72" x="255.810547"/>
      <use xlink:href="#DejaVuSans-76" x="296.923828"/>
      <use xlink:href="#DejaVuSans-65" x="356.103516"/>
      <use xlink:href="#DejaVuSans-64" x="417.626953"/>
      <use xlink:href="#DejaVuSans-20" x="481.103516"/>
      <use xlink:href="#DejaVuSans-79" x="512.890625"/>
      <use xlink:href="#DejaVuSans-69" x="572.070312"/>
      <use xlink:href="#DejaVuSans-65" x="599.853516"/>
      <use xlink:href="#DejaVuSans-6c" x="661.376953"/>
      <use xlink:href="#DejaVuSans-64" x="689.160156"/>
      <use xlink:href="#DejaVuSans-20" x="752.636719"/>
      <use xlink:href="#DejaVuSans-76" x="784.423828"/>
      <use xlink:href="#DejaVuSans-61" x="843.603516"/>
      <use xlink:href="#DejaVuSans-72" x="904.882812"/>
      <use xlink:href="#DejaVuSans-69" x="945.996094"/>
      <use xlink:href="#DejaVuSans-61" x="973.779297"/>
      <use xlink:href="#DejaVuSans-62" x="1035.058594"/>
      <use xlink:href="#DejaVuSans-69" x="1098.535156"/>
      <use xlink:href="#DejaVuSans-6c" x="1126.318359"/>
      <use xlink:href="#DejaVuSans-69" x="1154.101562"/>
      <use xlink:href="#DejaVuSans-74" x="1181.884766"/>
      <use xlink:href="#DejaVuSans-79" x="1221.09375"/>
      <use xlink:href="#DejaVuSans-20" x="1280.273438"/>
      <use xlink:href="#DejaVuSans-5b" x="1312.060547"/>
      <use xlink:href="#DejaVuSans-25" x="1351.074219"/>
      <use xlink:href="#DejaVuSans-5d" x="1446.09375"/>
     </g>
    </g>
   </g>
   <g id="matplotlib.axis_2">
    <g id="ytick_1">
     <g id="line2d_9">
      <defs>
       <path id="m4a0c93c55f" d="M 0 0 
L -3.5 0 
" style="stroke: #000000; stroke-width: 0.8"/>
      </defs>
      <g>
       <use xlink:href="#m4a0c93c55f" x="53.03" y="235.91608" style="stroke: #000000; stroke-width: 0.8"/>
      </g>
     </g>
     <g id="text_10">
      <!-- −30 -->
      <g transform="translate(24.925313 239.715298) scale(0.1 -0.1)">
       <use xlink:href="#DejaVuSans-2212"/>
       <use xlink:href="#DejaVuSans-33" x="83.789062"/>
       <use xlink:href="#DejaVuSans-30" x="147.412109"/>
      </g>
     </g>
    </g>
    <g id="ytick_2">
     <g id="line2d_10">
      <g>
       <use xlink:href="#m4a0c93c55f" x="53.03" y="207.279878" style="stroke: #000000; stroke-width: 0.8"/>
      </g>
     </g>
     <g id="text_11">
      <!-- −20 -->
      <g transform="translate(24.925313 211.079097) scale(0.1 -0.1)">
       <use xlink:href="#DejaVuSans-2212"/>
       <use xlink:href="#DejaVuSans-32" x="83.789062"/>
       <use xlink:href="#DejaVuSans-30" x="147.412109"/>
      </g>
     </g>
    </g>
    <g id="ytick_3">
     <g id="line2d_11">
      <g>
       <use xlink:href="#m4a0c93c55f" x="53.03" y="178.643677" style="stroke: #000000; stroke-width: 0.8"/>
      </g>
     </g>
     <g id="text_12">
      <!-- −10 -->
      <g transform="translate(24.925313 182.442896) scale(0.1 -0.1)">
       <use xlink:href="#DejaVuSans-2212"/>
       <use xlink:href="#DejaVuSans-31" x="83.789062"/>
       <use xlink:href="#DejaVuSans-30" x="147.412109"/>
      </g>
     </g>
    </g>
    <g id="ytick_4">
     <g id="line2d_12">
      <g>
       <use xlink:href="#m4a0c93c55f" x="53.03" y="150.007476" style="stroke: #000000; stroke-width: 0.8"/>
      </g>
     </g>
     <g id="text_13">
      <!-- 0 -->
      <g transform="translate(39.6675 153.806694) scale(0.1 -0.1)">
       <use xlink:href="#DejaVuSans-30"/>
      </g>
     </g>
    </g>
    <g id="ytick_5">
     <g id="line2d_13">
      <g>
       <use xlink:href="#m4a0c93c55f" x="53.03" y="121.371274" style="stroke: #000000; stroke-width: 0.8"/>
      </g>
     </g>
     <g id="text_14">
      <!-- 10 -->
      <g transform="translate(33.305 125.170493) scale(0.1 -0.1)">
       <use xlink:href="#DejaVuSans-31"/>
       <use xlink:href="#DejaVuSans-30" x="63.623047"/>
      </g>
     </g>
    </g>
    <g id="ytick_6">
     <g id="line2d_14">
      <g>
       <use xlink:href="#m4a0c93c55f" x="53.03" y="92.735073" style="stroke: #000000; stroke-width: 0.8"/>
      </g>
     </g>
     <g id="text_15">
      <!-- 20 -->
      <g transform="translate(33.305 96.534292) scale(0.1 -0.1)">
       <use xlink:href="#DejaVuSans-32"/>
       <use xlink:href="#DejaVuSans-30" x="63.623047"/>
      </g>
     </g>
    </g>
    <g id="ytick_7">
     <g id="line2d_15">
      <g>
       <use xlink:href="#m4a0c93c55f" x="53.03" y="64.098872" style="stroke: #000000; stroke-width: 0.8"/>
      </g>
     </g>
     <g id="text_16">
      <!-- 30 -->
      <g transform="translate(33.305 67.898091) scale(0.1 -0.1)">
       <use xlink:href="#DejaVuSans-33"/>
       <use xlink:href="#DejaVuSans-30" x="63.623047"/>
      </g>
     </g>
    </g>
    <g id="ytick_8">
     <g id="line2d_16">
      <g>
       <use xlink:href="#m4a0c93c55f" x="53.03" y="35.46267" style="stroke: #000000; stroke-width: 0.8"/>
      </g>
     </g>
     <g id="text_17">
      <!-- 40 -->
      <g transform="translate(33.305 39.261889) scale(0.1 -0.1)">
       <use xlink:href="#DejaVuSans-34"/>
       <use xlink:href="#DejaVuSans-30" x="63.623047"/>
      </g>
     </g>
    </g>
    <g id="text_18">
     <!-- Estimated yield variability [%] -->
     <g transform="translate(18.845625 211.14875) rotate(-90) scale(0.1 -0.1)">
      <defs>
       <path id="DejaVuSans-45" d="M 628 4666 
L 3578 4666 
L 3578 4134 
L 1259 4134 
L 1259 2753 
L 3481 2753 
L 3481 2222 
L 1259 2222 
L 1259 531 
L 3634 531 
L 3634 0 
L 628 0 
L 628 4666 
z
" transform="scale(0.015625)"/>
       <path id="DejaVuSans-6d" d="M 3328 2828 
Q 3544 3216 3844 3400 
Q 4144 3584 4550 3584 
Q 5097 3584 5394 3201 
Q 5691 2819 5691 2113 
L 5691 0 
L 5113 0 
L 5113 2094 
Q 5113 2597 4934 2840 
Q 4756 3084 4391 3084 
Q 3944 3084 3684 2787 
Q 3425 2491 3425 1978 
L 3425 0 
L 2847 0 
L 2847 2094 
Q 2847 2600 2669 2842 
Q 2491 3084 2119 3084 
Q 1678 3084 1418 2786 
Q 1159 2488 1159 1978 
L 1159 0 
L 581 0 
L 581 3500 
L 1159 3500 
L 1159 2956 
Q 1356 3278 1631 3431 
Q 1906 3584 2284 3584 
Q 2666 3584 2933 3390 
Q 3200 3197 3328 2828 
z
" transform="scale(0.015625)"/>
      </defs>
      <use xlink:href="#DejaVuSans-45"/>
      <use xlink:href="#DejaVuSans-73" x="63.183594"/>
      <use xlink:href="#DejaVuSans-74" x="115.283203"/>
      <use xlink:href="#DejaVuSans-69" x="154.492188"/>
      <use xlink:href="#DejaVuSans-6d" x="182.275391"/>
      <use xlink:href="#DejaVuSans-61" x="279.6875"/>
      <use xlink:href="#DejaVuSans-74" x="340.966797"/>
      <use xlink:href="#DejaVuSans-65" x="380.175781"/>
      <use xlink:href="#DejaVuSans-64" x="441.699219"/>
      <use xlink:href="#DejaVuSans-20" x="505.175781"/>
      <use xlink:href="#DejaVuSans-79" x="536.962891"/>
      <use xlink:href="#DejaVuSans-69" x="596.142578"/>
      <use xlink:href="#DejaVuSans-65" x="623.925781"/>
      <use xlink:href="#DejaVuSans-6c" x="685.449219"/>
      <use xlink:href="#DejaVuSans-64" x="713.232422"/>
      <use xlink:href="#DejaVuSans-20" x="776.708984"/>
      <use xlink:href="#DejaVuSans-76" x="808.496094"/>
      <use xlink:href="#DejaVuSans-61" x="867.675781"/>
      <use xlink:href="#DejaVuSans-72" x="928.955078"/>
      <use xlink:href="#DejaVuSans-69" x="970.068359"/>
      <use xlink:href="#DejaVuSans-61" x="997.851562"/>
      <use xlink:href="#DejaVuSans-62" x="1059.130859"/>
      <use xlink:href="#DejaVuSans-69" x="1122.607422"/>
      <use xlink:href="#DejaVuSans-6c" x="1150.390625"/>
      <use xlink:href="#DejaVuSans-69" x="1178.173828"/>
      <use xlink:href="#DejaVuSans-74" x="1205.957031"/>
      <use xlink:href="#DejaVuSans-79" x="1245.166016"/>
      <use xlink:href="#DejaVuSans-20" x="1304.345703"/>
      <use xlink:href="#DejaVuSans-5b" x="1336.132812"/>
      <use xlink:href="#DejaVuSans-25" x="1375.146484"/>
      <use xlink:href="#DejaVuSans-5d" x="1470.166016"/>
     </g>
    </g>
   </g>
   <g id="line2d_17">
    <path d="M 74.901244 204.264879 
L 78.19344 202.946374 
L 81.485637 201.627868 
L 84.777833 200.309363 
L 88.07003 198.990857 
L 91.362226 197.672352 
L 94.654422 196.353846 
L 97.946619 195.035341 
L 101.238815 193.716836 
L 104.531011 192.39833 
L 107.823208 191.079825 
L 111.115404 189.761319 
L 114.4076 188.442814 
L 117.699797 187.124308 
L 120.991993 185.805803 
L 124.28419 184.487297 
L 127.576386 183.168792 
L 130.868582 181.850286 
L 134.160779 180.531781 
L 137.452975 179.213275 
L 140.745171 177.89477 
L 144.037368 176.576264 
L 147.329564 175.257759 
L 150.621761 173.939253 
L 153.913957 172.620748 
L 157.206153 171.302242 
L 160.49835 169.983737 
L 163.790546 168.665231 
L 167.082742 167.346726 
L 170.374939 166.02822 
L 173.667135 164.709715 
L 176.959331 163.391209 
L 180.251528 162.072704 
L 183.543724 160.754198 
L 186.835921 159.435693 
L 190.128117 158.117187 
L 193.420313 156.798682 
L 196.71251 155.480176 
L 200.004706 154.161671 
L 203.296902 152.843165 
L 206.589099 151.52466 
L 209.881295 150.206154 
L 213.173492 148.887649 
L 216.465688 147.569144 
L 219.757884 146.250638 
L 223.050081 144.932133 
L 226.342277 143.613627 
L 229.634473 142.295122 
L 232.92667 140.976616 
L 236.218866 139.658111 
L 239.511062 138.339605 
L 242.803259 137.0211 
L 246.095455 135.702594 
L 249.387652 134.384089 
L 252.679848 133.065583 
L 255.972044 131.747078 
L 259.264241 130.428572 
L 262.556437 129.110067 
L 265.848633 127.791561 
L 269.14083 126.473056 
L 272.433026 125.15455 
L 275.725223 123.836045 
L 279.017419 122.517539 
L 282.309615 121.199034 
L 285.601812 119.880528 
L 288.894008 118.562023 
L 292.186204 117.243517 
L 295.478401 115.925012 
L 298.770597 114.606506 
L 302.062793 113.288001 
L 305.35499 111.969495 
L 308.647186 110.65099 
L 311.939383 109.332484 
L 315.231579 108.013979 
L 318.523775 106.695473 
L 321.815972 105.376968 
L 325.108168 104.058462 
L 328.400364 102.739957 
L 331.692561 101.421452 
L 334.984757 100.102946 
L 338.276954 98.784441 
L 341.56915 97.465935 
L 344.861346 96.14743 
L 348.153543 94.828924 
L 351.445739 93.510419 
L 354.737935 92.191913 
L 358.030132 90.873408 
L 361.322328 89.554902 
L 364.614525 88.236397 
L 367.906721 86.917891 
L 371.198917 85.599386 
L 374.491114 84.28088 
L 377.78331 82.962375 
L 381.075506 81.643869 
L 384.367703 80.325364 
L 387.659899 79.006858 
L 390.952095 77.688353 
L 394.244292 76.369847 
L 397.536488 75.051342 
L 400.828685 73.732836 
" clip-path="url(#p9037b1c819)" style="fill: none; stroke: #808080; stroke-width: 2; stroke-linecap: square"/>
   </g>
   <g id="line2d_18">
    <path d="M 69.74501 235.91608 
L 404.045217 35.46267 
" clip-path="url(#p9037b1c819)" style="fill: none; stroke: #000000; stroke-width: 2; stroke-linecap: square"/>
   </g>
   <g id="patch_3">
    <path d="M 53.03 245.93875 
L 53.03 25.44 
" style="fill: none; stroke: #000000; stroke-width: 0.8; stroke-linejoin: miter; stroke-linecap: square"/>
   </g>
   <g id="patch_4">
    <path d="M 53.03 245.93875 
L 420.760227 245.93875 
" style="fill: none; stroke: #000000; stroke-width: 0.8; stroke-linejoin: miter; stroke-linecap: square"/>
   </g>
   <g id="text_19">
    <!-- a) Observed vs. estimated -->
    <g transform="translate(53.03 19.44) scale(0.12 -0.12)">
     <defs>
      <path id="DejaVuSans-29" d="M 513 4856 
L 1013 4856 
Q 1481 4119 1714 3412 
Q 1947 2706 1947 2009 
Q 1947 1309 1714 600 
Q 1481 -109 1013 -844 
L 513 -844 
Q 928 -128 1133 580 
Q 1338 1288 1338 2009 
Q 1338 2731 1133 3434 
Q 928 4138 513 4856 
z
" transform="scale(0.015625)"/>
      <path id="DejaVuSans-2e" d="M 684 794 
L 1344 794 
L 1344 0 
L 684 0 
L 684 794 
z
" transform="scale(0.015625)"/>
     </defs>
     <use xlink:href="#DejaVuSans-61"/>
     <use xlink:href="#DejaVuSans-29" x="61.279297"/>
     <use xlink:href="#DejaVuSans-20" x="100.292969"/>
     <use xlink:href="#DejaVuSans-4f" x="132.080078"/>
     <use xlink:href="#DejaVuSans-62" x="210.791016"/>
     <use xlink:href="#DejaVuSans-73" x="274.267578"/>
     <use xlink:href="#DejaVuSans-65" x="326.367188"/>
     <use xlink:href="#DejaVuSans-72" x="387.890625"/>
     <use xlink:href="#DejaVuSans-76" x="429.003906"/>
     <use xlink:href="#DejaVuSans-65" x="488.183594"/>
     <use xlink:href="#DejaVuSans-64" x="549.707031"/>
     <use xlink:href="#DejaVuSans-20" x="613.183594"/>
     <use xlink:href="#DejaVuSans-76" x="644.970703"/>
     <use xlink:href="#DejaVuSans-73" x="704.150391"/>
     <use xlink:href="#DejaVuSans-2e" x="756.25"/>
     <use xlink:href="#DejaVuSans-20" x="788.037109"/>
     <use xlink:href="#DejaVuSans-65" x="819.824219"/>
     <use xlink:href="#DejaVuSans-73" x="881.347656"/>
     <use xlink:href="#DejaVuSans-74" x="933.447266"/>
     <use xlink:href="#DejaVuSans-69" x="972.65625"/>
     <use xlink:href="#DejaVuSans-6d" x="1000.439453"/>
     <use xlink:href="#DejaVuSans-61" x="1097.851562"/>
     <use xlink:href="#DejaVuSans-74" x="1159.130859"/>
     <use xlink:href="#DejaVuSans-65" x="1198.339844"/>
     <use xlink:href="#DejaVuSans-64" x="1259.863281"/>
    </g>
   </g>
   <g id="legend_1">
    <g id="patch_5">
     <path d="M 333.013352 240.93875 
L 413.760227 240.93875 
Q 415.760227 240.93875 415.760227 238.93875 
L 415.760227 195.904375 
Q 415.760227 193.904375 413.760227 193.904375 
L 333.013352 193.904375 
Q 331.013352 193.904375 331.013352 195.904375 
L 331.013352 238.93875 
Q 331.013352 240.93875 333.013352 240.93875 
z
" style="fill: #ffffff; opacity: 0.8; stroke: #cccccc; stroke-linejoin: miter"/>
    </g>
    <g id="PathCollection_5">
     <defs>
      <path id="m9f4158833e" d="M 0 4.242641 
L 4.242641 0 
L 0 -4.242641 
L -4.242641 0 
z
" style="stroke: #333333"/>
     </defs>
     <g>
      <use xlink:href="#m9f4158833e" x="345.013352" y="202.877813" style="fill: #333333; stroke: #333333"/>
     </g>
    </g>
    <g id="text_20">
     <!-- yield loss -->
     <g transform="translate(363.013352 205.502813) scale(0.1 -0.1)">
      <defs>
       <path id="DejaVuSans-6f" d="M 1959 3097 
Q 1497 3097 1228 2736 
Q 959 2375 959 1747 
Q 959 1119 1226 758 
Q 1494 397 1959 397 
Q 2419 397 2687 759 
Q 2956 1122 2956 1747 
Q 2956 2369 2687 2733 
Q 2419 3097 1959 3097 
z
M 1959 3584 
Q 2709 3584 3137 3096 
Q 3566 2609 3566 1747 
Q 3566 888 3137 398 
Q 2709 -91 1959 -91 
Q 1206 -91 779 398 
Q 353 888 353 1747 
Q 353 2609 779 3096 
Q 1206 3584 1959 3584 
z
" transform="scale(0.015625)"/>
      </defs>
      <use xlink:href="#DejaVuSans-79"/>
      <use xlink:href="#DejaVuSans-69" x="59.179688"/>
      <use xlink:href="#DejaVuSans-65" x="86.962891"/>
      <use xlink:href="#DejaVuSans-6c" x="148.486328"/>
      <use xlink:href="#DejaVuSans-64" x="176.269531"/>
      <use xlink:href="#DejaVuSans-20" x="239.746094"/>
      <use xlink:href="#DejaVuSans-6c" x="271.533203"/>
      <use xlink:href="#DejaVuSans-6f" x="299.316406"/>
      <use xlink:href="#DejaVuSans-73" x="360.498047"/>
      <use xlink:href="#DejaVuSans-73" x="412.597656"/>
     </g>
    </g>
    <g id="PathCollection_6">
     <defs>
      <path id="mc41147b710" d="M 0 1.5 
C 0.397805 1.5 0.77937 1.341951 1.06066 1.06066 
C 1.341951 0.77937 1.5 0.397805 1.5 0 
C 1.5 -0.397805 1.341951 -0.77937 1.06066 -1.06066 
C 0.77937 -1.341951 0.397805 -1.5 0 -1.5 
C -0.397805 -1.5 -0.77937 -1.341951 -1.06066 -1.06066 
C -1.341951 -0.77937 -1.5 -0.397805 -1.5 0 
C -1.5 0.397805 -1.341951 0.77937 -1.06066 1.06066 
C -0.77937 1.341951 -0.397805 1.5 0 1.5 
z
" style="stroke: #333333"/>
     </defs>
     <g>
      <use xlink:href="#mc41147b710" x="345.013352" y="217.555937" style="fill: #333333; stroke: #333333"/>
     </g>
    </g>
    <g id="text_21">
     <!-- normal -->
     <g transform="translate(363.013352 220.180937) scale(0.1 -0.1)">
      <defs>
       <path id="DejaVuSans-6e" d="M 3513 2113 
L 3513 0 
L 2938 0 
L 2938 2094 
Q 2938 2591 2744 2837 
Q 2550 3084 2163 3084 
Q 1697 3084 1428 2787 
Q 1159 2491 1159 1978 
L 1159 0 
L 581 0 
L 581 3500 
L 1159 3500 
L 1159 2956 
Q 1366 3272 1645 3428 
Q 1925 3584 2291 3584 
Q 2894 3584 3203 3211 
Q 3513 2838 3513 2113 
z
" transform="scale(0.015625)"/>
      </defs>
      <use xlink:href="#DejaVuSans-6e"/>
      <use xlink:href="#DejaVuSans-6f" x="63.378906"/>
      <use xlink:href="#DejaVuSans-72" x="124.560547"/>
      <use xlink:href="#DejaVuSans-6d" x="163.923828"/>
      <use xlink:href="#DejaVuSans-61" x="261.335938"/>
      <use xlink:href="#DejaVuSans-6c" x="322.615234"/>
     </g>
    </g>
    <g id="PathCollection_7">
     <defs>
      <path id="m961e3f0086" d="M -1.5 3 
L 0 1.5 
L 1.5 3 
L 3 1.5 
L 1.5 0 
L 3 -1.5 
L 1.5 -3 
L 0 -1.5 
L -1.5 -3 
L -3 -1.5 
L -1.5 0 
L -3 1.5 
z
" style="stroke: #333333"/>
     </defs>
     <g>
      <use xlink:href="#m961e3f0086" x="345.013352" y="232.234062" style="fill: #333333; stroke: #333333"/>
     </g>
    </g>
    <g id="text_22">
     <!-- yield gain -->
     <g transform="translate(363.013352 234.859062) scale(0.1 -0.1)">
      <defs>
       <path id="DejaVuSans-67" d="M 2906 1791 
Q 2906 2416 2648 2759 
Q 2391 3103 1925 3103 
Q 1463 3103 1205 2759 
Q 947 2416 947 1791 
Q 947 1169 1205 825 
Q 1463 481 1925 481 
Q 2391 481 2648 825 
Q 2906 1169 2906 1791 
z
M 3481 434 
Q 3481 -459 3084 -895 
Q 2688 -1331 1869 -1331 
Q 1566 -1331 1297 -1286 
Q 1028 -1241 775 -1147 
L 775 -588 
Q 1028 -725 1275 -790 
Q 1522 -856 1778 -856 
Q 2344 -856 2625 -561 
Q 2906 -266 2906 331 
L 2906 616 
Q 2728 306 2450 153 
Q 2172 0 1784 0 
Q 1141 0 747 490 
Q 353 981 353 1791 
Q 353 2603 747 3093 
Q 1141 3584 1784 3584 
Q 2172 3584 2450 3431 
Q 2728 3278 2906 2969 
L 2906 3500 
L 3481 3500 
L 3481 434 
z
" transform="scale(0.015625)"/>
      </defs>
      <use xlink:href="#DejaVuSans-79"/>
      <use xlink:href="#DejaVuSans-69" x="59.179688"/>
      <use xlink:href="#DejaVuSans-65" x="86.962891"/>
      <use xlink:href="#DejaVuSans-6c" x="148.486328"/>
      <use xlink:href="#DejaVuSans-64" x="176.269531"/>
      <use xlink:href="#DejaVuSans-20" x="239.746094"/>
      <use xlink:href="#DejaVuSans-67" x="271.533203"/>
      <use xlink:href="#DejaVuSans-61" x="335.009766"/>
      <use xlink:href="#DejaVuSans-69" x="396.289062"/>
      <use xlink:href="#DejaVuSans-6e" x="424.072266"/>
     </g>
    </g>
   </g>
  </g>
  <g id="axes_2">
   <g id="patch_6">
    <path d="M 467.400227 245.93875 
L 835.130455 245.93875 
L 835.130455 25.44 
L 467.400227 25.44 
z
" style="fill: #ffffff"/>
   </g>
   <g id="matplotlib.axis_3">
    <g id="xtick_9">
     <g id="line2d_19">
      <g>
       <use xlink:href="#m9eeb8e2e21" x="513.366506" y="245.93875" style="stroke: #000000; stroke-width: 0.8"/>
      </g>
     </g>
     <g id="text_23">
      <!-- rainsquared_-31_-61_11 -->
      <g transform="translate(453.288381 260.537188) scale(0.1 -0.1)">
       <defs>
        <path id="DejaVuSans-71" d="M 947 1747 
Q 947 1113 1208 752 
Q 1469 391 1925 391 
Q 2381 391 2643 752 
Q 2906 1113 2906 1747 
Q 2906 2381 2643 2742 
Q 2381 3103 1925 3103 
Q 1469 3103 1208 2742 
Q 947 2381 947 1747 
z
M 2906 525 
Q 2725 213 2448 61 
Q 2172 -91 1784 -91 
Q 1150 -91 751 415 
Q 353 922 353 1747 
Q 353 2572 751 3078 
Q 1150 3584 1784 3584 
Q 2172 3584 2448 3432 
Q 2725 3281 2906 2969 
L 2906 3500 
L 3481 3500 
L 3481 -1331 
L 2906 -1331 
L 2906 525 
z
" transform="scale(0.015625)"/>
        <path id="DejaVuSans-75" d="M 544 1381 
L 544 3500 
L 1119 3500 
L 1119 1403 
Q 1119 906 1312 657 
Q 1506 409 1894 409 
Q 2359 409 2629 706 
Q 2900 1003 2900 1516 
L 2900 3500 
L 3475 3500 
L 3475 0 
L 2900 0 
L 2900 538 
Q 2691 219 2414 64 
Q 2138 -91 1772 -91 
Q 1169 -91 856 284 
Q 544 659 544 1381 
z
M 1991 3584 
L 1991 3584 
z
" transform="scale(0.015625)"/>
        <path id="DejaVuSans-5f" d="M 3263 -1063 
L 3263 -1509 
L -63 -1509 
L -63 -1063 
L 3263 -1063 
z
" transform="scale(0.015625)"/>
        <path id="DejaVuSans-2d" d="M 313 2009 
L 1997 2009 
L 1997 1497 
L 313 1497 
L 313 2009 
z
" transform="scale(0.015625)"/>
        <path id="DejaVuSans-36" d="M 2113 2584 
Q 1688 2584 1439 2293 
Q 1191 2003 1191 1497 
Q 1191 994 1439 701 
Q 1688 409 2113 409 
Q 2538 409 2786 701 
Q 3034 994 3034 1497 
Q 3034 2003 2786 2293 
Q 2538 2584 2113 2584 
z
M 3366 4563 
L 3366 3988 
Q 3128 4100 2886 4159 
Q 2644 4219 2406 4219 
Q 1781 4219 1451 3797 
Q 1122 3375 1075 2522 
Q 1259 2794 1537 2939 
Q 1816 3084 2150 3084 
Q 2853 3084 3261 2657 
Q 3669 2231 3669 1497 
Q 3669 778 3244 343 
Q 2819 -91 2113 -91 
Q 1303 -91 875 529 
Q 447 1150 447 2328 
Q 447 3434 972 4092 
Q 1497 4750 2381 4750 
Q 2619 4750 2861 4703 
Q 3103 4656 3366 4563 
z
" transform="scale(0.015625)"/>
       </defs>
       <use xlink:href="#DejaVuSans-72"/>
       <use xlink:href="#DejaVuSans-61" x="41.113281"/>
       <use xlink:href="#DejaVuSans-69" x="102.392578"/>
       <use xlink:href="#DejaVuSans-6e" x="130.175781"/>
       <use xlink:href="#DejaVuSans-73" x="193.554688"/>
       <use xlink:href="#DejaVuSans-71" x="245.654297"/>
       <use xlink:href="#DejaVuSans-75" x="309.130859"/>
       <use xlink:href="#DejaVuSans-61" x="372.509766"/>
       <use xlink:href="#DejaVuSans-72" x="433.789062"/>
       <use xlink:href="#DejaVuSans-65" x="472.652344"/>
       <use xlink:href="#DejaVuSans-64" x="534.175781"/>
       <use xlink:href="#DejaVuSans-5f" x="597.652344"/>
       <use xlink:href="#DejaVuSans-2d" x="647.652344"/>
       <use xlink:href="#DejaVuSans-33" x="683.736328"/>
       <use xlink:href="#DejaVuSans-31" x="747.359375"/>
       <use xlink:href="#DejaVuSans-5f" x="810.982422"/>
       <use xlink:href="#DejaVuSans-2d" x="860.982422"/>
       <use xlink:href="#DejaVuSans-36" x="897.066406"/>
       <use xlink:href="#DejaVuSans-31" x="960.689453"/>
       <use xlink:href="#DejaVuSans-5f" x="1024.3125"/>
       <use xlink:href="#DejaVuSans-31" x="1074.3125"/>
       <use xlink:href="#DejaVuSans-31" x="1137.935547"/>
      </g>
     </g>
    </g>
    <g id="xtick_10">
     <g id="line2d_20">
      <g>
       <use xlink:href="#m9eeb8e2e21" x="605.299062" y="245.93875" style="stroke: #000000; stroke-width: 0.8"/>
      </g>
     </g>
     <g id="text_24">
      <!-- rainsquared_-36_-62_9 -->
      <g transform="translate(548.402187 260.537188) scale(0.1 -0.1)">
       <defs>
        <path id="DejaVuSans-39" d="M 703 97 
L 703 672 
Q 941 559 1184 500 
Q 1428 441 1663 441 
Q 2288 441 2617 861 
Q 2947 1281 2994 2138 
Q 2813 1869 2534 1725 
Q 2256 1581 1919 1581 
Q 1219 1581 811 2004 
Q 403 2428 403 3163 
Q 403 3881 828 4315 
Q 1253 4750 1959 4750 
Q 2769 4750 3195 4129 
Q 3622 3509 3622 2328 
Q 3622 1225 3098 567 
Q 2575 -91 1691 -91 
Q 1453 -91 1209 -44 
Q 966 3 703 97 
z
M 1959 2075 
Q 2384 2075 2632 2365 
Q 2881 2656 2881 3163 
Q 2881 3666 2632 3958 
Q 2384 4250 1959 4250 
Q 1534 4250 1286 3958 
Q 1038 3666 1038 3163 
Q 1038 2656 1286 2365 
Q 1534 2075 1959 2075 
z
" transform="scale(0.015625)"/>
       </defs>
       <use xlink:href="#DejaVuSans-72"/>
       <use xlink:href="#DejaVuSans-61" x="41.113281"/>
       <use xlink:href="#DejaVuSans-69" x="102.392578"/>
       <use xlink:href="#DejaVuSans-6e" x="130.175781"/>
       <use xlink:href="#DejaVuSans-73" x="193.554688"/>
       <use xlink:href="#DejaVuSans-71" x="245.654297"/>
       <use xlink:href="#DejaVuSans-75" x="309.130859"/>
       <use xlink:href="#DejaVuSans-61" x="372.509766"/>
       <use xlink:href="#DejaVuSans-72" x="433.789062"/>
       <use xlink:href="#DejaVuSans-65" x="472.652344"/>
       <use xlink:href="#DejaVuSans-64" x="534.175781"/>
       <use xlink:href="#DejaVuSans-5f" x="597.652344"/>
       <use xlink:href="#DejaVuSans-2d" x="647.652344"/>
       <use xlink:href="#DejaVuSans-33" x="683.736328"/>
       <use xlink:href="#DejaVuSans-36" x="747.359375"/>
       <use xlink:href="#DejaVuSans-5f" x="810.982422"/>
       <use xlink:href="#DejaVuSans-2d" x="860.982422"/>
       <use xlink:href="#DejaVuSans-36" x="897.066406"/>
       <use xlink:href="#DejaVuSans-32" x="960.689453"/>
       <use xlink:href="#DejaVuSans-5f" x="1024.3125"/>
       <use xlink:href="#DejaVuSans-39" x="1074.3125"/>
      </g>
     </g>
    </g>
    <g id="xtick_11">
     <g id="line2d_21">
      <g>
       <use xlink:href="#m9eeb8e2e21" x="697.231619" y="245.93875" style="stroke: #000000; stroke-width: 0.8"/>
      </g>
     </g>
     <g id="text_25">
      <!-- tmeansquared_-38_-62_11 -->
      <g transform="translate(630.690994 260.537188) scale(0.1 -0.1)">
       <defs>
        <path id="DejaVuSans-38" d="M 2034 2216 
Q 1584 2216 1326 1975 
Q 1069 1734 1069 1313 
Q 1069 891 1326 650 
Q 1584 409 2034 409 
Q 2484 409 2743 651 
Q 3003 894 3003 1313 
Q 3003 1734 2745 1975 
Q 2488 2216 2034 2216 
z
M 1403 2484 
Q 997 2584 770 2862 
Q 544 3141 544 3541 
Q 544 4100 942 4425 
Q 1341 4750 2034 4750 
Q 2731 4750 3128 4425 
Q 3525 4100 3525 3541 
Q 3525 3141 3298 2862 
Q 3072 2584 2669 2484 
Q 3125 2378 3379 2068 
Q 3634 1759 3634 1313 
Q 3634 634 3220 271 
Q 2806 -91 2034 -91 
Q 1263 -91 848 271 
Q 434 634 434 1313 
Q 434 1759 690 2068 
Q 947 2378 1403 2484 
z
M 1172 3481 
Q 1172 3119 1398 2916 
Q 1625 2713 2034 2713 
Q 2441 2713 2670 2916 
Q 2900 3119 2900 3481 
Q 2900 3844 2670 4047 
Q 2441 4250 2034 4250 
Q 1625 4250 1398 4047 
Q 1172 3844 1172 3481 
z
" transform="scale(0.015625)"/>
       </defs>
       <use xlink:href="#DejaVuSans-74"/>
       <use xlink:href="#DejaVuSans-6d" x="39.208984"/>
       <use xlink:href="#DejaVuSans-65" x="136.621094"/>
       <use xlink:href="#DejaVuSans-61" x="198.144531"/>
       <use xlink:href="#DejaVuSans-6e" x="259.423828"/>
       <use xlink:href="#DejaVuSans-73" x="322.802734"/>
       <use xlink:href="#DejaVuSans-71" x="374.902344"/>
       <use xlink:href="#DejaVuSans-75" x="438.378906"/>
       <use xlink:href="#DejaVuSans-61" x="501.757812"/>
       <use xlink:href="#DejaVuSans-72" x="563.037109"/>
       <use xlink:href="#DejaVuSans-65" x="601.900391"/>
       <use xlink:href="#DejaVuSans-64" x="663.423828"/>
       <use xlink:href="#DejaVuSans-5f" x="726.900391"/>
       <use xlink:href="#DejaVuSans-2d" x="776.900391"/>
       <use xlink:href="#DejaVuSans-33" x="812.984375"/>
       <use xlink:href="#DejaVuSans-38" x="876.607422"/>
       <use xlink:href="#DejaVuSans-5f" x="940.230469"/>
       <use xlink:href="#DejaVuSans-2d" x="990.230469"/>
       <use xlink:href="#DejaVuSans-36" x="1026.314453"/>
       <use xlink:href="#DejaVuSans-32" x="1089.9375"/>
       <use xlink:href="#DejaVuSans-5f" x="1153.560547"/>
       <use xlink:href="#DejaVuSans-31" x="1203.560547"/>
       <use xlink:href="#DejaVuSans-31" x="1267.183594"/>
      </g>
     </g>
    </g>
    <g id="xtick_12">
     <g id="line2d_22">
      <g>
       <use xlink:href="#m9eeb8e2e21" x="789.164176" y="245.93875" style="stroke: #000000; stroke-width: 0.8"/>
      </g>
     </g>
     <g id="text_26">
      <!-- tmeanrain_-38_-62_11 -->
      <g transform="translate(733.151676 260.537188) scale(0.1 -0.1)">
       <use xlink:href="#DejaVuSans-74"/>
       <use xlink:href="#DejaVuSans-6d" x="39.208984"/>
       <use xlink:href="#DejaVuSans-65" x="136.621094"/>
       <use xlink:href="#DejaVuSans-61" x="198.144531"/>
       <use xlink:href="#DejaVuSans-6e" x="259.423828"/>
       <use xlink:href="#DejaVuSans-72" x="322.802734"/>
       <use xlink:href="#DejaVuSans-61" x="363.916016"/>
       <use xlink:href="#DejaVuSans-69" x="425.195312"/>
       <use xlink:href="#DejaVuSans-6e" x="452.978516"/>
       <use xlink:href="#DejaVuSans-5f" x="516.357422"/>
       <use xlink:href="#DejaVuSans-2d" x="566.357422"/>
       <use xlink:href="#DejaVuSans-33" x="602.441406"/>
       <use xlink:href="#DejaVuSans-38" x="666.064453"/>
       <use xlink:href="#DejaVuSans-5f" x="729.6875"/>
       <use xlink:href="#DejaVuSans-2d" x="779.6875"/>
       <use xlink:href="#DejaVuSans-36" x="815.771484"/>
       <use xlink:href="#DejaVuSans-32" x="879.394531"/>
       <use xlink:href="#DejaVuSans-5f" x="943.017578"/>
       <use xlink:href="#DejaVuSans-31" x="993.017578"/>
       <use xlink:href="#DejaVuSans-31" x="1056.640625"/>
      </g>
     </g>
    </g>
    <g id="text_27">
     <!-- Feature -->
     <g transform="translate(632.375497 274.493437) scale(0.1 -0.1)">
      <defs>
       <path id="DejaVuSans-46" d="M 628 4666 
L 3309 4666 
L 3309 4134 
L 1259 4134 
L 1259 2759 
L 3109 2759 
L 3109 2228 
L 1259 2228 
L 1259 0 
L 628 0 
L 628 4666 
z
" transform="scale(0.015625)"/>
      </defs>
      <use xlink:href="#DejaVuSans-46"/>
      <use xlink:href="#DejaVuSans-65" x="52.019531"/>
      <use xlink:href="#DejaVuSans-61" x="113.542969"/>
      <use xlink:href="#DejaVuSans-74" x="174.822266"/>
      <use xlink:href="#DejaVuSans-75" x="214.03125"/>
      <use xlink:href="#DejaVuSans-72" x="277.410156"/>
      <use xlink:href="#DejaVuSans-65" x="316.273438"/>
     </g>
    </g>
   </g>
   <g id="matplotlib.axis_4">
    <g id="ytick_9">
     <g id="line2d_23">
      <g>
       <use xlink:href="#m4a0c93c55f" x="467.400227" y="241.674595" style="stroke: #000000; stroke-width: 0.8"/>
      </g>
     </g>
     <g id="text_28">
      <!-- −4 -->
      <g transform="translate(445.65804 245.473813) scale(0.1 -0.1)">
       <use xlink:href="#DejaVuSans-2212"/>
       <use xlink:href="#DejaVuSans-34" x="83.789062"/>
      </g>
     </g>
    </g>
    <g id="ytick_10">
     <g id="line2d_24">
      <g>
       <use xlink:href="#m4a0c93c55f" x="467.400227" y="214.928755" style="stroke: #000000; stroke-width: 0.8"/>
      </g>
     </g>
     <g id="text_29">
      <!-- −2 -->
      <g transform="translate(445.65804 218.727974) scale(0.1 -0.1)">
       <use xlink:href="#DejaVuSans-2212"/>
       <use xlink:href="#DejaVuSans-32" x="83.789062"/>
      </g>
     </g>
    </g>
    <g id="ytick_11">
     <g id="line2d_25">
      <g>
       <use xlink:href="#m4a0c93c55f" x="467.400227" y="188.182915" style="stroke: #000000; stroke-width: 0.8"/>
      </g>
     </g>
     <g id="text_30">
      <!-- 0 -->
      <g transform="translate(454.037727 191.982134) scale(0.1 -0.1)">
       <use xlink:href="#DejaVuSans-30"/>
      </g>
     </g>
    </g>
    <g id="ytick_12">
     <g id="line2d_26">
      <g>
       <use xlink:href="#m4a0c93c55f" x="467.400227" y="161.437075" style="stroke: #000000; stroke-width: 0.8"/>
      </g>
     </g>
     <g id="text_31">
      <!-- 2 -->
      <g transform="translate(454.037727 165.236294) scale(0.1 -0.1)">
       <use xlink:href="#DejaVuSans-32"/>
      </g>
     </g>
    </g>
    <g id="ytick_13">
     <g id="line2d_27">
      <g>
       <use xlink:href="#m4a0c93c55f" x="467.400227" y="134.691236" style="stroke: #000000; stroke-width: 0.8"/>
      </g>
     </g>
     <g id="text_32">
      <!-- 4 -->
      <g transform="translate(454.037727 138.490454) scale(0.1 -0.1)">
       <use xlink:href="#DejaVuSans-34"/>
      </g>
     </g>
    </g>
    <g id="ytick_14">
     <g id="line2d_28">
      <g>
       <use xlink:href="#m4a0c93c55f" x="467.400227" y="107.945396" style="stroke: #000000; stroke-width: 0.8"/>
      </g>
     </g>
     <g id="text_33">
      <!-- 6 -->
      <g transform="translate(454.037727 111.744615) scale(0.1 -0.1)">
       <use xlink:href="#DejaVuSans-36"/>
      </g>
     </g>
    </g>
    <g id="ytick_15">
     <g id="line2d_29">
      <g>
       <use xlink:href="#m4a0c93c55f" x="467.400227" y="81.199556" style="stroke: #000000; stroke-width: 0.8"/>
      </g>
     </g>
     <g id="text_34">
      <!-- 8 -->
      <g transform="translate(454.037727 84.998775) scale(0.1 -0.1)">
       <use xlink:href="#DejaVuSans-38"/>
      </g>
     </g>
    </g>
    <g id="ytick_16">
     <g id="line2d_30">
      <g>
       <use xlink:href="#m4a0c93c55f" x="467.400227" y="54.453717" style="stroke: #000000; stroke-width: 0.8"/>
      </g>
     </g>
     <g id="text_35">
      <!-- 10 -->
      <g transform="translate(447.675227 58.252935) scale(0.1 -0.1)">
       <use xlink:href="#DejaVuSans-31"/>
       <use xlink:href="#DejaVuSans-30" x="63.623047"/>
      </g>
     </g>
    </g>
    <g id="ytick_17">
     <g id="line2d_31">
      <g>
       <use xlink:href="#m4a0c93c55f" x="467.400227" y="27.707877" style="stroke: #000000; stroke-width: 0.8"/>
      </g>
     </g>
     <g id="text_36">
      <!-- 12 -->
      <g transform="translate(447.675227 31.507096) scale(0.1 -0.1)">
       <use xlink:href="#DejaVuSans-31"/>
       <use xlink:href="#DejaVuSans-32" x="63.623047"/>
      </g>
     </g>
    </g>
    <g id="text_37">
     <!-- Standardized value -->
     <g transform="translate(439.578352 183.947969) rotate(-90) scale(0.1 -0.1)">
      <defs>
       <path id="DejaVuSans-53" d="M 3425 4513 
L 3425 3897 
Q 3066 4069 2747 4153 
Q 2428 4238 2131 4238 
Q 1616 4238 1336 4038 
Q 1056 3838 1056 3469 
Q 1056 3159 1242 3001 
Q 1428 2844 1947 2747 
L 2328 2669 
Q 3034 2534 3370 2195 
Q 3706 1856 3706 1288 
Q 3706 609 3251 259 
Q 2797 -91 1919 -91 
Q 1588 -91 1214 -16 
Q 841 59 441 206 
L 441 856 
Q 825 641 1194 531 
Q 1563 422 1919 422 
Q 2459 422 2753 634 
Q 3047 847 3047 1241 
Q 3047 1584 2836 1778 
Q 2625 1972 2144 2069 
L 1759 2144 
Q 1053 2284 737 2584 
Q 422 2884 422 3419 
Q 422 4038 858 4394 
Q 1294 4750 2059 4750 
Q 2388 4750 2728 4690 
Q 3069 4631 3425 4513 
z
" transform="scale(0.015625)"/>
       <path id="DejaVuSans-7a" d="M 353 3500 
L 3084 3500 
L 3084 2975 
L 922 459 
L 3084 459 
L 3084 0 
L 275 0 
L 275 525 
L 2438 3041 
L 353 3041 
L 353 3500 
z
" transform="scale(0.015625)"/>
      </defs>
      <use xlink:href="#DejaVuSans-53"/>
      <use xlink:href="#DejaVuSans-74" x="63.476562"/>
      <use xlink:href="#DejaVuSans-61" x="102.685547"/>
      <use xlink:href="#DejaVuSans-6e" x="163.964844"/>
      <use xlink:href="#DejaVuSans-64" x="227.34375"/>
      <use xlink:href="#DejaVuSans-61" x="290.820312"/>
      <use xlink:href="#DejaVuSans-72" x="352.099609"/>
      <use xlink:href="#DejaVuSans-64" x="391.462891"/>
      <use xlink:href="#DejaVuSans-69" x="454.939453"/>
      <use xlink:href="#DejaVuSans-7a" x="482.722656"/>
      <use xlink:href="#DejaVuSans-65" x="535.212891"/>
      <use xlink:href="#DejaVuSans-64" x="596.736328"/>
      <use xlink:href="#DejaVuSans-20" x="660.212891"/>
      <use xlink:href="#DejaVuSans-76" x="692"/>
      <use xlink:href="#DejaVuSans-61" x="751.179688"/>
      <use xlink:href="#DejaVuSans-6c" x="812.458984"/>
      <use xlink:href="#DejaVuSans-75" x="840.242188"/>
      <use xlink:href="#DejaVuSans-65" x="903.621094"/>
     </g>
    </g>
   </g>
   <g id="line2d_32">
    <path d="M 467.400227 188.182915 
L 835.130455 188.182915 
" clip-path="url(#p96491fd0e8)" style="fill: none; stroke: #808080; stroke-width: 0.8; stroke-linecap: square"/>
   </g>
   <g id="patch_7">
    <path d="M 467.400227 245.93875 
L 467.400227 25.44 
" style="fill: none; stroke: #000000; stroke-width: 0.8; stroke-linejoin: miter; stroke-linecap: square"/>
   </g>
   <g id="patch_8">
    <path d="M 467.400227 245.93875 
L 835.130455 245.93875 
" style="fill: none; stroke: #000000; stroke-width: 0.8; stroke-linejoin: miter; stroke-linecap: square"/>
   </g>
   <g id="PathCollection_8">
    <defs>
     <path id="C0_0_3346305532" d="M -3 6 
L 0 3 
L 3 6 
L 6 3 
L 3 -0 
L 6 -3 
L 3 -6 
L 0 -3 
L -3 -6 
L -6 -3 
L -3 0 
L -6 3 
z
"/>
    </defs>
    <g clip-path="url(#p96491fd0e8)">
     <use xlink:href="#C0_0_3346305532" x="520.3591" y="199.627506" style="fill: #3b83e5; fill-opacity: 0.7; stroke: #000000; stroke-opacity: 0.7; stroke-width: 0.5"/>
    </g>
    <g clip-path="url(#p96491fd0e8)">
     <use xlink:href="#C0_0_3346305532" x="502.300032" y="193.676209" style="fill: #3b83e5; fill-opacity: 0.7; stroke: #000000; stroke-opacity: 0.7; stroke-width: 0.5"/>
    </g>
    <g clip-path="url(#p96491fd0e8)">
     <use xlink:href="#C0_0_3346305532" x="520.060927" y="188.006385" style="fill: #3b83e5; fill-opacity: 0.7; stroke: #000000; stroke-opacity: 0.7; stroke-width: 0.5"/>
    </g>
   </g>
   <g id="PathCollection_9">
    <defs>
     <path id="C1_0_5f08e0b8d8" d="M -3 6 
L 0 3 
L 3 6 
L 6 3 
L 3 -0 
L 6 -3 
L 3 -6 
L 0 -3 
L -3 -6 
L -6 -3 
L -3 0 
L -6 3 
z
"/>
    </defs>
    <g clip-path="url(#p96491fd0e8)">
     <use xlink:href="#C1_0_5f08e0b8d8" x="592.648894" y="197.860309" style="fill: #ff7f0e; fill-opacity: 0.7; stroke: #000000; stroke-opacity: 0.7; stroke-width: 0.5"/>
    </g>
    <g clip-path="url(#p96491fd0e8)">
     <use xlink:href="#C1_0_5f08e0b8d8" x="606.70271" y="179.685321" style="fill: #ff7f0e; fill-opacity: 0.7; stroke: #000000; stroke-opacity: 0.7; stroke-width: 0.5"/>
    </g>
    <g clip-path="url(#p96491fd0e8)">
     <use xlink:href="#C1_0_5f08e0b8d8" x="601.935795" y="130.741724" style="fill: #ff7f0e; fill-opacity: 0.7; stroke: #000000; stroke-opacity: 0.7; stroke-width: 0.5"/>
    </g>
   </g>
   <g id="PathCollection_10">
    <defs>
     <path id="C2_0_e521275590" d="M -3 6 
L 0 3 
L 3 6 
L 6 3 
L 3 -0 
L 6 -3 
L 3 -6 
L 0 -3 
L -3 -6 
L -6 -3 
L -3 0 
L -6 3 
z
"/>
    </defs>
    <g clip-path="url(#p96491fd0e8)">
     <use xlink:href="#C2_0_e521275590" x="688.419059" y="188.194043" style="fill: #2ca02c; fill-opacity: 0.7; stroke: #000000; stroke-opacity: 0.7; stroke-width: 0.5"/>
    </g>
    <g clip-path="url(#p96491fd0e8)">
     <use xlink:href="#C2_0_e521275590" x="710.985861" y="184.023946" style="fill: #2ca02c; fill-opacity: 0.7; stroke: #000000; stroke-opacity: 0.7; stroke-width: 0.5"/>
    </g>
    <g clip-path="url(#p96491fd0e8)">
     <use xlink:href="#C2_0_e521275590" x="704.587583" y="193.278427" style="fill: #2ca02c; fill-opacity: 0.7; stroke: #000000; stroke-opacity: 0.7; stroke-width: 0.5"/>
    </g>
   </g>
   <g id="PathCollection_11">
    <defs>
     <path id="C3_0_51c7efc8f4" d="M -3 6 
L 0 3 
L 3 6 
L 6 3 
L 3 -0 
L 6 -3 
L 3 -6 
L 0 -3 
L -3 -6 
L -6 -3 
L -3 0 
L -6 3 
z
"/>
    </defs>
    <g clip-path="url(#p96491fd0e8)">
     <use xlink:href="#C3_0_51c7efc8f4" x="787.938368" y="174.216367" style="fill: #2ca02c; fill-opacity: 0.7; stroke: #000000; stroke-opacity: 0.7; stroke-width: 0.5"/>
    </g>
    <g clip-path="url(#p96491fd0e8)">
     <use xlink:href="#C3_0_51c7efc8f4" x="787.549661" y="143.179923" style="fill: #2ca02c; fill-opacity: 0.7; stroke: #000000; stroke-opacity: 0.7; stroke-width: 0.5"/>
    </g>
    <g clip-path="url(#p96491fd0e8)">
     <use xlink:href="#C3_0_51c7efc8f4" x="790.687052" y="184.729424" style="fill: #2ca02c; fill-opacity: 0.7; stroke: #000000; stroke-opacity: 0.7; stroke-width: 0.5"/>
    </g>
   </g>
   <g id="PathCollection_12">
    <path d="M 520.886621 181.823161 
L 529.371902 173.337879 
L 520.886621 164.852598 
L 512.401339 173.337879 
z
" clip-path="url(#p96491fd0e8)" style="fill: #3b83e5; fill-opacity: 0.7; stroke: #000000; stroke-opacity: 0.7; stroke-width: 0.5"/>
    <path d="M 510.040918 173.784411 
L 518.5262 165.29913 
L 510.040918 156.813849 
L 501.555637 165.29913 
z
" clip-path="url(#p96491fd0e8)" style="fill: #3b83e5; fill-opacity: 0.7; stroke: #000000; stroke-opacity: 0.7; stroke-width: 0.5"/>
    <path d="M 526.889878 160.680649 
L 535.375159 152.195368 
L 526.889878 143.710086 
L 518.404597 152.195368 
z
" clip-path="url(#p96491fd0e8)" style="fill: #3b83e5; fill-opacity: 0.7; stroke: #000000; stroke-opacity: 0.7; stroke-width: 0.5"/>
   </g>
   <g id="PathCollection_13">
    <path d="M 606.654313 207.156869 
L 615.139594 198.671588 
L 606.654313 190.186306 
L 598.169031 198.671588 
z
" clip-path="url(#p96491fd0e8)" style="fill: #ff7f0e; fill-opacity: 0.7; stroke: #000000; stroke-opacity: 0.7; stroke-width: 0.5"/>
    <path d="M 615.356194 207.883389 
L 623.841476 199.398107 
L 615.356194 190.912826 
L 606.870913 199.398107 
z
" clip-path="url(#p96491fd0e8)" style="fill: #ff7f0e; fill-opacity: 0.7; stroke: #000000; stroke-opacity: 0.7; stroke-width: 0.5"/>
    <path d="M 614.620439 207.184459 
L 623.105721 198.699178 
L 614.620439 190.213896 
L 606.135158 198.699178 
z
" clip-path="url(#p96491fd0e8)" style="fill: #ff7f0e; fill-opacity: 0.7; stroke: #000000; stroke-opacity: 0.7; stroke-width: 0.5"/>
   </g>
   <g id="PathCollection_14">
    <path d="M 685.315705 43.947952 
L 693.800987 35.46267 
L 685.315705 26.977389 
L 676.830424 35.46267 
z
" clip-path="url(#p96491fd0e8)" style="fill: #2ca02c; fill-opacity: 0.7; stroke: #000000; stroke-opacity: 0.7; stroke-width: 0.5"/>
    <path d="M 700.971246 202.083166 
L 709.456527 193.597885 
L 700.971246 185.112603 
L 692.485965 193.597885 
z
" clip-path="url(#p96491fd0e8)" style="fill: #2ca02c; fill-opacity: 0.7; stroke: #000000; stroke-opacity: 0.7; stroke-width: 0.5"/>
    <path d="M 685.615257 200.971691 
L 694.100538 192.486409 
L 685.615257 184.001128 
L 677.129976 192.486409 
z
" clip-path="url(#p96491fd0e8)" style="fill: #2ca02c; fill-opacity: 0.7; stroke: #000000; stroke-opacity: 0.7; stroke-width: 0.5"/>
   </g>
   <g id="PathCollection_15">
    <path d="M 792.101326 244.401361 
L 800.586607 235.91608 
L 792.101326 227.430798 
L 783.616045 235.91608 
z
" clip-path="url(#p96491fd0e8)" style="fill: #2ca02c; fill-opacity: 0.7; stroke: #000000; stroke-opacity: 0.7; stroke-width: 0.5"/>
    <path d="M 779.683181 213.000046 
L 788.168462 204.514764 
L 779.683181 196.029483 
L 771.197899 204.514764 
z
" clip-path="url(#p96491fd0e8)" style="fill: #2ca02c; fill-opacity: 0.7; stroke: #000000; stroke-opacity: 0.7; stroke-width: 0.5"/>
    <path d="M 786.103391 202.049926 
L 794.588673 193.564645 
L 786.103391 185.079364 
L 777.61811 193.564645 
z
" clip-path="url(#p96491fd0e8)" style="fill: #2ca02c; fill-opacity: 0.7; stroke: #000000; stroke-opacity: 0.7; stroke-width: 0.5"/>
   </g>
   <g id="text_38">
    <!-- b) Feature values in extreme years -->
    <g transform="translate(467.400227 19.44) scale(0.12 -0.12)">
     <defs>
      <path id="DejaVuSans-78" d="M 3513 3500 
L 2247 1797 
L 3578 0 
L 2900 0 
L 1881 1375 
L 863 0 
L 184 0 
L 1544 1831 
L 300 3500 
L 978 3500 
L 1906 2253 
L 2834 3500 
L 3513 3500 
z
" transform="scale(0.015625)"/>
     </defs>
     <use xlink:href="#DejaVuSans-62"/>
     <use xlink:href="#DejaVuSans-29" x="63.476562"/>
     <use xlink:href="#DejaVuSans-20" x="102.490234"/>
     <use xlink:href="#DejaVuSans-46" x="134.277344"/>
     <use xlink:href="#DejaVuSans-65" x="186.296875"/>
     <use xlink:href="#DejaVuSans-61" x="247.820312"/>
     <use xlink:href="#DejaVuSans-74" x="309.099609"/>
     <use xlink:href="#DejaVuSans-75" x="348.308594"/>
     <use xlink:href="#DejaVuSans-72" x="411.6875"/>
     <use xlink:href="#DejaVuSans-65" x="450.550781"/>
     <use xlink:href="#DejaVuSans-20" x="512.074219"/>
     <use xlink:href="#DejaVuSans-76" x="543.861328"/>
     <use xlink:href="#DejaVuSans-61" x="603.041016"/>
     <use xlink:href="#DejaVuSans-6c" x="664.320312"/>
     <use xlink:href="#DejaVuSans-75" x="692.103516"/>
     <use xlink:href="#DejaVuSans-65" x="755.482422"/>
     <use xlink:href="#DejaVuSans-73" x="817.005859"/>
     <use xlink:href="#DejaVuSans-20" x="869.105469"/>
     <use xlink:href="#DejaVuSans-69" x="900.892578"/>
     <use xlink:href="#DejaVuSans-6e" x="928.675781"/>
     <use xlink:href="#DejaVuSans-20" x="992.054688"/>
     <use xlink:href="#DejaVuSans-65" x="1023.841797"/>
     <use xlink:href="#DejaVuSans-78" x="1083.615234"/>
     <use xlink:href="#DejaVuSans-74" x="1142.794922"/>
     <use xlink:href="#DejaVuSans-72" x="1182.003906"/>
     <use xlink:href="#DejaVuSans-65" x="1220.867188"/>
     <use xlink:href="#DejaVuSans-6d" x="1282.390625"/>
     <use xlink:href="#DejaVuSans-65" x="1379.802734"/>
     <use xlink:href="#DejaVuSans-20" x="1441.326172"/>
     <use xlink:href="#DejaVuSans-79" x="1473.113281"/>
     <use xlink:href="#DejaVuSans-65" x="1532.292969"/>
     <use xlink:href="#DejaVuSans-61" x="1593.816406"/>
     <use xlink:href="#DejaVuSans-72" x="1655.095703"/>
     <use xlink:href="#DejaVuSans-73" x="1696.208984"/>
    </g>
   </g>
  </g>
 </g>
 <defs>
  <clipPath id="p9037b1c819">
   <rect x="53.03" y="25.44" width="367.730227" height="220.49875"/>
  </clipPath>
  <clipPath id="p96491fd0e8">
   <rect x="467.400227" y="25.44" width="367.730227" height="220.49875"/>
  </clipPath>
 </defs>
</svg>
