<?xml version="1.0" encoding="utf-8" standalone="no"?>
<!DOCTYPE svg PUBLIC "-//W3C//DTD SVG 1.1//EN"
  "http://www.w3.org/Graphics/SVG/1.1/DTD/svg11.dtd">
<svg xmlns:xlink="http://www.w3.org/1999/xlink" width="1080pt" height="360pt" viewBox="0 0 1080 360" xmlns="http://www.w3.org/2000/svg" version="1.1">
 <metadata>
  <rdf:RDF xmlns:dc="http://purl.org/dc/elements/1.1/" xmlns:cc="http://creativecommons.org/ns#" xmlns:rdf="http://www.w3.org/1999/02/22-rdf-syntax-ns#">
   <cc:Work>
    <dc:type rdf:resource="http://purl.org/dc/dcmitype/StillImage"/>
    <dc:date>2023-08-11T09:18:22.672760</dc:date>
    <dc:format>image/svg+xml</dc:format>
    <dc:creator>
     <cc:Agent>
      <dc:title>Matplotlib v3.7.1, https://matplotlib.org/</dc:title>
     </cc:Agent>
    </dc:creator>
   </cc:Work>
  </rdf:RDF>
 </metadata>
 <defs>
  <style type="text/css">*{stroke-linejoin: round; stroke-linecap: butt}</style>
 </defs>
 <g id="figure_1">
  <g id="patch_1">
   <path d="M 0 360 
L 1080 360 
L 1080 0 
L 0 0 
z
" style="fill: #ffffff"/>
  </g>
  <g id="axes_1">
   <g id="patch_2">
    <path d="M 135 320.4 
L 515.454545 320.4 
L 515.454545 43.2 
L 135 43.2 
z
" style="fill: #ffffff"/>
   </g>
   <g id="patch_3">
    <path d="M 138.458678 291.282955 
L 166.128099 291.282955 
L 166.128099 189.010227 
L 138.458678 189.010227 
L 138.458678 291.282955 
z
" clip-path="url(#p8ddc449313)" style="fill: #ffffff; stroke: #272727; stroke-width: 1.5; stroke-linejoin: miter"/>
   </g>
   <g id="patch_4">
    <path d="M 173.045455 197.728977 
L 200.714876 197.728977 
L 200.714876 132.3 
L 173.045455 132.3 
L 173.045455 197.728977 
z
" clip-path="url(#p8ddc449313)" style="fill: #e8e880; stroke: #272727; stroke-width: 1.5; stroke-linejoin: miter"/>
   </g>
   <g id="patch_5">
    <path d="M 207.632231 167.993182 
L 235.301653 167.993182 
L 235.301653 114.453409 
L 207.632231 114.453409 
L 207.632231 167.993182 
z
" clip-path="url(#p8ddc449313)" style="fill: #c1db84; stroke: #272727; stroke-width: 1.5; stroke-linejoin: miter"/>
   </g>
   <g id="patch_6">
    <path d="M 242.219008 155.260227 
L 269.88843 155.260227 
L 269.88843 111.372443 
L 242.219008 111.372443 
L 242.219008 155.260227 
z
" clip-path="url(#p8ddc449313)" style="fill: #9ecd88; stroke: #272727; stroke-width: 1.5; stroke-linejoin: miter"/>
   </g>
   <g id="patch_7">
    <path d="M 276.805785 143.920739 
L 304.475207 143.920739 
L 304.475207 107.946307 
L 276.805785 107.946307 
L 276.805785 143.920739 
z
" clip-path="url(#p8ddc449313)" style="fill: #7ebb89; stroke: #272727; stroke-width: 1.5; stroke-linejoin: miter"/>
   </g>
   <g id="patch_8">
    <path d="M 311.392562 136.403693 
L 339.061983 136.403693 
L 339.061983 104.136648 
L 311.392562 104.136648 
L 311.392562 136.403693 
z
" clip-path="url(#p8ddc449313)" style="fill: #62a585; stroke: #272727; stroke-width: 1.5; stroke-linejoin: miter"/>
   </g>
   <g id="patch_9">
    <path d="M 345.979339 131.635227 
L 373.64876 131.635227 
L 373.64876 103.471875 
L 345.979339 103.471875 
L 345.979339 131.635227 
z
" clip-path="url(#p8ddc449313)" style="fill: #4c907e; stroke: #272727; stroke-width: 1.5; stroke-linejoin: miter"/>
   </g>
   <g id="patch_10">
    <path d="M 380.566116 126.623864 
L 408.235537 126.623864 
L 408.235537 104.942045 
L 380.566116 104.942045 
L 380.566116 126.623864 
z
" clip-path="url(#p8ddc449313)" style="fill: #427c76; stroke: #272727; stroke-width: 1.5; stroke-linejoin: miter"/>
   </g>
   <g id="patch_11">
    <path d="M 415.152893 120.461932 
L 442.822314 120.461932 
L 442.822314 105.606818 
L 415.152893 105.606818 
L 415.152893 120.461932 
z
" clip-path="url(#p8ddc449313)" style="fill: #3a696c; stroke: #272727; stroke-width: 1.5; stroke-linejoin: miter"/>
   </g>
   <g id="patch_12">
    <path d="M 449.739669 116.064205 
L 477.409091 116.064205 
L 477.409091 104.481818 
L 449.739669 104.481818 
L 449.739669 116.064205 
z
" clip-path="url(#p8ddc449313)" style="fill: #345760; stroke: #272727; stroke-width: 1.5; stroke-linejoin: miter"/>
   </g>
   <g id="patch_13">
    <path d="M 484.326446 110.976136 
L 511.995868 110.976136 
L 511.995868 110.976136 
L 484.326446 110.976136 
L 484.326446 110.976136 
z
" clip-path="url(#p8ddc449313)" style="fill: #304652; stroke: #272727; stroke-width: 1.5; stroke-linejoin: miter"/>
   </g>
   <g id="matplotlib.axis_1">
    <g id="xtick_1">
     <g id="line2d_1">
      <defs>
       <path id="mef4c32c239" d="M 0 0 
L 0 3.5 
" style="stroke: #000000; stroke-width: 0.8"/>
      </defs>
      <g>
       <use xlink:href="#mef4c32c239" x="152.293388" y="320.4" style="stroke: #000000; stroke-width: 0.8"/>
      </g>
     </g>
     <g id="text_1">
      <!-- 1 -->
      <g transform="translate(149.112138 334.998438) scale(0.1 -0.1)">
       <defs>
        <path id="DejaVuSans-31" d="M 794 531 
L 1825 531 
L 1825 4091 
L 703 3866 
L 703 4441 
L 1819 4666 
L 2450 4666 
L 2450 531 
L 3481 531 
L 3481 0 
L 794 0 
L 794 531 
z
" transform="scale(0.015625)"/>
       </defs>
       <use xlink:href="#DejaVuSans-31"/>
      </g>
     </g>
    </g>
    <g id="xtick_2">
     <g id="line2d_2">
      <g>
       <use xlink:href="#mef4c32c239" x="186.880165" y="320.4" style="stroke: #000000; stroke-width: 0.8"/>
      </g>
     </g>
     <g id="text_2">
      <!-- 2 -->
      <g transform="translate(183.698915 334.998438) scale(0.1 -0.1)">
       <defs>
        <path id="DejaVuSans-32" d="M 1228 531 
L 3431 531 
L 3431 0 
L 469 0 
L 469 531 
Q 828 903 1448 1529 
Q 2069 2156 2228 2338 
Q 2531 2678 2651 2914 
Q 2772 3150 2772 3378 
Q 2772 3750 2511 3984 
Q 2250 4219 1831 4219 
Q 1534 4219 1204 4116 
Q 875 4013 500 3803 
L 500 4441 
Q 881 4594 1212 4672 
Q 1544 4750 1819 4750 
Q 2544 4750 2975 4387 
Q 3406 4025 3406 3419 
Q 3406 3131 3298 2873 
Q 3191 2616 2906 2266 
Q 2828 2175 2409 1742 
Q 1991 1309 1228 531 
z
" transform="scale(0.015625)"/>
       </defs>
       <use xlink:href="#DejaVuSans-32"/>
      </g>
     </g>
    </g>
    <g id="xtick_3">
     <g id="line2d_3">
      <g>
       <use xlink:href="#mef4c32c239" x="221.466942" y="320.4" style="stroke: #000000; stroke-width: 0.8"/>
      </g>
     </g>
     <g id="text_3">
      <!-- 3 -->
      <g transform="translate(218.285692 334.998438) scale(0.1 -0.1)">
       <defs>
        <path id="DejaVuSans-33" d="M 2597 2516 
Q 3050 2419 3304 2112 
Q 3559 1806 3559 1356 
Q 3559 666 3084 287 
Q 2609 -91 1734 -91 
Q 1441 -91 1130 -33 
Q 819 25 488 141 
L 488 750 
Q 750 597 1062 519 
Q 1375 441 1716 441 
Q 2309 441 2620 675 
Q 2931 909 2931 1356 
Q 2931 1769 2642 2001 
Q 2353 2234 1838 2234 
L 1294 2234 
L 1294 2753 
L 1863 2753 
Q 2328 2753 2575 2939 
Q 2822 3125 2822 3475 
Q 2822 3834 2567 4026 
Q 2313 4219 1838 4219 
Q 1578 4219 1281 4162 
Q 984 4106 628 3988 
L 628 4550 
Q 988 4650 1302 4700 
Q 1616 4750 1894 4750 
Q 2613 4750 3031 4423 
Q 3450 4097 3450 3541 
Q 3450 3153 3228 2886 
Q 3006 2619 2597 2516 
z
" transform="scale(0.015625)"/>
       </defs>
       <use xlink:href="#DejaVuSans-33"/>
      </g>
     </g>
    </g>
    <g id="xtick_4">
     <g id="line2d_4">
      <g>
       <use xlink:href="#mef4c32c239" x="256.053719" y="320.4" style="stroke: #000000; stroke-width: 0.8"/>
      </g>
     </g>
     <g id="text_4">
      <!-- 4 -->
      <g transform="translate(252.872469 334.998438) scale(0.1 -0.1)">
       <defs>
        <path id="DejaVuSans-34" d="M 2419 4116 
L 825 1625 
L 2419 1625 
L 2419 4116 
z
M 2253 4666 
L 3047 4666 
L 3047 1625 
L 3713 1625 
L 3713 1100 
L 3047 1100 
L 3047 0 
L 2419 0 
L 2419 1100 
L 313 1100 
L 313 1709 
L 2253 4666 
z
" transform="scale(0.015625)"/>
       </defs>
       <use xlink:href="#DejaVuSans-34"/>
      </g>
     </g>
    </g>
    <g id="xtick_5">
     <g id="line2d_5">
      <g>
       <use xlink:href="#mef4c32c239" x="290.640496" y="320.4" style="stroke: #000000; stroke-width: 0.8"/>
      </g>
     </g>
     <g id="text_5">
      <!-- 5 -->
      <g transform="translate(287.459246 334.998438) scale(0.1 -0.1)">
       <defs>
        <path id="DejaVuSans-35" d="M 691 4666 
L 3169 4666 
L 3169 4134 
L 1269 4134 
L 1269 2991 
Q 1406 3038 1543 3061 
Q 1681 3084 1819 3084 
Q 2600 3084 3056 2656 
Q 3513 2228 3513 1497 
Q 3513 744 3044 326 
Q 2575 -91 1722 -91 
Q 1428 -91 1123 -41 
Q 819 9 494 109 
L 494 744 
Q 775 591 1075 516 
Q 1375 441 1709 441 
Q 2250 441 2565 725 
Q 2881 1009 2881 1497 
Q 2881 1984 2565 2268 
Q 2250 2553 1709 2553 
Q 1456 2553 1204 2497 
Q 953 2441 691 2322 
L 691 4666 
z
" transform="scale(0.015625)"/>
       </defs>
       <use xlink:href="#DejaVuSans-35"/>
      </g>
     </g>
    </g>
    <g id="xtick_6">
     <g id="line2d_6">
      <g>
       <use xlink:href="#mef4c32c239" x="325.227273" y="320.4" style="stroke: #000000; stroke-width: 0.8"/>
      </g>
     </g>
     <g id="text_6">
      <!-- 6 -->
      <g transform="translate(322.046023 334.998438) scale(0.1 -0.1)">
       <defs>
        <path id="DejaVuSans-36" d="M 2113 2584 
Q 1688 2584 1439 2293 
Q 1191 2003 1191 1497 
Q 1191 994 1439 701 
Q 1688 409 2113 409 
Q 2538 409 2786 701 
Q 3034 994 3034 1497 
Q 3034 2003 2786 2293 
Q 2538 2584 2113 2584 
z
M 3366 4563 
L 3366 3988 
Q 3128 4100 2886 4159 
Q 2644 4219 2406 4219 
Q 1781 4219 1451 3797 
Q 1122 3375 1075 2522 
Q 1259 2794 1537 2939 
Q 1816 3084 2150 3084 
Q 2853 3084 3261 2657 
Q 3669 2231 3669 1497 
Q 3669 778 3244 343 
Q 2819 -91 2113 -91 
Q 1303 -91 875 529 
Q 447 1150 447 2328 
Q 447 3434 972 4092 
Q 1497 4750 2381 4750 
Q 2619 4750 2861 4703 
Q 3103 4656 3366 4563 
z
" transform="scale(0.015625)"/>
       </defs>
       <use xlink:href="#DejaVuSans-36"/>
      </g>
     </g>
    </g>
    <g id="xtick_7">
     <g id="line2d_7">
      <g>
       <use xlink:href="#mef4c32c239" x="359.81405" y="320.4" style="stroke: #000000; stroke-width: 0.8"/>
      </g>
     </g>
     <g id="text_7">
      <!-- 7 -->
      <g transform="translate(356.6328 334.998438) scale(0.1 -0.1)">
       <defs>
        <path id="DejaVuSans-37" d="M 525 4666 
L 3525 4666 
L 3525 4397 
L 1831 0 
L 1172 0 
L 2766 4134 
L 525 4134 
L 525 4666 
z
" transform="scale(0.015625)"/>
       </defs>
       <use xlink:href="#DejaVuSans-37"/>
      </g>
     </g>
    </g>
    <g id="xtick_8">
     <g id="line2d_8">
      <g>
       <use xlink:href="#mef4c32c239" x="394.400826" y="320.4" style="stroke: #000000; stroke-width: 0.8"/>
      </g>
     </g>
     <g id="text_8">
      <!-- 8 -->
      <g transform="translate(391.219576 334.998438) scale(0.1 -0.1)">
       <defs>
        <path id="DejaVuSans-38" d="M 2034 2216 
Q 1584 2216 1326 1975 
Q 1069 1734 1069 1313 
Q 1069 891 1326 650 
Q 1584 409 2034 409 
Q 2484 409 2743 651 
Q 3003 894 3003 1313 
Q 3003 1734 2745 1975 
Q 2488 2216 2034 2216 
z
M 1403 2484 
Q 997 2584 770 2862 
Q 544 3141 544 3541 
Q 544 4100 942 4425 
Q 1341 4750 2034 4750 
Q 2731 4750 3128 4425 
Q 3525 4100 3525 3541 
Q 3525 3141 3298 2862 
Q 3072 2584 2669 2484 
Q 3125 2378 3379 2068 
Q 3634 1759 3634 1313 
Q 3634 634 3220 271 
Q 2806 -91 2034 -91 
Q 1263 -91 848 271 
Q 434 634 434 1313 
Q 434 1759 690 2068 
Q 947 2378 1403 2484 
z
M 1172 3481 
Q 1172 3119 1398 2916 
Q 1625 2713 2034 2713 
Q 2441 2713 2670 2916 
Q 2900 3119 2900 3481 
Q 2900 3844 2670 4047 
Q 2441 4250 2034 4250 
Q 1625 4250 1398 4047 
Q 1172 3844 1172 3481 
z
" transform="scale(0.015625)"/>
       </defs>
       <use xlink:href="#DejaVuSans-38"/>
      </g>
     </g>
    </g>
    <g id="xtick_9">
     <g id="line2d_9">
      <g>
       <use xlink:href="#mef4c32c239" x="428.987603" y="320.4" style="stroke: #000000; stroke-width: 0.8"/>
      </g>
     </g>
     <g id="text_9">
      <!-- 9 -->
      <g transform="translate(425.806353 334.998438) scale(0.1 -0.1)">
       <defs>
        <path id="DejaVuSans-39" d="M 703 97 
L 703 672 
Q 941 559 1184 500 
Q 1428 441 1663 441 
Q 2288 441 2617 861 
Q 2947 1281 2994 2138 
Q 2813 1869 2534 1725 
Q 2256 1581 1919 1581 
Q 1219 1581 811 2004 
Q 403 2428 403 3163 
Q 403 3881 828 4315 
Q 1253 4750 1959 4750 
Q 2769 4750 3195 4129 
Q 3622 3509 3622 2328 
Q 3622 1225 3098 567 
Q 2575 -91 1691 -91 
Q 1453 -91 1209 -44 
Q 966 3 703 97 
z
M 1959 2075 
Q 2384 2075 2632 2365 
Q 2881 2656 2881 3163 
Q 2881 3666 2632 3958 
Q 2384 4250 1959 4250 
Q 1534 4250 1286 3958 
Q 1038 3666 1038 3163 
Q 1038 2656 1286 2365 
Q 1534 2075 1959 2075 
z
" transform="scale(0.015625)"/>
       </defs>
       <use xlink:href="#DejaVuSans-39"/>
      </g>
     </g>
    </g>
    <g id="xtick_10">
     <g id="line2d_10">
      <g>
       <use xlink:href="#mef4c32c239" x="463.57438" y="320.4" style="stroke: #000000; stroke-width: 0.8"/>
      </g>
     </g>
     <g id="text_10">
      <!-- 10 -->
      <g transform="translate(457.21188 334.998438) scale(0.1 -0.1)">
       <defs>
        <path id="DejaVuSans-30" d="M 2034 4250 
Q 1547 4250 1301 3770 
Q 1056 3291 1056 2328 
Q 1056 1369 1301 889 
Q 1547 409 2034 409 
Q 2525 409 2770 889 
Q 3016 1369 3016 2328 
Q 3016 3291 2770 3770 
Q 2525 4250 2034 4250 
z
M 2034 4750 
Q 2819 4750 3233 4129 
Q 3647 3509 3647 2328 
Q 3647 1150 3233 529 
Q 2819 -91 2034 -91 
Q 1250 -91 836 529 
Q 422 1150 422 2328 
Q 422 3509 836 4129 
Q 1250 4750 2034 4750 
z
" transform="scale(0.015625)"/>
       </defs>
       <use xlink:href="#DejaVuSans-31"/>
       <use xlink:href="#DejaVuSans-30" x="63.623047"/>
      </g>
     </g>
    </g>
    <g id="xtick_11">
     <g id="line2d_11">
      <g>
       <use xlink:href="#mef4c32c239" x="498.161157" y="320.4" style="stroke: #000000; stroke-width: 0.8"/>
      </g>
     </g>
     <g id="text_11">
      <!-- 11 -->
      <g transform="translate(491.798657 334.998438) scale(0.1 -0.1)">
       <use xlink:href="#DejaVuSans-31"/>
       <use xlink:href="#DejaVuSans-31" x="63.623047"/>
      </g>
     </g>
    </g>
    <g id="text_12">
     <!-- MME size -->
     <g transform="translate(302.156179 348.676562) scale(0.1 -0.1)">
      <defs>
       <path id="DejaVuSans-4d" d="M 628 4666 
L 1569 4666 
L 2759 1491 
L 3956 4666 
L 4897 4666 
L 4897 0 
L 4281 0 
L 4281 4097 
L 3078 897 
L 2444 897 
L 1241 4097 
L 1241 0 
L 628 0 
L 628 4666 
z
" transform="scale(0.015625)"/>
       <path id="DejaVuSans-45" d="M 628 4666 
L 3578 4666 
L 3578 4134 
L 1259 4134 
L 1259 2753 
L 3481 2753 
L 3481 2222 
L 1259 2222 
L 1259 531 
L 3634 531 
L 3634 0 
L 628 0 
L 628 4666 
z
" transform="scale(0.015625)"/>
       <path id="DejaVuSans-20" transform="scale(0.015625)"/>
       <path id="DejaVuSans-73" d="M 2834 3397 
L 2834 2853 
Q 2591 2978 2328 3040 
Q 2066 3103 1784 3103 
Q 1356 3103 1142 2972 
Q 928 2841 928 2578 
Q 928 2378 1081 2264 
Q 1234 2150 1697 2047 
L 1894 2003 
Q 2506 1872 2764 1633 
Q 3022 1394 3022 966 
Q 3022 478 2636 193 
Q 2250 -91 1575 -91 
Q 1294 -91 989 -36 
Q 684 19 347 128 
L 347 722 
Q 666 556 975 473 
Q 1284 391 1588 391 
Q 1994 391 2212 530 
Q 2431 669 2431 922 
Q 2431 1156 2273 1281 
Q 2116 1406 1581 1522 
L 1381 1569 
Q 847 1681 609 1914 
Q 372 2147 372 2553 
Q 372 3047 722 3315 
Q 1072 3584 1716 3584 
Q 2034 3584 2315 3537 
Q 2597 3491 2834 3397 
z
" transform="scale(0.015625)"/>
       <path id="DejaVuSans-69" d="M 603 3500 
L 1178 3500 
L 1178 0 
L 603 0 
L 603 3500 
z
M 603 4863 
L 1178 4863 
L 1178 4134 
L 603 4134 
L 603 4863 
z
" transform="scale(0.015625)"/>
       <path id="DejaVuSans-7a" d="M 353 3500 
L 3084 3500 
L 3084 2975 
L 922 459 
L 3084 459 
L 3084 0 
L 275 0 
L 275 525 
L 2438 3041 
L 353 3041 
L 353 3500 
z
" transform="scale(0.015625)"/>
       <path id="DejaVuSans-65" d="M 3597 1894 
L 3597 1613 
L 953 1613 
Q 991 1019 1311 708 
Q 1631 397 2203 397 
Q 2534 397 2845 478 
Q 3156 559 3463 722 
L 3463 178 
Q 3153 47 2828 -22 
Q 2503 -91 2169 -91 
Q 1331 -91 842 396 
Q 353 884 353 1716 
Q 353 2575 817 3079 
Q 1281 3584 2069 3584 
Q 2775 3584 3186 3129 
Q 3597 2675 3597 1894 
z
M 3022 2063 
Q 3016 2534 2758 2815 
Q 2500 3097 2075 3097 
Q 1594 3097 1305 2825 
Q 1016 2553 972 2059 
L 3022 2063 
z
" transform="scale(0.015625)"/>
      </defs>
      <use xlink:href="#DejaVuSans-4d"/>
      <use xlink:href="#DejaVuSans-4d" x="86.279297"/>
      <use xlink:href="#DejaVuSans-45" x="172.558594"/>
      <use xlink:href="#DejaVuSans-20" x="235.742188"/>
      <use xlink:href="#DejaVuSans-73" x="267.529297"/>
      <use xlink:href="#DejaVuSans-69" x="319.628906"/>
      <use xlink:href="#DejaVuSans-7a" x="347.412109"/>
      <use xlink:href="#DejaVuSans-65" x="399.902344"/>
     </g>
    </g>
   </g>
   <g id="matplotlib.axis_2">
    <g id="ytick_1">
     <g id="line2d_12">
      <defs>
       <path id="m74df910131" d="M 0 0 
L -3.5 0 
" style="stroke: #000000; stroke-width: 0.8"/>
      </defs>
      <g>
       <use xlink:href="#m74df910131" x="135" y="313.169318" style="stroke: #000000; stroke-width: 0.8"/>
      </g>
     </g>
     <g id="text_13">
      <!-- 0.0 -->
      <g transform="translate(112.096875 316.968537) scale(0.1 -0.1)">
       <defs>
        <path id="DejaVuSans-2e" d="M 684 794 
L 1344 794 
L 1344 0 
L 684 0 
L 684 794 
z
" transform="scale(0.015625)"/>
       </defs>
       <use xlink:href="#DejaVuSans-30"/>
       <use xlink:href="#DejaVuSans-2e" x="63.623047"/>
       <use xlink:href="#DejaVuSans-30" x="95.410156"/>
      </g>
     </g>
    </g>
    <g id="ytick_2">
     <g id="line2d_13">
      <g>
       <use xlink:href="#m74df910131" x="135" y="262.032955" style="stroke: #000000; stroke-width: 0.8"/>
      </g>
     </g>
     <g id="text_14">
      <!-- 0.1 -->
      <g transform="translate(112.096875 265.832173) scale(0.1 -0.1)">
       <use xlink:href="#DejaVuSans-30"/>
       <use xlink:href="#DejaVuSans-2e" x="63.623047"/>
       <use xlink:href="#DejaVuSans-31" x="95.410156"/>
      </g>
     </g>
    </g>
    <g id="ytick_3">
     <g id="line2d_14">
      <g>
       <use xlink:href="#m74df910131" x="135" y="210.896591" style="stroke: #000000; stroke-width: 0.8"/>
      </g>
     </g>
     <g id="text_15">
      <!-- 0.2 -->
      <g transform="translate(112.096875 214.69581) scale(0.1 -0.1)">
       <use xlink:href="#DejaVuSans-30"/>
       <use xlink:href="#DejaVuSans-2e" x="63.623047"/>
       <use xlink:href="#DejaVuSans-32" x="95.410156"/>
      </g>
     </g>
    </g>
    <g id="ytick_4">
     <g id="line2d_15">
      <g>
       <use xlink:href="#m74df910131" x="135" y="159.760227" style="stroke: #000000; stroke-width: 0.8"/>
      </g>
     </g>
     <g id="text_16">
      <!-- 0.3 -->
      <g transform="translate(112.096875 163.559446) scale(0.1 -0.1)">
       <use xlink:href="#DejaVuSans-30"/>
       <use xlink:href="#DejaVuSans-2e" x="63.623047"/>
       <use xlink:href="#DejaVuSans-33" x="95.410156"/>
      </g>
     </g>
    </g>
    <g id="ytick_5">
     <g id="line2d_16">
      <g>
       <use xlink:href="#m74df910131" x="135" y="108.623864" style="stroke: #000000; stroke-width: 0.8"/>
      </g>
     </g>
     <g id="text_17">
      <!-- 0.4 -->
      <g transform="translate(112.096875 112.423082) scale(0.1 -0.1)">
       <use xlink:href="#DejaVuSans-30"/>
       <use xlink:href="#DejaVuSans-2e" x="63.623047"/>
       <use xlink:href="#DejaVuSans-34" x="95.410156"/>
      </g>
     </g>
    </g>
    <g id="ytick_6">
     <g id="line2d_17">
      <g>
       <use xlink:href="#m74df910131" x="135" y="57.4875" style="stroke: #000000; stroke-width: 0.8"/>
      </g>
     </g>
     <g id="text_18">
      <!-- 0.5 -->
      <g transform="translate(112.096875 61.286719) scale(0.1 -0.1)">
       <use xlink:href="#DejaVuSans-30"/>
       <use xlink:href="#DejaVuSans-2e" x="63.623047"/>
       <use xlink:href="#DejaVuSans-35" x="95.410156"/>
      </g>
     </g>
    </g>
    <g id="text_19">
     <!-- R² -->
     <g transform="translate(106.017187 187.278906) rotate(-90) scale(0.1 -0.1)">
      <defs>
       <path id="DejaVuSans-52" d="M 2841 2188 
Q 3044 2119 3236 1894 
Q 3428 1669 3622 1275 
L 4263 0 
L 3584 0 
L 2988 1197 
Q 2756 1666 2539 1819 
Q 2322 1972 1947 1972 
L 1259 1972 
L 1259 0 
L 628 0 
L 628 4666 
L 2053 4666 
Q 2853 4666 3247 4331 
Q 3641 3997 3641 3322 
Q 3641 2881 3436 2590 
Q 3231 2300 2841 2188 
z
M 1259 4147 
L 1259 2491 
L 2053 2491 
Q 2509 2491 2742 2702 
Q 2975 2913 2975 3322 
Q 2975 3731 2742 3939 
Q 2509 4147 2053 4147 
L 1259 4147 
z
" transform="scale(0.015625)"/>
       <path id="DejaVuSans-b2" d="M 838 2444 
L 2163 2444 
L 2163 2088 
L 294 2088 
L 294 2431 
Q 400 2528 597 2703 
Q 1672 3656 1672 3950 
Q 1672 4156 1509 4282 
Q 1347 4409 1081 4409 
Q 919 4409 728 4354 
Q 538 4300 313 4191 
L 313 4575 
Q 553 4663 761 4706 
Q 969 4750 1147 4750 
Q 1600 4750 1872 4544 
Q 2144 4338 2144 4000 
Q 2144 3566 1109 2678 
Q 934 2528 838 2444 
z
" transform="scale(0.015625)"/>
      </defs>
      <use xlink:href="#DejaVuSans-52"/>
      <use xlink:href="#DejaVuSans-b2" x="69.482422"/>
     </g>
    </g>
   </g>
   <g id="line2d_18">
    <path d="M 152.293388 291.282955 
L 152.293388 307.8 
" clip-path="url(#p8ddc449313)" style="fill: none; stroke: #272727; stroke-width: 1.5; stroke-linecap: square"/>
   </g>
   <g id="line2d_19">
    <path d="M 152.293388 189.010227 
L 152.293388 165.282955 
" clip-path="url(#p8ddc449313)" style="fill: none; stroke: #272727; stroke-width: 1.5; stroke-linecap: square"/>
   </g>
   <g id="line2d_20">
    <path d="M 145.376033 307.8 
L 159.210744 307.8 
" clip-path="url(#p8ddc449313)" style="fill: none; stroke: #272727; stroke-width: 1.5; stroke-linecap: square"/>
   </g>
   <g id="line2d_21">
    <path d="M 145.376033 165.282955 
L 159.210744 165.282955 
" clip-path="url(#p8ddc449313)" style="fill: none; stroke: #272727; stroke-width: 1.5; stroke-linecap: square"/>
   </g>
   <g id="line2d_22"/>
   <g id="line2d_23">
    <path d="M 186.880165 197.728977 
L 186.880165 262.595455 
" clip-path="url(#p8ddc449313)" style="fill: none; stroke: #272727; stroke-width: 1.5; stroke-linecap: square"/>
   </g>
   <g id="line2d_24">
    <path d="M 186.880165 132.3 
L 186.880165 68.328409 
" clip-path="url(#p8ddc449313)" style="fill: none; stroke: #272727; stroke-width: 1.5; stroke-linecap: square"/>
   </g>
   <g id="line2d_25">
    <path d="M 179.96281 262.595455 
L 193.797521 262.595455 
" clip-path="url(#p8ddc449313)" style="fill: none; stroke: #272727; stroke-width: 1.5; stroke-linecap: square"/>
   </g>
   <g id="line2d_26">
    <path d="M 179.96281 68.328409 
L 193.797521 68.328409 
" clip-path="url(#p8ddc449313)" style="fill: none; stroke: #272727; stroke-width: 1.5; stroke-linecap: square"/>
   </g>
   <g id="line2d_27"/>
   <g id="line2d_28">
    <path d="M 221.466942 167.993182 
L 221.466942 237.640909 
" clip-path="url(#p8ddc449313)" style="fill: none; stroke: #272727; stroke-width: 1.5; stroke-linecap: square"/>
   </g>
   <g id="line2d_29">
    <path d="M 221.466942 114.453409 
L 221.466942 55.8 
" clip-path="url(#p8ddc449313)" style="fill: none; stroke: #272727; stroke-width: 1.5; stroke-linecap: square"/>
   </g>
   <g id="line2d_30">
    <path d="M 214.549587 237.640909 
L 228.384298 237.640909 
" clip-path="url(#p8ddc449313)" style="fill: none; stroke: #272727; stroke-width: 1.5; stroke-linecap: square"/>
   </g>
   <g id="line2d_31">
    <path d="M 214.549587 55.8 
L 228.384298 55.8 
" clip-path="url(#p8ddc449313)" style="fill: none; stroke: #272727; stroke-width: 1.5; stroke-linecap: square"/>
   </g>
   <g id="line2d_32"/>
   <g id="line2d_33">
    <path d="M 256.053719 155.260227 
L 256.053719 217.2375 
" clip-path="url(#p8ddc449313)" style="fill: none; stroke: #272727; stroke-width: 1.5; stroke-linecap: square"/>
   </g>
   <g id="line2d_34">
    <path d="M 256.053719 111.372443 
L 256.053719 57.692045 
" clip-path="url(#p8ddc449313)" style="fill: none; stroke: #272727; stroke-width: 1.5; stroke-linecap: square"/>
   </g>
   <g id="line2d_35">
    <path d="M 249.136364 217.2375 
L 262.971074 217.2375 
" clip-path="url(#p8ddc449313)" style="fill: none; stroke: #272727; stroke-width: 1.5; stroke-linecap: square"/>
   </g>
   <g id="line2d_36">
    <path d="M 249.136364 57.692045 
L 262.971074 57.692045 
" clip-path="url(#p8ddc449313)" style="fill: none; stroke: #272727; stroke-width: 1.5; stroke-linecap: square"/>
   </g>
   <g id="line2d_37"/>
   <g id="line2d_38">
    <path d="M 290.640496 143.920739 
L 290.640496 193.254545 
" clip-path="url(#p8ddc449313)" style="fill: none; stroke: #272727; stroke-width: 1.5; stroke-linecap: square"/>
   </g>
   <g id="line2d_39">
    <path d="M 290.640496 107.946307 
L 290.640496 59.481818 
" clip-path="url(#p8ddc449313)" style="fill: none; stroke: #272727; stroke-width: 1.5; stroke-linecap: square"/>
   </g>
   <g id="line2d_40">
    <path d="M 283.72314 193.254545 
L 297.557851 193.254545 
" clip-path="url(#p8ddc449313)" style="fill: none; stroke: #272727; stroke-width: 1.5; stroke-linecap: square"/>
   </g>
   <g id="line2d_41">
    <path d="M 283.72314 59.481818 
L 297.557851 59.481818 
" clip-path="url(#p8ddc449313)" style="fill: none; stroke: #272727; stroke-width: 1.5; stroke-linecap: square"/>
   </g>
   <g id="line2d_42">
    <defs>
     <path id="m45bb772217" d="M -0 3.535534 
L 2.12132 0 
L -0 -3.535534 
L -2.12132 -0 
z
" style="stroke: #272727; stroke-linejoin: miter"/>
    </defs>
    <g clip-path="url(#p8ddc449313)">
     <use xlink:href="#m45bb772217" x="290.640496" y="201.436364" style="fill: #272727; stroke: #272727; stroke-linejoin: miter"/>
    </g>
   </g>
   <g id="line2d_43">
    <path d="M 325.227273 136.403693 
L 325.227273 180.828409 
" clip-path="url(#p8ddc449313)" style="fill: none; stroke: #272727; stroke-width: 1.5; stroke-linecap: square"/>
   </g>
   <g id="line2d_44">
    <path d="M 325.227273 104.136648 
L 325.227273 63.163636 
" clip-path="url(#p8ddc449313)" style="fill: none; stroke: #272727; stroke-width: 1.5; stroke-linecap: square"/>
   </g>
   <g id="line2d_45">
    <path d="M 318.309917 180.828409 
L 332.144628 180.828409 
" clip-path="url(#p8ddc449313)" style="fill: none; stroke: #272727; stroke-width: 1.5; stroke-linecap: square"/>
   </g>
   <g id="line2d_46">
    <path d="M 318.309917 63.163636 
L 332.144628 63.163636 
" clip-path="url(#p8ddc449313)" style="fill: none; stroke: #272727; stroke-width: 1.5; stroke-linecap: square"/>
   </g>
   <g id="line2d_47"/>
   <g id="line2d_48">
    <path d="M 359.81405 131.635227 
L 359.81405 163.8 
" clip-path="url(#p8ddc449313)" style="fill: none; stroke: #272727; stroke-width: 1.5; stroke-linecap: square"/>
   </g>
   <g id="line2d_49">
    <path d="M 359.81405 103.471875 
L 359.81405 68.430682 
" clip-path="url(#p8ddc449313)" style="fill: none; stroke: #272727; stroke-width: 1.5; stroke-linecap: square"/>
   </g>
   <g id="line2d_50">
    <path d="M 352.896694 163.8 
L 366.731405 163.8 
" clip-path="url(#p8ddc449313)" style="fill: none; stroke: #272727; stroke-width: 1.5; stroke-linecap: square"/>
   </g>
   <g id="line2d_51">
    <path d="M 352.896694 68.430682 
L 366.731405 68.430682 
" clip-path="url(#p8ddc449313)" style="fill: none; stroke: #272727; stroke-width: 1.5; stroke-linecap: square"/>
   </g>
   <g id="line2d_52"/>
   <g id="line2d_53">
    <path d="M 394.400826 126.623864 
L 394.400826 150.964773 
" clip-path="url(#p8ddc449313)" style="fill: none; stroke: #272727; stroke-width: 1.5; stroke-linecap: square"/>
   </g>
   <g id="line2d_54">
    <path d="M 394.400826 104.942045 
L 394.400826 79.885227 
" clip-path="url(#p8ddc449313)" style="fill: none; stroke: #272727; stroke-width: 1.5; stroke-linecap: square"/>
   </g>
   <g id="line2d_55">
    <path d="M 387.483471 150.964773 
L 401.318182 150.964773 
" clip-path="url(#p8ddc449313)" style="fill: none; stroke: #272727; stroke-width: 1.5; stroke-linecap: square"/>
   </g>
   <g id="line2d_56">
    <path d="M 387.483471 79.885227 
L 401.318182 79.885227 
" clip-path="url(#p8ddc449313)" style="fill: none; stroke: #272727; stroke-width: 1.5; stroke-linecap: square"/>
   </g>
   <g id="line2d_57"/>
   <g id="line2d_58">
    <path d="M 428.987603 120.461932 
L 428.987603 140.532955 
" clip-path="url(#p8ddc449313)" style="fill: none; stroke: #272727; stroke-width: 1.5; stroke-linecap: square"/>
   </g>
   <g id="line2d_59">
    <path d="M 428.987603 105.606818 
L 428.987603 92.157955 
" clip-path="url(#p8ddc449313)" style="fill: none; stroke: #272727; stroke-width: 1.5; stroke-linecap: square"/>
   </g>
   <g id="line2d_60">
    <path d="M 422.070248 140.532955 
L 435.904959 140.532955 
" clip-path="url(#p8ddc449313)" style="fill: none; stroke: #272727; stroke-width: 1.5; stroke-linecap: square"/>
   </g>
   <g id="line2d_61">
    <path d="M 422.070248 92.157955 
L 435.904959 92.157955 
" clip-path="url(#p8ddc449313)" style="fill: none; stroke: #272727; stroke-width: 1.5; stroke-linecap: square"/>
   </g>
   <g id="line2d_62"/>
   <g id="line2d_63">
    <path d="M 463.57438 116.064205 
L 463.57438 128.004545 
" clip-path="url(#p8ddc449313)" style="fill: none; stroke: #272727; stroke-width: 1.5; stroke-linecap: square"/>
   </g>
   <g id="line2d_64">
    <path d="M 463.57438 104.481818 
L 463.57438 102.231818 
" clip-path="url(#p8ddc449313)" style="fill: none; stroke: #272727; stroke-width: 1.5; stroke-linecap: square"/>
   </g>
   <g id="line2d_65">
    <path d="M 456.657025 128.004545 
L 470.491736 128.004545 
" clip-path="url(#p8ddc449313)" style="fill: none; stroke: #272727; stroke-width: 1.5; stroke-linecap: square"/>
   </g>
   <g id="line2d_66">
    <path d="M 456.657025 102.231818 
L 470.491736 102.231818 
" clip-path="url(#p8ddc449313)" style="fill: none; stroke: #272727; stroke-width: 1.5; stroke-linecap: square"/>
   </g>
   <g id="line2d_67"/>
   <g id="line2d_68">
    <path d="M 498.161157 110.976136 
L 498.161157 110.976136 
" clip-path="url(#p8ddc449313)" style="fill: none; stroke: #272727; stroke-width: 1.5; stroke-linecap: square"/>
   </g>
   <g id="line2d_69">
    <path d="M 498.161157 110.976136 
L 498.161157 110.976136 
" clip-path="url(#p8ddc449313)" style="fill: none; stroke: #272727; stroke-width: 1.5; stroke-linecap: square"/>
   </g>
   <g id="line2d_70">
    <path d="M 491.243802 110.976136 
L 505.078512 110.976136 
" clip-path="url(#p8ddc449313)" style="fill: none; stroke: #272727; stroke-width: 1.5; stroke-linecap: square"/>
   </g>
   <g id="line2d_71">
    <path d="M 491.243802 110.976136 
L 505.078512 110.976136 
" clip-path="url(#p8ddc449313)" style="fill: none; stroke: #272727; stroke-width: 1.5; stroke-linecap: square"/>
   </g>
   <g id="line2d_72"/>
   <g id="line2d_73">
    <path d="M 138.458678 217.8 
L 166.128099 217.8 
" clip-path="url(#p8ddc449313)" style="fill: none; stroke: #272727; stroke-width: 1.5; stroke-linecap: square"/>
   </g>
   <g id="line2d_74">
    <path d="M 173.045455 167.942045 
L 200.714876 167.942045 
" clip-path="url(#p8ddc449313)" style="fill: none; stroke: #272727; stroke-width: 1.5; stroke-linecap: square"/>
   </g>
   <g id="line2d_75">
    <path d="M 207.632231 143.038636 
L 235.301653 143.038636 
" clip-path="url(#p8ddc449313)" style="fill: none; stroke: #272727; stroke-width: 1.5; stroke-linecap: square"/>
   </g>
   <g id="line2d_76">
    <path d="M 242.219008 131.277273 
L 269.88843 131.277273 
" clip-path="url(#p8ddc449313)" style="fill: none; stroke: #272727; stroke-width: 1.5; stroke-linecap: square"/>
   </g>
   <g id="line2d_77">
    <path d="M 276.805785 125.728977 
L 304.475207 125.728977 
" clip-path="url(#p8ddc449313)" style="fill: none; stroke: #272727; stroke-width: 1.5; stroke-linecap: square"/>
   </g>
   <g id="line2d_78">
    <path d="M 311.392562 121.510227 
L 339.061983 121.510227 
" clip-path="url(#p8ddc449313)" style="fill: none; stroke: #272727; stroke-width: 1.5; stroke-linecap: square"/>
   </g>
   <g id="line2d_79">
    <path d="M 345.979339 117.061364 
L 373.64876 117.061364 
" clip-path="url(#p8ddc449313)" style="fill: none; stroke: #272727; stroke-width: 1.5; stroke-linecap: square"/>
   </g>
   <g id="line2d_80">
    <path d="M 380.566116 114.197727 
L 408.235537 114.197727 
" clip-path="url(#p8ddc449313)" style="fill: none; stroke: #272727; stroke-width: 1.5; stroke-linecap: square"/>
   </g>
   <g id="line2d_81">
    <path d="M 415.152893 111.998864 
L 442.822314 111.998864 
" clip-path="url(#p8ddc449313)" style="fill: none; stroke: #272727; stroke-width: 1.5; stroke-linecap: square"/>
   </g>
   <g id="line2d_82">
    <path d="M 449.739669 113.072727 
L 477.409091 113.072727 
" clip-path="url(#p8ddc449313)" style="fill: none; stroke: #272727; stroke-width: 1.5; stroke-linecap: square"/>
   </g>
   <g id="line2d_83">
    <path d="M 484.326446 110.976136 
L 511.995868 110.976136 
" clip-path="url(#p8ddc449313)" style="fill: none; stroke: #272727; stroke-width: 1.5; stroke-linecap: square"/>
   </g>
   <g id="patch_14">
    <path d="M 135 320.4 
L 135 43.2 
" style="fill: none; stroke: #000000; stroke-width: 0.8; stroke-linejoin: miter; stroke-linecap: square"/>
   </g>
   <g id="patch_15">
    <path d="M 515.454545 320.4 
L 515.454545 43.2 
" style="fill: none; stroke: #000000; stroke-width: 0.8; stroke-linejoin: miter; stroke-linecap: square"/>
   </g>
   <g id="patch_16">
    <path d="M 135 320.4 
L 515.454545 320.4 
" style="fill: none; stroke: #000000; stroke-width: 0.8; stroke-linejoin: miter; stroke-linecap: square"/>
   </g>
   <g id="patch_17">
    <path d="M 135 43.2 
L 515.454545 43.2 
" style="fill: none; stroke: #000000; stroke-width: 0.8; stroke-linejoin: miter; stroke-linecap: square"/>
   </g>
   <g id="text_20">
    <!-- a) R² of October forecasts by MME size -->
    <g transform="translate(135 37.2) scale(0.12 -0.12)">
     <defs>
      <path id="DejaVuSans-61" d="M 2194 1759 
Q 1497 1759 1228 1600 
Q 959 1441 959 1056 
Q 959 750 1161 570 
Q 1363 391 1709 391 
Q 2188 391 2477 730 
Q 2766 1069 2766 1631 
L 2766 1759 
L 2194 1759 
z
M 3341 1997 
L 3341 0 
L 2766 0 
L 2766 531 
Q 2569 213 2275 61 
Q 1981 -91 1556 -91 
Q 1019 -91 701 211 
Q 384 513 384 1019 
Q 384 1609 779 1909 
Q 1175 2209 1959 2209 
L 2766 2209 
L 2766 2266 
Q 2766 2663 2505 2880 
Q 2244 3097 1772 3097 
Q 1472 3097 1187 3025 
Q 903 2953 641 2809 
L 641 3341 
Q 956 3463 1253 3523 
Q 1550 3584 1831 3584 
Q 2591 3584 2966 3190 
Q 3341 2797 3341 1997 
z
" transform="scale(0.015625)"/>
      <path id="DejaVuSans-29" d="M 513 4856 
L 1013 4856 
Q 1481 4119 1714 3412 
Q 1947 2706 1947 2009 
Q 1947 1309 1714 600 
Q 1481 -109 1013 -844 
L 513 -844 
Q 928 -128 1133 580 
Q 1338 1288 1338 2009 
Q 1338 2731 1133 3434 
Q 928 4138 513 4856 
z
" transform="scale(0.015625)"/>
      <path id="DejaVuSans-6f" d="M 1959 3097 
Q 1497 3097 1228 2736 
Q 959 2375 959 1747 
Q 959 1119 1226 758 
Q 1494 397 1959 397 
Q 2419 397 2687 759 
Q 2956 1122 2956 1747 
Q 2956 2369 2687 2733 
Q 2419 3097 1959 3097 
z
M 1959 3584 
Q 2709 3584 3137 3096 
Q 3566 2609 3566 1747 
Q 3566 888 3137 398 
Q 2709 -91 1959 -91 
Q 1206 -91 779 398 
Q 353 888 353 1747 
Q 353 2609 779 3096 
Q 1206 3584 1959 3584 
z
" transform="scale(0.015625)"/>
      <path id="DejaVuSans-66" d="M 2375 4863 
L 2375 4384 
L 1825 4384 
Q 1516 4384 1395 4259 
Q 1275 4134 1275 3809 
L 1275 3500 
L 2222 3500 
L 2222 3053 
L 1275 3053 
L 1275 0 
L 697 0 
L 697 3053 
L 147 3053 
L 147 3500 
L 697 3500 
L 697 3744 
Q 697 4328 969 4595 
Q 1241 4863 1831 4863 
L 2375 4863 
z
" transform="scale(0.015625)"/>
      <path id="DejaVuSans-4f" d="M 2522 4238 
Q 1834 4238 1429 3725 
Q 1025 3213 1025 2328 
Q 1025 1447 1429 934 
Q 1834 422 2522 422 
Q 3209 422 3611 934 
Q 4013 1447 4013 2328 
Q 4013 3213 3611 3725 
Q 3209 4238 2522 4238 
z
M 2522 4750 
Q 3503 4750 4090 4092 
Q 4678 3434 4678 2328 
Q 4678 1225 4090 567 
Q 3503 -91 2522 -91 
Q 1538 -91 948 565 
Q 359 1222 359 2328 
Q 359 3434 948 4092 
Q 1538 4750 2522 4750 
z
" transform="scale(0.015625)"/>
      <path id="DejaVuSans-63" d="M 3122 3366 
L 3122 2828 
Q 2878 2963 2633 3030 
Q 2388 3097 2138 3097 
Q 1578 3097 1268 2742 
Q 959 2388 959 1747 
Q 959 1106 1268 751 
Q 1578 397 2138 397 
Q 2388 397 2633 464 
Q 2878 531 3122 666 
L 3122 134 
Q 2881 22 2623 -34 
Q 2366 -91 2075 -91 
Q 1284 -91 818 406 
Q 353 903 353 1747 
Q 353 2603 823 3093 
Q 1294 3584 2113 3584 
Q 2378 3584 2631 3529 
Q 2884 3475 3122 3366 
z
" transform="scale(0.015625)"/>
      <path id="DejaVuSans-74" d="M 1172 4494 
L 1172 3500 
L 2356 3500 
L 2356 3053 
L 1172 3053 
L 1172 1153 
Q 1172 725 1289 603 
Q 1406 481 1766 481 
L 2356 481 
L 2356 0 
L 1766 0 
Q 1100 0 847 248 
Q 594 497 594 1153 
L 594 3053 
L 172 3053 
L 172 3500 
L 594 3500 
L 594 4494 
L 1172 4494 
z
" transform="scale(0.015625)"/>
      <path id="DejaVuSans-62" d="M 3116 1747 
Q 3116 2381 2855 2742 
Q 2594 3103 2138 3103 
Q 1681 3103 1420 2742 
Q 1159 2381 1159 1747 
Q 1159 1113 1420 752 
Q 1681 391 2138 391 
Q 2594 391 2855 752 
Q 3116 1113 3116 1747 
z
M 1159 2969 
Q 1341 3281 1617 3432 
Q 1894 3584 2278 3584 
Q 2916 3584 3314 3078 
Q 3713 2572 3713 1747 
Q 3713 922 3314 415 
Q 2916 -91 2278 -91 
Q 1894 -91 1617 61 
Q 1341 213 1159 525 
L 1159 0 
L 581 0 
L 581 4863 
L 1159 4863 
L 1159 2969 
z
" transform="scale(0.015625)"/>
      <path id="DejaVuSans-72" d="M 2631 2963 
Q 2534 3019 2420 3045 
Q 2306 3072 2169 3072 
Q 1681 3072 1420 2755 
Q 1159 2438 1159 1844 
L 1159 0 
L 581 0 
L 581 3500 
L 1159 3500 
L 1159 2956 
Q 1341 3275 1631 3429 
Q 1922 3584 2338 3584 
Q 2397 3584 2469 3576 
Q 2541 3569 2628 3553 
L 2631 2963 
z
" transform="scale(0.015625)"/>
      <path id="DejaVuSans-79" d="M 2059 -325 
Q 1816 -950 1584 -1140 
Q 1353 -1331 966 -1331 
L 506 -1331 
L 506 -850 
L 844 -850 
Q 1081 -850 1212 -737 
Q 1344 -625 1503 -206 
L 1606 56 
L 191 3500 
L 800 3500 
L 1894 763 
L 2988 3500 
L 3597 3500 
L 2059 -325 
z
" transform="scale(0.015625)"/>
     </defs>
     <use xlink:href="#DejaVuSans-61"/>
     <use xlink:href="#DejaVuSans-29" x="61.279297"/>
     <use xlink:href="#DejaVuSans-20" x="100.292969"/>
     <use xlink:href="#DejaVuSans-52" x="132.080078"/>
     <use xlink:href="#DejaVuSans-b2" x="201.5625"/>
     <use xlink:href="#DejaVuSans-20" x="241.650391"/>
     <use xlink:href="#DejaVuSans-6f" x="273.4375"/>
     <use xlink:href="#DejaVuSans-66" x="334.619141"/>
     <use xlink:href="#DejaVuSans-20" x="369.824219"/>
     <use xlink:href="#DejaVuSans-4f" x="401.611328"/>
     <use xlink:href="#DejaVuSans-63" x="480.322266"/>
     <use xlink:href="#DejaVuSans-74" x="535.302734"/>
     <use xlink:href="#DejaVuSans-6f" x="574.511719"/>
     <use xlink:href="#DejaVuSans-62" x="635.693359"/>
     <use xlink:href="#DejaVuSans-65" x="699.169922"/>
     <use xlink:href="#DejaVuSans-72" x="760.693359"/>
     <use xlink:href="#DejaVuSans-20" x="801.806641"/>
     <use xlink:href="#DejaVuSans-66" x="833.59375"/>
     <use xlink:href="#DejaVuSans-6f" x="868.798828"/>
     <use xlink:href="#DejaVuSans-72" x="929.980469"/>
     <use xlink:href="#DejaVuSans-65" x="968.84375"/>
     <use xlink:href="#DejaVuSans-63" x="1030.367188"/>
     <use xlink:href="#DejaVuSans-61" x="1085.347656"/>
     <use xlink:href="#DejaVuSans-73" x="1146.626953"/>
     <use xlink:href="#DejaVuSans-74" x="1198.726562"/>
     <use xlink:href="#DejaVuSans-73" x="1237.935547"/>
     <use xlink:href="#DejaVuSans-20" x="1290.035156"/>
     <use xlink:href="#DejaVuSans-62" x="1321.822266"/>
     <use xlink:href="#DejaVuSans-79" x="1385.298828"/>
     <use xlink:href="#DejaVuSans-20" x="1444.478516"/>
     <use xlink:href="#DejaVuSans-4d" x="1476.265625"/>
     <use xlink:href="#DejaVuSans-4d" x="1562.544922"/>
     <use xlink:href="#DejaVuSans-45" x="1648.824219"/>
     <use xlink:href="#DejaVuSans-20" x="1712.007812"/>
     <use xlink:href="#DejaVuSans-73" x="1743.794922"/>
     <use xlink:href="#DejaVuSans-69" x="1795.894531"/>
     <use xlink:href="#DejaVuSans-7a" x="1823.677734"/>
     <use xlink:href="#DejaVuSans-65" x="1876.167969"/>
    </g>
   </g>
  </g>
  <g id="axes_2">
   <g id="patch_18">
    <path d="M 591.545455 320.4 
L 972 320.4 
L 972 43.2 
L 591.545455 43.2 
z
" style="fill: #ffffff"/>
   </g>
   <g id="PathCollection_1">
    <defs>
     <path id="C0_0_2577b6bae9" d="M 0 6.123724 
C 1.624031 6.123724 3.181764 5.47849 4.330127 4.330127 
C 5.47849 3.181764 6.123724 1.624031 6.123724 -0 
C 6.123724 -1.624031 5.47849 -3.181764 4.330127 -4.330127 
C 3.181764 -5.47849 1.624031 -6.123724 0 -6.123724 
C -1.624031 -6.123724 -3.181764 -5.47849 -4.330127 -4.330127 
C -5.47849 -3.181764 -6.123724 -1.624031 -6.123724 0 
C -6.123724 1.624031 -5.47849 3.181764 -4.330127 4.330127 
C -3.181764 5.47849 -1.624031 6.123724 0 6.123724 
z
"/>
    </defs>
    <g clip-path="url(#p08af604952)">
     <use xlink:href="#C0_0_2577b6bae9" x="621.763253" y="104.676615" style="fill: #c7ea75; stroke: #000000; stroke-width: 0.5"/>
    </g>
    <g clip-path="url(#p08af604952)">
     <use xlink:href="#C0_0_2577b6bae9" x="768.617898" y="110.77684" style="fill: #9ad87d; stroke: #000000; stroke-width: 0.5"/>
    </g>
    <g clip-path="url(#p08af604952)">
     <use xlink:href="#C0_0_2577b6bae9" x="754.277592" y="116.418683" style="fill: #74c582; stroke: #000000; stroke-width: 0.5"/>
    </g>
    <g clip-path="url(#p08af604952)">
     <use xlink:href="#C0_0_2577b6bae9" x="806.273278" y="127.948406" style="fill: #57b085; stroke: #000000; stroke-width: 0.5"/>
    </g>
    <g clip-path="url(#p08af604952)">
     <use xlink:href="#C0_0_2577b6bae9" x="821.396029" y="144.716046" style="fill: #419b83; stroke: #000000; stroke-width: 0.5"/>
    </g>
    <g clip-path="url(#p08af604952)">
     <use xlink:href="#C0_0_2577b6bae9" x="840.357399" y="180.846018" style="fill: #38867e; stroke: #000000; stroke-width: 0.5"/>
    </g>
    <g clip-path="url(#p08af604952)">
     <use xlink:href="#C0_0_2577b6bae9" x="893.166579" y="219.798288" style="fill: #327174; stroke: #000000; stroke-width: 0.5"/>
    </g>
    <g clip-path="url(#p08af604952)">
     <use xlink:href="#C0_0_2577b6bae9" x="886.382155" y="251.643406" style="fill: #2d5c67; stroke: #000000; stroke-width: 0.5"/>
    </g>
    <g clip-path="url(#p08af604952)">
     <use xlink:href="#C0_0_2577b6bae9" x="927.449663" y="279.284104" style="fill: #2a4858; stroke: #000000; stroke-width: 0.5"/>
    </g>
   </g>
   <g id="PathCollection_2"/>
   <g id="PathCollection_3"/>
   <g id="PathCollection_4"/>
   <g id="PathCollection_5"/>
   <g id="PathCollection_6"/>
   <g id="PathCollection_7"/>
   <g id="PathCollection_8"/>
   <g id="PathCollection_9"/>
   <g id="PathCollection_10"/>
   <g id="matplotlib.axis_3">
    <g id="xtick_12">
     <g id="line2d_84">
      <g>
       <use xlink:href="#mef4c32c239" x="591.545455" y="320.4" style="stroke: #000000; stroke-width: 0.8"/>
      </g>
     </g>
     <g id="text_21">
      <!-- 0.60 -->
      <g transform="translate(580.412642 334.998438) scale(0.1 -0.1)">
       <use xlink:href="#DejaVuSans-30"/>
       <use xlink:href="#DejaVuSans-2e" x="63.623047"/>
       <use xlink:href="#DejaVuSans-36" x="95.410156"/>
       <use xlink:href="#DejaVuSans-30" x="159.033203"/>
      </g>
     </g>
    </g>
    <g id="xtick_13">
     <g id="line2d_85">
      <g>
       <use xlink:href="#mef4c32c239" x="686.659091" y="320.4" style="stroke: #000000; stroke-width: 0.8"/>
      </g>
     </g>
     <g id="text_22">
      <!-- 0.62 -->
      <g transform="translate(675.526278 334.998438) scale(0.1 -0.1)">
       <use xlink:href="#DejaVuSans-30"/>
       <use xlink:href="#DejaVuSans-2e" x="63.623047"/>
       <use xlink:href="#DejaVuSans-36" x="95.410156"/>
       <use xlink:href="#DejaVuSans-32" x="159.033203"/>
      </g>
     </g>
    </g>
    <g id="xtick_14">
     <g id="line2d_86">
      <g>
       <use xlink:href="#mef4c32c239" x="781.772727" y="320.4" style="stroke: #000000; stroke-width: 0.8"/>
      </g>
     </g>
     <g id="text_23">
      <!-- 0.64 -->
      <g transform="translate(770.639915 334.998438) scale(0.1 -0.1)">
       <use xlink:href="#DejaVuSans-30"/>
       <use xlink:href="#DejaVuSans-2e" x="63.623047"/>
       <use xlink:href="#DejaVuSans-36" x="95.410156"/>
       <use xlink:href="#DejaVuSans-34" x="159.033203"/>
      </g>
     </g>
    </g>
    <g id="xtick_15">
     <g id="line2d_87">
      <g>
       <use xlink:href="#mef4c32c239" x="876.886364" y="320.4" style="stroke: #000000; stroke-width: 0.8"/>
      </g>
     </g>
     <g id="text_24">
      <!-- 0.66 -->
      <g transform="translate(865.753551 334.998438) scale(0.1 -0.1)">
       <use xlink:href="#DejaVuSans-30"/>
       <use xlink:href="#DejaVuSans-2e" x="63.623047"/>
       <use xlink:href="#DejaVuSans-36" x="95.410156"/>
       <use xlink:href="#DejaVuSans-36" x="159.033203"/>
      </g>
     </g>
    </g>
    <g id="xtick_16">
     <g id="line2d_88">
      <g>
       <use xlink:href="#mef4c32c239" x="972" y="320.4" style="stroke: #000000; stroke-width: 0.8"/>
      </g>
     </g>
     <g id="text_25">
      <!-- 0.68 -->
      <g transform="translate(960.867188 334.998438) scale(0.1 -0.1)">
       <use xlink:href="#DejaVuSans-30"/>
       <use xlink:href="#DejaVuSans-2e" x="63.623047"/>
       <use xlink:href="#DejaVuSans-36" x="95.410156"/>
       <use xlink:href="#DejaVuSans-38" x="159.033203"/>
      </g>
     </g>
    </g>
    <g id="text_26">
     <!-- correlation of SCM biases [pearson's r] -->
     <g transform="translate(685.14929 348.676562) scale(0.1 -0.1)">
      <defs>
       <path id="DejaVuSans-6c" d="M 603 4863 
L 1178 4863 
L 1178 0 
L 603 0 
L 603 4863 
z
" transform="scale(0.015625)"/>
       <path id="DejaVuSans-6e" d="M 3513 2113 
L 3513 0 
L 2938 0 
L 2938 2094 
Q 2938 2591 2744 2837 
Q 2550 3084 2163 3084 
Q 1697 3084 1428 2787 
Q 1159 2491 1159 1978 
L 1159 0 
L 581 0 
L 581 3500 
L 1159 3500 
L 1159 2956 
Q 1366 3272 1645 3428 
Q 1925 3584 2291 3584 
Q 2894 3584 3203 3211 
Q 3513 2838 3513 2113 
z
" transform="scale(0.015625)"/>
       <path id="DejaVuSans-53" d="M 3425 4513 
L 3425 3897 
Q 3066 4069 2747 4153 
Q 2428 4238 2131 4238 
Q 1616 4238 1336 4038 
Q 1056 3838 1056 3469 
Q 1056 3159 1242 3001 
Q 1428 2844 1947 2747 
L 2328 2669 
Q 3034 2534 3370 2195 
Q 3706 1856 3706 1288 
Q 3706 609 3251 259 
Q 2797 -91 1919 -91 
Q 1588 -91 1214 -16 
Q 841 59 441 206 
L 441 856 
Q 825 641 1194 531 
Q 1563 422 1919 422 
Q 2459 422 2753 634 
Q 3047 847 3047 1241 
Q 3047 1584 2836 1778 
Q 2625 1972 2144 2069 
L 1759 2144 
Q 1053 2284 737 2584 
Q 422 2884 422 3419 
Q 422 4038 858 4394 
Q 1294 4750 2059 4750 
Q 2388 4750 2728 4690 
Q 3069 4631 3425 4513 
z
" transform="scale(0.015625)"/>
       <path id="DejaVuSans-43" d="M 4122 4306 
L 4122 3641 
Q 3803 3938 3442 4084 
Q 3081 4231 2675 4231 
Q 1875 4231 1450 3742 
Q 1025 3253 1025 2328 
Q 1025 1406 1450 917 
Q 1875 428 2675 428 
Q 3081 428 3442 575 
Q 3803 722 4122 1019 
L 4122 359 
Q 3791 134 3420 21 
Q 3050 -91 2638 -91 
Q 1578 -91 968 557 
Q 359 1206 359 2328 
Q 359 3453 968 4101 
Q 1578 4750 2638 4750 
Q 3056 4750 3426 4639 
Q 3797 4528 4122 4306 
z
" transform="scale(0.015625)"/>
       <path id="DejaVuSans-5b" d="M 550 4863 
L 1875 4863 
L 1875 4416 
L 1125 4416 
L 1125 -397 
L 1875 -397 
L 1875 -844 
L 550 -844 
L 550 4863 
z
" transform="scale(0.015625)"/>
       <path id="DejaVuSans-70" d="M 1159 525 
L 1159 -1331 
L 581 -1331 
L 581 3500 
L 1159 3500 
L 1159 2969 
Q 1341 3281 1617 3432 
Q 1894 3584 2278 3584 
Q 2916 3584 3314 3078 
Q 3713 2572 3713 1747 
Q 3713 922 3314 415 
Q 2916 -91 2278 -91 
Q 1894 -91 1617 61 
Q 1341 213 1159 525 
z
M 3116 1747 
Q 3116 2381 2855 2742 
Q 2594 3103 2138 3103 
Q 1681 3103 1420 2742 
Q 1159 2381 1159 1747 
Q 1159 1113 1420 752 
Q 1681 391 2138 391 
Q 2594 391 2855 752 
Q 3116 1113 3116 1747 
z
" transform="scale(0.015625)"/>
       <path id="DejaVuSans-27" d="M 1147 4666 
L 1147 2931 
L 616 2931 
L 616 4666 
L 1147 4666 
z
" transform="scale(0.015625)"/>
       <path id="DejaVuSans-5d" d="M 1947 4863 
L 1947 -844 
L 622 -844 
L 622 -397 
L 1369 -397 
L 1369 4416 
L 622 4416 
L 622 4863 
L 1947 4863 
z
" transform="scale(0.015625)"/>
      </defs>
      <use xlink:href="#DejaVuSans-63"/>
      <use xlink:href="#DejaVuSans-6f" x="54.980469"/>
      <use xlink:href="#DejaVuSans-72" x="116.162109"/>
      <use xlink:href="#DejaVuSans-72" x="155.525391"/>
      <use xlink:href="#DejaVuSans-65" x="194.388672"/>
      <use xlink:href="#DejaVuSans-6c" x="255.912109"/>
      <use xlink:href="#DejaVuSans-61" x="283.695312"/>
      <use xlink:href="#DejaVuSans-74" x="344.974609"/>
      <use xlink:href="#DejaVuSans-69" x="384.183594"/>
      <use xlink:href="#DejaVuSans-6f" x="411.966797"/>
      <use xlink:href="#DejaVuSans-6e" x="473.148438"/>
      <use xlink:href="#DejaVuSans-20" x="536.527344"/>
      <use xlink:href="#DejaVuSans-6f" x="568.314453"/>
      <use xlink:href="#DejaVuSans-66" x="629.496094"/>
      <use xlink:href="#DejaVuSans-20" x="664.701172"/>
      <use xlink:href="#DejaVuSans-53" x="696.488281"/>
      <use xlink:href="#DejaVuSans-43" x="759.964844"/>
      <use xlink:href="#DejaVuSans-4d" x="829.789062"/>
      <use xlink:href="#DejaVuSans-20" x="916.068359"/>
      <use xlink:href="#DejaVuSans-62" x="947.855469"/>
      <use xlink:href="#DejaVuSans-69" x="1011.332031"/>
      <use xlink:href="#DejaVuSans-61" x="1039.115234"/>
      <use xlink:href="#DejaVuSans-73" x="1100.394531"/>
      <use xlink:href="#DejaVuSans-65" x="1152.494141"/>
      <use xlink:href="#DejaVuSans-73" x="1214.017578"/>
      <use xlink:href="#DejaVuSans-20" x="1266.117188"/>
      <use xlink:href="#DejaVuSans-5b" x="1297.904297"/>
      <use xlink:href="#DejaVuSans-70" x="1336.917969"/>
      <use xlink:href="#DejaVuSans-65" x="1400.394531"/>
      <use xlink:href="#DejaVuSans-61" x="1461.917969"/>
      <use xlink:href="#DejaVuSans-72" x="1523.197266"/>
      <use xlink:href="#DejaVuSans-73" x="1564.310547"/>
      <use xlink:href="#DejaVuSans-6f" x="1616.410156"/>
      <use xlink:href="#DejaVuSans-6e" x="1677.591797"/>
      <use xlink:href="#DejaVuSans-27" x="1740.970703"/>
      <use xlink:href="#DejaVuSans-73" x="1768.460938"/>
      <use xlink:href="#DejaVuSans-20" x="1820.560547"/>
      <use xlink:href="#DejaVuSans-72" x="1852.347656"/>
      <use xlink:href="#DejaVuSans-5d" x="1893.460938"/>
     </g>
    </g>
   </g>
   <g id="matplotlib.axis_4">
    <g id="ytick_7">
     <g id="line2d_89">
      <g>
       <use xlink:href="#m74df910131" x="591.545455" y="320.4" style="stroke: #000000; stroke-width: 0.8"/>
      </g>
     </g>
     <g id="text_27">
      <!-- 0.37 -->
      <g transform="translate(562.27983 324.199219) scale(0.1 -0.1)">
       <use xlink:href="#DejaVuSans-30"/>
       <use xlink:href="#DejaVuSans-2e" x="63.623047"/>
       <use xlink:href="#DejaVuSans-33" x="95.410156"/>
       <use xlink:href="#DejaVuSans-37" x="159.033203"/>
      </g>
     </g>
    </g>
    <g id="ytick_8">
     <g id="line2d_90">
      <g>
       <use xlink:href="#m74df910131" x="591.545455" y="239.496664" style="stroke: #000000; stroke-width: 0.8"/>
      </g>
     </g>
     <g id="text_28">
      <!-- 0.42 -->
      <g transform="translate(562.27983 243.295883) scale(0.1 -0.1)">
       <use xlink:href="#DejaVuSans-30"/>
       <use xlink:href="#DejaVuSans-2e" x="63.623047"/>
       <use xlink:href="#DejaVuSans-34" x="95.410156"/>
       <use xlink:href="#DejaVuSans-32" x="159.033203"/>
      </g>
     </g>
    </g>
    <g id="ytick_9">
     <g id="line2d_91">
      <g>
       <use xlink:href="#m74df910131" x="591.545455" y="158.593329" style="stroke: #000000; stroke-width: 0.8"/>
      </g>
     </g>
     <g id="text_29">
      <!-- 0.47 -->
      <g transform="translate(562.27983 162.392548) scale(0.1 -0.1)">
       <use xlink:href="#DejaVuSans-30"/>
       <use xlink:href="#DejaVuSans-2e" x="63.623047"/>
       <use xlink:href="#DejaVuSans-34" x="95.410156"/>
       <use xlink:href="#DejaVuSans-37" x="159.033203"/>
      </g>
     </g>
    </g>
    <g id="ytick_10">
     <g id="line2d_92">
      <g>
       <use xlink:href="#m74df910131" x="591.545455" y="77.689993" style="stroke: #000000; stroke-width: 0.8"/>
      </g>
     </g>
     <g id="text_30">
      <!-- 0.52 -->
      <g transform="translate(562.27983 81.489212) scale(0.1 -0.1)">
       <use xlink:href="#DejaVuSans-30"/>
       <use xlink:href="#DejaVuSans-2e" x="63.623047"/>
       <use xlink:href="#DejaVuSans-35" x="95.410156"/>
       <use xlink:href="#DejaVuSans-32" x="159.033203"/>
      </g>
     </g>
    </g>
    <g id="text_31">
     <!-- R² -->
     <g transform="translate(556.200142 187.278906) rotate(-90) scale(0.1 -0.1)">
      <use xlink:href="#DejaVuSans-52"/>
      <use xlink:href="#DejaVuSans-b2" x="69.482422"/>
     </g>
    </g>
   </g>
   <g id="line2d_93">
    <path d="M 621.763253 54.4421 
L 624.850994 56.315955 
L 627.938736 58.189809 
L 631.026477 60.063663 
L 634.114219 61.937518 
L 637.20196 63.811372 
L 640.289702 65.685227 
L 643.377443 67.559081 
L 646.465185 69.432935 
L 649.552926 71.30679 
L 652.640668 73.180644 
L 655.728409 75.054499 
L 658.816151 76.928353 
L 661.903892 78.802207 
L 664.991634 80.676062 
L 668.079375 82.549916 
L 671.167117 84.42377 
L 674.254858 86.297625 
L 677.3426 88.171479 
L 680.430341 90.045334 
L 683.518083 91.919188 
L 686.605824 93.793042 
L 689.693566 95.666897 
L 692.781307 97.540751 
L 695.869049 99.414606 
L 698.956791 101.28846 
L 702.044532 103.162314 
L 705.132274 105.036169 
L 708.220015 106.910023 
L 711.307757 108.783878 
L 714.395498 110.657732 
L 717.48324 112.531586 
L 720.570981 114.405441 
L 723.658723 116.279295 
L 726.746464 118.15315 
L 729.834206 120.027004 
L 732.921947 121.900858 
L 736.009689 123.774713 
L 739.09743 125.648567 
L 742.185172 127.522422 
L 745.272913 129.396276 
L 748.360655 131.27013 
L 751.448396 133.143985 
L 754.536138 135.017839 
L 757.623879 136.891693 
L 760.711621 138.765548 
L 763.799362 140.639402 
L 766.887104 142.513257 
L 769.974845 144.387111 
L 773.062587 146.260965 
L 776.150329 148.13482 
L 779.23807 150.008674 
L 782.325812 151.882529 
L 785.413553 153.756383 
L 788.501295 155.630237 
L 791.589036 157.504092 
L 794.676778 159.377946 
L 797.764519 161.251801 
L 800.852261 163.125655 
L 803.940002 164.999509 
L 807.027744 166.873364 
L 810.115485 168.747218 
L 813.203227 170.621073 
L 816.290968 172.494927 
L 819.37871 174.368781 
L 822.466451 176.242636 
L 825.554193 178.11649 
L 828.641934 179.990344 
L 831.729676 181.864199 
L 834.817417 183.738053 
L 837.905159 185.611908 
L 840.9929 187.485762 
L 844.080642 189.359616 
L 847.168383 191.233471 
L 850.256125 193.107325 
L 853.343867 194.98118 
L 856.431608 196.855034 
L 859.51935 198.728888 
L 862.607091 200.602743 
L 865.694833 202.476597 
L 868.782574 204.350452 
L 871.870316 206.224306 
L 874.958057 208.09816 
L 878.045799 209.972015 
L 881.13354 211.845869 
L 884.221282 213.719724 
L 887.309023 215.593578 
L 890.396765 217.467432 
L 893.484506 219.341287 
L 896.572248 221.215141 
L 899.659989 223.088996 
L 902.747731 224.96285 
L 905.835472 226.836704 
L 908.923214 228.710559 
L 912.010955 230.584413 
L 915.098697 232.458267 
L 918.186438 234.332122 
L 921.27418 236.205976 
L 924.361921 238.079831 
L 927.449663 239.953685 
" clip-path="url(#p08af604952)" style="fill: none; stroke: #808080; stroke-width: 0.5; stroke-linecap: square"/>
   </g>
   <g id="patch_19">
    <path d="M 591.545455 320.4 
L 591.545455 43.2 
" style="fill: none; stroke: #000000; stroke-width: 0.8; stroke-linejoin: miter; stroke-linecap: square"/>
   </g>
   <g id="patch_20">
    <path d="M 972 320.4 
L 972 43.2 
" style="fill: none; stroke: #000000; stroke-width: 0.8; stroke-linejoin: miter; stroke-linecap: square"/>
   </g>
   <g id="patch_21">
    <path d="M 591.545455 320.4 
L 972 320.4 
" style="fill: none; stroke: #000000; stroke-width: 0.8; stroke-linejoin: miter; stroke-linecap: square"/>
   </g>
   <g id="patch_22">
    <path d="M 591.545455 43.2 
L 972 43.2 
" style="fill: none; stroke: #000000; stroke-width: 0.8; stroke-linejoin: miter; stroke-linecap: square"/>
   </g>
   <g id="text_32">
    <!-- b) R² of best MME-October forecasts by SCM bias correlation -->
    <g transform="translate(591.545455 37.2) scale(0.12 -0.12)">
     <defs>
      <path id="DejaVuSans-2d" d="M 313 2009 
L 1997 2009 
L 1997 1497 
L 313 1497 
L 313 2009 
z
" transform="scale(0.015625)"/>
     </defs>
     <use xlink:href="#DejaVuSans-62"/>
     <use xlink:href="#DejaVuSans-29" x="63.476562"/>
     <use xlink:href="#DejaVuSans-20" x="102.490234"/>
     <use xlink:href="#DejaVuSans-52" x="134.277344"/>
     <use xlink:href="#DejaVuSans-b2" x="203.759766"/>
     <use xlink:href="#DejaVuSans-20" x="243.847656"/>
     <use xlink:href="#DejaVuSans-6f" x="275.634766"/>
     <use xlink:href="#DejaVuSans-66" x="336.816406"/>
     <use xlink:href="#DejaVuSans-20" x="372.021484"/>
     <use xlink:href="#DejaVuSans-62" x="403.808594"/>
     <use xlink:href="#DejaVuSans-65" x="467.285156"/>
     <use xlink:href="#DejaVuSans-73" x="528.808594"/>
     <use xlink:href="#DejaVuSans-74" x="580.908203"/>
     <use xlink:href="#DejaVuSans-20" x="620.117188"/>
     <use xlink:href="#DejaVuSans-4d" x="651.904297"/>
     <use xlink:href="#DejaVuSans-4d" x="738.183594"/>
     <use xlink:href="#DejaVuSans-45" x="824.462891"/>
     <use xlink:href="#DejaVuSans-2d" x="887.646484"/>
     <use xlink:href="#DejaVuSans-4f" x="926.480469"/>
     <use xlink:href="#DejaVuSans-63" x="1005.191406"/>
     <use xlink:href="#DejaVuSans-74" x="1060.171875"/>
     <use xlink:href="#DejaVuSans-6f" x="1099.380859"/>
     <use xlink:href="#DejaVuSans-62" x="1160.5625"/>
     <use xlink:href="#DejaVuSans-65" x="1224.039062"/>
     <use xlink:href="#DejaVuSans-72" x="1285.5625"/>
     <use xlink:href="#DejaVuSans-20" x="1326.675781"/>
     <use xlink:href="#DejaVuSans-66" x="1358.462891"/>
     <use xlink:href="#DejaVuSans-6f" x="1393.667969"/>
     <use xlink:href="#DejaVuSans-72" x="1454.849609"/>
     <use xlink:href="#DejaVuSans-65" x="1493.712891"/>
     <use xlink:href="#DejaVuSans-63" x="1555.236328"/>
     <use xlink:href="#DejaVuSans-61" x="1610.216797"/>
     <use xlink:href="#DejaVuSans-73" x="1671.496094"/>
     <use xlink:href="#DejaVuSans-74" x="1723.595703"/>
     <use xlink:href="#DejaVuSans-73" x="1762.804688"/>
     <use xlink:href="#DejaVuSans-20" x="1814.904297"/>
     <use xlink:href="#DejaVuSans-62" x="1846.691406"/>
     <use xlink:href="#DejaVuSans-79" x="1910.167969"/>
     <use xlink:href="#DejaVuSans-20" x="1969.347656"/>
     <use xlink:href="#DejaVuSans-53" x="2001.134766"/>
     <use xlink:href="#DejaVuSans-43" x="2064.611328"/>
     <use xlink:href="#DejaVuSans-4d" x="2134.435547"/>
     <use xlink:href="#DejaVuSans-20" x="2220.714844"/>
     <use xlink:href="#DejaVuSans-62" x="2252.501953"/>
     <use xlink:href="#DejaVuSans-69" x="2315.978516"/>
     <use xlink:href="#DejaVuSans-61" x="2343.761719"/>
     <use xlink:href="#DejaVuSans-73" x="2405.041016"/>
     <use xlink:href="#DejaVuSans-20" x="2457.140625"/>
     <use xlink:href="#DejaVuSans-63" x="2488.927734"/>
     <use xlink:href="#DejaVuSans-6f" x="2543.908203"/>
     <use xlink:href="#DejaVuSans-72" x="2605.089844"/>
     <use xlink:href="#DejaVuSans-72" x="2644.453125"/>
     <use xlink:href="#DejaVuSans-65" x="2683.316406"/>
     <use xlink:href="#DejaVuSans-6c" x="2744.839844"/>
     <use xlink:href="#DejaVuSans-61" x="2772.623047"/>
     <use xlink:href="#DejaVuSans-74" x="2833.902344"/>
     <use xlink:href="#DejaVuSans-69" x="2873.111328"/>
     <use xlink:href="#DejaVuSans-6f" x="2900.894531"/>
     <use xlink:href="#DejaVuSans-6e" x="2962.076172"/>
    </g>
   </g>
   <g id="legend_1">
    <g id="patch_23">
     <path d="M 598.545455 315.4 
L 657.153267 315.4 
Q 659.153267 315.4 659.153267 313.4 
L 659.153267 167.61875 
Q 659.153267 165.61875 657.153267 165.61875 
L 598.545455 165.61875 
Q 596.545455 165.61875 596.545455 167.61875 
L 596.545455 313.4 
Q 596.545455 315.4 598.545455 315.4 
z
" style="fill: #ffffff; opacity: 0.8; stroke: #cccccc; stroke-linejoin: miter"/>
    </g>
    <g id="PathCollection_11">
     <defs>
      <path id="m4e3e18394f" d="M 0 3 
C 0.795609 3 1.55874 2.683901 2.12132 2.12132 
C 2.683901 1.55874 3 0.795609 3 0 
C 3 -0.795609 2.683901 -1.55874 2.12132 -2.12132 
C 1.55874 -2.683901 0.795609 -3 0 -3 
C -0.795609 -3 -1.55874 -2.683901 -2.12132 -2.12132 
C -2.683901 -1.55874 -3 -0.795609 -3 0 
C -3 0.795609 -2.683901 1.55874 -2.12132 2.12132 
C -1.55874 2.683901 -0.795609 3 0 3 
z
" style="stroke: #c7ea75"/>
     </defs>
     <g>
      <use xlink:href="#m4e3e18394f" x="610.545455" y="174.592188" style="fill: #c7ea75; stroke: #c7ea75"/>
     </g>
    </g>
    <g id="text_33">
     <!-- 3 -->
     <g transform="translate(628.545455 177.217188) scale(0.1 -0.1)">
      <use xlink:href="#DejaVuSans-33"/>
     </g>
    </g>
    <g id="PathCollection_12">
     <defs>
      <path id="m8aaa73e05f" d="M 0 3 
C 0.795609 3 1.55874 2.683901 2.12132 2.12132 
C 2.683901 1.55874 3 0.795609 3 0 
C 3 -0.795609 2.683901 -1.55874 2.12132 -2.12132 
C 1.55874 -2.683901 0.795609 -3 0 -3 
C -0.795609 -3 -1.55874 -2.683901 -2.12132 -2.12132 
C -2.683901 -1.55874 -3 -0.795609 -3 0 
C -3 0.795609 -2.683901 1.55874 -2.12132 2.12132 
C -1.55874 2.683901 -0.795609 3 0 3 
z
" style="stroke: #9ad87d"/>
     </defs>
     <g>
      <use xlink:href="#m8aaa73e05f" x="610.545455" y="189.270313" style="fill: #9ad87d; stroke: #9ad87d"/>
     </g>
    </g>
    <g id="text_34">
     <!-- 4 -->
     <g transform="translate(628.545455 191.895313) scale(0.1 -0.1)">
      <use xlink:href="#DejaVuSans-34"/>
     </g>
    </g>
    <g id="PathCollection_13">
     <defs>
      <path id="m2d9b4ce998" d="M 0 3 
C 0.795609 3 1.55874 2.683901 2.12132 2.12132 
C 2.683901 1.55874 3 0.795609 3 0 
C 3 -0.795609 2.683901 -1.55874 2.12132 -2.12132 
C 1.55874 -2.683901 0.795609 -3 0 -3 
C -0.795609 -3 -1.55874 -2.683901 -2.12132 -2.12132 
C -2.683901 -1.55874 -3 -0.795609 -3 0 
C -3 0.795609 -2.683901 1.55874 -2.12132 2.12132 
C -1.55874 2.683901 -0.795609 3 0 3 
z
" style="stroke: #74c582"/>
     </defs>
     <g>
      <use xlink:href="#m2d9b4ce998" x="610.545455" y="203.948438" style="fill: #74c582; stroke: #74c582"/>
     </g>
    </g>
    <g id="text_35">
     <!-- 5 -->
     <g transform="translate(628.545455 206.573438) scale(0.1 -0.1)">
      <use xlink:href="#DejaVuSans-35"/>
     </g>
    </g>
    <g id="PathCollection_14">
     <defs>
      <path id="md9ee996cef" d="M 0 3 
C 0.795609 3 1.55874 2.683901 2.12132 2.12132 
C 2.683901 1.55874 3 0.795609 3 0 
C 3 -0.795609 2.683901 -1.55874 2.12132 -2.12132 
C 1.55874 -2.683901 0.795609 -3 0 -3 
C -0.795609 -3 -1.55874 -2.683901 -2.12132 -2.12132 
C -2.683901 -1.55874 -3 -0.795609 -3 0 
C -3 0.795609 -2.683901 1.55874 -2.12132 2.12132 
C -1.55874 2.683901 -0.795609 3 0 3 
z
" style="stroke: #57b085"/>
     </defs>
     <g>
      <use xlink:href="#md9ee996cef" x="610.545455" y="218.626563" style="fill: #57b085; stroke: #57b085"/>
     </g>
    </g>
    <g id="text_36">
     <!-- 6 -->
     <g transform="translate(628.545455 221.251563) scale(0.1 -0.1)">
      <use xlink:href="#DejaVuSans-36"/>
     </g>
    </g>
    <g id="PathCollection_15">
     <defs>
      <path id="me5112e282b" d="M 0 3 
C 0.795609 3 1.55874 2.683901 2.12132 2.12132 
C 2.683901 1.55874 3 0.795609 3 0 
C 3 -0.795609 2.683901 -1.55874 2.12132 -2.12132 
C 1.55874 -2.683901 0.795609 -3 0 -3 
C -0.795609 -3 -1.55874 -2.683901 -2.12132 -2.12132 
C -2.683901 -1.55874 -3 -0.795609 -3 0 
C -3 0.795609 -2.683901 1.55874 -2.12132 2.12132 
C -1.55874 2.683901 -0.795609 3 0 3 
z
" style="stroke: #419b83"/>
     </defs>
     <g>
      <use xlink:href="#me5112e282b" x="610.545455" y="233.304688" style="fill: #419b83; stroke: #419b83"/>
     </g>
    </g>
    <g id="text_37">
     <!-- 7 -->
     <g transform="translate(628.545455 235.929688) scale(0.1 -0.1)">
      <use xlink:href="#DejaVuSans-37"/>
     </g>
    </g>
    <g id="PathCollection_16">
     <defs>
      <path id="mf2d23a41a5" d="M 0 3 
C 0.795609 3 1.55874 2.683901 2.12132 2.12132 
C 2.683901 1.55874 3 0.795609 3 0 
C 3 -0.795609 2.683901 -1.55874 2.12132 -2.12132 
C 1.55874 -2.683901 0.795609 -3 0 -3 
C -0.795609 -3 -1.55874 -2.683901 -2.12132 -2.12132 
C -2.683901 -1.55874 -3 -0.795609 -3 0 
C -3 0.795609 -2.683901 1.55874 -2.12132 2.12132 
C -1.55874 2.683901 -0.795609 3 0 3 
z
" style="stroke: #38867e"/>
     </defs>
     <g>
      <use xlink:href="#mf2d23a41a5" x="610.545455" y="247.982813" style="fill: #38867e; stroke: #38867e"/>
     </g>
    </g>
    <g id="text_38">
     <!-- 8 -->
     <g transform="translate(628.545455 250.607813) scale(0.1 -0.1)">
      <use xlink:href="#DejaVuSans-38"/>
     </g>
    </g>
    <g id="PathCollection_17">
     <defs>
      <path id="m3801702088" d="M 0 3 
C 0.795609 3 1.55874 2.683901 2.12132 2.12132 
C 2.683901 1.55874 3 0.795609 3 0 
C 3 -0.795609 2.683901 -1.55874 2.12132 -2.12132 
C 1.55874 -2.683901 0.795609 -3 0 -3 
C -0.795609 -3 -1.55874 -2.683901 -2.12132 -2.12132 
C -2.683901 -1.55874 -3 -0.795609 -3 0 
C -3 0.795609 -2.683901 1.55874 -2.12132 2.12132 
C -1.55874 2.683901 -0.795609 3 0 3 
z
" style="stroke: #327174"/>
     </defs>
     <g>
      <use xlink:href="#m3801702088" x="610.545455" y="262.660938" style="fill: #327174; stroke: #327174"/>
     </g>
    </g>
    <g id="text_39">
     <!-- 9 -->
     <g transform="translate(628.545455 265.285938) scale(0.1 -0.1)">
      <use xlink:href="#DejaVuSans-39"/>
     </g>
    </g>
    <g id="PathCollection_18">
     <defs>
      <path id="m8036a4ea8e" d="M 0 3 
C 0.795609 3 1.55874 2.683901 2.12132 2.12132 
C 2.683901 1.55874 3 0.795609 3 0 
C 3 -0.795609 2.683901 -1.55874 2.12132 -2.12132 
C 1.55874 -2.683901 0.795609 -3 0 -3 
C -0.795609 -3 -1.55874 -2.683901 -2.12132 -2.12132 
C -2.683901 -1.55874 -3 -0.795609 -3 0 
C -3 0.795609 -2.683901 1.55874 -2.12132 2.12132 
C -1.55874 2.683901 -0.795609 3 0 3 
z
" style="stroke: #2d5c67"/>
     </defs>
     <g>
      <use xlink:href="#m8036a4ea8e" x="610.545455" y="277.339063" style="fill: #2d5c67; stroke: #2d5c67"/>
     </g>
    </g>
    <g id="text_40">
     <!-- 10 -->
     <g transform="translate(628.545455 279.964063) scale(0.1 -0.1)">
      <use xlink:href="#DejaVuSans-31"/>
      <use xlink:href="#DejaVuSans-30" x="63.623047"/>
     </g>
    </g>
    <g id="PathCollection_19">
     <defs>
      <path id="m642a2c378e" d="M 0 3 
C 0.795609 3 1.55874 2.683901 2.12132 2.12132 
C 2.683901 1.55874 3 0.795609 3 0 
C 3 -0.795609 2.683901 -1.55874 2.12132 -2.12132 
C 1.55874 -2.683901 0.795609 -3 0 -3 
C -0.795609 -3 -1.55874 -2.683901 -2.12132 -2.12132 
C -2.683901 -1.55874 -3 -0.795609 -3 0 
C -3 0.795609 -2.683901 1.55874 -2.12132 2.12132 
C -1.55874 2.683901 -0.795609 3 0 3 
z
" style="stroke: #2a4858"/>
     </defs>
     <g>
      <use xlink:href="#m642a2c378e" x="610.545455" y="292.017188" style="fill: #2a4858; stroke: #2a4858"/>
     </g>
    </g>
    <g id="text_41">
     <!-- 11 -->
     <g transform="translate(628.545455 294.642188) scale(0.1 -0.1)">
      <use xlink:href="#DejaVuSans-31"/>
      <use xlink:href="#DejaVuSans-31" x="63.623047"/>
     </g>
    </g>
    <g id="line2d_94">
     <path d="M 600.545455 305.820312 
L 610.545455 305.820312 
L 620.545455 305.820312 
" style="fill: none; stroke: #808080; stroke-width: 0.5; stroke-linecap: square"/>
    </g>
    <g id="text_42">
     <!-- slope -->
     <g transform="translate(628.545455 309.320312) scale(0.1 -0.1)">
      <use xlink:href="#DejaVuSans-73"/>
      <use xlink:href="#DejaVuSans-6c" x="52.099609"/>
      <use xlink:href="#DejaVuSans-6f" x="79.882812"/>
      <use xlink:href="#DejaVuSans-70" x="141.064453"/>
      <use xlink:href="#DejaVuSans-65" x="204.541016"/>
     </g>
    </g>
   </g>
  </g>
 </g>
 <defs>
  <clipPath id="p8ddc449313">
   <rect x="135" y="43.2" width="380.454545" height="277.2"/>
  </clipPath>
  <clipPath id="p08af604952">
   <rect x="591.545455" y="43.2" width="380.454545" height="277.2"/>
  </clipPath>
 </defs>
</svg>
